<svg id="Layer_1" data-name="Layer 1" xmlns="http://www.w3.org/2000/svg" viewBox="0 0 62.602 77.531">
  <defs>
    <style>
      .cls-1 {
        fill: #fff;
      }
    </style>
  </defs>
  <title>8eaa5481-d272-4697-a7e8-03665407deef</title>
  <g>
    <path class="cls-1" d="M31.409,17.818S30.087,2.861,46.474,0C46.474,0,47.038,17.3,31.409,17.818Z"/>
    <path class="cls-1" d="M60.391,26.533s-8.064,4.292-8.064,15.347c0,0-.65,9.755,10.275,15.347,0,0-7.929,20.29-16.125,20.29,0,0-4.426.26-7.547-1.691,0,0-8.063-3.121-12.876.39A20.288,20.288,0,0,1,20.2,77.528s-6.373.379-10.665-7.685c0,0-10.275-14.437-9.495-29,0,0,.393-19.25,15.868-21.59a20.746,20.746,0,0,1,11.659,1.979s2.778,2.7,9.541-.548C37.11,20.68,49.986,13.4,60.391,26.533Z"/>
  </g>
</svg>
