<?xml version="1.0" encoding="utf-8"?>
<!-- Generator: Adobe Illustrator 23.0.1, SVG Export Plug-In . SVG Version: 6.00 Build 0)  -->
<svg version="1.1" id="Layer_1" xmlns="http://www.w3.org/2000/svg" xmlns:xlink="http://www.w3.org/1999/xlink" x="0px" y="0px"
	 viewBox="0 0 175.6 175.6" style="enable-background:new 0 0 175.6 175.6;" xml:space="preserve">
<style type="text/css">
	.st0{fill:#DE1A25;}
	.st1{opacity:0.29;fill:#DE1A25;enable-background:new    ;}
</style>
<title>card</title>
<path class="st0" d="M161.1,135.9c-0.1,0-0.2,0-0.3-0.1c-0.2-0.1-0.3-0.4-0.1-0.7c26.1-40.2,14.7-94-25.6-120.1
	C103.6-5.5,62.6-3.4,33.3,20.2c-0.2,0.1-0.5,0.1-0.7-0.1c0,0,0,0,0,0c-0.1-0.2-0.1-0.4,0.1-0.6C70.5-11,125.8-5,156.2,32.7
	c23.8,29.6,25.9,71.1,5.3,102.9C161.4,135.8,161.2,135.9,161.1,135.9z"/>
<path class="st0" d="M87.8,175.6C39.3,175.6,0,136.3,0,87.8c0-20.1,6.9-39.6,19.6-55.2c0.2-0.2,0.5-0.2,0.7-0.1l0,0
	c0.2,0.2,0.2,0.5,0.1,0.7c0,0,0,0,0,0l0,0c-30.2,37.3-24.4,92,12.9,122.2c15.5,12.5,34.8,19.4,54.7,19.3c19.7,0.1,38.9-6.6,54.2-19
	c0.2-0.2,0.5-0.1,0.7,0.1c0.2,0.2,0.1,0.5-0.1,0.7l0,0C127.1,168.9,107.8,175.7,87.8,175.6z"/>
<path class="st0" d="M30.7,25.1c-1.9,0-3.4-1.6-3.4-3.4c0-1.5,1-2.8,2.4-3.2c1.8-0.5,3.6,0.5,4.2,2.3c0.5,1.8-0.5,3.7-2.3,4.2
	C31.4,25.1,31.1,25.1,30.7,25.1z M30.7,19.3c-0.2,0-0.5,0-0.7,0.1c-1.3,0.4-2,1.7-1.7,3c0,0,0,0,0,0l0,0c0.2,0.6,0.6,1.1,1.1,1.5
	c0.6,0.3,1.2,0.4,1.9,0.2c1.3-0.4,2-1.7,1.6-3C32.7,20,31.8,19.3,30.7,19.3z"/>
<path class="st0" d="M30.5,36.4c-1.9,0.1-3.5-1.5-3.6-3.4c-0.1-1.9,1.5-3.5,3.4-3.6c1.9-0.1,3.5,1.5,3.6,3.4c0,1.6-0.9,3-2.4,3.4
	C31.1,36.3,30.8,36.4,30.5,36.4z M30.5,30.6c-0.2,0-0.5,0-0.7,0.1c-1.3,0.4-2,1.7-1.7,3l0,0c0.4,1.3,1.7,2,3,1.7c0,0,0,0,0,0
	c1.3-0.4,2-1.7,1.6-3C32.5,31.3,31.5,30.6,30.5,30.6L30.5,30.6z"/>
<path class="st0" d="M144.6,149.4c-1.9,0.1-3.5-1.5-3.6-3.4c-0.1-1.9,1.5-3.5,3.4-3.6c1.9-0.1,3.5,1.5,3.6,3.4c0,1.6-0.9,3-2.4,3.4
	C145.2,149.3,144.9,149.4,144.6,149.4z M144.6,143.6c-0.2,0-0.5,0-0.7,0.1c-1.3,0.4-2,1.7-1.7,3c0,0,0,0,0,0l0,0
	c0.4,1.3,1.7,2,3,1.7c0,0,0,0,0,0c1.3-0.4,2-1.7,1.6-3C146.6,144.3,145.6,143.6,144.6,143.6L144.6,143.6z"/>
<path class="st0" d="M159.7,141.4c-1.9,0-3.4-1.5-3.4-3.4c0-1.9,1.5-3.4,3.4-3.4c1.9,0,3.4,1.5,3.4,3.4c0,1.5-1,2.8-2.4,3.2l0,0
	C160.3,141.3,160,141.4,159.7,141.4z M159.7,135.6c-0.2,0-0.5,0-0.7,0.1c-0.6,0.2-1.1,0.6-1.4,1.1c-0.3,0.6-0.4,1.2-0.2,1.9
	c0.4,1.3,1.7,2,3,1.7c1.3-0.4,2-1.7,1.7-3C161.7,136.3,160.8,135.6,159.7,135.6z"/>
<path class="st0" d="M112.1,58.3c-1.9,0-3.4-1.5-3.4-3.4c0-1.9,1.5-3.4,3.4-3.4c1.9,0,3.4,1.5,3.4,3.4c0,1.5-1,2.8-2.5,3.2l0,0
	C112.8,58.2,112.5,58.3,112.1,58.3z M112.1,52.5c-0.2,0-0.5,0-0.7,0.1c-1.3,0.4-2.1,1.7-1.7,3s1.7,2.1,3,1.7c1.3-0.4,2.1-1.7,1.7-3
	C114.2,53.2,113.2,52.5,112.1,52.5z"/>
<path class="st0" d="M68.3,131.8c-1.9,0-3.4-1.5-3.4-3.4c0-1.9,1.5-3.4,3.4-3.4c1.9,0,3.4,1.5,3.4,3.4c0,1.5-1,2.8-2.5,3.2l0,0
	C68.9,131.7,68.6,131.7,68.3,131.8z M68.3,125.9c-0.2,0-0.5,0-0.7,0.1c-1.3,0.4-2,1.7-1.7,3c0.4,1.3,1.7,2,3,1.7
	c1.3-0.4,2-1.7,1.7-3C70.3,126.6,69.4,125.9,68.3,125.9z"/>
<path class="st0" d="M108.7,71.8c-1.9,0-3.4-1.5-3.4-3.4c0-1.9,1.5-3.4,3.4-3.4c1.9,0,3.4,1.5,3.4,3.4c0,1.5-1,2.8-2.4,3.2l0,0
	C109.4,71.7,109.1,71.7,108.7,71.8z M108.7,65.9c-0.2,0-0.5,0-0.7,0.1c-0.6,0.2-1.1,0.6-1.4,1.2c-0.3,0.6-0.4,1.2-0.2,1.8
	c0.4,1.3,1.7,2,3,1.7c1.3-0.4,2-1.7,1.7-3C110.8,66.6,109.8,65.9,108.7,65.9z"/>
<path class="st0" d="M123.1,82.4c-1.9,0-3.4-1.5-3.4-3.4c0-1.9,1.5-3.4,3.4-3.4c1.9,0,3.4,1.5,3.4,3.4c0,1.5-1,2.8-2.4,3.2l0,0
	C123.7,82.4,123.4,82.4,123.1,82.4z M123.1,76.6c-0.2,0-0.5,0-0.7,0.1c-0.6,0.2-1.1,0.6-1.4,1.2c-0.3,0.6-0.4,1.2-0.2,1.8
	c0.4,1.3,1.7,2,3,1.7c1.3-0.4,2-1.7,1.7-3C125.1,77.3,124.2,76.6,123.1,76.6L123.1,76.6z"/>
<rect x="86.6" y="11.9" transform="matrix(0.7071 -0.7071 0.7071 0.7071 -37.8577 87.8476)" class="st0" width="1" height="155.4"/>
<path class="st0" d="M58.9,129H37.3c-4.1,0-7.5-3.4-7.5-7.5V61.8c0-4.1,3.4-7.5,7.5-7.5h71.8v1H37.3c-3.6,0-6.5,2.9-6.5,6.5v59.8
	c0,3.6,2.9,6.5,6.5,6.5h21.6V129z"/>
<path class="st0" d="M143.3,129H71.1v-1h72.2c3.6,0,6.5-2.9,6.5-6.5V61.8c0-3.6-2.9-6.5-6.5-6.5H126v-1h17.3c4.1,0,7.5,3.4,7.5,7.5
	v59.8C150.8,125.7,147.4,129,143.3,129z"/>
<path class="st0" d="M150,69.4h-38.5c-0.3,0-0.5-0.2-0.5-0.5s0.2-0.5,0.5-0.5H150c0.3,0,0.5,0.2,0.5,0.5S150.3,69.4,150,69.4z"/>
<path class="st0" d="M97.7,69.4H30.6c-0.3,0-0.5-0.2-0.5-0.5s0.2-0.5,0.5-0.5h67.1c0.3,0,0.5,0.2,0.5,0.5S98,69.4,97.7,69.4z"/>
<path class="st0" d="M150,79.7h-17c-0.3,0-0.5-0.2-0.5-0.5s0.2-0.5,0.5-0.5h17c0.3,0,0.5,0.2,0.5,0.5S150.3,79.7,150,79.7z"/>
<path class="st0" d="M120.1,79.7H30.3c-0.3,0-0.5-0.2-0.5-0.5s0.2-0.5,0.5-0.5h89.8c0.3,0,0.5,0.2,0.5,0.5S120.4,79.7,120.1,79.7z"
	/>
<path class="st0" d="M91.1,94.8H36.2c-1.1,0-1.9-0.9-1.9-1.9v-7.5c0-1.1,0.9-1.9,1.9-1.9h54.9c1.1,0,1.9,0.9,1.9,1.9v7.5
	C93.1,94,92.2,94.8,91.1,94.8z M36.2,84.5c-0.5,0-0.9,0.4-0.9,0.9v7.5c0,0.5,0.4,0.9,0.9,0.9h54.9c0.5,0,0.9-0.4,0.9-0.9v-7.5
	c0-0.5-0.4-0.9-0.9-0.9H36.2z"/>
<path class="st1" d="M143.3,54.8h-106c-3.9,0-7,3.1-7,7v59.8c0,3.9,3.1,7,7,7h106c3.9,0,7-3.1,7-7V61.8
	C150.3,57.9,147.2,54.8,143.3,54.8z M92.6,92.9c0,0.8-0.6,1.4-1.4,1.4c0,0,0,0,0,0H36.2c-0.8,0-1.4-0.6-1.4-1.4l0,0v-7.5
	c0-0.8,0.7-1.4,1.4-1.4h54.9c0.8,0,1.4,0.6,1.4,1.4L92.6,92.9z"/>
</svg>
