<?xml version="1.0" encoding="utf-8"?>
<!-- Generator: Adobe Illustrator 23.0.1, SVG Export Plug-In . SVG Version: 6.00 Build 0)  -->
<svg version="1.1" id="Layer_1" xmlns="http://www.w3.org/2000/svg" xmlns:xlink="http://www.w3.org/1999/xlink" x="0px" y="0px"
	 viewBox="0 0 175.6 175.6" style="enable-background:new 0 0 175.6 175.6;" xml:space="preserve">
<style type="text/css">
	.st0{opacity:0.64;fill:url(#SVGID_1_);}
	.st1{fill:#FFFFFF;}
	.st2{fill:url(#SVGID_2_);}
</style>
<linearGradient id="SVGID_1_" gradientUnits="userSpaceOnUse" x1="27.8519" y1="88.6669" x2="147.8519" y2="88.6669">
	<stop  offset="0" style="stop-color:#FB14D5"/>
	<stop  offset="1" style="stop-color:#E2414F"/>
</linearGradient>
<path class="st0" d="M140.9,51.8h-106c-3.9,0-7,3.1-7,7v59.8c0,3.9,3.1,7,7,7h106c3.9,0,7-3.1,7-7V58.8
	C147.9,54.9,144.8,51.8,140.9,51.8z M90.2,89.9c0,0.8-0.6,1.4-1.4,1.4l0,0h-55c-0.8,0-1.4-0.6-1.4-1.4l0,0v-7.5
	c0-0.8,0.7-1.4,1.4-1.4h54.9c0.8,0,1.4,0.6,1.4,1.4L90.2,89.9z"/>
<rect x="27.9" y="63.3" class="st1" width="119.9" height="11.3"/>
<title>card</title>
<linearGradient id="SVGID_2_" gradientUnits="userSpaceOnUse" x1="33.4427" y1="154.7592" x2="143.0314" y2="22.5749">
	<stop  offset="0" style="stop-color:#FB14D5"/>
	<stop  offset="1" style="stop-color:#E2414F"/>
</linearGradient>
<path class="st2" d="M88.2,2.8C40.9,2.8,2.3,41.3,2.3,88.7s38.5,85.9,85.9,85.9s85.9-38.5,85.9-85.9S135.6,2.8,88.2,2.8z
	 M166.1,88.7c0,17.3-5.6,33.2-15.2,46.1L42.1,26C55,16.4,71,10.8,88.2,10.8C131.2,10.8,166.1,45.7,166.1,88.7z M88.2,166.6
	c-42.9,0-77.9-34.9-77.9-77.9c0-22.4,9.6-42.7,24.8-56.9l110,110C130.9,157,110.7,166.6,88.2,166.6z"/>
</svg>
