<?xml version="1.0" encoding="utf-8"?>
<!-- Generator: Adobe Illustrator 23.0.1, SVG Export Plug-In . SVG Version: 6.00 Build 0)  -->
<svg version="1.1" id="Layer_1" xmlns="http://www.w3.org/2000/svg" xmlns:xlink="http://www.w3.org/1999/xlink" x="0px" y="0px"
	 viewBox="0 0 175.6 175.6" style="enable-background:new 0 0 175.6 175.6;" xml:space="preserve">
<style type="text/css">
	.st0{fill:#666666;}
</style>
<title>lock</title>
<path class="st0" d="M87.9,5.3C42.4,5.3,5.5,42.2,5.5,87.8s36.9,82.4,82.4,82.4s82.4-36.9,82.4-82.4S133.4,5.3,87.9,5.3z M54.5,40.8
	h66.9c5.4,0,10.3,1.7,14.4,4.7L86.3,91.9L39,46.2C43.3,42.8,48.6,40.8,54.5,40.8z M145.9,110.2c0,13.5-11,24.6-24.6,24.6H54.5
	c-13.6,0-24.6-11.1-24.6-24.6V65.4c-0.1-6.6,2.5-12.6,6.8-17l48.5,46.8c0.3,0.3,0.7,0.5,1.1,0.5c0.4,0,0.8-0.1,1.1-0.4l50.8-47.7
	c4.8,4.5,7.7,10.9,7.7,17.8V110.2z"/>
</svg>
