<?xml version="1.0" encoding="utf-8"?>
<!-- Generator: Adobe Illustrator 23.0.1, SVG Export Plug-In . SVG Version: 6.00 Build 0)  -->
<svg version="1.1" id="Layer_1" xmlns="http://www.w3.org/2000/svg" xmlns:xlink="http://www.w3.org/1999/xlink" x="0px" y="0px"
	 viewBox="0 0 175.6 175.6" style="enable-background:new 0 0 175.6 175.6;" xml:space="preserve">
<style type="text/css">
	.st0{opacity:0.17;fill:#FFFFFF;enable-background:new    ;}
	.st1{fill:#FFFFFF;stroke:#FFFFFF;stroke-width:2;stroke-miterlimit:10;}
	.st2{fill:#FFFFFF;stroke:#FFFFFF;stroke-miterlimit:10;}
	.st3{fill:none;stroke:#FFFFFF;stroke-width:3;stroke-linecap:round;stroke-linejoin:round;stroke-miterlimit:10;}
</style>
<title>lock</title>
<g>
	<path class="st0" d="M120.3,133.9h-62c-12.6,0-22.8-10.3-22.8-22.8V69.6C35.4,57,45.7,46.8,58.3,46.8h62
		c12.6,0,22.8,10.3,22.8,22.8v41.5C143.1,123.6,132.9,133.9,120.3,133.9z"/>
	<path class="st1" d="M152,130.1c-0.1,0-0.2,0-0.2-0.1c-0.2-0.1-0.2-0.4-0.1-0.6c22.9-35.3,12.9-82.6-22.4-105.5
		C101.6,6,65.5,7.8,39.9,28.5c-0.2,0.1-0.5,0.1-0.6-0.1s-0.1-0.4,0.1-0.5C72.5,1.1,121.1,6.4,147.8,39.5c20.9,26,22.8,62.4,4.6,90.4
		C152.3,130,152.2,130.1,152,130.1z"/>
	<path class="st1" d="M87.7,165c-42.6,0-77.1-34.5-77.1-77.1c0-17.7,6.1-34.8,17.2-48.5c0.1-0.2,0.4-0.2,0.6-0.1l0,0
		c0.2,0.2,0.2,0.4,0.1,0.6l0,0C2,72.6,7,120.6,39.8,147.1c13.6,11,30.5,17,48,17c17.3,0.1,34.1-5.8,47.6-16.7
		c0.2-0.1,0.5-0.1,0.6,0.1c0.1,0.2,0.1,0.4-0.1,0.6l0,0C122.2,159.1,105.2,165,87.7,165z"/>
	<path class="st2" d="M37.4,33.5c-1.6,0-3-1.4-3-3c0-1.3,0.9-2.5,2.1-2.8c0.8-0.2,1.6-0.1,2.3,0.3s1.2,1,1.4,1.8
		c0.5,1.6-0.5,3.2-2,3.7C38,33.4,37.7,33.5,37.4,33.5z M37.4,28.3c-0.2,0-0.4,0-0.6,0.1c-1.1,0.3-1.8,1.5-1.5,2.6l0,0
		c0.1,0.5,0.5,1,1,1.3s1.1,0.3,1.6,0.2c1.1-0.3,1.8-1.5,1.4-2.7C39.2,29,38.4,28.4,37.4,28.3z"/>
	<path class="st2" d="M72.9,50.2c-1.6,0-3-1.4-3-3c0-1.3,0.9-2.5,2.1-2.8c0.8-0.2,1.6-0.1,2.3,0.3c0.7,0.4,1.2,1,1.4,1.8
		c0.5,1.6-0.5,3.2-2,3.7C73.4,50.2,73.1,50.2,72.9,50.2z M72.9,45.1c-0.2,0-0.4,0-0.6,0.1c-1.1,0.3-1.8,1.5-1.5,2.6l0,0
		c0.1,0.5,0.5,1,1,1.3s1.1,0.3,1.6,0.2c1.1-0.3,1.8-1.5,1.4-2.7C74.6,45.7,73.8,45.1,72.9,45.1z"/>
	<path class="st2" d="M113.2,78.6c-1.6,0-3-1.4-3-3c0-1.3,0.9-2.5,2.1-2.8c0.8-0.2,1.6-0.1,2.3,0.3c0.7,0.4,1.2,1,1.4,1.8
		c0.5,1.6-0.5,3.2-2,3.7C113.7,78.6,113.5,78.6,113.2,78.6z M113.2,73.5c-0.2,0-0.4,0-0.6,0.1c-1.1,0.3-1.8,1.5-1.5,2.6l0,0
		c0.1,0.5,0.5,1,1,1.3s1.1,0.3,1.6,0.2c1.1-0.3,1.8-1.5,1.4-2.7C114.9,74.2,114.1,73.5,113.2,73.5z"/>
	<path class="st2" d="M150.8,134.9c-1.6,0-3-1.3-2.9-3c0-1.6,1.3-3,3-2.9c1.6,0,3,1.3,2.9,3c0,1.3-0.9,2.5-2.1,2.8l0,0
		C151.4,134.9,151.1,134.9,150.8,134.9z M150.8,129.8c-0.2,0-0.4,0-0.6,0.1c-0.5,0.2-1,0.5-1.3,1s-0.3,1.1-0.2,1.6
		c0.3,1.1,1.5,1.8,2.6,1.5s1.8-1.5,1.5-2.6C152.6,130.4,151.8,129.8,150.8,129.8z"/>
	<path class="st3" d="M79.8,47h40.5c12.5,0,22.8,10.3,22.8,22.8v40.6c0,12.5-10.3,22.8-22.8,22.8H58.2c-12.5,0-22.8-10.3-22.8-22.8
		V69.8C35.4,57.3,45.7,47,58.2,47h11.5"/>
	<line class="st3" x1="118" y1="71.6" x2="136.1" y2="54.3"/>
	<polyline class="st3" points="43,53.3 89.3,98.3 111,77.9 	"/>
</g>
</svg>
