<?xml version="1.0" encoding="utf-8"?>
<!-- Generator: Adobe Illustrator 21.0.0, SVG Export Plug-In . SVG Version: 6.00 Build 0)  -->
<svg version="1.1" id="Layer_1" xmlns="http://www.w3.org/2000/svg" xmlns:xlink="http://www.w3.org/1999/xlink" x="0px" y="0px"
	 viewBox="0 0 300 300" style="enable-background:new 0 0 300 300;" xml:space="preserve">
<style type="text/css">
	.st0{fill:#FFFFFF;}
</style>
<g>
	<path class="st0" d="M150.5,290.8c-77.4,0-140.3-62.9-140.3-140.3S73.1,10.2,150.5,10.2s140.3,62.9,140.3,140.3
		S227.9,290.8,150.5,290.8z M150.5,33.2c-64.7,0-117.3,52.6-117.3,117.3s52.6,117.3,117.3,117.3c64.7,0,117.3-52.6,117.3-117.3
		S215.2,33.2,150.5,33.2z"/>
	<g>
		<path class="st0" d="M156.6,226.8h22.7v-58.9h20l3.1-23.9h-22.5v-19.2c0,0,0.2-6.5,8.4-6.5h14.1V97.4h-23.7c0,0-9.6,0-15.7,5.9
			c-3.2,3.1-7.2,7.6-7.2,16.4c0,6.3,0,24.5,0,24.5h-20v23.3h20.4L156.6,226.8z"/>
		<path class="st0" d="M213.6,229.5H87.4c-8.8,0-15.9-7.1-15.9-15.9V87.4c0-8.8,7.1-15.9,15.9-15.9h126.3c8.8,0,15.9,7.1,15.9,15.9
			v126.3C229.5,222.4,222.4,229.5,213.6,229.5z M87.4,77C81.6,77,77,81.6,77,87.4v126.3c0,5.7,4.7,10.4,10.4,10.4h126.3
			c5.7,0,10.4-4.7,10.4-10.4V87.4c0-5.7-4.7-10.4-10.4-10.4H87.4z"/>
	</g>
</g>
</svg>
