<?xml version="1.0" encoding="utf-8"?>
<!-- Generator: Adobe Illustrator 23.0.1, SVG Export Plug-In . SVG Version: 6.00 Build 0)  -->
<svg version="1.1" id="Layer_1" xmlns="http://www.w3.org/2000/svg" xmlns:xlink="http://www.w3.org/1999/xlink" x="0px" y="0px"
	 viewBox="0 0 175.6 175.6" style="enable-background:new 0 0 175.6 175.6;" xml:space="preserve">
<style type="text/css">
	.st0{fill:#DE1A25;}
	.st1{fill:#569DF6;}
	.st2{opacity:0.17;fill:#DE1A25;stroke:#DE1A25;stroke-width:8;stroke-miterlimit:10;enable-background:new    ;}
</style>
<title>free_forever</title>
<path class="st0" d="M161.1,135.9c-0.1,0-0.2,0-0.3-0.1c-0.2-0.1-0.3-0.4-0.1-0.7c26.1-40.2,14.7-94-25.6-120.1
	C103.6-5.5,62.6-3.4,33.3,20.2c-0.2,0.1-0.5,0.1-0.7-0.1c0,0,0,0,0,0c-0.1-0.2-0.1-0.4,0.1-0.6C70.5-11,125.8-5,156.2,32.7
	c23.8,29.6,25.9,71.1,5.3,102.9C161.4,135.8,161.2,135.9,161.1,135.9z"/>
<path class="st0" d="M87.8,175.6C39.3,175.6,0,136.3,0,87.8c0-20.1,6.9-39.6,19.6-55.2c0.2-0.2,0.5-0.2,0.7-0.1l0,0
	c0.2,0.2,0.2,0.5,0.1,0.7c0,0,0,0,0,0l0,0c-30.2,37.3-24.4,92,12.9,122.2c15.5,12.5,34.8,19.4,54.7,19.3c19.7,0.1,38.9-6.6,54.2-19
	c0.2-0.2,0.5-0.1,0.7,0.1c0.2,0.2,0.1,0.5-0.1,0.7l0,0C127.1,168.9,107.8,175.7,87.8,175.6z"/>
<path class="st0" d="M30.7,25.1c-1.9,0-3.4-1.6-3.4-3.4c0-1.5,1-2.8,2.4-3.2c1.8-0.5,3.6,0.5,4.2,2.3c0.5,1.8-0.5,3.7-2.3,4.2
	C31.4,25.1,31.1,25.1,30.7,25.1z M30.7,19.3c-0.2,0-0.5,0-0.7,0.1c-1.3,0.4-2,1.7-1.7,3c0,0,0,0,0,0l0,0c0.2,0.6,0.6,1.1,1.1,1.5
	c0.6,0.3,1.2,0.4,1.9,0.2c1.3-0.4,2-1.7,1.6-3C32.7,20,31.8,19.3,30.7,19.3z"/>
<path class="st1" d="M159.7,141.4c-1.9,0-3.4-1.5-3.4-3.4c0-1.9,1.5-3.4,3.4-3.4c1.9,0,3.4,1.5,3.4,3.4c0,1.5-1,2.8-2.4,3.2l0,0
	C160.3,141.3,160,141.4,159.7,141.4z M159.7,135.6c-0.2,0-0.5,0-0.7,0.1c-0.6,0.2-1.1,0.6-1.4,1.1c-0.3,0.6-0.4,1.2-0.2,1.9
	c0.4,1.3,1.7,2,3,1.7c1.3-0.4,2-1.7,1.7-3C161.7,136.3,160.8,135.6,159.7,135.6z"/>
<path class="st0" d="M80.4,110.4c-1.9,0-3.4-1.6-3.4-3.4c0-1.9,1.6-3.4,3.4-3.4c1.9,0,3.4,1.6,3.4,3.4c0,1.5-1,2.8-2.4,3.2l0,0
	C81.1,110.4,80.8,110.4,80.4,110.4z M80.4,104.6c-0.2,0-0.4,0-0.7,0.1c-1.3,0.4-2,1.7-1.7,3c0.4,1.3,1.7,2,3,1.7l0,0l0,0
	c0.6-0.2,1.1-0.6,1.5-1.2c0.3-0.6,0.4-1.2,0.2-1.8C82.5,105.3,81.5,104.5,80.4,104.6L80.4,104.6z"/>
<path class="st0" d="M94.4,124.6c-1.9,0-3.4-1.5-3.4-3.4c0-1.9,1.5-3.4,3.4-3.4c1.9,0,3.4,1.5,3.4,3.4c0,1.5-1,2.8-2.4,3.2l0,0
	C95.1,124.6,94.8,124.6,94.4,124.6z M94.4,118.8c-0.2,0-0.4,0-0.7,0.1c-1.3,0.4-2,1.7-1.7,3s1.7,2,3,1.7l0,0
	c0.6-0.2,1.1-0.6,1.5-1.2c0.3-0.6,0.4-1.2,0.2-1.8C96.5,119.5,95.5,118.8,94.4,118.8L94.4,118.8z"/>
<path class="st0" d="M42.9,76.8V48.3h18.5v1.8H45v11.3h14v1.8H45v13.6H42.9z"/>
<path class="st0" d="M66.8,76.8V48.3h11.8c1.2,0,2.3,0.2,3.3,0.8c1,0.5,1.9,1.2,2.6,2c0.7,0.8,1.3,1.8,1.7,2.8
	c0.4,1,0.6,2.1,0.6,3.2c0,1-0.2,2-0.5,3c-0.3,0.9-0.8,1.8-1.4,2.6c-0.6,0.8-1.3,1.4-2.1,1.9c-0.8,0.5-1.8,0.8-2.7,1l7.1,11.1H85
	L78.1,66h-9.2v10.8H66.8z M68.8,64.1h10c0.9,0,1.7-0.2,2.5-0.6c0.8-0.4,1.4-0.9,2-1.5c0.5-0.7,1-1.4,1.2-2.3
	c0.3-0.8,0.4-1.7,0.4-2.6c0-0.9-0.2-1.8-0.5-2.6c-0.3-0.8-0.8-1.6-1.4-2.3c-0.6-0.6-1.2-1.2-2-1.5c-0.8-0.4-1.6-0.6-2.5-0.6h-9.7
	L68.8,64.1z"/>
<path class="st0" d="M111.8,74.9v1.8h-19V48.3h18.6v1.8H94.9v11.2h14.5v1.8H94.9v11.8H111.8z"/>
<path class="st0" d="M136.3,74.9v1.8h-19V48.3H136v1.8h-16.6v11.2h14.5v1.8h-14.5v11.8H136.3z"/>
<path class="st2" d="M116.9,138.5c-13.8,0-25.1-14.3-25.6-14.9c-1.4-1.7-1.2-4.2,0.5-5.6c1.7-1.4,4.2-1.2,5.6,0.5
	c0.1,0.1,0.1,0.2,0.2,0.3c0.1,0.1,9.4,11.8,19.3,11.8c8.7,0.2,16-6.7,16.1-15.5c0-0.2,0-0.5,0-0.7c0-8.8-7.8-16.8-16.4-16.8
	c-6.3,0-19.6,11.6-26.9,19.8c-1.8,2.1-18.7,21.1-31,21.1c-13.1-0.1-23.7-10.8-23.7-23.9C35,102,43.8,89,58.6,89
	c13.8,0,25,15.3,25.5,15.9c1.3,1.8,0.9,4.3-0.9,5.6s-4.3,0.9-5.6-0.9l0,0l0,0C75,106,66.7,97,58.6,97c-9.8,0-15.6,9-15.6,17.6
	c-0.1,8.7,6.9,15.8,15.7,15.9c6.6,0,18.8-11.3,25-18.4c3.4-3.8,20.8-22.6,32.9-22.6c13,0,24.4,11.6,24.4,24.8
	C141,128.1,130.6,138.5,116.9,138.5z"/>
<path class="st0" d="M116.8,135.2c-12.2,0-20.8-11.3-20.9-11.5c-0.2-0.2-0.1-0.5,0.1-0.7c0.2-0.2,0.5-0.1,0.7,0.1
	c0.1,0.1,8.5,11.1,20.1,11.1c11.2,0,19.7-8.5,19.7-19.7c0-10.6-9.5-20.3-19.9-20.3c-10.6,0-29.3,20.8-29.5,21
	c-0.7,0.8-17.4,19.9-28.4,19.9l-0.2,0c-11.1-0.1-20.1-9.3-20-20.4c0-10.9,7.5-22.1,20.1-22.1c12.1,0,20.3,11.6,20.4,11.7
	c0.2,0.2,0.1,0.5-0.1,0.7s-0.5,0.1-0.7-0.1c-0.1-0.1-8-11.3-19.6-11.3c-11.9,0-19.1,10.7-19.1,21.1c-0.1,10.6,8.4,19.3,19,19.4
	l0.2,0c10.5,0,27.4-19.4,27.6-19.6c0.8-0.9,19.3-21.4,30.3-21.4c11.1,0,20.9,9.9,20.9,21.3C137.5,126.3,128.6,135.2,116.8,135.2z"/>
</svg>
