<?xml version="1.0" encoding="utf-8"?>
<!-- Generator: Adobe Illustrator 23.0.1, SVG Export Plug-In . SVG Version: 6.00 Build 0)  -->
<svg version="1.1" id="Layer_1" xmlns="http://www.w3.org/2000/svg" xmlns:xlink="http://www.w3.org/1999/xlink" x="0px" y="0px"
	 viewBox="0 0 456.3 285.4" style="enable-background:new 0 0 456.3 285.4;" xml:space="preserve">
<style type="text/css">
	.st0{opacity:0.6;}
	.st1{fill:url(#SVGID_1_);}
	.st2{opacity:0.8;}
	.st3{fill:url(#SVGID_2_);}
	.st4{fill:url(#SVGID_3_);}
	.st5{fill:url(#SVGID_4_);enable-background:new    ;}
	.st6{fill:url(#SVGID_5_);}
	.st7{opacity:0.44;fill:url(#SVGID_6_);enable-background:new    ;}
	.st8{opacity:0.44;fill:url(#SVGID_7_);enable-background:new    ;}
</style>
<title>gears</title>
<g class="st0">
	<linearGradient id="SVGID_1_" gradientUnits="userSpaceOnUse" x1="203.0409" y1="104.4538" x2="226.152" y2="45.7872">
		<stop  offset="0" style="stop-color:#FA16D0"/>
		<stop  offset="1" style="stop-color:#E63B62"/>
	</linearGradient>
	<path class="st1" d="M261.5,74c0.1-1.8,0.1-3.6,0-5.4l1.8-1.1l7.8-2.2l-0.8-5.3l-8.1,0.4l-2-0.7c-0.5-2-1.2-4-1.9-5.9l1.4-1.6
		l6.7-4.6l-2.5-4.7l-7.5,3h-2.2c-0.8-1.2-1.6-2.3-2.5-3.4l0.8-1.9l5.1-6.3l-3.7-3.8l-6.3,5l-2.1,0.6c-1.4-1.1-2.8-2.2-4.3-3.2l0.2-2
		l2.9-7.6l-4.7-2.5l-4.5,6.7l-1.8,1.2c-2.1-0.9-4.3-1.6-6.6-2.1l-0.5-2l0.2-8.1l-5.3-0.7l-1.9,7.9l-1.3,1.8c-1.5-0.1-3.1,0-4.6,0
		l-1.1-1.7L210,16l-5.3,0.8l0.5,8.1l-0.7,2c-1.9,0.5-3.8,1.1-5.6,1.9l-1.6-1.3l-4.6-6.7l-4.7,2.5l3,7.5V33c-1.6,1.1-3.2,2.3-4.7,3.5
		l-1.9-0.7l-6.5-4.9l-3.7,3.9l5.3,6.1l0.7,2.1c-1.1,1.4-2.1,2.9-3,4.4l-2-0.1l-7.7-2.6l-2.3,4.8l6.9,4.2l1.3,1.8
		c-0.5,1.3-0.9,2.6-1.3,4l-2,0.5l-8.1-0.4l-0.8,5.3L169,67l1.7,1.3c-0.1,1.8-0.1,3.6,0,5.4l-1.8,1.1l-7.8,2.2l0.8,5.3l8.1-0.4
		l2.1,0.7c0.5,2,1.2,4,1.9,5.9l-1.3,1.6l-6.7,4.6l2.5,4.7l7.5-3h2.2c0.8,1.2,1.6,2.3,2.5,3.4l-0.8,1.9l-5.1,6.3l3.7,3.8l6.3-5
		l2.1-0.6c1.4,1.1,2.8,2.2,4.3,3.2l-0.2,2l-2.9,7.6l4.7,2.5l4.5-6.7l1.8-1.2c2.1,0.9,4.3,1.6,6.6,2.1l0.5,2l-0.2,8.1l5.3,0.7
		l1.9-7.9l1.3-1.8c1.5,0.1,3.1,0,4.6,0l1.1,1.7l2.2,7.8l5.3-0.8l-0.5-8.1l0.7-2c1.9-0.5,3.8-1.1,5.6-1.9l1.6,1.3l4.6,6.7l4.7-2.5
		l-3-7.5v-2.2c1.6-1.1,3.2-2.3,4.7-3.5l1.9,0.7l6.5,4.9l3.7-3.9l-5.3-6.3l-0.7-2.1c1.1-1.4,2.1-2.9,3-4.4l2,0.1l7.7,2.6l2.3-4.8
		l-6.9-4.2l-1.3-1.8c0.5-1.3,0.9-2.6,1.3-4l2-0.5l8.1,0.4l0.9-5.3l-7.8-2.1L261.5,74z M216,91.7c-11.4,0-20.6-9.2-20.6-20.6
		s9.2-20.6,20.6-20.6c11.4,0,20.6,9.2,20.6,20.6C236.6,82.4,227.4,91.7,216,91.7L216,91.7L216,91.7z"/>
</g>
<g class="st2">
	<linearGradient id="SVGID_2_" gradientUnits="userSpaceOnUse" x1="312.5796" y1="132.6408" x2="295.987" y2="97.6779">
		<stop  offset="0" style="stop-color:#FA16D0"/>
		<stop  offset="1" style="stop-color:#E63B62"/>
	</linearGradient>
	<path class="st3" d="M393.7,154l8.1-0.6l0.2-5.4l-8-1.1l-1.6-0.9c-0.1-2.5-0.3-5.1-0.6-7.6l1.4-0.9l7.8-2.3l-1-5.3l-8,0.7l-1.8-0.6
		c-0.5-2.1-1.2-4.2-1.9-6.3l1.2-1.2l7.1-3.9l-2-5l-7.7,2.3l-1.9-0.2l-0.4-0.8c-0.9-1.8-1.9-3.6-3-5.3l0.9-1.4l6.1-5.4l-3-4.4
		l-7.1,3.9l-1.8,0.2c-1.3-1.7-2.7-3.3-4.2-4.8l0.6-1.6l4.8-6.5l-3.9-3.7l-6.1,5.3l-1.7,0.6c-1.7-1.4-3.4-2.7-5.3-4l0.3-1.6l3.4-7.4
		L360,76l-4.9,6.4l-1.6,0.9c-2.1-1.1-4.2-2.1-6.4-3l-0.1-1.7l1.8-7.9l-5.1-1.8l-3.4,7.3l-1.4,1.2c-1.8-0.5-3.5-0.9-5.3-1.2l-0.4-1.6
		l0.2-8.1l-5.3-0.8l-1.9,7.8l-1,1.5c-2.2-0.2-4.4-0.2-6.6-0.2l-0.7-1.5l-1.5-8l-5.4,0.3l-0.3,8.1l-0.8,1.7c-2.3,0.3-4.6,0.7-6.9,1.3
		l-1-1.3l-3.2-7.5l-5.1,1.5l1.5,8l-0.4,1.8c-1.9,0.7-3.8,1.4-5.6,2.3l-1.2-1.1l-4.6-6.7l-4.7,2.5l3,7.5v1.9
		c-1.9,1.2-3.7,2.4-5.4,3.7l-1.5-0.8l-5.9-5.6l-4.1,3.4l4.5,6.7l0.4,1.8c-1.7,1.6-3.3,3.3-4.9,5.1l-1.6-0.4l-7-4.2l-3.3,4.2l5.8,5.6
		l0.8,1.7c-1.1,1.6-2.1,3.2-3,4.8l-1.7-0.1l-7.6-2.8l-2.4,4.8l6.8,4.3l1.1,1.5c-0.9,2-1.6,4.1-2.3,6.2l-1.7,0.2l-8-1.1l-1.4,5.2
		l7.6,2.8l1.4,1.3c-0.5,2.3-0.8,4.6-1,6.9l-1.6,0.6l-8.1,0.6l-0.2,5.4l8,1.1l1.6,0.9c0.1,2.5,0.3,5.1,0.6,7.6l-1.4,0.9l-7.8,2.4
		l1,5.3l8.1-0.7l1.8,0.6c0.5,2.1,1.2,4.2,1.9,6.3L250,173l-7.1,3.9l2,5l7.7-2.3l1.9,0.2c0.1,0.3,0.2,0.5,0.4,0.8
		c0.9,1.9,1.9,3.6,3,5.3l-0.9,1.4l-6.1,5.4l3.1,4.4l7-4l1.8-0.2c1.3,1.7,2.8,3.3,4.2,4.8l-0.6,1.6l-4.9,6.5l3.9,3.7l6.1-5.3l1.7-0.6
		c1.7,1.4,3.4,2.8,5.2,4l-0.3,1.6l-3.4,7.4l4.6,2.8l4.9-6.4l1.6-0.9c2.1,1.1,4.2,2.1,6.4,3l0.1,1.7l-1.8,7.9l5.1,1.8l3.4-7.3
		l1.4-1.3c1.8,0.5,3.5,0.9,5.3,1.2l0.4,1.6l-0.2,8.1l5.3,0.8l2-7.8l1.1-1.5c2.2,0.2,4.4,0.2,6.6,0.2l0.8,1.5l1.5,8l5.4-0.4l0.3-8.1
		l0.8-1.7c2.3-0.3,4.6-0.7,6.9-1.3l1,1.3l3.2,7.5l5.1-1.5l-1.6-7.9l0.4-1.8c1.9-0.7,3.7-1.4,5.6-2.3l1.3,1.1l4.6,6.7l4.7-2.6l-3-7.5
		v-1.9c1.9-1.1,3.7-2.4,5.4-3.7l1.5,0.8l5.9,5.6l4.2-3.4l-4.5-6.7l-0.4-1.8c1.7-1.6,3.3-3.3,4.9-5.1l1.6,0.4l6.9,4.1l3.3-4.2
		l-5.8-5.5l-0.7-1.7c1.1-1.6,2.1-3.2,3-4.8l1.7,0.1l7.6,2.8l2.4-4.8l-6.8-4.3l-1.1-1.5c0.9-2,1.6-4.1,2.3-6.1l1.7-0.2l8,1.1l1.4-5.2
		l-7.6-2.8l-1.4-1.3c0.4-2.3,0.8-4.6,1-6.9L393.7,154z M319.7,201.2c-29.6,0-53.6-24-53.6-53.5s24-53.6,53.5-53.6
		c29.6,0,53.6,24,53.6,53.5l0,0l0,0C373.2,177.2,349.2,201.2,319.7,201.2L319.7,201.2L319.7,201.2z"/>
	<linearGradient id="SVGID_3_" gradientUnits="userSpaceOnUse" x1="312.5152" y1="132.6714" x2="295.9226" y2="97.7084">
		<stop  offset="0" style="stop-color:#FA16D0"/>
		<stop  offset="1" style="stop-color:#E63B62"/>
	</linearGradient>
	<circle class="st4" cx="319.6" cy="147.6" r="22.2"/>
</g>
<g>
	<linearGradient id="SVGID_4_" gradientUnits="userSpaceOnUse" x1="154.7412" y1="104.4069" x2="55.7782" y2="195.0736">
		<stop  offset="0" style="stop-color:#FA16D0"/>
		<stop  offset="1" style="stop-color:#E63B62"/>
	</linearGradient>
	<path class="st5" d="M180.9,155.6l8.1-0.5l0.3-5.4l-8-1.3l-1.6-0.9c0-2.5-0.2-5.1-0.5-7.6l1.4-0.9l7.9-2.3l-0.9-5.3l-8.1,0.5
		l-1.8-0.6c-0.5-2.1-1.1-4.2-1.8-6.3l1.2-1.2l7.2-3.8l-2-5l-7.8,2.2l-1.8-0.2c-0.1-0.3-0.2-0.5-0.4-0.8c-0.9-1.9-1.9-3.6-2.9-5.4
		l0.9-1.4l6.2-5.3l-3-4.5l-7.1,3.8l-1.8,0.2c-1.3-1.7-2.7-3.3-4.1-4.9l0.6-1.5l5-6.4l-3.8-3.8l-6.2,5.2l-1.8,0.6
		c-1.7-1.4-3.4-2.8-5.2-4.1l0.3-1.6l3.5-7.3l-4.5-2.9l-5,6.3l-1.6,0.9c-2.1-1.1-4.2-2.2-6.3-3.1l-0.1-1.7l1.9-7.9l-5-1.8l-3.6,7.3
		l-1.4,1.2c-1.7-0.5-3.5-0.9-5.3-1.3l-0.4-1.6l0.3-8.1l-5.3-0.8l-2,7.8l-1.1,1.4c-2.2-0.2-4.4-0.3-6.6-0.3l-0.7-1.5l-1.4-8l-5,0.3
		l-0.4,8l-0.8,1.7c-2.3,0.3-4.6,0.7-6.9,1.2l-1-1.3l-3-7.5l-5.2,1.4l1.3,8l-0.4,1.8c-1.9,0.7-3.8,1.4-5.6,2.2l-1.3-1.1L72,73.5
		L67.1,76l2.9,7.5v1.9c-1.9,1.1-3.7,2.3-5.5,3.6L63,88.2l-5.8-5.7L53,85.8l4.4,6.8l0.3,1.8c-1.7,1.6-3.4,3.3-5,5L51.3,99l-6.9-4.3
		L41,98.8l5.8,5.7l0.7,1.7c-1.1,1.5-2.1,3.1-3.1,4.7l-1.7-0.1l-7.6-2.9l-2.6,4.7l6.8,4.4l1,1.5c-0.9,2-1.7,4-2.4,6.1l-1.7,0.2
		l-8-1.3l-1.5,5.2l7.5,2.9l1.4,1.3c-0.5,2.3-0.9,4.6-1.1,6.9l-1.6,0.6L25,141l-0.3,5.4l8,1.3l1.6,1c0,2.5,0.2,5.1,0.5,7.6l-1.4,0.9
		l-7.8,2.3l0.9,5.3l8.1-0.5l1.8,0.6c0.5,2.1,1.1,4.2,1.8,6.3l-1.2,1.2l-7.2,3.8l2,5l7.8-2.2l1.8,0.2c0.1,0.3,0.2,0.5,0.4,0.8
		c0.9,1.9,1.9,3.6,2.9,5.4l-0.9,1.4l-6.2,5.3l3,4.5l7.1-3.8l1.8-0.2c1.3,1.7,2.7,3.3,4.1,4.9L53,199l-5,6.4l3.8,3.7l6.2-5.2l1.8-0.5
		c1.7,1.4,3.4,2.8,5.2,4.1l-0.3,1.7l-3.5,7.3l4.5,2.9l5-6.4l1.6-0.9c2,1.1,4.2,2.1,6.3,3.1l0.1,1.7l-1.9,7.9l5,1.9l3.5-7.3l1.4-1.2
		c1.8,0.5,3.5,0.9,5.3,1.3l0.4,1.6l-0.3,8.1l5.3,0.8l2-7.8l1.1-1.4c2.2,0.2,4.4,0.3,6.6,0.3l0.7,1.5l1.4,8l5.4-0.3l0.3-8.1l0.8-1.7
		c2.3-0.3,4.6-0.6,6.9-1.1l1,1.3l3,7.5l5.2-1.4l-1.4-8l0.4-1.8c1.9-0.7,3.8-1.4,5.6-2.2l1.3,1.1l4.5,6.8l4.8-2.4l-2.9-7.5v-1.9
		c1.9-1.1,3.7-2.3,5.5-3.6l1.5,0.8l5.8,5.7l4.2-3.4l-4.4-6.8l-0.3-1.8c1.7-1.6,3.4-3.3,5-5l1.6,0.5l6.9,4.3l3.4-4.2l-5.8-5.7
		l-0.7-1.7c1.1-1.6,2.1-3.1,3.1-4.7l1.7,0.1l7.6,2.9l2.5-4.8l-6.7-4.4l-1-1.5c0.9-2,1.7-4,2.4-6.1l1.7-0.2l8,1.3l1.4-5.2l-7.5-2.9
		l-1.3-1.3c0.5-2.3,0.9-4.6,1.1-6.9L180.9,155.6z M106.1,201.6c-29.6-0.5-53.2-24.8-52.7-54.4S78.2,94,107.8,94.5
		s53.2,24.8,52.7,54.4l0,0C160.1,178.5,135.7,202,106.1,201.6L106.1,201.6z"/>
	<linearGradient id="SVGID_5_" gradientUnits="userSpaceOnUse" x1="154.6685" y1="104.3276" x2="55.7056" y2="194.9943">
		<stop  offset="0" style="stop-color:#FA16D0"/>
		<stop  offset="1" style="stop-color:#E63B62"/>
	</linearGradient>
	<circle class="st6" cx="107" cy="148" r="8.5"/>
</g>
<g>
	<linearGradient id="SVGID_6_" gradientUnits="userSpaceOnUse" x1="183.5" y1="149.2" x2="456.3" y2="149.2">
		<stop  offset="0" style="stop-color:#FA16D0"/>
		<stop  offset="1" style="stop-color:#E63B62"/>
	</linearGradient>
	<path class="st7" d="M442.5,159.8l13.4-1l0.4-8.9L443,148l-2.6-1.6c-0.1-4.2-0.4-8.4-1-12.5l2.3-1.5l12.9-4l-1.6-8.7l-13.3,1.1
		l-2.9-0.9c-0.9-3.5-1.9-7-3.1-10.4l2-2l11.8-6.4l-3.4-8.2l-12.8,3.8l-3.1-0.3c-0.2-0.4-0.4-0.9-0.6-1.3c-1.5-3-3.2-6-5-8.8l1.5-2.3
		l10.1-8.9l-5-7.3l-11.7,6.5l-3,0.3c-2.2-2.8-4.5-5.5-7-8l1-2.6l8-10.8l-6.5-6.1l-10.1,8.8l-2.9,1c-2.8-2.3-5.7-4.5-8.7-6.6l0.4-2.7
		l5.6-12.2l-7.6-4.6l-8,10.6l-2.7,1.5c-3.4-1.8-6.9-3.5-10.5-4.9l-0.2-2.8l2.9-13.1l-8.4-3L354.4,31l-2.3,2.1
		c-2.9-0.8-5.8-1.5-8.8-2l-0.7-2.7l0.4-13.5l-8.8-1.3l-3.2,13l-1.8,2.4c-3.6-0.3-7.3-0.4-10.9-0.3l-1.2-2.5L314.6,13l-8.9,0.6
		L305.3,27l-1.3,2.8c-3.8,0.5-7.6,1.2-11.5,2.1l-1.7-2.1l-5.3-12.4l-8.5,2.5l2.5,13.2l-0.6,3c-3.1,1.1-6.2,2.4-9.3,3.8l-2.2-1.8
		L259.8,27l-7.8,4l5,12.4v3.1c-3.1,1.9-6.1,3.9-9,6.1l-2.5-1.3l-9.7-9.3l-6.8,5.7l7.5,11.1l0.6,3c-2.8,2.7-5.5,5.5-8.1,8.4l-2.7-0.7
		l-11.5-7l-5.5,7l9.7,9.2l1.2,2.8c-1.7,2.6-3.4,5.2-4.9,7.9l-2.8-0.2L200,84.6l-4,7.9l11.3,7.2l1.7,2.5c-1.4,3.3-2.7,6.7-3.8,10.2
		l-2.8,0.4l-13.3-1.9l-2.3,8.6l12.5,4.7l2.3,2.1c-0.7,3.8-1.3,7.6-1.7,11.5l-2.6,1l-13.4,1l-0.4,8.9l13.3,1.9l2.6,1.5
		c0.1,4.2,0.4,8.4,0.9,12.5l-2.3,1.5l-12.9,4l1.6,8.7l13.3-1.1l2.9,0.9c0.9,3.5,1.9,7,3.1,10.4l-2,2l-11.8,6.5l3.4,8.2l12.8-3.9
		l3.1,0.3c0.2,0.4,0.4,0.9,0.6,1.3c1.5,3.1,3.2,6,5,8.8l-1.5,2.4l-10.1,8.9l5,7.3l11.7-6.5l3-0.3c2.2,2.8,4.5,5.5,7,8l-1,2.6
		l-8,10.8l6.4,6.1l10.1-8.7l2.9-1c2.8,2.3,5.7,4.5,8.7,6.6l-0.4,2.7l-5.6,12.2l7.6,4.7l8.1-10.6l2.7-1.6c3.4,1.8,6.9,3.4,10.5,4.9
		l0.2,2.8l-2.9,13.1l8.4,2.9l5.6-12.1l2.2-2.1c2.9,0.8,5.8,1.5,8.8,2l0.7,2.7l-0.3,13.4l8.8,1.3l3.2-13l1.8-2.4
		c3.6,0.3,7.3,0.4,10.9,0.4l1.2,2.5l2.5,13.2l8.9-0.6l0.4-13.4l1.3-2.8c3.8-0.5,7.6-1.2,11.5-2.1l1.7,2.2l5.2,12.4l8.5-2.5
		l-2.4-13.1l0.6-3c3.1-1.1,6.2-2.4,9.3-3.8l2.2,1.8l7.6,11l7.9-4.1l-5-12.4v-3c3.1-1.9,6.1-3.9,9-6.1l2.5,1.3l9.8,9.3l6.8-5.7
		l-7.5-11.1l-0.6-3c2.8-2.7,5.5-5.5,8.1-8.4l2.7,0.7l11.5,7l5.5-7l-9.7-9.2l-1.2-2.8c1.8-2.6,3.4-5.2,5-7.9l2.8,0.2l12.7,4.6l4-7.9
		l-11.4-7.2l-1.8-2.5c1.4-3.3,2.7-6.7,3.8-10.2l2.8-0.4l13.3,1.9l2.2-8.6l-12.5-4.7l-2.3-2.1c0.7-3.8,1.3-7.6,1.7-11.5L442.5,159.8z
		 M319.6,260.5c-61.6,0-111.5-49.9-111.5-111.5S258,37.5,319.6,37.5S431.1,87.4,431.1,149S381.2,260.5,319.6,260.5z"/>
	<linearGradient id="SVGID_7_" gradientUnits="userSpaceOnUse" x1="218.1" y1="149" x2="421.1" y2="149">
		<stop  offset="0" style="stop-color:#FA16D0"/>
		<stop  offset="1" style="stop-color:#E63B62"/>
	</linearGradient>
	<path class="st8" d="M319.6,47.5c-56.1,0-101.5,45.4-101.5,101.5s45.4,101.5,101.5,101.5S421.1,205.1,421.1,149
		S375.7,47.5,319.6,47.5z M319.9,237.8c-49,0-88.6-39.7-88.6-88.7S271,60.5,320,60.5s88.6,39.7,88.6,88.7
		C408.6,198.1,368.9,237.8,319.9,237.8L319.9,237.8z"/>
</g>
</svg>
