<?xml version="1.0" encoding="utf-8"?>
<!-- Generator: Adobe Illustrator 23.0.1, SVG Export Plug-In . SVG Version: 6.00 Build 0)  -->
<svg version="1.1" id="Layer_1" xmlns="http://www.w3.org/2000/svg" xmlns:xlink="http://www.w3.org/1999/xlink" x="0px" y="0px"
	 viewBox="0 0 153.8 150.7" style="enable-background:new 0 0 153.8 150.7;" xml:space="preserve">
<style type="text/css">
	.st0{fill:#666666;}
</style>
<title>github</title>
<path class="st0" d="M77.4,5.2c-39.8,0-72,32.3-72,72.1c0,32,21.1,60.1,51.8,69.1c1.4-1,2.2-2.6,2.2-4.4v-13
	c-3.4,0.4-6.8,0.6-10.1,0.5c-4.1,0-8-1.5-11.1-4.3c0,0-2.6-2.8-5.3-9.2c0,0-2.6-4.3-5-5.7c-2.3-1.3-3.9-2.4-3.4-4.3
	c0.5-1.8,6.5,0.2,6.5,0.2s4.9,1.6,8.7,8.4s12.6,5.9,12.6,5.9s6.5-0.7,7.1-1.5c0.5-0.8,0.5-7.5,4.7-9.8c0,0-22-1.6-28.8-16.1
	s-3.2-26.8-3.2-26.8s3.1-9,6.9-12.3c0,0-4.3-11.3,0.6-19c0,0,8.8-1.4,19.7,7.7c0,0,6.9-2.6,18.9-2.6s17.4,2.6,17.4,2.6
	s8.7-8.3,19.8-7.7c0,0,4.4,13,0.5,19.1c0,0,7.5,5.7,7.5,24.1s-16.3,26.5-16.3,26.5s-10.6,4.8-16.7,4.5c3.1,2.8,4.8,6.7,4.7,10.9
	v22.7c0.4,1.4,1.2,2.6,2.3,3.5c38.2-11.2,60.1-51.2,48.9-89.4C137.5,26.3,109.3,5.3,77.4,5.2z"/>
</svg>
