<?xml version="1.0" encoding="utf-8"?>
<!-- Generator: Adobe Illustrator 23.0.1, SVG Export Plug-In . SVG Version: 6.00 Build 0)  -->
<svg version="1.1" id="Layer_1" xmlns="http://www.w3.org/2000/svg" xmlns:xlink="http://www.w3.org/1999/xlink" x="0px" y="0px"
	 viewBox="0 0 153.8 150.7" style="enable-background:new 0 0 153.8 150.7;" xml:space="preserve">
<style type="text/css">
	.st0{opacity:0.17;fill:#FFFFFF;enable-background:new    ;}
	.st1{fill:#FFFFFF;stroke:#FFFFFF;stroke-linecap:round;stroke-linejoin:round;stroke-miterlimit:10;}
	.st2{fill:none;stroke:#FFFFFF;stroke-width:3;stroke-linecap:round;stroke-linejoin:round;}
</style>
<title>github</title>
<g>
	<path class="st0" d="M76.8,5.2c-39.8,0-72,32.3-72,72.1c0,32,21.1,60.1,51.8,69.1c1.4-1,2.2-2.6,2.2-4.4V129
		c-3.4,0.4-6.8,0.6-10.1,0.5c-4.1,0-8-1.5-11.1-4.3c0,0-2.6-2.8-5.3-9.2c0,0-2.6-4.3-5-5.7c-2.3-1.3-3.9-2.4-3.4-4.3
		c0.5-1.8,6.5,0.2,6.5,0.2s4.9,1.6,8.7,8.4c3.8,6.8,12.6,5.9,12.6,5.9s6.5-0.7,7.1-1.5c0.5-0.8,0.5-7.5,4.7-9.8
		c0,0-22-1.6-28.8-16.1s-3.2-26.8-3.2-26.8s3.1-9,6.9-12.3c0,0-4.3-11.3,0.6-19c0,0,8.8-1.4,19.7,7.7c0,0,6.9-2.6,18.9-2.6
		S95,42.7,95,42.7s8.7-8.3,19.8-7.7c0,0,4.4,13,0.5,19.1c0,0,7.5,5.7,7.5,24.1s-16.3,26.5-16.3,26.5s-10.6,4.8-16.7,4.5
		c3.1,2.8,4.8,6.7,4.7,10.9v22.7c0.4,1.4,1.2,2.6,2.3,3.5c38.2-11.2,60.1-51.2,48.9-89.4C136.9,26.3,108.7,5.3,76.8,5.2z"/>
	<path class="st1" d="M114.5,101.5c-1.6-0.1-2.8-1.4-2.7-2.9c0-1.2,0.8-2.2,2-2.6c1.5-0.4,3,0.4,3.5,1.9c0.4,1.5-0.4,3-1.9,3.5
		C115.1,101.5,114.8,101.5,114.5,101.5z M114.5,96.7c-0.2,0-0.4,0-0.6,0.1c-1.1,0.3-1.7,1.4-1.4,2.5l0,0c0.1,0.5,0.5,1,0.9,1.2
		c0.5,0.3,1,0.3,1.5,0.2c1.1-0.3,1.7-1.4,1.4-2.5C116.2,97.3,115.4,96.7,114.5,96.7L114.5,96.7z"/>
	<path class="st1" d="M94.4,130.4c-1.6-0.1-2.8-1.4-2.7-2.9c0-1.2,0.8-2.2,1.9-2.6c1.5-0.4,3,0.4,3.5,1.9c0.4,1.5-0.4,3-1.9,3.5
		C95,130.4,94.7,130.4,94.4,130.4z M94.4,125.6c-0.2,0-0.4,0-0.6,0.1c-1.1,0.3-1.7,1.4-1.4,2.5c0,0,0,0,0,0l0,0
		c0.1,0.5,0.5,0.9,0.9,1.2c0.5,0.3,1,0.3,1.5,0.2c1.1-0.3,1.7-1.4,1.4-2.5C96.1,126.2,95.3,125.6,94.4,125.6L94.4,125.6z"/>
	<path class="st1" d="M30.7,72c-1.6-0.1-2.8-1.4-2.7-3c0.1-1.2,0.8-2.2,2-2.5c1.5-0.4,3,0.4,3.5,1.9c0.4,1.5-0.4,3-1.9,3.5
		C31.3,71.9,31,72,30.7,72z M30.7,67.1c-0.2,0-0.4,0-0.6,0.1c-1.1,0.3-1.7,1.4-1.4,2.5l0,0c0.1,0.5,0.5,0.9,0.9,1.2
		c0.5,0.3,1,0.3,1.5,0.2c1.1-0.3,1.7-1.4,1.4-2.5C32.4,67.7,31.6,67.1,30.7,67.1L30.7,67.1z"/>
	<path class="st1" d="M29.5,26.2c-1.6-0.1-2.8-1.4-2.7-2.9c0-1.2,0.8-2.2,1.9-2.6c0.7-0.2,1.5-0.1,2.1,0.2c0.6,0.3,1.1,0.9,1.3,1.7
		c0.4,1.5-0.4,3-1.9,3.5C30,26.2,29.8,26.2,29.5,26.2z M29.5,21.4c-0.2,0-0.4,0-0.6,0.1c-1.1,0.3-1.7,1.4-1.4,2.5l0,0
		c0.1,0.5,0.5,0.9,0.9,1.2c1,0.5,2.2,0.2,2.7-0.8c0.5-1,0.2-2.2-0.8-2.7C30.1,21.5,29.8,21.4,29.5,21.4L29.5,21.4z"/>
	<path class="st1" d="M136.2,121.7c-1.5,0-2.8-1.3-2.8-2.8c0-1.5,1.3-2.8,2.8-2.8s2.8,1.3,2.8,2.8c0,1.2-0.8,2.3-2,2.7l0,0
		C136.7,121.6,136.5,121.7,136.2,121.7z M136.2,116.9c-0.2,0-0.4,0-0.6,0.1c-0.5,0.1-0.9,0.5-1.2,0.9c-0.3,0.5-0.3,1-0.2,1.5
		c0.3,1.1,1.4,1.7,2.5,1.4c1.1-0.3,1.7-1.4,1.4-2.5C137.9,117.4,137.1,116.8,136.2,116.9L136.2,116.9z"/>
	<path class="st2" d="M94.6,137.1v5.9c0.4,1.4,1.2,2.6,2.3,3.5c8.7-2.5,16.8-6.7,23.9-12.2"/>
	<path class="st2" d="M106.6,104.8c0,0-10.6,4.8-16.7,4.5c3.1,2.8,4.8,6.7,4.7,10.9v4.7"/>
	<path class="st2" d="M31.5,66.4c0,0,3.1-9,6.9-12.3c0,0-4.3-11.3,0.6-19c0,0,8.8-1.4,19.7,7.7c0,0,6.9-2.6,18.9-2.6
		S95,42.7,95,42.7s8.7-8.3,19.8-7.7c0,0,4.4,13,0.5,19.1c0,0,7.5,5.7,7.5,24.1c0,6.7-2.3,13.3-6.6,18.5"/>
	<path class="st2" d="M21.1,31.6C-4.2,62.4,0.4,107.8,31.1,133c7.5,6.1,16.2,10.7,25.5,13.4c1.4-1,2.2-2.6,2.2-4.4V129
		c-3.4,0.4-6.8,0.6-10.1,0.5c-4.1,0-8-1.5-11.1-4.3c0,0-2.6-2.8-5.3-9.2c0,0-2.6-4.3-5-5.7c-2.3-1.3-3.9-2.4-3.4-4.3
		c0.5-1.8,6.5,0.2,6.5,0.2s4.9,1.6,8.7,8.4c3.8,6.8,12.6,5.9,12.6,5.9s6.5-0.7,7.1-1.5c0.5-0.8,0.5-7.5,4.7-9.8
		c0,0-22-1.6-28.8-16.1c-1.9-4-3.2-8.3-3.8-12.8"/>
	<path class="st2" d="M137.3,116.3c21.6-33.4,12-78-21.5-99.6c-26.3-17-60.5-15-84.7,4.8"/>
</g>
</svg>
