<?xml version="1.0" encoding="utf-8"?>
<!-- Generator: Adobe Illustrator 21.0.2, SVG Export Plug-In . SVG Version: 6.00 Build 0)  -->
<svg version="1.1" id="Layer_1" xmlns="http://www.w3.org/2000/svg" xmlns:xlink="http://www.w3.org/1999/xlink" x="0px" y="0px"
	 viewBox="0 0 300 300" style="enable-background:new 0 0 300 300;" xml:space="preserve">
<style type="text/css">
	.st0{fill:#FFFFFF;}
</style>
<path class="st0" d="M150.5,290.8c-77.4,0-140.3-62.9-140.3-140.3S73.1,10.2,150.5,10.2s140.3,62.9,140.3,140.3
	S227.9,290.8,150.5,290.8z M150.5,33.2c-64.7,0-117.3,52.6-117.3,117.3s52.6,117.3,117.3,117.3s117.3-52.6,117.3-117.3
	S215.2,33.2,150.5,33.2z"/>
<g>
	<rect x="90.6" y="128.2" class="st0" width="28.6" height="92.6"/>
	<circle class="st0" cx="104.8" cy="100.1" r="18.1"/>
	<path class="st0" d="M223.4,166.9v-0.8h0c-0.6-11.9-5-39.5-33.3-39.5c0,0-18.7-0.1-26.5,12.2v-10.7h-28.6v92.6h28.6v-62.9
		c2.7-4.7,7.5-9.4,15.9-9.4c12.6,0,15,12.2,15.4,18.8v53.4h28.6v-49.3C223.4,171.5,223.5,169.7,223.4,166.9z"/>
</g>
</svg>
