<?xml version="1.0" encoding="utf-8"?>
<!-- Generator: Adobe Illustrator 23.0.1, SVG Export Plug-In . SVG Version: 6.00 Build 0)  -->
<svg version="1.1" id="Layer_1" xmlns="http://www.w3.org/2000/svg" xmlns:xlink="http://www.w3.org/1999/xlink" x="0px" y="0px"
	 viewBox="0 0 850 511" style="enable-background:new 0 0 850 511;" xml:space="preserve">
<style type="text/css">
	.st0{fill:#FFFFFF;}
	.st1{fill:#F9F9F9;stroke:#CCCCCC;stroke-miterlimit:10;}
	.st2{fill:#2E80FB;}
	.st3{fill:url(#SVGID_1_);}
	.st4{fill:none;stroke:#2E80FB;stroke-miterlimit:10;}
	.st5{fill:none;stroke:#333333;stroke-miterlimit:10;}
	.st6{fill:#333333;}
	.st7{fill:none;stroke:#000000;stroke-width:3;stroke-linecap:round;stroke-linejoin:round;stroke-miterlimit:10;}
	.st8{fill:none;stroke:#838C97;stroke-miterlimit:10;}
	.st9{fill:#838C97;}
	.st10{fill:#88919C;}
	.st11{fill-rule:evenodd;clip-rule:evenodd;fill:#FFFFFF;}
	.st12{opacity:0.29;fill:url(#SVGID_2_);}
	.st13{opacity:0.22;fill:#FFFFFF;}
	.st14{fill:url(#SVGID_3_);}
	.st15{fill:url(#SVGID_4_);}
	.st16{filter:url(#Adobe_OpacityMaskFilter);}
	.st17{fill:url(#SVGID_6_);}
	.st18{opacity:0.79;mask:url(#SVGID_5_);fill:url(#SVGID_7_);}
	.st19{filter:url(#Adobe_OpacityMaskFilter_1_);}
	.st20{fill:url(#SVGID_9_);}
	.st21{mask:url(#SVGID_8_);fill:url(#SVGID_10_);}
	.st22{filter:url(#Adobe_OpacityMaskFilter_2_);}
	.st23{fill:url(#SVGID_12_);}
	.st24{mask:url(#SVGID_11_);fill:url(#SVGID_13_);}
	.st25{fill:url(#SVGID_14_);}
	.st26{fill:url(#SVGID_15_);}
	.st27{fill:url(#SVGID_16_);}
	.st28{fill:url(#SVGID_17_);}
	.st29{fill:url(#SVGID_18_);}
	.st30{fill:url(#SVGID_19_);}
	.st31{fill:url(#SVGID_20_);}
	.st32{fill:#616161;}
	.st33{fill:#101010;}
	.st34{fill:url(#SVGID_21_);}
	.st35{fill:url(#SVGID_22_);}
	.st36{fill:url(#SVGID_23_);}
	.st37{fill:url(#SVGID_24_);}
	.st38{fill:url(#SVGID_25_);}
	.st39{fill:url(#SVGID_26_);}
	.st40{filter:url(#Adobe_OpacityMaskFilter_3_);}
	.st41{fill:url(#SVGID_28_);}
	.st42{mask:url(#SVGID_27_);fill:url(#SVGID_29_);}
	.st43{filter:url(#Adobe_OpacityMaskFilter_4_);}
	.st44{fill:url(#SVGID_31_);}
	.st45{mask:url(#SVGID_30_);fill:url(#SVGID_32_);}
	.st46{filter:url(#Adobe_OpacityMaskFilter_5_);}
	.st47{fill:url(#SVGID_34_);}
	.st48{mask:url(#SVGID_33_);fill:url(#SVGID_35_);}
	.st49{filter:url(#Adobe_OpacityMaskFilter_6_);}
	.st50{fill:url(#SVGID_37_);}
	.st51{mask:url(#SVGID_36_);fill:url(#SVGID_38_);}
	.st52{fill:url(#SVGID_39_);}
	.st53{fill:#231F20;}
	.st54{fill:url(#SVGID_40_);}
	.st55{filter:url(#Adobe_OpacityMaskFilter_7_);}
	.st56{fill:url(#SVGID_42_);}
	.st57{mask:url(#SVGID_41_);fill:url(#SVGID_43_);}
	.st58{filter:url(#Adobe_OpacityMaskFilter_8_);}
	.st59{fill:url(#SVGID_45_);}
	.st60{mask:url(#SVGID_44_);fill:url(#SVGID_46_);}
	.st61{filter:url(#Adobe_OpacityMaskFilter_9_);}
	.st62{fill:url(#SVGID_48_);}
	.st63{mask:url(#SVGID_47_);fill:url(#SVGID_49_);}
	.st64{filter:url(#Adobe_OpacityMaskFilter_10_);}
	.st65{fill:url(#SVGID_51_);}
	.st66{mask:url(#SVGID_50_);fill:url(#SVGID_52_);}
	.st67{fill:url(#SVGID_53_);}
	.st68{fill:#666666;}
	.st69{fill:url(#SVGID_54_);}
	.st70{fill:url(#SVGID_55_);}
</style>
<g>
	<g>
		<path class="st0" d="M198.8,269.3h489.4c0,0,30.7,1.8,47,27.2c16.3,25.4,70.9,84.4,70.9,84.4s21.5,38.8-32.9,38.8
			c-54.4,0-648.8,0-648.8,0L198.8,269.3z"/>
		<path class="st1" d="M217.4,271.5l-63.1,144.7H53.4c0,0-20.2,0.6-16.6-14.5S124,283.3,124,283.3s8.8-8.3,26.3-10.4
			c17.5-2.1,28.1-1.4,28.1-1.4H217.4z"/>
		<path class="st2" d="M114.6,384.6l8.8,5.5l12.6-5.3c0,0,0.2-1.5-1.6-0.8c-1.8,0.7-10.8,4.4-10.8,4.4l-6.9-4.3
			C116.8,384.1,113.9,383.1,114.6,384.6z"/>
		<linearGradient id="SVGID_1_" gradientUnits="userSpaceOnUse" x1="132.0706" y1="330.3128" x2="171.4861" y2="330.3128">
			<stop  offset="0" style="stop-color:#F520B0"/>
			<stop  offset="0.2183" style="stop-color:#F421AC"/>
			<stop  offset="0.4174" style="stop-color:#F225A1"/>
			<stop  offset="0.6092" style="stop-color:#EE2B8F"/>
			<stop  offset="0.7963" style="stop-color:#E93475"/>
			<stop  offset="0.9786" style="stop-color:#E33F53"/>
			<stop  offset="1" style="stop-color:#E2414F"/>
		</linearGradient>
		<ellipse class="st3" cx="151.8" cy="330.3" rx="19.7" ry="8.2"/>
		<g>
			<ellipse class="st4" cx="179.5" cy="283.1" rx="10" ry="4.4"/>
			<rect x="177.5" y="282.4" class="st2" width="6.9" height="1.4"/>
			<rect x="173.5" y="282.4" class="st2" width="2.4" height="1.2"/>
		</g>
		<g>
			<path class="st5" d="M132,284.1l-3.5,5.5c0,0-0.8,1.6,0.6,1.6c1.4,0,7.1,0,7.1,0s0.9,0.1,1.5-1.1c0.6-1.2,2.7-5.5,2.7-5.5
				s0.2-0.6-0.4-0.6c-0.6,0-7.2,0-7.2,0S132.2,283.9,132,284.1z"/>
			<polygon class="st6" points="132.9,284.9 129.7,290 135.9,290 138.4,284.9 			"/>
		</g>
		<line class="st7" x1="727.7" y1="305.7" x2="755.6" y2="344"/>
		<path class="st8" d="M672,282.4l30,55.6c0,0,6,6.8,17.1,6.8s9.3-6.4,9.3-6.4L694,281.7c0,0-3-3.7-12.9-3.7
			C671.3,278,672,282.4,672,282.4z"/>
		<ellipse class="st9" cx="683.3" cy="282.4" rx="8.7" ry="3.1"/>
		<ellipse class="st10" cx="726.3" cy="357.2" rx="10.7" ry="5.2"/>
		<path class="st0" d="M727.1,358.5l1.9,2.5c0,0,1.2,0.1,0.7-0.9s-1-1.5-1-1.5l3.9,1.1c0,0,1.6-0.4-0.1-1c-1.7-0.6-4.4-1-4.4-1
			l-0.7-1.8l2-1.2c0,0,0.5-1.1-0.5-0.7c-1,0.4-2,1-2,1l-1-1.4c0,0-1.6-0.3-1.1,0.8s0.6,1.1,0.6,1.1l-6.5,1.2c0,0-1,0.3-0.6,0.5
			c0.5,0.3,1.4,0.6,1.4,0.6l-0.7,0.9c0,0-0.3,0.5,0.5,0.3s0.9-0.7,0.9-0.7L727.1,358.5z"/>
		<path class="st10" d="M749.6,381.1c-0.7-1.4-7-10.9-7-10.9s-0.2-0.6-0.8-0.6c-0.6,0-13.6,0-13.6,0s-1.2,0.4-1,0.8
			c0.2,0.4,0.7,3,0.7,3s-1.7,0.2-1.4,1.4c0.3,1.2,2.1,4.3,2.1,4.3s2.4,1.1,2.7,0.1l1.7,2.8c0,0,0.1,0.8,1.1,0.8c1,0,14.9,0,14.9,0
			S750.2,382.6,749.6,381.1z M737.9,377.7c-3.2,0-5.7-1.1-5.7-2.4c0-1.3,2.6-2.4,5.7-2.4c3.2,0,5.7,1.1,5.7,2.4
			C743.6,376.6,741.1,377.7,737.9,377.7z"/>
		<ellipse class="st10" cx="737.9" cy="375.4" rx="3.8" ry="1.3"/>
		<path class="st11" d="M138.1,332.1c0.1-0.3,0.7-0.5,1.3-0.5c0.6,0.1,1,0.4,0.9,0.7c-0.1,0.3-0.7,0.5-1.3,0.5
			C138.4,332.7,138,332.4,138.1,332.1L138.1,332.1z M158.4,326.2c0.8,0.1,1.3,0.5,1.2,0.9c-0.1,0.4-0.9,0.7-1.7,0.6
			s-1.3-0.5-1.2-0.9C156.8,326.4,157.6,326.1,158.4,326.2L158.4,326.2z M157.5,324c0.9,0.1,1.6,0.5,1.4,1c-0.2,0.5-1.1,0.8-2,0.7
			c-0.9-0.1-1.6-0.5-1.4-1C155.6,324.2,156.5,323.9,157.5,324L157.5,324z M158.1,328.1c0.7,0.1,1.1,0.4,1,0.7
			c-0.1,0.3-0.8,0.6-1.4,0.5c-0.7-0.1-1.1-0.4-1-0.7C156.8,328.3,157.4,328.1,158.1,328.1L158.1,328.1z M154.5,322.6
			c0.8,0.1,1.3,0.5,1.2,0.9c-0.1,0.4-0.9,0.7-1.7,0.6c-0.8-0.1-1.3-0.5-1.2-0.9C152.9,322.8,153.7,322.5,154.5,322.6L154.5,322.6z
			 M156.1,329.5c0.6,0.1,1,0.3,0.9,0.6c-0.1,0.3-0.7,0.5-1.3,0.5c-0.6-0.1-1-0.3-0.9-0.6C154.9,329.7,155.5,329.5,156.1,329.5
			L156.1,329.5z M150.8,322.4c0.7,0.1,1.2,0.4,1,0.7c-0.1,0.3-0.8,0.6-1.5,0.5c-0.7-0.1-1.2-0.4-1-0.7
			C149.4,322.6,150.1,322.3,150.8,322.4L150.8,322.4z M153.9,330.6c0.4,0,0.8,0.3,0.7,0.5c-0.1,0.2-0.5,0.4-1,0.3
			c-0.4,0-0.8-0.3-0.7-0.5C153,330.7,153.5,330.6,153.9,330.6L153.9,330.6z M154.8,327.3c0.3,0,0.5,0.2,0.4,0.3s-0.3,0.2-0.6,0.2
			c-0.3,0-0.5-0.2-0.4-0.3C154.2,327.4,154.5,327.3,154.8,327.3L154.8,327.3z M154.2,326c0.3,0,0.6,0.2,0.5,0.4
			c-0.1,0.2-0.4,0.3-0.7,0.3c-0.3,0-0.6-0.2-0.5-0.4C153.6,326.1,153.9,326,154.2,326L154.2,326z M152.3,324.6
			c0.6,0.1,1.1,0.4,1,0.7c-0.1,0.3-0.7,0.5-1.4,0.5c-0.6-0.1-1.1-0.4-1-0.7C151,324.7,151.6,324.5,152.3,324.6L152.3,324.6z
			 M149,324.5c0.5,0,0.8,0.3,0.7,0.5c-0.1,0.2-0.5,0.4-1,0.4c-0.5,0-0.8-0.3-0.7-0.5C148.1,324.6,148.6,324.5,149,324.5L149,324.5z
			 M145.6,324.5c0.5,0,0.9,0.3,0.8,0.6c-0.1,0.3-0.6,0.4-1.1,0.4c-0.5,0-0.9-0.3-0.8-0.6C144.6,324.6,145.1,324.5,145.6,324.5
			L145.6,324.5z M147.8,323.1c0.6,0.1,1,0.4,0.9,0.7c-0.1,0.3-0.7,0.5-1.3,0.5c-0.6-0.1-1-0.4-0.9-0.7
			C146.6,323.2,147.1,323,147.8,323.1L147.8,323.1z M145.4,333.8c-0.8-0.1-1.3-0.5-1.2-0.9c0.1-0.4,0.9-0.7,1.7-0.6
			c0.8,0.1,1.3,0.5,1.2,0.9C147,333.6,146.2,333.9,145.4,333.8L145.4,333.8z M146.4,336c-0.9-0.1-1.6-0.5-1.4-1
			c0.2-0.5,1.1-0.8,2-0.7c0.9,0.1,1.6,0.5,1.4,1C148.2,335.8,147.3,336.1,146.4,336L146.4,336z M145.7,331.9c-0.7-0.1-1.1-0.4-1-0.7
			c0.1-0.3,0.8-0.6,1.4-0.5c0.7,0.1,1.1,0.4,1,0.7C147,331.7,146.4,331.9,145.7,331.9L145.7,331.9z M149.4,337.4
			c-0.8-0.1-1.3-0.5-1.2-0.9c0.1-0.4,0.9-0.7,1.7-0.6c0.8,0.1,1.3,0.5,1.2,0.9C150.9,337.2,150.2,337.5,149.4,337.4L149.4,337.4z
			 M147.8,330.5c-0.6-0.1-1-0.3-0.9-0.6c0.1-0.3,0.7-0.5,1.3-0.5c0.6,0.1,1,0.3,0.9,0.6C148.9,330.3,148.4,330.5,147.8,330.5
			L147.8,330.5z M153.1,337.6c-0.7-0.1-1.2-0.4-1-0.7c0.1-0.3,0.8-0.6,1.5-0.5c0.7,0.1,1.2,0.4,1,0.7
			C154.4,337.5,153.8,337.7,153.1,337.6L153.1,337.6z M149.9,329.3c-0.4,0-0.8-0.3-0.7-0.5c0.1-0.2,0.5-0.4,1-0.3
			c0.5,0,0.8,0.3,0.7,0.5C150.7,329.2,150.3,329.4,149.9,329.3L149.9,329.3z M149,332.7c-0.3,0-0.5-0.2-0.4-0.3
			c0.1-0.1,0.3-0.2,0.6-0.2c0.3,0,0.5,0.2,0.4,0.3C149.6,332.6,149.3,332.7,149,332.7L149,332.7z M149.6,334c-0.3,0-0.6-0.2-0.5-0.4
			c0.1-0.2,0.4-0.3,0.7-0.3c0.3,0,0.6,0.2,0.5,0.4C150.3,333.9,149.9,334.1,149.6,334L149.6,334z M151.6,335.4
			c-0.6-0.1-1.1-0.4-1-0.7c0.1-0.3,0.7-0.5,1.4-0.5c0.6,0.1,1.1,0.4,1,0.7C152.8,335.3,152.2,335.5,151.6,335.4L151.6,335.4z
			 M154.8,335.5c-0.5,0-0.8-0.3-0.7-0.5c0.1-0.2,0.5-0.4,1-0.4c0.5,0,0.8,0.3,0.7,0.5C155.7,335.4,155.3,335.6,154.8,335.5
			L154.8,335.5z M158.2,335.5c-0.5,0-0.9-0.3-0.8-0.6c0.1-0.3,0.6-0.4,1.1-0.4c0.5,0,0.9,0.3,0.8,0.6
			C159.2,335.4,158.7,335.5,158.2,335.5L158.2,335.5z M156,336.9c-0.6-0.1-1-0.4-0.9-0.7c0.1-0.3,0.7-0.5,1.3-0.5
			c0.6,0.1,1,0.4,0.9,0.7C157.3,336.8,156.7,337,156,336.9L156,336.9z M159.6,333.3c-0.1,0.4-0.9,0.7-1.7,0.6
			c-0.8-0.1-1.3-0.5-1.2-0.9c0.1-0.4,0.9-0.7,1.7-0.6C159.2,332.5,159.7,332.9,159.6,333.3L159.6,333.3z M163.9,332.8
			c-0.2,0.5-1.1,0.8-2,0.7c-0.9-0.1-1.6-0.5-1.4-1c0.2-0.5,1.1-0.8,2-0.7C163.4,331.9,164.1,332.3,163.9,332.8L163.9,332.8z
			 M155.6,333.1c-0.1,0.3-0.8,0.6-1.4,0.5c-0.7-0.1-1.1-0.4-1-0.7c0.1-0.3,0.8-0.6,1.4-0.5C155.3,332.5,155.8,332.8,155.6,333.1
			L155.6,333.1z M166.7,331.3c-0.1,0.4-0.9,0.7-1.7,0.6c-0.8-0.1-1.3-0.5-1.2-0.9c0.1-0.4,0.9-0.7,1.7-0.6
			C166.3,330.5,166.8,330.9,166.7,331.3L166.7,331.3z M152.9,332.1c-0.1,0.3-0.7,0.5-1.3,0.5c-0.6-0.1-1-0.3-0.9-0.6
			c0.1-0.3,0.7-0.5,1.3-0.5C152.6,331.5,153,331.8,152.9,332.1L152.9,332.1z M167.1,329.4c-0.1,0.3-0.8,0.6-1.5,0.5
			c-0.7-0.1-1.2-0.4-1-0.7c0.1-0.3,0.8-0.6,1.5-0.5C166.8,328.8,167.2,329.1,167.1,329.4L167.1,329.4z M150.6,331
			c-0.1,0.2-0.5,0.4-1,0.3c-0.5,0-0.8-0.3-0.7-0.5c0.1-0.2,0.5-0.4,1-0.3C150.4,330.6,150.7,330.8,150.6,331L150.6,331z
			 M157.2,331.4c-0.1,0.1-0.3,0.2-0.6,0.2c-0.3,0-0.5-0.2-0.4-0.3c0.1-0.1,0.3-0.2,0.6-0.2C157.1,331.2,157.3,331.3,157.2,331.4
			L157.2,331.4z M159.9,331.2c-0.1,0.2-0.4,0.3-0.7,0.3c-0.3,0-0.6-0.2-0.5-0.4c0.1-0.2,0.4-0.3,0.7-0.3
			C159.8,330.8,160,331,159.9,331.2L159.9,331.2z M162.7,330.2c-0.1,0.3-0.7,0.5-1.4,0.5c-0.6-0.1-1.1-0.4-1-0.7
			c0.1-0.3,0.7-0.5,1.4-0.5C162.4,329.6,162.8,329.9,162.7,330.2L162.7,330.2z M162.9,328.6c-0.1,0.2-0.5,0.4-1,0.4
			c-0.5,0-0.8-0.3-0.7-0.5c0.1-0.2,0.5-0.4,1-0.4C162.7,328.1,163,328.3,162.9,328.6L162.9,328.6z M162.9,326.9
			c-0.1,0.3-0.6,0.4-1.1,0.4c-0.5,0-0.9-0.3-0.8-0.6c0.1-0.3,0.6-0.4,1.1-0.4C162.6,326.3,163,326.6,162.9,326.9L162.9,326.9z
			 M165.8,327.9c-0.1,0.3-0.7,0.5-1.3,0.5c-0.6-0.1-1-0.4-0.9-0.7c0.1-0.3,0.7-0.5,1.3-0.5C165.4,327.3,165.9,327.6,165.8,327.9
			L165.8,327.9z M144.3,326.7c0.1-0.4,0.9-0.7,1.7-0.6c0.8,0.1,1.3,0.5,1.2,0.9c-0.1,0.4-0.9,0.7-1.7,0.6
			C144.7,327.5,144.1,327.2,144.3,326.7L144.3,326.7z M139.9,327.2c0.2-0.5,1.1-0.8,2-0.7c0.9,0.1,1.6,0.5,1.4,1
			c-0.2,0.5-1.1,0.8-2,0.7C140.4,328.2,139.8,327.7,139.9,327.2L139.9,327.2z M148.2,326.9c0.1-0.3,0.8-0.6,1.4-0.5
			c0.7,0.1,1.1,0.4,1,0.7c-0.1,0.3-0.8,0.6-1.4,0.5C148.5,327.6,148.1,327.2,148.2,326.9L148.2,326.9z M137.1,328.7
			c0.1-0.4,0.9-0.7,1.7-0.6c0.8,0.1,1.3,0.5,1.2,0.9c-0.1,0.4-0.9,0.7-1.7,0.6C137.5,329.5,137,329.1,137.1,328.7L137.1,328.7z
			 M150.9,327.9c0.1-0.3,0.7-0.5,1.3-0.5c0.6,0.1,1,0.3,0.9,0.6c-0.1,0.3-0.7,0.5-1.3,0.5C151.2,328.5,150.8,328.2,150.9,327.9
			L150.9,327.9z M136.7,330.6c0.1-0.3,0.8-0.6,1.5-0.5c0.7,0.1,1.2,0.4,1,0.7c-0.1,0.3-0.8,0.6-1.5,0.5
			C137,331.3,136.6,330.9,136.7,330.6L136.7,330.6z M153.2,328.9c0.1-0.2,0.5-0.4,1-0.3c0.5,0,0.8,0.3,0.7,0.5
			c-0.1,0.2-0.5,0.4-1,0.3C153.4,329.3,153.1,329.1,153.2,328.9L153.2,328.9z M146.6,328.6c0.1-0.1,0.3-0.2,0.6-0.2
			c0.3,0,0.5,0.2,0.4,0.3c-0.1,0.1-0.3,0.2-0.6,0.2C146.7,328.9,146.6,328.7,146.6,328.6L146.6,328.6z M143.9,328.8
			c0.1-0.2,0.4-0.3,0.7-0.3c0.3,0,0.6,0.2,0.5,0.4c-0.1,0.2-0.4,0.3-0.7,0.3C144.1,329.2,143.8,329,143.9,328.8L143.9,328.8z
			 M141.1,329.8c0.1-0.3,0.7-0.5,1.4-0.5c0.6,0.1,1.1,0.4,1,0.7c-0.1,0.3-0.7,0.5-1.4,0.5C141.4,330.5,141,330.2,141.1,329.8
			L141.1,329.8z M140.9,331.4c0.1-0.2,0.5-0.4,1-0.4c0.5,0,0.8,0.3,0.7,0.5c-0.1,0.2-0.5,0.4-1,0.4
			C141.2,331.9,140.8,331.7,140.9,331.4L140.9,331.4z M141,333.2c0.1-0.3,0.6-0.4,1.1-0.4c0.5,0,0.9,0.3,0.8,0.6
			c-0.1,0.3-0.6,0.4-1.1,0.4C141.2,333.7,140.9,333.4,141,333.2L141,333.2z"/>
	</g>
	<linearGradient id="SVGID_2_" gradientUnits="userSpaceOnUse" x1="425.6076" y1="370.4188" x2="424.3994" y2="255.0417">
		<stop  offset="0" style="stop-color:#E8E8E8"/>
		<stop  offset="0.1877" style="stop-color:#C7C7C7"/>
		<stop  offset="0.4171" style="stop-color:#A5A5A5"/>
		<stop  offset="0.6353" style="stop-color:#8C8C8C"/>
		<stop  offset="0.8352" style="stop-color:#7D7D7D"/>
		<stop  offset="1" style="stop-color:#787878"/>
	</linearGradient>
	<path class="st12" d="M122.1,285c0,0,12.7-12.4,38.6-12c26,0.5,537,0,537,0s21.1,0.5,29,11.3s76.1,97.3,76.1,97.3
		s11.5,19.3-10.3,22.4s-726.7-3-726.7-3s-22.4-3.6-19.9-12.1S122.1,285,122.1,285z"/>
	<polygon class="st13" points="108.2,303.7 789,394.9 189.7,404 52.6,397.3 49.6,379.2 	"/>
	<g>
		<linearGradient id="SVGID_3_" gradientUnits="userSpaceOnUse" x1="64.7003" y1="401.317" x2="64.2473" y2="435.7489">
			<stop  offset="0" style="stop-color:#E8E8E8"/>
			<stop  offset="4.730078e-02" style="stop-color:#E3E3E3"/>
			<stop  offset="0.1463" style="stop-color:#DEDEDE"/>
			<stop  offset="0.1902" style="stop-color:#D7D7D7"/>
			<stop  offset="0.2556" style="stop-color:#C2C2C2"/>
			<stop  offset="0.3343" style="stop-color:#A1A1A1"/>
			<stop  offset="0.3811" style="stop-color:#8A8A8A"/>
			<stop  offset="0.389" style="stop-color:#7A7A7A"/>
			<stop  offset="0.4044" style="stop-color:#515151"/>
			<stop  offset="0.4252" style="stop-color:#101010"/>
			<stop  offset="0.6451" style="stop-color:#101010"/>
			<stop  offset="0.6557" style="stop-color:#101010"/>
			<stop  offset="0.6725" style="stop-color:#141414"/>
			<stop  offset="0.6879" style="stop-color:#1F1F1F"/>
			<stop  offset="0.7026" style="stop-color:#313131"/>
			<stop  offset="0.717" style="stop-color:#4B4B4B"/>
			<stop  offset="0.731" style="stop-color:#6D6D6D"/>
			<stop  offset="0.7413" style="stop-color:#8A8A8A"/>
			<stop  offset="0.7893" style="stop-color:#9A9A9A"/>
			<stop  offset="0.8829" style="stop-color:#C3C3C3"/>
			<stop  offset="1" style="stop-color:#FFFFFF"/>
		</linearGradient>
		<path class="st14" d="M36.9,386.5c0,0,2.8,9,8.6,13.3c6.8,5-2.3,8.3,48.7,8.3c0,0-2.1,18.1,3.5,28.9H66.3
			C66.3,437,14.2,432.5,36.9,386.5z"/>
		
			<linearGradient id="SVGID_4_" gradientUnits="userSpaceOnUse" x1="485.4269" y1="401.317" x2="484.9739" y2="435.7489" gradientTransform="matrix(-1 0 0 1 1270.8389 0)">
			<stop  offset="0" style="stop-color:#E8E8E8"/>
			<stop  offset="4.730078e-02" style="stop-color:#E3E3E3"/>
			<stop  offset="0.1463" style="stop-color:#DEDEDE"/>
			<stop  offset="0.1902" style="stop-color:#D7D7D7"/>
			<stop  offset="0.2556" style="stop-color:#C2C2C2"/>
			<stop  offset="0.3343" style="stop-color:#A1A1A1"/>
			<stop  offset="0.3811" style="stop-color:#8A8A8A"/>
			<stop  offset="0.389" style="stop-color:#7A7A7A"/>
			<stop  offset="0.4044" style="stop-color:#515151"/>
			<stop  offset="0.4252" style="stop-color:#101010"/>
			<stop  offset="0.6451" style="stop-color:#101010"/>
			<stop  offset="0.6557" style="stop-color:#101010"/>
			<stop  offset="0.6725" style="stop-color:#141414"/>
			<stop  offset="0.6879" style="stop-color:#1F1F1F"/>
			<stop  offset="0.7026" style="stop-color:#313131"/>
			<stop  offset="0.717" style="stop-color:#4B4B4B"/>
			<stop  offset="0.731" style="stop-color:#6D6D6D"/>
			<stop  offset="0.7413" style="stop-color:#8A8A8A"/>
			<stop  offset="0.7893" style="stop-color:#9A9A9A"/>
			<stop  offset="0.8829" style="stop-color:#C3C3C3"/>
			<stop  offset="1" style="stop-color:#FFFFFF"/>
		</linearGradient>
		<path class="st15" d="M813.2,386.5c0,0-2.8,9-8.6,13.3c-6.8,5,2.3,8.3-48.7,8.3c0,0,2.1,18.1-3.5,28.9h31.3
			C783.8,437,835.9,432.5,813.2,386.5z"/>
		<defs>
			<filter id="Adobe_OpacityMaskFilter" filterUnits="userSpaceOnUse" x="11.2" y="411.1" width="818.9" height="67.7">
				<feColorMatrix  type="matrix" values="1 0 0 0 0  0 1 0 0 0  0 0 1 0 0  0 0 0 1 0"/>
			</filter>
		</defs>
		<mask maskUnits="userSpaceOnUse" x="11.2" y="411.1" width="818.9" height="67.7" id="SVGID_5_">
			<g class="st16">
				
					<radialGradient id="SVGID_6_" cx="465.1337" cy="426.5328" r="45.3852" gradientTransform="matrix(-9.0213 0 0 0.7463 4616.7065 126.6515)" gradientUnits="userSpaceOnUse">
					<stop  offset="0" style="stop-color:#FFFFFF"/>
					<stop  offset="8.593289e-02" style="stop-color:#F7F7F7"/>
					<stop  offset="0.218" style="stop-color:#E2E2E2"/>
					<stop  offset="0.3797" style="stop-color:#BFBFBF"/>
					<stop  offset="0.5649" style="stop-color:#8E8E8E"/>
					<stop  offset="0.7699" style="stop-color:#4F4F4F"/>
					<stop  offset="0.9886" style="stop-color:#040404"/>
					<stop  offset="1" style="stop-color:#000000"/>
				</radialGradient>
				<ellipse class="st17" cx="420.6" cy="445" rx="409.4" ry="33.9"/>
			</g>
		</mask>
		
			<linearGradient id="SVGID_7_" gradientUnits="userSpaceOnUse" x1="419.7492" y1="426.5328" x2="510.5183" y2="426.5328" gradientTransform="matrix(-9.0213 0 0 0.7463 4616.7065 126.6515)">
			<stop  offset="7.447920e-02" style="stop-color:#595959"/>
			<stop  offset="0.1944" style="stop-color:#5E5E5E"/>
			<stop  offset="0.3419" style="stop-color:#6D6D6D"/>
			<stop  offset="0.5039" style="stop-color:#868686"/>
			<stop  offset="0.6764" style="stop-color:#A9A9A9"/>
			<stop  offset="0.855" style="stop-color:#D5D5D5"/>
			<stop  offset="1" style="stop-color:#FFFFFF"/>
		</linearGradient>
		<ellipse class="st18" cx="420.6" cy="445" rx="409.4" ry="33.9"/>
		<defs>
			<filter id="Adobe_OpacityMaskFilter_1_" filterUnits="userSpaceOnUse" x="5.4" y="416.8" width="378.3" height="53.7">
				<feColorMatrix  type="matrix" values="1 0 0 0 0  0 1 0 0 0  0 0 1 0 0  0 0 0 1 0"/>
			</filter>
		</defs>
		<mask maskUnits="userSpaceOnUse" x="5.4" y="416.8" width="378.3" height="53.7" id="SVGID_8_">
			<g class="st19">
				
					<radialGradient id="SVGID_9_" cx="506.7575" cy="312.5225" r="37.3646" gradientTransform="matrix(-5.0617 0.285 9.460000e-02 0.6596 2730.0994 93.1259)" gradientUnits="userSpaceOnUse">
					<stop  offset="0" style="stop-color:#FFFFFF"/>
					<stop  offset="1" style="stop-color:#000000"/>
				</radialGradient>
				<path class="st20" d="M5.5,454.3c2,13.6,88.2,19.9,192.7,14c104.5-5.9,187.5-21.7,185.6-35.3c-2-13.6-88.2-19.9-192.7-14
					C86.6,424.9,3.5,440.7,5.5,454.3z"/>
			</g>
		</mask>
		
			<linearGradient id="SVGID_10_" gradientUnits="userSpaceOnUse" x1="469.3923" y1="312.5225" x2="544.1227" y2="312.5225" gradientTransform="matrix(-5.0617 0.285 9.460000e-02 0.6596 2730.0994 93.1259)">
			<stop  offset="0" style="stop-color:#A9A9A9"/>
			<stop  offset="0.1911" style="stop-color:#AEAEAE"/>
			<stop  offset="0.4261" style="stop-color:#BDBDBD"/>
			<stop  offset="0.6841" style="stop-color:#D6D6D6"/>
			<stop  offset="0.9569" style="stop-color:#F9F9F9"/>
			<stop  offset="1" style="stop-color:#FFFFFF"/>
		</linearGradient>
		<path class="st21" d="M5.5,454.3c2,13.6,88.2,19.9,192.7,14c104.5-5.9,187.5-21.7,185.6-35.3c-2-13.6-88.2-19.9-192.7-14
			C86.6,424.9,3.5,440.7,5.5,454.3z"/>
		<defs>
			<filter id="Adobe_OpacityMaskFilter_2_" filterUnits="userSpaceOnUse" x="463.6" y="416.8" width="378.3" height="53.7">
				<feColorMatrix  type="matrix" values="1 0 0 0 0  0 1 0 0 0  0 0 1 0 0  0 0 0 1 0"/>
			</filter>
		</defs>
		<mask maskUnits="userSpaceOnUse" x="463.6" y="416.8" width="378.3" height="53.7" id="SVGID_11_">
			<g class="st22">
				
					<radialGradient id="SVGID_12_" cx="415.8308" cy="351.8101" r="37.3646" gradientTransform="matrix(5.0617 0.285 -9.460000e-02 0.6596 -1418.8055 93.1259)" gradientUnits="userSpaceOnUse">
					<stop  offset="0" style="stop-color:#FFFFFF"/>
					<stop  offset="1" style="stop-color:#000000"/>
				</radialGradient>
				<path class="st23" d="M841.9,454.3c-2,13.6-88.2,19.9-192.7,14c-104.5-5.9-187.5-21.7-185.6-35.3c2-13.6,88.2-19.9,192.7-14
					C760.7,424.9,843.8,440.7,841.9,454.3z"/>
			</g>
		</mask>
		
			<linearGradient id="SVGID_13_" gradientUnits="userSpaceOnUse" x1="378.4656" y1="351.8101" x2="453.196" y2="351.8101" gradientTransform="matrix(5.0617 0.285 -9.460000e-02 0.6596 -1418.8055 93.1259)">
			<stop  offset="0" style="stop-color:#A9A9A9"/>
			<stop  offset="0.1911" style="stop-color:#AEAEAE"/>
			<stop  offset="0.4261" style="stop-color:#BDBDBD"/>
			<stop  offset="0.6841" style="stop-color:#D6D6D6"/>
			<stop  offset="0.9569" style="stop-color:#F9F9F9"/>
			<stop  offset="1" style="stop-color:#FFFFFF"/>
		</linearGradient>
		<path class="st24" d="M841.9,454.3c-2,13.6-88.2,19.9-192.7,14c-104.5-5.9-187.5-21.7-185.6-35.3c2-13.6,88.2-19.9,192.7-14
			C760.7,424.9,843.8,440.7,841.9,454.3z"/>
		<linearGradient id="SVGID_14_" gradientUnits="userSpaceOnUse" x1="96.487" y1="408.0584" x2="96.487" y2="436.9992">
			<stop  offset="0" style="stop-color:#8C8C8C"/>
			<stop  offset="0.1943" style="stop-color:#6B6B6C"/>
			<stop  offset="0.3901" style="stop-color:#4F5052"/>
			<stop  offset="0.5046" style="stop-color:#454648"/>
			<stop  offset="0.6092" style="stop-color:#4D4E4F"/>
			<stop  offset="0.7699" style="stop-color:#626364"/>
			<stop  offset="0.9658" style="stop-color:#858585"/>
			<stop  offset="0.9999" style="stop-color:#8C8C8C"/>
		</linearGradient>
		<path class="st25" d="M97.2,408.1h-5.5c0,0-2.3,19.6,4.3,28.9h5.6l-0.1-0.2C101.6,436.8,94.3,424.1,97.2,408.1z"/>
		<linearGradient id="SVGID_15_" gradientUnits="userSpaceOnUse" x1="754.2334" y1="437.0401" x2="754.2334" y2="408.0584">
			<stop  offset="0" style="stop-color:#8C8C8C"/>
			<stop  offset="0.1943" style="stop-color:#6B6B6C"/>
			<stop  offset="0.3901" style="stop-color:#4F5052"/>
			<stop  offset="0.5046" style="stop-color:#454648"/>
			<stop  offset="0.6092" style="stop-color:#4D4E4F"/>
			<stop  offset="0.7699" style="stop-color:#626364"/>
			<stop  offset="0.9658" style="stop-color:#858585"/>
			<stop  offset="0.9999" style="stop-color:#8C8C8C"/>
		</linearGradient>
		<path class="st26" d="M753.5,408.1h5.5c0,0,2.3,19.6-4.3,28.9l-5.7,0.1C749.7,435.8,756.3,423.3,753.5,408.1z"/>
		<linearGradient id="SVGID_16_" gradientUnits="userSpaceOnUse" x1="425.3668" y1="436.9553" x2="425.3668" y2="408.0584">
			<stop  offset="0" style="stop-color:#E8E8E8"/>
			<stop  offset="4.730078e-02" style="stop-color:#E3E3E3"/>
			<stop  offset="0.1463" style="stop-color:#DEDEDE"/>
			<stop  offset="0.1902" style="stop-color:#D7D7D7"/>
			<stop  offset="0.2556" style="stop-color:#C2C2C2"/>
			<stop  offset="0.3343" style="stop-color:#A1A1A1"/>
			<stop  offset="0.3811" style="stop-color:#8A8A8A"/>
			<stop  offset="0.389" style="stop-color:#7A7A7A"/>
			<stop  offset="0.4044" style="stop-color:#515151"/>
			<stop  offset="0.4252" style="stop-color:#101010"/>
			<stop  offset="0.6451" style="stop-color:#101010"/>
			<stop  offset="0.6557" style="stop-color:#101010"/>
			<stop  offset="0.6725" style="stop-color:#141414"/>
			<stop  offset="0.6879" style="stop-color:#1F1F1F"/>
			<stop  offset="0.7026" style="stop-color:#313131"/>
			<stop  offset="0.717" style="stop-color:#4B4B4B"/>
			<stop  offset="0.731" style="stop-color:#6D6D6D"/>
			<stop  offset="0.7413" style="stop-color:#8A8A8A"/>
			<stop  offset="0.7893" style="stop-color:#9A9A9A"/>
			<stop  offset="0.8829" style="stop-color:#C3C3C3"/>
			<stop  offset="1" style="stop-color:#FFFFFF"/>
		</linearGradient>
		<path class="st27" d="M749.2,436.8L749.2,436.8C749.2,436.8,749.2,436.8,749.2,436.8c1.2-2.3,7-14.3,4.3-28.7H97.2
			c-3,16,4.3,28.7,4.3,28.7l0.1,0.2h647.5C749.1,436.9,749.2,436.8,749.2,436.8z"/>
		<g>
			<g>
				<linearGradient id="SVGID_17_" gradientUnits="userSpaceOnUse" x1="213.1955" y1="418.022" x2="213.1955" y2="431.9803">
					<stop  offset="0" style="stop-color:#383838"/>
					<stop  offset="1" style="stop-color:#000000"/>
				</linearGradient>
				<path class="st28" d="M189.1,431.9c-3.8,0-6.8-3.1-6.8-6.8c0-3.8,3.1-6.8,6.8-6.8h48.1c3.8,0,6.8,3.1,6.8,6.8
					c0,3.8-3.1,6.8-6.8,6.8H189.1z"/>
				<linearGradient id="SVGID_18_" gradientUnits="userSpaceOnUse" x1="213.1955" y1="431.1936" x2="213.1955" y2="418.8849">
					<stop  offset="0" style="stop-color:#E0E0E0"/>
					<stop  offset="0.4817" style="stop-color:#616161"/>
					<stop  offset="0.4987" style="stop-color:#4B4B4B"/>
					<stop  offset="0.5242" style="stop-color:#313131"/>
					<stop  offset="0.5504" style="stop-color:#1F1F1F"/>
					<stop  offset="0.5776" style="stop-color:#141414"/>
					<stop  offset="0.6075" style="stop-color:#101010"/>
				</linearGradient>
				<path class="st29" d="M237.3,431.2h-48.1c-3.4,0-6.2-2.8-6.2-6.2l0,0c0-3.4,2.8-6.2,6.2-6.2h48.1c3.4,0,6.2,2.8,6.2,6.2l0,0
					C243.4,428.4,240.7,431.2,237.3,431.2z"/>
				<g>
					<image style="overflow:visible;" width="31" height="8" xlink:href="F1AA81E4.png"  transform="matrix(1 0 0 1 183 418)">
					</image>
					<image style="overflow:visible;" width="31" height="8" xlink:href="F1AA81E5.png"  transform="matrix(1 0 0 1 213 418)">
					</image>
				</g>
			</g>
			<g>
				<linearGradient id="SVGID_19_" gradientUnits="userSpaceOnUse" x1="289.1577" y1="418.022" x2="289.1577" y2="431.9803">
					<stop  offset="0" style="stop-color:#383838"/>
					<stop  offset="1" style="stop-color:#000000"/>
				</linearGradient>
				<path class="st30" d="M265.1,431.9c-3.8,0-6.8-3.1-6.8-6.8c0-3.8,3.1-6.8,6.8-6.8h48.1c3.8,0,6.8,3.1,6.8,6.8
					c0,3.8-3.1,6.8-6.8,6.8H265.1z"/>
				<linearGradient id="SVGID_20_" gradientUnits="userSpaceOnUse" x1="289.1577" y1="431.1936" x2="289.1577" y2="418.8849">
					<stop  offset="0" style="stop-color:#E0E0E0"/>
					<stop  offset="0.4817" style="stop-color:#616161"/>
					<stop  offset="0.4987" style="stop-color:#4B4B4B"/>
					<stop  offset="0.5242" style="stop-color:#313131"/>
					<stop  offset="0.5504" style="stop-color:#1F1F1F"/>
					<stop  offset="0.5776" style="stop-color:#141414"/>
					<stop  offset="0.6075" style="stop-color:#101010"/>
				</linearGradient>
				<path class="st31" d="M313.2,431.2h-48.1c-3.4,0-6.2-2.8-6.2-6.2l0,0c0-3.4,2.8-6.2,6.2-6.2h48.1c3.4,0,6.2,2.8,6.2,6.2l0,0
					C319.4,428.4,316.6,431.2,313.2,431.2z"/>
				<g>
					<image style="overflow:visible;" width="31" height="8" xlink:href="F1AA81E6.png"  transform="matrix(1 0 0 1 259 418)">
					</image>
					<image style="overflow:visible;" width="31" height="8" xlink:href="F1AA81E7.png"  transform="matrix(1 0 0 1 289 418)">
					</image>
				</g>
			</g>
			<g>
				<path class="st32" d="M152.5,430.1h-25.9c-1.8,0-3.3-1.5-3.3-3.3l0,0c0-1.8-0.5-3.3,1.3-3.3h29.7c1.8,0,1.5,1.5,1.5,3.3l0,0
					C155.8,428.6,154.4,430.1,152.5,430.1z"/>
				<path class="st33" d="M152.5,429.7h-25.9c-1.8,0-3.3-1.5-3.3-3.3l0,0c0-1.8-0.5-3.3,1.3-3.3h29.7c1.8,0,1.5,1.5,1.5,3.3l0,0
					C155.8,428.2,154.4,429.7,152.5,429.7z"/>
				<g>
					<linearGradient id="SVGID_21_" gradientUnits="userSpaceOnUse" x1="139.5746" y1="420.2497" x2="139.5746" y2="427.6023">
						<stop  offset="0" style="stop-color:#383838"/>
						<stop  offset="1" style="stop-color:#000000"/>
					</linearGradient>
					<path class="st34" d="M126.9,427.5c-2,0-3.6-1.6-3.6-3.6s1.6-3.6,3.6-3.6h25.3c2,0,3.6,1.6,3.6,3.6s-1.6,3.6-3.6,3.6H126.9z"/>
					<linearGradient id="SVGID_22_" gradientUnits="userSpaceOnUse" x1="139.5746" y1="427.1879" x2="139.5746" y2="420.7042">
						<stop  offset="0" style="stop-color:#E0E0E0"/>
						<stop  offset="0.4817" style="stop-color:#616161"/>
						<stop  offset="0.4987" style="stop-color:#4B4B4B"/>
						<stop  offset="0.5242" style="stop-color:#313131"/>
						<stop  offset="0.5504" style="stop-color:#1F1F1F"/>
						<stop  offset="0.5776" style="stop-color:#141414"/>
						<stop  offset="0.6075" style="stop-color:#101010"/>
					</linearGradient>
					<path class="st35" d="M152.2,427.2h-25.3c-1.8,0-3.2-1.5-3.2-3.2l0,0c0-1.8,1.5-3.2,3.2-3.2h25.3c1.8,0,3.2,1.5,3.2,3.2l0,0
						C155.5,425.7,154,427.2,152.2,427.2z"/>
					<g>
						<image style="overflow:visible;" width="17" height="5" xlink:href="F1AA81E8.png"  transform="matrix(1 0 0 1 123 420)">
						</image>
						<image style="overflow:visible;" width="17" height="5" xlink:href="F1AA81ED.png"  transform="matrix(1 0 0 1 139 420)">
						</image>
					</g>
				</g>
			</g>
		</g>
		<linearGradient id="SVGID_23_" gradientUnits="userSpaceOnUse" x1="35.6854" y1="339.3722" x2="815.2674" y2="339.3722">
			<stop  offset="0" style="stop-color:#262626"/>
			<stop  offset="1" style="stop-color:#1A1A1A"/>
		</linearGradient>
		<path class="st36" d="M811.8,382.7L737,290.2c-10-12.3-27.1-19.5-48.5-19.5H162.4c-21.4,0-38.5,7.2-48.5,19.5l-74.7,92.4
			c-10.9,13.5,5.4,25.4,22.7,25.4H789C806.3,408.1,822.6,396.1,811.8,382.7z M792.4,390.1c-5.9,4-15.7,3.9-15.7,3.9H76.5
			c-9.5-0.7-14.8-2.5-14.8-2.5c-11.8-3.7-6.9-12.1-6.9-12.1l11.5-15.5c2.7-3.8,6.5-3,6.5-3c22.6,1,28.1-8,28.1-8l38-52
			c3-4.5-4.9-6.1-4.9-6.1l-9.1-0.4c-4.2,0.1-2.5-2.1-2.5-2.1l7.6-9.7c11.5-10.2,30.7-9.5,30.7-9.5h527.5c24.4,0.2,32.2,9.5,32.2,9.5
			l75.2,96.9C799.7,385.4,792.4,390.1,792.4,390.1z"/>
		<path d="M807.4,380.8l-75.1-91.3c-9.8-11.9-26.7-18.9-47.8-18.9h-518c-21.1,0-38,6.9-47.8,18.9L44,380.3
			c-10.7,13,6.4,23.1,23.5,23.1h716C800.5,403.4,818,393.8,807.4,380.8z M792.4,390.1c-5.9,4-15.7,3.9-15.7,3.9H76.5
			c-9.5-0.7-14.8-2.5-14.8-2.5c-11.8-3.7-6.9-12.1-6.9-12.1l11.5-15.5c2.7-3.8,6.5-3,6.5-3c22.6,1,28.1-8,28.1-8l38-52
			c3-4.5-4.9-6.1-4.9-6.1l-9.1-0.4c-4.2,0.1-2.5-2.1-2.5-2.1l7.6-9.7c11.5-10.2,30.7-9.5,30.7-9.5h527.5c24.4,0.2,32.2,9.5,32.2,9.5
			l75.2,96.9C799.7,385.4,792.4,390.1,792.4,390.1z"/>
		<g>
			<linearGradient id="SVGID_24_" gradientUnits="userSpaceOnUse" x1="115.8006" y1="309.1635" x2="115.8006" y2="312.8694">
				<stop  offset="0" style="stop-color:#2B2C2D"/>
				<stop  offset="0.7618" style="stop-color:#0B0B0B"/>
				<stop  offset="1" style="stop-color:#000000"/>
			</linearGradient>
			<path class="st37" d="M120.6,311c0,1-2.1,1.8-4.8,1.8c-2.6,0-4.8-0.8-4.8-1.8c0-1,2.1-1.8,4.8-1.8
				C118.4,309.2,120.6,310,120.6,311z"/>
			<linearGradient id="SVGID_25_" gradientUnits="userSpaceOnUse" x1="115.8006" y1="310.2036" x2="115.8006" y2="312.8681">
				<stop  offset="0" style="stop-color:#1A1A1A"/>
				<stop  offset="1" style="stop-color:#000000"/>
			</linearGradient>
			<path class="st38" d="M115.8,310.2c-1.9,0-3.6,0.6-4.5,1.4c0.7,0.7,2.4,1.2,4.5,1.2c2.1,0,3.8-0.5,4.5-1.2
				C119.4,310.8,117.7,310.2,115.8,310.2z"/>
			<linearGradient id="SVGID_26_" gradientUnits="userSpaceOnUse" x1="115.8007" y1="311.1474" x2="115.8007" y2="312.8669">
				<stop  offset="0" style="stop-color:#0B2F4D"/>
				<stop  offset="1" style="stop-color:#01060A"/>
			</linearGradient>
			<path class="st39" d="M115.8,312.9c1.4,0,2.7-0.2,3.6-0.6c-0.8-0.6-2.1-1.1-3.6-1.1c-1.5,0-2.8,0.4-3.6,1.1
				C113.1,312.6,114.4,312.9,115.8,312.9z"/>
			<defs>
				<filter id="Adobe_OpacityMaskFilter_3_" filterUnits="userSpaceOnUse" x="112.2" y="309.9" width="7.2" height="4">
					<feColorMatrix  type="matrix" values="1 0 0 0 0  0 1 0 0 0  0 0 1 0 0  0 0 0 1 0"/>
				</filter>
			</defs>
			<mask maskUnits="userSpaceOnUse" x="112.2" y="309.9" width="7.2" height="4" id="SVGID_27_">
				<g class="st40">
					
						<radialGradient id="SVGID_28_" cx="105.076" cy="356.8856" r="2.6358" gradientTransform="matrix(1.3661 0 0 0.7537 -27.7437 42.8761)" gradientUnits="userSpaceOnUse">
						<stop  offset="0" style="stop-color:#FFFFFF"/>
						<stop  offset="1" style="stop-color:#000000"/>
					</radialGradient>
					<ellipse class="st41" cx="115.8" cy="311.9" rx="3.6" ry="2"/>
				</g>
			</mask>
			
				<radialGradient id="SVGID_29_" cx="105.076" cy="356.8856" r="2.6358" gradientTransform="matrix(1.3661 0 0 0.7537 -27.7437 42.8761)" gradientUnits="userSpaceOnUse">
				<stop  offset="0" style="stop-color:#FFFFFF"/>
				<stop  offset="1" style="stop-color:#000000"/>
			</radialGradient>
			<ellipse class="st42" cx="115.8" cy="311.9" rx="3.6" ry="2"/>
			<defs>
				<filter id="Adobe_OpacityMaskFilter_4_" filterUnits="userSpaceOnUse" x="116.1" y="311.3" width="2.7" height="1.6">
					<feColorMatrix  type="matrix" values="1 0 0 0 0  0 1 0 0 0  0 0 1 0 0  0 0 0 1 0"/>
				</filter>
			</defs>
			<mask maskUnits="userSpaceOnUse" x="116.1" y="311.3" width="2.7" height="1.6" id="SVGID_30_">
				<g class="st43">
					
						<radialGradient id="SVGID_31_" cx="103.1977" cy="330.7177" r="0.8882" gradientTransform="matrix(1.5256 0 0 0.8788 -40.025 21.4086)" gradientUnits="userSpaceOnUse">
						<stop  offset="0" style="stop-color:#FFFFFF"/>
						<stop  offset="1" style="stop-color:#000000"/>
					</radialGradient>
					<path class="st44" d="M118.8,312c0,0.4-0.6,0.8-1.4,0.8s-1.4-0.3-1.4-0.8c0-0.4,0.6-0.8,1.4-0.8S118.8,311.6,118.8,312z"/>
				</g>
			</mask>
			
				<radialGradient id="SVGID_32_" cx="103.1977" cy="330.7177" r="0.8882" gradientTransform="matrix(1.5256 0 0 0.8788 -40.025 21.4086)" gradientUnits="userSpaceOnUse">
				<stop  offset="0" style="stop-color:#FFFFFF"/>
				<stop  offset="1" style="stop-color:#000000"/>
			</radialGradient>
			<path class="st45" d="M118.8,312c0,0.4-0.6,0.8-1.4,0.8s-1.4-0.3-1.4-0.8c0-0.4,0.6-0.8,1.4-0.8S118.8,311.6,118.8,312z"/>
			<defs>
				<filter id="Adobe_OpacityMaskFilter_5_" filterUnits="userSpaceOnUse" x="116" y="311.1" width="1.3" height="0.8">
					<feColorMatrix  type="matrix" values="1 0 0 0 0  0 1 0 0 0  0 0 1 0 0  0 0 0 1 0"/>
				</filter>
			</defs>
			<mask maskUnits="userSpaceOnUse" x="116" y="311.1" width="1.3" height="0.8" id="SVGID_33_">
				<g class="st46">
					
						<radialGradient id="SVGID_34_" cx="105.6714" cy="330.179" r="0.4816" gradientTransform="matrix(1.3661 0 0 0.8788 -27.7437 21.4086)" gradientUnits="userSpaceOnUse">
						<stop  offset="0" style="stop-color:#FFFFFF"/>
						<stop  offset="1" style="stop-color:#000000"/>
					</radialGradient>
					<ellipse class="st47" cx="116.6" cy="311.6" rx="0.7" ry="0.4"/>
				</g>
			</mask>
			
				<radialGradient id="SVGID_35_" cx="105.6714" cy="330.179" r="0.4816" gradientTransform="matrix(1.3661 0 0 0.8788 -27.7437 21.4086)" gradientUnits="userSpaceOnUse">
				<stop  offset="0" style="stop-color:#FFFFFF"/>
				<stop  offset="1" style="stop-color:#000000"/>
			</radialGradient>
			<ellipse class="st48" cx="116.6" cy="311.6" rx="0.7" ry="0.4"/>
			<defs>
				<filter id="Adobe_OpacityMaskFilter_6_" filterUnits="userSpaceOnUse" x="112.9" y="311" width="3.2" height="1.9">
					<feColorMatrix  type="matrix" values="1 0 0 0 0  0 1 0 0 0  0 0 1 0 0  0 0 0 1 0"/>
				</filter>
			</defs>
			<mask maskUnits="userSpaceOnUse" x="112.9" y="311" width="3.2" height="1.9" id="SVGID_36_">
				<g class="st49">
					
						<radialGradient id="SVGID_37_" cx="100.7282" cy="330.6349" r="1.0533" gradientTransform="matrix(1.5318 0 0 0.8788 -39.7576 21.4086)" gradientUnits="userSpaceOnUse">
						<stop  offset="0" style="stop-color:#FFFFFF"/>
						<stop  offset="1" style="stop-color:#000000"/>
					</radialGradient>
					<path class="st50" d="M116.2,312c0,0.5-0.7,0.9-1.6,0.9s-1.6-0.4-1.6-0.9c0-0.5,0.7-0.9,1.6-0.9S116.2,311.5,116.2,312z"/>
				</g>
			</mask>
			
				<radialGradient id="SVGID_38_" cx="100.7282" cy="330.6349" r="1.0533" gradientTransform="matrix(1.5318 0 0 0.8788 -39.7576 21.4086)" gradientUnits="userSpaceOnUse">
				<stop  offset="0" style="stop-color:#FFFFFF"/>
				<stop  offset="1" style="stop-color:#000000"/>
			</radialGradient>
			<path class="st51" d="M116.2,312c0,0.5-0.7,0.9-1.6,0.9s-1.6-0.4-1.6-0.9c0-0.5,0.7-0.9,1.6-0.9S116.2,311.5,116.2,312z"/>
		</g>
		<g>
			<path d="M112.4,318.6L101,332.7c-0.7,0.9-2.3,1.4-3.5,1.1l0,0c-1.2-0.2-1.7-1.2-1-2l11.4-14.1c0.7-0.9,2.3-1.4,3.5-1.1l0,0
				C112.7,316.8,113.1,317.7,112.4,318.6z"/>
			
				<linearGradient id="SVGID_39_" gradientUnits="userSpaceOnUse" x1="98.8953" y1="323.1604" x2="115.7493" y2="323.1604" gradientTransform="matrix(0.9998 2.080000e-02 -2.080000e-02 0.9998 3.9249 -0.7884)">
				<stop  offset="0" style="stop-color:#232323"/>
				<stop  offset="6.889020e-02" style="stop-color:#454545"/>
				<stop  offset="0.1334" style="stop-color:#232323"/>
				<stop  offset="0.2306" style="stop-color:#232323"/>
				<stop  offset="0.4038" style="stop-color:#454545"/>
				<stop  offset="0.5622" style="stop-color:#232323"/>
				<stop  offset="0.6588" style="stop-color:#302E2F"/>
				<stop  offset="0.7841" style="stop-color:#5B5859"/>
				<stop  offset="0.8986" style="stop-color:#232323"/>
			</linearGradient>
			<path class="st52" d="M111.6,316c-1.3-0.3-3,0.2-3.7,1.1l-11.7,14.4c-0.5,0.6-0.4,1.2,0.1,1.7c-0.3-0.4-0.2-0.9,0.2-1.4
				l11.4-14.1c0.7-0.9,2.3-1.4,3.5-1.1l0,0c1.2,0.2,1.7,1.2,1,2l0.3-0.4C113.5,317.2,113,316.3,111.6,316z"/>
			<path class="st53" d="M99.6,328l4,1.5l0.1-0.2l-4-1.5L99.6,328z M98.8,329l4,1.5l0.1-0.2l-4-1.5L98.8,329z M100,327.5l4,1.5
				l0.1-0.2l-4-1.5L100,327.5z M99.2,328.5l4,1.5l0.1-0.2l-4-1.5L99.2,328.5z M101.6,325.5l4,1.5l0.1-0.2l-4-1.5L101.6,325.5z
				 M100.4,327l4,1.5l0.1-0.2l-4-1.5L100.4,327z M101.2,326l4,1.5l0.1-0.2l-4-1.5L101.2,326z M100.8,326.5l4,1.5l0.1-0.2l-4-1.5
				L100.8,326.5z M96.5,333.4l1.3,0.5c0.2,0,0.4,0,0.6,0l-2.1-0.8C96.3,333.2,96.4,333.3,96.5,333.4z M98.4,329.5l4,1.5l0.1-0.2
				l-4-1.5L98.4,329.5z M96.2,332.6l3,1.1c0.1,0,0.2-0.1,0.3-0.1l-3.3-1.2C96.2,332.4,96.2,332.5,96.2,332.6z M96.4,332l3.7,1.4
				c0.1,0,0.2-0.1,0.2-0.1l-3.8-1.4C96.4,331.9,96.4,331.9,96.4,332z M112.3,316.9l-1.1-0.4c-0.2,0-0.4,0-0.7,0l2,0.7
				C112.5,317.1,112.4,317,112.3,316.9z M102,325l4,1.5l0.1-0.2l-4-1.5L102,325z M97.9,330l4,1.5l0.1-0.2l-4-1.5L97.9,330z
				 M96.7,331.5l4,1.5c0.1,0,0.1-0.1,0.2-0.2l-4-1.5L96.7,331.5z M97.5,330.5l4,1.5l0.1-0.2l-4-1.5L97.5,330.5z M97.1,331l4,1.5
				l0.1-0.2l-4-1.5L97.1,331z M107.2,318.5l4,1.5l0.1-0.2l-4-1.5L107.2,318.5z M106.8,319l4,1.5l0.1-0.2l-4-1.5L106.8,319z
				 M107.7,318l4,1.5l0.1-0.2l-4-1.5L107.7,318z M106.4,319.5l4,1.5l0.1-0.2l-4-1.5L106.4,319.5z M109.8,316.6
				c-0.1,0-0.2,0.1-0.3,0.1l3.3,1.2c0-0.1,0-0.1,0-0.2L109.8,316.6z M102.4,324.5l4,1.5l0.1-0.2l-4-1.5L102.4,324.5z M108.6,317.1
				l3.8,1.4c0-0.1,0.1-0.1,0.1-0.2l-3.7-1.4C108.8,317,108.7,317,108.6,317.1z M108.1,317.5l4,1.5l0.1-0.2l-4-1.5
				C108.2,317.4,108.1,317.4,108.1,317.5z M106,320l4,1.5l0.1-0.2l-4-1.5L106,320z M105.6,320.5l4,1.5l0.1-0.2l-4-1.5L105.6,320.5z
				 M103.2,323.5l4,1.5l0.1-0.2l-4-1.5L103.2,323.5z M103.6,323l4,1.5l0.1-0.2l-4-1.5L103.6,323z M102.8,324l4,1.5l0.1-0.2l-4-1.5
				L102.8,324z M104,322.5l4,1.5l0.1-0.2l-4-1.5L104,322.5z M105.2,321l4,1.5l0.1-0.2l-4-1.5L105.2,321z M104.8,321.5l4,1.5l0.1-0.2
				l-4-1.5L104.8,321.5z M104.4,322l4,1.5l0.1-0.2l-4-1.5L104.4,322z"/>
			
				<linearGradient id="SVGID_40_" gradientUnits="userSpaceOnUse" x1="105.6688" y1="322.5725" x2="108.9589" y2="325.0465" gradientTransform="matrix(0.9998 2.080000e-02 -2.080000e-02 0.9998 3.9249 -0.7884)">
				<stop  offset="0" style="stop-color:#000000"/>
				<stop  offset="2.401398e-02" style="stop-color:#0B0B0B"/>
				<stop  offset="7.575752e-02" style="stop-color:#1C1C1C"/>
				<stop  offset="0.1402" style="stop-color:#272727"/>
				<stop  offset="0.2306" style="stop-color:#2E2E2E"/>
				<stop  offset="0.4815" style="stop-color:#303030"/>
				<stop  offset="0.5372" style="stop-color:#303030"/>
				<stop  offset="0.5464" style="stop-color:#303030"/>
				<stop  offset="0.7828" style="stop-color:#2E2E2E"/>
				<stop  offset="0.868" style="stop-color:#272727"/>
				<stop  offset="0.9286" style="stop-color:#1C1C1C"/>
				<stop  offset="0.9774" style="stop-color:#0B0B0B"/>
				<stop  offset="1" style="stop-color:#000000"/>
			</linearGradient>
			<path class="st54" d="M98.3,329.6l7.1-2.3l0.2-0.3l-7.1,2.3L98.3,329.6z M96.2,332.8l6.4-2.1l0.2-0.3l-6.6,2.1
				C96.2,332.7,96.2,332.7,96.2,332.8z M97.6,330.4l7.1-2.3l0.2-0.3l-7.1,2.3L97.6,330.4z M96.9,331.3l7.1-2.3l0.2-0.3l-7.1,2.3
				L96.9,331.3z M96.5,333.3l5.4-1.7l0.2-0.3l-5.7,1.9C96.4,333.2,96.5,333.3,96.5,333.3z M96.3,332.1l7-2.3l0.2-0.3l-7.1,2.3
				C96.4,332,96.3,332,96.3,332.1z M97.3,333.7l3.9-1.3l0.2-0.3l-4.5,1.4C97,333.7,97.1,333.7,97.3,333.7z M111.8,316.6l-4.1,1.3
				l-0.2,0.3l4.6-1.5C112,316.7,111.9,316.7,111.8,316.6z M110.2,316.5l-1.4,0.4c-0.2,0.1-0.4,0.3-0.6,0.4l2.8-0.9
				C110.7,316.5,110.4,316.5,110.2,316.5z M100.5,333.1l-2.3,0.7C99,333.8,99.9,333.6,100.5,333.1z M112.5,317.1l-5.5,1.8l-0.2,0.3
				l5.9-1.9C112.6,317.2,112.5,317.1,112.5,317.1z M105.3,320.9l7.1-2.3l0,0c0.1-0.1,0.1-0.2,0.2-0.3l-7,2.3L105.3,320.9z
				 M103.2,323.5l7.1-2.3l0.2-0.3l-7.1,2.3L103.2,323.5z M103.9,322.6l7.1-2.3l0.2-0.3l-7.1,2.3L103.9,322.6z M104.6,321.7l7.1-2.3
				l0.2-0.3l-7.1,2.3L104.6,321.7z M102.5,324.3l7.1-2.3l0.2-0.3l-7.1,2.3L102.5,324.3z M106.3,319.7L106,320l6.7-2.2
				c0-0.1,0-0.1,0-0.2L106.3,319.7z M99,328.7l7.1-2.3l0.2-0.3l-7.1,2.3L99,328.7z M99.7,327.8l7.1-2.3l0.2-0.3l-7.1,2.3L99.7,327.8
				z M100.4,327l7.1-2.3l0.2-0.3l-7.1,2.3L100.4,327z M101.8,325.2l7.1-2.3l0.2-0.3l-7.1,2.3L101.8,325.2z M101.1,326.1l7.1-2.3
				l0.2-0.3l-7.1,2.3L101.1,326.1z"/>
		</g>
		<g>
			<image style="overflow:visible;" width="385" height="6" xlink:href="F1AA81EE.png"  transform="matrix(1 0 0 1 50 398)">
			</image>
			<image style="overflow:visible;" width="368" height="6" xlink:href="F1AA81EF.png"  transform="matrix(1 0 0 1 434 398)">
			</image>
		</g>
		
			<image style="overflow:visible;opacity:0.79;" width="98" height="122" xlink:href="F1AA81E0.png"  transform="matrix(1 0 0 1 713 275)">
		</image>
		
			<image style="overflow:visible;opacity:0.79;" width="99" height="122" xlink:href="EDA4C194.png"  transform="matrix(1 0 0 1 40 275)">
		</image>
		<defs>
			<filter id="Adobe_OpacityMaskFilter_7_" filterUnits="userSpaceOnUse" x="255.2" y="414.9" width="66.7" height="9.4">
				<feColorMatrix  type="matrix" values="1 0 0 0 0  0 1 0 0 0  0 0 1 0 0  0 0 0 1 0"/>
			</filter>
		</defs>
		<mask maskUnits="userSpaceOnUse" x="255.2" y="414.9" width="66.7" height="9.4" id="SVGID_41_">
			<g class="st55">
				
					<radialGradient id="SVGID_42_" cx="790.5291" cy="-183.6537" r="33.3382" gradientTransform="matrix(0 0.1412 -1 0 104.9002 308.0312)" gradientUnits="userSpaceOnUse">
					<stop  offset="0" style="stop-color:#FFFFFF"/>
					<stop  offset="1" style="stop-color:#000000"/>
				</radialGradient>
				<ellipse class="st56" cx="288.6" cy="419.7" rx="33.3" ry="4.7"/>
			</g>
		</mask>
		
			<radialGradient id="SVGID_43_" cx="790.5291" cy="-183.6537" r="33.3382" gradientTransform="matrix(0 0.1412 -1 0 104.9002 308.0312)" gradientUnits="userSpaceOnUse">
			<stop  offset="0" style="stop-color:#FFFFFF"/>
			<stop  offset="1" style="stop-color:#000000"/>
		</radialGradient>
		<ellipse class="st57" cx="288.6" cy="419.7" rx="33.3" ry="4.7"/>
		<defs>
			<filter id="Adobe_OpacityMaskFilter_8_" filterUnits="userSpaceOnUse" x="179.9" y="414.9" width="66.7" height="9.4">
				<feColorMatrix  type="matrix" values="1 0 0 0 0  0 1 0 0 0  0 0 1 0 0  0 0 0 1 0"/>
			</filter>
		</defs>
		<mask maskUnits="userSpaceOnUse" x="179.9" y="414.9" width="66.7" height="9.4" id="SVGID_44_">
			<g class="st58">
				
					<radialGradient id="SVGID_45_" cx="790.5291" cy="-108.2953" r="33.3382" gradientTransform="matrix(0 0.1412 -1 0 104.9002 308.0312)" gradientUnits="userSpaceOnUse">
					<stop  offset="0" style="stop-color:#FFFFFF"/>
					<stop  offset="1" style="stop-color:#000000"/>
				</radialGradient>
				<ellipse class="st59" cx="213.2" cy="419.7" rx="33.3" ry="4.7"/>
			</g>
		</mask>
		
			<radialGradient id="SVGID_46_" cx="790.5291" cy="-108.2953" r="33.3382" gradientTransform="matrix(0 0.1412 -1 0 104.9002 308.0312)" gradientUnits="userSpaceOnUse">
			<stop  offset="0" style="stop-color:#FFFFFF"/>
			<stop  offset="1" style="stop-color:#000000"/>
		</radialGradient>
		<ellipse class="st60" cx="213.2" cy="419.7" rx="33.3" ry="4.7"/>
		<defs>
			<filter id="Adobe_OpacityMaskFilter_9_" filterUnits="userSpaceOnUse" x="117.9" y="418.1" width="43.3" height="6.2">
				<feColorMatrix  type="matrix" values="1 0 0 0 0  0 1 0 0 0  0 0 1 0 0  0 0 0 1 0"/>
			</filter>
		</defs>
		<mask maskUnits="userSpaceOnUse" x="117.9" y="418.1" width="43.3" height="6.2" id="SVGID_47_">
			<g class="st61">
				
					<radialGradient id="SVGID_48_" cx="770.1457" cy="-33.6319" r="20.8441" gradientTransform="matrix(0 0.1491 -1.0389 0 104.6175 306.4236)" gradientUnits="userSpaceOnUse">
					<stop  offset="0" style="stop-color:#FFFFFF"/>
					<stop  offset="1" style="stop-color:#000000"/>
				</radialGradient>
				<ellipse class="st62" cx="139.6" cy="421.3" rx="21.7" ry="3.1"/>
			</g>
		</mask>
		
			<radialGradient id="SVGID_49_" cx="770.1457" cy="-33.6319" r="20.8441" gradientTransform="matrix(0 0.1491 -1.0389 0 104.6175 306.4236)" gradientUnits="userSpaceOnUse">
			<stop  offset="0" style="stop-color:#FFFFFF"/>
			<stop  offset="1" style="stop-color:#000000"/>
		</radialGradient>
		<ellipse class="st63" cx="139.6" cy="421.3" rx="21.7" ry="3.1"/>
		<defs>
			<filter id="Adobe_OpacityMaskFilter_10_" filterUnits="userSpaceOnUse" x="230.8" y="412.3" width="389.8" height="27.1">
				<feColorMatrix  type="matrix" values="1 0 0 0 0  0 1 0 0 0  0 0 1 0 0  0 0 0 1 0"/>
			</filter>
		</defs>
		<mask maskUnits="userSpaceOnUse" x="230.8" y="412.3" width="389.8" height="27.1" id="SVGID_50_">
			<g class="st64">
				
					<radialGradient id="SVGID_51_" cx="231.4002" cy="-351.8556" r="17.6394" gradientTransform="matrix(0 0.7678 -11.0487 0 -3461.8909 248.1569)" gradientUnits="userSpaceOnUse">
					<stop  offset="0" style="stop-color:#FFFFFF"/>
					<stop  offset="1" style="stop-color:#000000"/>
				</radialGradient>
				<ellipse class="st65" cx="425.7" cy="425.8" rx="194.9" ry="13.5"/>
			</g>
		</mask>
		
			<radialGradient id="SVGID_52_" cx="231.4002" cy="-351.8556" r="17.6394" gradientTransform="matrix(0 0.7678 -11.0487 0 -3461.8909 248.1569)" gradientUnits="userSpaceOnUse">
			<stop  offset="0" style="stop-color:#FFFFFF"/>
			<stop  offset="1" style="stop-color:#000000"/>
		</radialGradient>
		<ellipse class="st66" cx="425.7" cy="425.8" rx="194.9" ry="13.5"/>
		<polygon class="st10" points="725.1,356.4 721.6,356.9 725.9,357.5 		"/>
	</g>
</g>
<linearGradient id="SVGID_53_" gradientUnits="userSpaceOnUse" x1="142.6041" y1="124.162" x2="465.7495" y2="124.162">
	<stop  offset="3.910615e-02" style="stop-color:#198AFE"/>
	<stop  offset="0.4667" style="stop-color:#1788FD"/>
	<stop  offset="0.696" style="stop-color:#1280F8"/>
	<stop  offset="0.8776" style="stop-color:#0972F1"/>
	<stop  offset="1" style="stop-color:#0064E9"/>
</linearGradient>
<path class="st67" d="M142.6,178.8c0,0,18.6-3.3,18.7-43.7c-0.9-3.8-1.3-7.8-1.3-11.8v0c0-29.7,24.3-54,54-54h197.7
	c29.7,0,54,24.3,54,54v0c0,29.7-24.3,54-54,54H214c-10.8,0-20.9-3.2-29.4-8.8C173.4,174.2,157.1,180.7,142.6,178.8z"/>
<g>
	<path class="st68" d="M219.2,43.9h-4.8v12.5h-2.3V43.9h-4.8v-2h11.9V43.9z"/>
	<path class="st68" d="M223.3,56.6c-0.8,0-1.6-0.1-2.3-0.4s-1.2-0.7-1.7-1.2c-0.5-0.5-0.8-1.1-1.1-1.8s-0.4-1.4-0.4-2.1
		c0-0.7,0.1-1.4,0.4-2.1s0.6-1.3,1.1-1.8c0.5-0.5,1.1-0.9,1.7-1.2s1.4-0.4,2.3-0.4c0.8,0,1.6,0.1,2.3,0.4c0.7,0.3,1.3,0.7,1.7,1.2
		c0.5,0.5,0.9,1.1,1.1,1.8c0.3,0.7,0.4,1.4,0.4,2.1c0,0.7-0.1,1.4-0.4,2.1c-0.3,0.7-0.6,1.3-1.1,1.8s-1.1,0.9-1.7,1.2
		C224.9,56.4,224.1,56.6,223.3,56.6z M220.1,51.1c0,0.5,0.1,1,0.2,1.4s0.4,0.8,0.7,1.1c0.3,0.3,0.6,0.6,1,0.8s0.8,0.3,1.3,0.3
		c0.4,0,0.9-0.1,1.3-0.3c0.4-0.2,0.7-0.4,1-0.8c0.3-0.3,0.5-0.7,0.7-1.1c0.2-0.4,0.2-0.9,0.2-1.4c0-0.5-0.1-1-0.2-1.4
		c-0.2-0.4-0.4-0.8-0.7-1.2c-0.3-0.3-0.6-0.6-1-0.8c-0.4-0.2-0.8-0.3-1.3-0.3c-0.4,0-0.8,0.1-1.2,0.3c-0.4,0.2-0.7,0.4-1,0.8
		c-0.3,0.3-0.5,0.7-0.7,1.2C220.2,50.1,220.1,50.6,220.1,51.1z"/>
	<path class="st68" d="M239.7,56.6c-0.9,0-1.7-0.1-2.6-0.4c-0.8-0.3-1.6-0.7-2.2-1.2l0.9-1.4c0.6,0.5,1.3,0.8,1.9,1.1
		c0.6,0.2,1.3,0.4,1.9,0.4c0.7,0,1.2-0.1,1.6-0.4c0.4-0.3,0.6-0.6,0.6-1.1c0-0.4-0.2-0.8-0.7-1c-0.4-0.2-1.1-0.4-2-0.7
		c-0.7-0.2-1.2-0.3-1.7-0.5s-0.9-0.4-1.2-0.6c-0.3-0.2-0.5-0.5-0.7-0.8c-0.1-0.3-0.2-0.6-0.2-1c0-0.5,0.1-1,0.3-1.4
		c0.2-0.4,0.5-0.8,0.9-1.1c0.4-0.3,0.8-0.5,1.3-0.7c0.5-0.1,1-0.2,1.6-0.2c0.8,0,1.5,0.1,2.2,0.4c0.7,0.2,1.3,0.6,1.9,1.1l-1,1.3
		c-1-0.8-2-1.2-3.2-1.2c-0.6,0-1,0.1-1.4,0.4c-0.4,0.2-0.6,0.6-0.6,1.1c0,0.2,0,0.4,0.1,0.6c0.1,0.1,0.2,0.3,0.4,0.4
		s0.4,0.2,0.7,0.3c0.3,0.1,0.7,0.2,1.1,0.3c0.7,0.2,1.3,0.4,1.9,0.5c0.5,0.2,1,0.4,1.3,0.6s0.6,0.5,0.8,0.8c0.2,0.3,0.2,0.7,0.2,1.2
		c0,1-0.4,1.8-1.2,2.4C242.1,56.3,241,56.6,239.7,56.6z"/>
	<path class="st68" d="M250.8,56.6c-0.8,0-1.6-0.1-2.3-0.4c-0.7-0.3-1.3-0.7-1.7-1.2c-0.5-0.5-0.9-1.1-1.1-1.8
		c-0.3-0.7-0.4-1.4-0.4-2.1c0-0.7,0.1-1.5,0.4-2.1s0.6-1.3,1.1-1.8c0.5-0.5,1.1-0.9,1.7-1.2c0.7-0.3,1.4-0.4,2.3-0.4
		c0.8,0,1.6,0.1,2.3,0.4s1.2,0.7,1.7,1.2c0.5,0.5,0.8,1.1,1.1,1.7c0.3,0.7,0.4,1.3,0.4,2.1c0,0.2,0,0.3,0,0.5s0,0.3,0,0.4h-8.5
		c0,0.5,0.2,0.9,0.3,1.3c0.2,0.4,0.4,0.7,0.7,1c0.3,0.3,0.6,0.5,1,0.6c0.4,0.1,0.8,0.2,1.2,0.2c0.3,0,0.6,0,0.9-0.1
		c0.3-0.1,0.6-0.2,0.8-0.3s0.5-0.3,0.7-0.5c0.2-0.2,0.3-0.4,0.4-0.7l1.9,0.6c-0.4,0.8-1,1.5-1.8,2S251.9,56.6,250.8,56.6z M254,50.3
		c0-0.4-0.2-0.9-0.3-1.2c-0.2-0.4-0.4-0.7-0.7-1c-0.3-0.3-0.6-0.5-1-0.6c-0.4-0.1-0.8-0.2-1.2-0.2s-0.8,0.1-1.2,0.2
		c-0.4,0.1-0.7,0.4-1,0.6c-0.3,0.3-0.5,0.6-0.7,1c-0.2,0.4-0.3,0.8-0.3,1.2H254z"/>
	<path class="st68" d="M263.9,55.8c-0.3,0.1-0.7,0.3-1.2,0.5s-1,0.3-1.6,0.3c-0.4,0-0.7,0-1-0.1c-0.3-0.1-0.6-0.2-0.8-0.4
		c-0.2-0.2-0.4-0.4-0.6-0.7c-0.1-0.3-0.2-0.7-0.2-1.1v-6.7h-1.4v-1.7h1.4v-3.5h2.2v3.5h2.3v1.7h-2.3v6c0,0.4,0.1,0.7,0.4,0.8
		c0.2,0.2,0.5,0.3,0.8,0.3c0.3,0,0.6-0.1,0.9-0.2c0.3-0.1,0.5-0.2,0.6-0.3L263.9,55.8z"/>
	<path class="st68" d="M276.6,56.6c-0.9,0-1.6-0.2-2.3-0.6s-1.2-0.9-1.5-1.6v6.3h-2.2v-15h2v1.9c0.4-0.6,0.9-1.1,1.6-1.5
		c0.6-0.4,1.4-0.6,2.2-0.6c0.7,0,1.4,0.1,2,0.4c0.6,0.3,1.1,0.7,1.6,1.2c0.4,0.5,0.8,1.1,1.1,1.8c0.3,0.7,0.4,1.4,0.4,2.1
		c0,0.8-0.1,1.5-0.3,2.2c-0.2,0.7-0.6,1.3-1,1.8c-0.4,0.5-0.9,0.9-1.5,1.2S277.3,56.6,276.6,56.6z M275.8,54.7
		c0.5,0,0.9-0.1,1.3-0.3c0.4-0.2,0.7-0.5,1-0.8c0.3-0.3,0.5-0.7,0.6-1.2c0.1-0.4,0.2-0.9,0.2-1.3c0-0.5-0.1-1-0.3-1.4
		c-0.2-0.4-0.4-0.8-0.7-1.1c-0.3-0.3-0.6-0.6-1.1-0.8s-0.8-0.3-1.3-0.3c-0.3,0-0.6,0.1-0.9,0.2c-0.3,0.1-0.6,0.3-0.9,0.4
		c-0.3,0.2-0.5,0.4-0.7,0.7c-0.2,0.3-0.3,0.5-0.4,0.8v2.8c0.1,0.3,0.3,0.6,0.5,0.9c0.2,0.3,0.5,0.5,0.7,0.7c0.3,0.2,0.6,0.4,0.9,0.5
		C275.2,54.6,275.5,54.7,275.8,54.7z"/>
	<path class="st68" d="M286.1,56.6c-0.5,0-1-0.1-1.4-0.3c-0.4-0.2-0.8-0.4-1.1-0.7c-0.3-0.3-0.6-0.7-0.8-1.1s-0.3-0.8-0.3-1.3
		c0-0.5,0.1-1,0.3-1.4c0.2-0.4,0.5-0.8,0.9-1.1c0.4-0.3,0.9-0.5,1.4-0.7c0.6-0.2,1.2-0.2,1.8-0.2c0.5,0,1,0,1.5,0.1
		c0.5,0.1,0.9,0.2,1.3,0.4v-0.7c0-0.8-0.2-1.4-0.7-1.8c-0.4-0.4-1.1-0.7-1.9-0.7c-0.6,0-1.1,0.1-1.7,0.3c-0.6,0.2-1.1,0.5-1.7,0.9
		l-0.7-1.4c1.4-0.9,2.8-1.4,4.3-1.4c1.5,0,2.6,0.4,3.4,1.1s1.2,1.8,1.2,3.2v3.9c0,0.5,0.2,0.7,0.6,0.7v1.9c-0.2,0-0.4,0.1-0.6,0.1
		c-0.2,0-0.3,0-0.5,0c-0.4,0-0.8-0.1-1-0.3c-0.2-0.2-0.4-0.5-0.4-0.8l-0.1-0.7c-0.5,0.6-1.1,1.1-1.8,1.4
		C287.7,56.4,286.9,56.6,286.1,56.6z M286.8,54.9c0.5,0,1.1-0.1,1.5-0.3c0.5-0.2,0.9-0.5,1.1-0.8c0.3-0.2,0.4-0.5,0.4-0.8v-1.4
		c-0.4-0.1-0.8-0.3-1.2-0.3s-0.8-0.1-1.3-0.1c-0.8,0-1.5,0.2-2,0.5s-0.8,0.8-0.8,1.4c0,0.5,0.2,1,0.6,1.3
		C285.6,54.8,286.1,54.9,286.8,54.9z"/>
	<path class="st68" d="M298.7,56.6c-0.9,0-1.7-0.1-2.6-0.4c-0.8-0.3-1.6-0.7-2.2-1.2l0.9-1.4c0.6,0.5,1.3,0.8,1.9,1.1
		c0.6,0.2,1.3,0.4,1.9,0.4c0.7,0,1.2-0.1,1.6-0.4c0.4-0.3,0.6-0.6,0.6-1.1c0-0.4-0.2-0.8-0.7-1c-0.4-0.2-1.1-0.4-2-0.7
		c-0.7-0.2-1.2-0.3-1.7-0.5s-0.9-0.4-1.2-0.6c-0.3-0.2-0.5-0.5-0.7-0.8c-0.1-0.3-0.2-0.6-0.2-1c0-0.5,0.1-1,0.3-1.4
		c0.2-0.4,0.5-0.8,0.9-1.1c0.4-0.3,0.8-0.5,1.3-0.7c0.5-0.1,1-0.2,1.6-0.2c0.8,0,1.5,0.1,2.2,0.4c0.7,0.2,1.3,0.6,1.9,1.1l-1,1.3
		c-1-0.8-2-1.2-3.2-1.2c-0.6,0-1,0.1-1.4,0.4c-0.4,0.2-0.6,0.6-0.6,1.1c0,0.2,0,0.4,0.1,0.6c0.1,0.1,0.2,0.3,0.4,0.4
		s0.4,0.2,0.7,0.3c0.3,0.1,0.7,0.2,1.1,0.3c0.7,0.2,1.3,0.4,1.9,0.5c0.5,0.2,1,0.4,1.3,0.6s0.6,0.5,0.8,0.8c0.2,0.3,0.2,0.7,0.2,1.2
		c0,1-0.4,1.8-1.2,2.4C301,56.3,300,56.6,298.7,56.6z"/>
	<path class="st68" d="M308.8,56.6c-0.9,0-1.7-0.1-2.6-0.4c-0.8-0.3-1.6-0.7-2.2-1.2l0.9-1.4c0.6,0.5,1.3,0.8,1.9,1.1
		c0.6,0.2,1.3,0.4,1.9,0.4c0.7,0,1.2-0.1,1.6-0.4c0.4-0.3,0.6-0.6,0.6-1.1c0-0.4-0.2-0.8-0.7-1c-0.4-0.2-1.1-0.4-2-0.7
		c-0.7-0.2-1.2-0.3-1.7-0.5s-0.9-0.4-1.2-0.6c-0.3-0.2-0.5-0.5-0.7-0.8c-0.1-0.3-0.2-0.6-0.2-1c0-0.5,0.1-1,0.3-1.4
		c0.2-0.4,0.5-0.8,0.9-1.1c0.4-0.3,0.8-0.5,1.3-0.7c0.5-0.1,1-0.2,1.6-0.2c0.8,0,1.5,0.1,2.2,0.4c0.7,0.2,1.3,0.6,1.9,1.1l-1,1.3
		c-1-0.8-2-1.2-3.2-1.2c-0.6,0-1,0.1-1.4,0.4c-0.4,0.2-0.6,0.6-0.6,1.1c0,0.2,0,0.4,0.1,0.6c0.1,0.1,0.2,0.3,0.4,0.4
		s0.4,0.2,0.7,0.3c0.3,0.1,0.7,0.2,1.1,0.3c0.7,0.2,1.3,0.4,1.9,0.5c0.5,0.2,1,0.4,1.3,0.6s0.6,0.5,0.8,0.8c0.2,0.3,0.2,0.7,0.2,1.2
		c0,1-0.4,1.8-1.2,2.4C311.2,56.3,310.1,56.6,308.8,56.6z"/>
	<path class="st68" d="M328.1,45.7h2.1l-4.5,10.7h-1.9l-2-5l-2,5h-1.9l-4.5-10.7h2.1l3.4,8.5l1.5-4l-1.9-4.5h1.8l1.2,3.3l1.2-3.3
		h1.8l-1.8,4.5l1.5,4L328.1,45.7z"/>
	<path class="st68" d="M336.2,56.6c-0.8,0-1.6-0.1-2.3-0.4s-1.2-0.7-1.7-1.2c-0.5-0.5-0.8-1.1-1.1-1.8s-0.4-1.4-0.4-2.1
		c0-0.7,0.1-1.4,0.4-2.1s0.6-1.3,1.1-1.8c0.5-0.5,1.1-0.9,1.7-1.2s1.4-0.4,2.3-0.4c0.8,0,1.6,0.1,2.3,0.4c0.7,0.3,1.3,0.7,1.7,1.2
		c0.5,0.5,0.9,1.1,1.1,1.8c0.3,0.7,0.4,1.4,0.4,2.1c0,0.7-0.1,1.4-0.4,2.1c-0.3,0.7-0.6,1.3-1.1,1.8s-1.1,0.9-1.7,1.2
		C337.7,56.4,337,56.6,336.2,56.6z M333,51.1c0,0.5,0.1,1,0.2,1.4s0.4,0.8,0.7,1.1c0.3,0.3,0.6,0.6,1,0.8s0.8,0.3,1.3,0.3
		c0.4,0,0.9-0.1,1.3-0.3c0.4-0.2,0.7-0.4,1-0.8c0.3-0.3,0.5-0.7,0.7-1.1c0.2-0.4,0.2-0.9,0.2-1.4c0-0.5-0.1-1-0.2-1.4
		c-0.2-0.4-0.4-0.8-0.7-1.2c-0.3-0.3-0.6-0.6-1-0.8c-0.4-0.2-0.8-0.3-1.3-0.3c-0.4,0-0.8,0.1-1.2,0.3c-0.4,0.2-0.7,0.4-1,0.8
		c-0.3,0.3-0.5,0.7-0.7,1.2C333.1,50.1,333,50.6,333,51.1z"/>
	<path class="st68" d="M349.6,47.7c-0.9,0-1.6,0.2-2.3,0.6c-0.7,0.4-1.2,0.9-1.4,1.6v6.5h-2.2V45.7h2.1v2.4c0.4-0.7,0.8-1.3,1.4-1.8
		c0.6-0.4,1.2-0.7,1.9-0.7c0.1,0,0.2,0,0.3,0s0.2,0,0.2,0V47.7z"/>
	<path class="st68" d="M355.1,56.6c-0.7,0-1.4-0.1-2-0.4c-0.6-0.3-1.1-0.7-1.6-1.2c-0.4-0.5-0.8-1.1-1.1-1.8
		c-0.3-0.7-0.4-1.4-0.4-2.2c0-0.7,0.1-1.5,0.4-2.1c0.2-0.7,0.6-1.2,1-1.7c0.4-0.5,0.9-0.9,1.5-1.2c0.6-0.3,1.2-0.4,1.9-0.4
		c0.9,0,1.6,0.2,2.3,0.6s1.2,0.9,1.5,1.6v-6.2h2.2v12.2c0,0.3,0,0.4,0.1,0.6c0.1,0.1,0.2,0.2,0.5,0.2v1.9c-0.2,0-0.4,0.1-0.6,0.1
		c-0.1,0-0.3,0-0.4,0c-0.4,0-0.8-0.1-1.1-0.3c-0.3-0.2-0.4-0.5-0.5-0.9l0-0.8c-0.4,0.7-0.9,1.2-1.6,1.6
		C356.7,56.4,355.9,56.6,355.1,56.6z M355.6,54.7c0.3,0,0.7-0.1,1-0.2s0.6-0.3,0.9-0.4c0.3-0.2,0.5-0.4,0.7-0.7
		c0.2-0.3,0.3-0.5,0.4-0.8v-2.8c-0.1-0.3-0.3-0.7-0.5-0.9c-0.2-0.3-0.5-0.5-0.8-0.7c-0.3-0.2-0.6-0.4-0.9-0.5
		c-0.3-0.1-0.6-0.2-1-0.2c-0.4,0-0.9,0.1-1.2,0.3c-0.4,0.2-0.7,0.5-1,0.8s-0.5,0.7-0.6,1.2c-0.2,0.4-0.2,0.9-0.2,1.3
		c0,0.5,0.1,1,0.3,1.4c0.2,0.4,0.4,0.8,0.7,1.1s0.6,0.6,1,0.8C354.8,54.6,355.2,54.7,355.6,54.7z"/>
	<path class="st68" d="M374.7,55.8c-0.3,0.1-0.7,0.3-1.2,0.5s-1,0.3-1.6,0.3c-0.4,0-0.7,0-1-0.1c-0.3-0.1-0.6-0.2-0.8-0.4
		c-0.2-0.2-0.4-0.4-0.6-0.7c-0.1-0.3-0.2-0.7-0.2-1.1v-6.7h-1.4v-1.7h1.4v-3.5h2.2v3.5h2.3v1.7h-2.3v6c0,0.4,0.1,0.7,0.4,0.8
		c0.2,0.2,0.5,0.3,0.8,0.3c0.3,0,0.6-0.1,0.9-0.2c0.3-0.1,0.5-0.2,0.6-0.3L374.7,55.8z"/>
	<path class="st68" d="M380.8,56.6c-0.8,0-1.6-0.1-2.3-0.4c-0.7-0.3-1.3-0.7-1.7-1.2c-0.5-0.5-0.9-1.1-1.1-1.8
		c-0.3-0.7-0.4-1.4-0.4-2.1c0-0.7,0.1-1.5,0.4-2.1s0.6-1.3,1.1-1.8c0.5-0.5,1.1-0.9,1.7-1.2c0.7-0.3,1.4-0.4,2.3-0.4
		c0.8,0,1.6,0.1,2.3,0.4s1.2,0.7,1.7,1.2c0.5,0.5,0.8,1.1,1.1,1.7c0.3,0.7,0.4,1.3,0.4,2.1c0,0.2,0,0.3,0,0.5s0,0.3,0,0.4h-8.5
		c0,0.5,0.2,0.9,0.3,1.3c0.2,0.4,0.4,0.7,0.7,1c0.3,0.3,0.6,0.5,1,0.6c0.4,0.1,0.8,0.2,1.2,0.2c0.3,0,0.6,0,0.9-0.1
		c0.3-0.1,0.6-0.2,0.8-0.3s0.5-0.3,0.7-0.5c0.2-0.2,0.3-0.4,0.4-0.7l1.9,0.6c-0.4,0.8-1,1.5-1.8,2S381.9,56.6,380.8,56.6z M384,50.3
		c0-0.4-0.2-0.9-0.3-1.2c-0.2-0.4-0.4-0.7-0.7-1c-0.3-0.3-0.6-0.5-1-0.6c-0.4-0.1-0.8-0.2-1.2-0.2s-0.8,0.1-1.2,0.2
		c-0.4,0.1-0.7,0.4-1,0.6c-0.3,0.3-0.5,0.6-0.7,1c-0.2,0.4-0.3,0.8-0.3,1.2H384z"/>
	<path class="st68" d="M388.9,45.7l2.6,3.6l0.2,0.3l0.2-0.3l2.6-3.6h2.3l-3.9,5.3l3.9,5.3h-2.3l-2.6-3.6l-0.2-0.3l-0.2,0.3l-2.6,3.6
		h-2.3l3.9-5.3l-3.9-5.3H388.9z"/>
	<path class="st68" d="M404.3,55.8c-0.3,0.1-0.7,0.3-1.2,0.5s-1,0.3-1.6,0.3c-0.4,0-0.7,0-1-0.1c-0.3-0.1-0.6-0.2-0.8-0.4
		c-0.2-0.2-0.4-0.4-0.6-0.7c-0.1-0.3-0.2-0.7-0.2-1.1v-6.7h-1.4v-1.7h1.4v-3.5h2.2v3.5h2.3v1.7h-2.3v6c0,0.4,0.1,0.7,0.4,0.8
		c0.2,0.2,0.5,0.3,0.8,0.3c0.3,0,0.6-0.1,0.9-0.2c0.3-0.1,0.5-0.2,0.6-0.3L404.3,55.8z"/>
	<path class="st68" d="M405.8,48.4v-2.6h1.9v2.6H405.8z M405.8,56.4v-2.6h1.9v2.6H405.8z"/>
</g>
<g>
	<path class="st68" d="M497.4,107.9h-4.8v12.5h-2.3v-12.5h-4.8v-2h11.9V107.9z"/>
	<path class="st68" d="M501.5,120.6c-0.8,0-1.6-0.1-2.3-0.4s-1.2-0.7-1.7-1.2s-0.8-1.1-1.1-1.8c-0.3-0.7-0.4-1.4-0.4-2.1
		c0-0.7,0.1-1.4,0.4-2.1c0.3-0.7,0.6-1.3,1.1-1.8c0.5-0.5,1.1-0.9,1.7-1.2s1.4-0.4,2.3-0.4s1.6,0.1,2.3,0.4s1.3,0.7,1.7,1.2
		c0.5,0.5,0.9,1.1,1.1,1.8c0.3,0.7,0.4,1.4,0.4,2.1c0,0.7-0.1,1.4-0.4,2.1c-0.3,0.7-0.6,1.3-1.1,1.8s-1.1,0.9-1.7,1.2
		S502.3,120.6,501.5,120.6z M498.3,115.1c0,0.5,0.1,1,0.2,1.4s0.4,0.8,0.7,1.1c0.3,0.3,0.6,0.6,1,0.8s0.8,0.3,1.3,0.3
		s0.9-0.1,1.3-0.3c0.4-0.2,0.7-0.4,1-0.8s0.5-0.7,0.7-1.1c0.2-0.4,0.2-0.9,0.2-1.4c0-0.5-0.1-1-0.2-1.4c-0.2-0.4-0.4-0.8-0.7-1.2
		c-0.3-0.3-0.6-0.6-1-0.8c-0.4-0.2-0.8-0.3-1.3-0.3c-0.4,0-0.8,0.1-1.2,0.3c-0.4,0.2-0.7,0.4-1,0.8c-0.3,0.3-0.5,0.7-0.7,1.2
		C498.4,114.1,498.3,114.6,498.3,115.1z"/>
	<path class="st68" d="M518.2,120.5c-0.7,0-1.4-0.1-2-0.4c-0.6-0.3-1.1-0.7-1.5-1.2c-0.4-0.5-0.8-1.1-1-1.7
		c-0.2-0.7-0.4-1.3-0.4-2.1c0-0.8,0.1-1.5,0.4-2.2c0.2-0.7,0.6-1.3,1-1.8c0.4-0.5,1-0.9,1.6-1.2c0.6-0.3,1.3-0.4,2-0.4
		c0.9,0,1.6,0.2,2.3,0.6c0.6,0.4,1.2,0.9,1.6,1.6v-2h2v10.4c0,0.8-0.1,1.5-0.4,2.1c-0.3,0.6-0.7,1.1-1.2,1.5s-1.1,0.7-1.8,0.9
		c-0.7,0.2-1.4,0.3-2.2,0.3c-1.2,0-2.2-0.2-2.9-0.6s-1.4-1-2-1.7l1.3-1.2c0.4,0.6,0.9,1,1.6,1.3s1.3,0.4,2.1,0.4
		c0.5,0,0.9-0.1,1.3-0.2c0.4-0.1,0.8-0.3,1.1-0.6c0.3-0.3,0.6-0.6,0.7-1c0.2-0.4,0.3-0.9,0.3-1.4v-1.6c-0.4,0.7-0.9,1.2-1.6,1.5
		C519.7,120.3,519,120.5,518.2,120.5z M519,118.7c0.3,0,0.7-0.1,1-0.2c0.3-0.1,0.6-0.3,0.9-0.5c0.3-0.2,0.5-0.4,0.7-0.7
		c0.2-0.3,0.3-0.5,0.4-0.8v-2.8c-0.1-0.3-0.3-0.6-0.5-0.9c-0.2-0.3-0.5-0.5-0.7-0.7c-0.3-0.2-0.6-0.4-0.9-0.5
		c-0.3-0.1-0.6-0.2-0.9-0.2c-0.5,0-0.9,0.1-1.3,0.3c-0.4,0.2-0.7,0.5-1,0.8c-0.3,0.3-0.5,0.7-0.6,1.2c-0.2,0.4-0.2,0.9-0.2,1.3
		c0,0.5,0.1,0.9,0.3,1.4s0.4,0.8,0.7,1.1c0.3,0.3,0.6,0.6,1,0.8C518,118.6,518.5,118.7,519,118.7z"/>
	<path class="st68" d="M531.7,120.6c-0.8,0-1.6-0.1-2.3-0.4s-1.3-0.7-1.7-1.2c-0.5-0.5-0.9-1.1-1.1-1.8c-0.3-0.7-0.4-1.4-0.4-2.1
		c0-0.7,0.1-1.5,0.4-2.1c0.3-0.7,0.6-1.3,1.1-1.8c0.5-0.5,1.1-0.9,1.7-1.2c0.7-0.3,1.4-0.4,2.3-0.4c0.8,0,1.6,0.1,2.3,0.4
		s1.2,0.7,1.7,1.2c0.5,0.5,0.8,1.1,1.1,1.7c0.3,0.7,0.4,1.3,0.4,2.1c0,0.2,0,0.3,0,0.5c0,0.1,0,0.3,0,0.4h-8.5
		c0,0.5,0.2,0.9,0.3,1.3c0.2,0.4,0.4,0.7,0.7,1c0.3,0.3,0.6,0.5,1,0.6c0.4,0.1,0.8,0.2,1.2,0.2c0.3,0,0.6,0,0.9-0.1s0.6-0.2,0.8-0.3
		c0.2-0.1,0.5-0.3,0.7-0.5c0.2-0.2,0.3-0.4,0.4-0.7l1.9,0.6c-0.4,0.8-1,1.5-1.8,2S532.8,120.6,531.7,120.6z M534.9,114.2
		c0-0.4-0.2-0.9-0.3-1.2c-0.2-0.4-0.4-0.7-0.7-1c-0.3-0.3-0.6-0.5-1-0.6c-0.4-0.1-0.8-0.2-1.2-0.2c-0.4,0-0.8,0.1-1.2,0.2
		s-0.7,0.4-1,0.6s-0.5,0.6-0.7,1c-0.2,0.4-0.3,0.8-0.3,1.2H534.9z"/>
	<path class="st68" d="M544.8,119.8c-0.3,0.1-0.7,0.3-1.2,0.5s-1,0.3-1.6,0.3c-0.4,0-0.7,0-1-0.1c-0.3-0.1-0.6-0.2-0.8-0.4
		c-0.2-0.2-0.4-0.4-0.6-0.7s-0.2-0.7-0.2-1.1v-6.7H538v-1.7h1.4v-3.5h2.2v3.5h2.3v1.7h-2.3v6c0,0.4,0.1,0.7,0.4,0.8s0.5,0.3,0.8,0.3
		s0.6-0.1,0.9-0.2c0.3-0.1,0.5-0.2,0.6-0.3L544.8,119.8z"/>
	<path class="st68" d="M557.4,120.6c-0.9,0-1.6-0.2-2.3-0.6s-1.2-0.9-1.5-1.6v6.3h-2.2v-15h2v1.9c0.4-0.6,0.9-1.1,1.6-1.5
		c0.6-0.4,1.4-0.6,2.2-0.6c0.7,0,1.4,0.1,2,0.4s1.1,0.7,1.6,1.2c0.4,0.5,0.8,1.1,1,1.8c0.3,0.7,0.4,1.4,0.4,2.1
		c0,0.8-0.1,1.5-0.3,2.2c-0.2,0.7-0.6,1.3-1,1.8c-0.4,0.5-0.9,0.9-1.5,1.2S558.1,120.6,557.4,120.6z M556.7,118.7
		c0.5,0,0.9-0.1,1.3-0.3c0.4-0.2,0.7-0.5,1-0.8c0.3-0.3,0.5-0.7,0.6-1.2c0.1-0.4,0.2-0.9,0.2-1.3c0-0.5-0.1-1-0.3-1.4
		c-0.2-0.4-0.4-0.8-0.7-1.1c-0.3-0.3-0.6-0.6-1-0.8c-0.4-0.2-0.8-0.3-1.3-0.3c-0.3,0-0.6,0.1-0.9,0.2c-0.3,0.1-0.6,0.3-0.9,0.4
		c-0.3,0.2-0.5,0.4-0.7,0.7c-0.2,0.3-0.3,0.5-0.4,0.8v2.8c0.1,0.3,0.3,0.6,0.5,0.9c0.2,0.3,0.5,0.5,0.7,0.7c0.3,0.2,0.6,0.4,0.9,0.5
		C556.1,118.6,556.4,118.7,556.7,118.7z"/>
	<path class="st68" d="M567,120.6c-0.5,0-1-0.1-1.4-0.3c-0.4-0.2-0.8-0.4-1.1-0.7c-0.3-0.3-0.6-0.7-0.8-1.1s-0.3-0.8-0.3-1.3
		c0-0.5,0.1-1,0.3-1.4c0.2-0.4,0.5-0.8,0.9-1.1c0.4-0.3,0.9-0.5,1.4-0.7c0.5-0.2,1.2-0.2,1.8-0.2c0.5,0,1,0,1.5,0.1s0.9,0.2,1.3,0.4
		v-0.7c0-0.8-0.2-1.4-0.7-1.8c-0.4-0.4-1.1-0.7-1.9-0.7c-0.6,0-1.1,0.1-1.7,0.3c-0.6,0.2-1.1,0.5-1.7,0.9l-0.7-1.4
		c1.4-0.9,2.8-1.4,4.3-1.4c1.5,0,2.6,0.4,3.4,1.1s1.2,1.8,1.2,3.2v3.9c0,0.5,0.2,0.7,0.6,0.7v1.9c-0.2,0-0.4,0.1-0.6,0.1
		c-0.2,0-0.3,0-0.5,0c-0.4,0-0.8-0.1-1-0.3c-0.2-0.2-0.4-0.5-0.4-0.8l-0.1-0.7c-0.5,0.6-1.1,1.1-1.8,1.4
		C568.6,120.4,567.8,120.6,567,120.6z M567.6,118.9c0.5,0,1.1-0.1,1.5-0.3c0.5-0.2,0.9-0.5,1.1-0.8c0.3-0.2,0.4-0.5,0.4-0.8v-1.4
		c-0.4-0.1-0.8-0.3-1.2-0.3s-0.8-0.1-1.3-0.1c-0.8,0-1.5,0.2-2,0.5s-0.8,0.8-0.8,1.4c0,0.5,0.2,1,0.6,1.3
		C566.5,118.8,567,118.9,567.6,118.9z"/>
	<path class="st68" d="M579.6,120.6c-0.9,0-1.7-0.1-2.6-0.4c-0.8-0.3-1.6-0.7-2.2-1.2l0.9-1.4c0.6,0.5,1.3,0.8,1.9,1.1
		s1.3,0.4,1.9,0.4c0.7,0,1.2-0.1,1.6-0.4c0.4-0.3,0.6-0.6,0.6-1.1c0-0.4-0.2-0.8-0.7-1c-0.4-0.2-1.1-0.4-2-0.7
		c-0.7-0.2-1.2-0.3-1.7-0.5s-0.9-0.4-1.2-0.6c-0.3-0.2-0.5-0.5-0.7-0.8c-0.1-0.3-0.2-0.6-0.2-1c0-0.5,0.1-1,0.3-1.4s0.5-0.8,0.9-1.1
		c0.4-0.3,0.8-0.5,1.3-0.7s1-0.2,1.6-0.2c0.8,0,1.5,0.1,2.2,0.4s1.3,0.6,1.9,1.1l-1,1.3c-1-0.8-2-1.2-3.2-1.2
		c-0.6,0-1.1,0.1-1.4,0.4c-0.4,0.2-0.6,0.6-0.6,1.1c0,0.2,0,0.4,0.1,0.6c0.1,0.1,0.2,0.3,0.4,0.4s0.4,0.2,0.7,0.3
		c0.3,0.1,0.7,0.2,1.1,0.3c0.7,0.2,1.3,0.4,1.9,0.5c0.5,0.2,1,0.4,1.3,0.6c0.3,0.2,0.6,0.5,0.8,0.8c0.2,0.3,0.2,0.7,0.2,1.2
		c0,1-0.4,1.8-1.2,2.4S580.9,120.6,579.6,120.6z"/>
	<path class="st68" d="M589.7,120.6c-0.9,0-1.7-0.1-2.6-0.4c-0.8-0.3-1.6-0.7-2.2-1.2l0.9-1.4c0.6,0.5,1.3,0.8,1.9,1.1
		s1.3,0.4,1.9,0.4c0.7,0,1.2-0.1,1.6-0.4c0.4-0.3,0.6-0.6,0.6-1.1c0-0.4-0.2-0.8-0.7-1c-0.4-0.2-1.1-0.4-2-0.7
		c-0.7-0.2-1.2-0.3-1.7-0.5s-0.9-0.4-1.2-0.6c-0.3-0.2-0.5-0.5-0.7-0.8c-0.1-0.3-0.2-0.6-0.2-1c0-0.5,0.1-1,0.3-1.4s0.5-0.8,0.9-1.1
		c0.4-0.3,0.8-0.5,1.3-0.7s1-0.2,1.6-0.2c0.8,0,1.5,0.1,2.2,0.4s1.3,0.6,1.9,1.1l-1,1.3c-1-0.8-2-1.2-3.2-1.2
		c-0.6,0-1.1,0.1-1.4,0.4c-0.4,0.2-0.6,0.6-0.6,1.1c0,0.2,0,0.4,0.1,0.6c0.1,0.1,0.2,0.3,0.4,0.4s0.4,0.2,0.7,0.3
		c0.3,0.1,0.7,0.2,1.1,0.3c0.7,0.2,1.3,0.4,1.9,0.5c0.5,0.2,1,0.4,1.3,0.6c0.3,0.2,0.6,0.5,0.8,0.8c0.2,0.3,0.2,0.7,0.2,1.2
		c0,1-0.4,1.8-1.2,2.4S591,120.6,589.7,120.6z"/>
	<path class="st68" d="M609,109.7h2.1l-4.5,10.7h-1.9l-2-5l-2,5H599l-4.5-10.7h2.1l3.4,8.5l1.5-4l-1.9-4.5h1.8l1.2,3.3l1.2-3.3h1.8
		l-1.8,4.5l1.5,4L609,109.7z"/>
	<path class="st68" d="M617,120.6c-0.8,0-1.6-0.1-2.3-0.4s-1.2-0.7-1.7-1.2s-0.8-1.1-1.1-1.8c-0.3-0.7-0.4-1.4-0.4-2.1
		c0-0.7,0.1-1.4,0.4-2.1c0.3-0.7,0.6-1.3,1.1-1.8c0.5-0.5,1.1-0.9,1.7-1.2s1.4-0.4,2.3-0.4s1.6,0.1,2.3,0.4s1.3,0.7,1.7,1.2
		c0.5,0.5,0.9,1.1,1.1,1.8c0.3,0.7,0.4,1.4,0.4,2.1c0,0.7-0.1,1.4-0.4,2.1c-0.3,0.7-0.6,1.3-1.1,1.8s-1.1,0.9-1.7,1.2
		S617.9,120.6,617,120.6z M613.9,115.1c0,0.5,0.1,1,0.2,1.4s0.4,0.8,0.7,1.1c0.3,0.3,0.6,0.6,1,0.8s0.8,0.3,1.3,0.3s0.9-0.1,1.3-0.3
		c0.4-0.2,0.7-0.4,1-0.8s0.5-0.7,0.7-1.1c0.2-0.4,0.2-0.9,0.2-1.4c0-0.5-0.1-1-0.2-1.4c-0.2-0.4-0.4-0.8-0.7-1.2
		c-0.3-0.3-0.6-0.6-1-0.8c-0.4-0.2-0.8-0.3-1.3-0.3c-0.4,0-0.8,0.1-1.2,0.3c-0.4,0.2-0.7,0.4-1,0.8c-0.3,0.3-0.5,0.7-0.7,1.2
		C613.9,114.1,613.9,114.6,613.9,115.1z"/>
	<path class="st68" d="M630.5,111.7c-0.9,0-1.6,0.2-2.3,0.6c-0.7,0.4-1.2,0.9-1.4,1.6v6.5h-2.2v-10.7h2.1v2.4
		c0.4-0.7,0.8-1.3,1.4-1.8c0.6-0.4,1.2-0.7,1.9-0.7c0.1,0,0.2,0,0.3,0c0.1,0,0.2,0,0.2,0V111.7z"/>
	<path class="st68" d="M636,120.6c-0.7,0-1.4-0.1-2-0.4c-0.6-0.3-1.1-0.7-1.6-1.2c-0.4-0.5-0.8-1.1-1-1.8c-0.3-0.7-0.4-1.4-0.4-2.2
		c0-0.7,0.1-1.5,0.4-2.1c0.2-0.7,0.6-1.2,1-1.7c0.4-0.5,0.9-0.9,1.5-1.2c0.6-0.3,1.2-0.4,1.9-0.4c0.9,0,1.6,0.2,2.3,0.6
		s1.2,0.9,1.5,1.6v-6.2h2.2v12.2c0,0.3,0,0.4,0.1,0.6c0.1,0.1,0.2,0.2,0.5,0.2v1.9c-0.2,0-0.4,0.1-0.6,0.1c-0.1,0-0.3,0-0.4,0
		c-0.4,0-0.8-0.1-1.1-0.3c-0.3-0.2-0.4-0.5-0.5-0.9l0-0.8c-0.4,0.7-0.9,1.2-1.6,1.6S636.8,120.6,636,120.6z M636.5,118.7
		c0.3,0,0.7-0.1,1-0.2s0.6-0.3,0.9-0.4c0.3-0.2,0.5-0.4,0.7-0.7c0.2-0.3,0.3-0.5,0.4-0.8v-2.8c-0.1-0.3-0.3-0.7-0.5-0.9
		c-0.2-0.3-0.5-0.5-0.8-0.7c-0.3-0.2-0.6-0.4-0.9-0.5c-0.3-0.1-0.6-0.2-1-0.2c-0.4,0-0.9,0.1-1.2,0.3c-0.4,0.2-0.7,0.5-1,0.8
		c-0.3,0.3-0.5,0.7-0.6,1.2c-0.2,0.4-0.2,0.9-0.2,1.3c0,0.5,0.1,1,0.3,1.4c0.2,0.4,0.4,0.8,0.7,1.1s0.6,0.6,1,0.8
		C635.6,118.6,636.1,118.7,636.5,118.7z"/>
	<path class="st68" d="M655.6,119.8c-0.3,0.1-0.7,0.3-1.2,0.5s-1,0.3-1.6,0.3c-0.4,0-0.7,0-1-0.1c-0.3-0.1-0.6-0.2-0.8-0.4
		c-0.2-0.2-0.4-0.4-0.6-0.7s-0.2-0.7-0.2-1.1v-6.7h-1.4v-1.7h1.4v-3.5h2.2v3.5h2.3v1.7h-2.3v6c0,0.4,0.1,0.7,0.4,0.8
		s0.5,0.3,0.8,0.3s0.6-0.1,0.9-0.2c0.3-0.1,0.5-0.2,0.6-0.3L655.6,119.8z"/>
	<path class="st68" d="M661.7,120.6c-0.8,0-1.6-0.1-2.3-0.4s-1.3-0.7-1.7-1.2c-0.5-0.5-0.9-1.1-1.1-1.8c-0.3-0.7-0.4-1.4-0.4-2.1
		c0-0.7,0.1-1.5,0.4-2.1c0.3-0.7,0.6-1.3,1.1-1.8c0.5-0.5,1.1-0.9,1.7-1.2c0.7-0.3,1.4-0.4,2.3-0.4c0.8,0,1.6,0.1,2.3,0.4
		s1.2,0.7,1.7,1.2c0.5,0.5,0.8,1.1,1.1,1.7c0.3,0.7,0.4,1.3,0.4,2.1c0,0.2,0,0.3,0,0.5c0,0.1,0,0.3,0,0.4h-8.5
		c0,0.5,0.2,0.9,0.3,1.3c0.2,0.4,0.4,0.7,0.7,1c0.3,0.3,0.6,0.5,1,0.6c0.4,0.1,0.8,0.2,1.2,0.2c0.3,0,0.6,0,0.9-0.1s0.6-0.2,0.8-0.3
		c0.2-0.1,0.5-0.3,0.7-0.5c0.2-0.2,0.3-0.4,0.4-0.7l1.9,0.6c-0.4,0.8-1,1.5-1.8,2S662.8,120.6,661.7,120.6z M664.9,114.2
		c0-0.4-0.2-0.9-0.3-1.2c-0.2-0.4-0.4-0.7-0.7-1c-0.3-0.3-0.6-0.5-1-0.6c-0.4-0.1-0.8-0.2-1.2-0.2c-0.4,0-0.8,0.1-1.2,0.2
		s-0.7,0.4-1,0.6s-0.5,0.6-0.7,1c-0.2,0.4-0.3,0.8-0.3,1.2H664.9z"/>
	<path class="st68" d="M669.8,109.7l2.6,3.6l0.2,0.3l0.2-0.3l2.6-3.6h2.3l-3.9,5.3l3.9,5.3h-2.3l-2.6-3.6l-0.2-0.3l-0.2,0.3
		l-2.6,3.6h-2.3l3.9-5.3l-3.9-5.3H669.8z"/>
	<path class="st68" d="M685.2,119.8c-0.3,0.1-0.7,0.3-1.2,0.5s-1,0.3-1.6,0.3c-0.4,0-0.7,0-1-0.1c-0.3-0.1-0.6-0.2-0.8-0.4
		c-0.2-0.2-0.4-0.4-0.6-0.7s-0.2-0.7-0.2-1.1v-6.7h-1.4v-1.7h1.4v-3.5h2.2v3.5h2.3v1.7H682v6c0,0.4,0.1,0.7,0.4,0.8s0.5,0.3,0.8,0.3
		s0.6-0.1,0.9-0.2c0.3-0.1,0.5-0.2,0.6-0.3L685.2,119.8z"/>
	<path class="st68" d="M686.7,112.4v-2.6h1.9v2.6H686.7z M686.7,120.4v-2.6h1.9v2.6H686.7z"/>
</g>
<g>
	<path class="st0" d="M183,113.2l-0.5,2.8h0.6v2.7h-1.8V116l0.7-2.8H183z M186.2,113.2l-0.5,2.8h0.6v2.7h-1.8V116l0.7-2.8H186.2z"/>
	<path class="st0" d="M201.5,117.2c-0.5-0.6-1.2-1.1-2.1-1.5c-0.9-0.4-1.9-0.6-3-0.6c-1.7,0-2.9,0.3-3.6,0.9s-1.1,1.5-1.1,2.6
		c0,0.6,0.1,1,0.3,1.4c0.2,0.4,0.5,0.7,0.9,0.9c0.4,0.3,1,0.5,1.6,0.7c0.7,0.2,1.4,0.4,2.3,0.6c1,0.2,1.9,0.5,2.7,0.7
		c0.8,0.3,1.5,0.6,2.1,1c0.6,0.4,1,0.9,1.3,1.4c0.3,0.6,0.5,1.3,0.5,2.1c0,0.9-0.2,1.6-0.5,2.3c-0.3,0.6-0.8,1.2-1.4,1.6
		c-0.6,0.4-1.3,0.7-2.1,0.9c-0.8,0.2-1.7,0.3-2.7,0.3c-2.9,0-5.4-0.9-7.6-2.7l0.9-1.5c0.3,0.4,0.7,0.7,1.2,1c0.5,0.3,1,0.6,1.6,0.8
		c0.6,0.2,1.2,0.4,1.8,0.6c0.7,0.1,1.3,0.2,2.1,0.2c1.5,0,2.7-0.3,3.5-0.8c0.8-0.5,1.3-1.4,1.3-2.5c0-0.6-0.1-1.1-0.4-1.5
		c-0.2-0.4-0.6-0.7-1.1-1s-1.1-0.5-1.8-0.8c-0.7-0.2-1.5-0.4-2.5-0.6c-1-0.2-1.9-0.5-2.6-0.7c-0.7-0.2-1.4-0.6-1.9-0.9
		c-0.5-0.4-0.9-0.8-1.2-1.3c-0.3-0.5-0.4-1.2-0.4-1.9c0-0.9,0.2-1.6,0.5-2.3s0.8-1.2,1.4-1.7c0.6-0.5,1.3-0.8,2.1-1
		c0.8-0.2,1.7-0.4,2.7-0.4c1.3,0,2.4,0.2,3.4,0.6c1,0.4,1.9,0.9,2.7,1.6L201.5,117.2z"/>
	<path class="st0" d="M212.2,132.8c-1,0-1.9-0.2-2.8-0.6c-0.8-0.4-1.6-0.9-2.2-1.6c-0.6-0.7-1.1-1.4-1.4-2.3
		c-0.3-0.9-0.5-1.8-0.5-2.8c0-1,0.2-1.9,0.5-2.7c0.3-0.9,0.8-1.6,1.4-2.3c0.6-0.6,1.3-1.2,2.2-1.5c0.8-0.4,1.8-0.6,2.8-0.6
		c1,0,1.9,0.2,2.8,0.6c0.8,0.4,1.6,0.9,2.2,1.6c0.6,0.7,1.1,1.4,1.4,2.3c0.3,0.8,0.5,1.7,0.5,2.7c0,0.1,0,0.3,0,0.4
		c0,0.1,0,0.2,0,0.3h-11.8c0.1,0.7,0.2,1.4,0.5,2.1c0.3,0.6,0.7,1.2,1.1,1.6s1,0.8,1.6,1.1c0.6,0.3,1.2,0.4,1.9,0.4
		c0.4,0,0.9-0.1,1.3-0.2c0.4-0.1,0.8-0.3,1.2-0.5s0.7-0.5,1-0.8c0.3-0.3,0.5-0.6,0.7-1l1.6,0.4c-0.2,0.5-0.5,1-0.9,1.4
		c-0.4,0.4-0.8,0.8-1.4,1.1c-0.5,0.3-1.1,0.5-1.7,0.7C213.5,132.7,212.8,132.8,212.2,132.8z M217.3,124.9c-0.1-0.7-0.2-1.4-0.5-2
		c-0.3-0.6-0.7-1.1-1.1-1.6c-0.5-0.4-1-0.8-1.6-1c-0.6-0.2-1.2-0.4-1.9-0.4c-0.7,0-1.3,0.1-1.9,0.4c-0.6,0.2-1.1,0.6-1.6,1
		c-0.5,0.4-0.8,1-1.1,1.6c-0.3,0.6-0.4,1.3-0.5,2H217.3z"/>
	<path class="st0" d="M228.3,131.9c-0.1,0.1-0.3,0.1-0.5,0.2c-0.2,0.1-0.4,0.2-0.7,0.3c-0.3,0.1-0.6,0.2-0.9,0.2
		c-0.3,0.1-0.7,0.1-1.1,0.1c-0.4,0-0.8-0.1-1.1-0.2s-0.7-0.3-0.9-0.5c-0.3-0.2-0.5-0.5-0.6-0.8c-0.2-0.3-0.2-0.7-0.2-1.2v-9.9h-1.9
		v-1.4h1.9v-4.7h1.8v4.7h3.2v1.4H224v9.4c0,0.5,0.2,0.9,0.5,1.1c0.3,0.2,0.7,0.4,1.1,0.4c0.5,0,1-0.1,1.4-0.3
		c0.4-0.2,0.6-0.3,0.7-0.4L228.3,131.9z"/>
	<path class="st0" d="M236.5,123.4c0-0.9,0.1-1.8,0.3-2.7c0.2-0.9,0.5-1.7,0.8-2.6c0.3-0.9,0.7-1.7,1.2-2.6c0.5-0.9,0.9-1.7,1.4-2.6
		l1.4,0.7c-0.4,0.5-0.7,1.2-1.1,2c-0.4,0.8-0.8,1.6-1.1,2.5s-0.6,1.8-0.8,2.7c-0.2,0.9-0.3,1.8-0.3,2.7c0,1.4,0.3,2.9,0.9,4.5
		c0.6,1.6,1.4,3.2,2.5,4.8l-1.4,0.7c-1.1-1.7-2-3.3-2.7-5C236.8,126.8,236.5,125.1,236.5,123.4z"/>
	<path class="st0" d="M244.8,136.8c0.1,0,0.3,0,0.4,0c0.1,0,0.3,0,0.4,0c0.3,0,0.6,0,0.8-0.1c0.2-0.1,0.4-0.3,0.5-0.6
		c0.2-0.3,0.4-0.7,0.6-1.3c0.2-0.6,0.5-1.3,0.9-2.3l-6-13.8h1.9l5.1,12.1l4.7-12.1h1.7l-7.2,17.8c-0.2,0.5-0.5,1-1,1.3
		s-1.1,0.6-1.8,0.6c-0.2,0-0.3,0-0.5,0c-0.2,0-0.4,0-0.6-0.1V136.8z"/>
	<path class="st0" d="M263.8,132.8c-1,0-1.9-0.2-2.8-0.6c-0.8-0.4-1.6-0.9-2.2-1.6c-0.6-0.7-1.1-1.4-1.4-2.3
		c-0.3-0.9-0.5-1.8-0.5-2.7c0-1,0.2-1.9,0.5-2.8c0.3-0.9,0.8-1.6,1.4-2.3c0.6-0.7,1.3-1.2,2.2-1.6c0.8-0.4,1.7-0.6,2.7-0.6
		c1,0,1.9,0.2,2.7,0.6c0.8,0.4,1.6,0.9,2.2,1.6c0.6,0.7,1.1,1.4,1.4,2.3c0.3,0.9,0.5,1.8,0.5,2.8c0,1-0.2,1.9-0.5,2.7
		c-0.3,0.9-0.8,1.6-1.4,2.3c-0.6,0.7-1.3,1.2-2.2,1.6C265.7,132.6,264.8,132.8,263.8,132.8z M258.8,125.7c0,0.8,0.1,1.5,0.4,2.2
		c0.3,0.7,0.6,1.2,1.1,1.7c0.5,0.5,1,0.9,1.6,1.2c0.6,0.3,1.3,0.4,1.9,0.4s1.3-0.1,1.9-0.4c0.6-0.3,1.1-0.7,1.6-1.2s0.8-1.1,1.1-1.8
		c0.3-0.7,0.4-1.4,0.4-2.2c0-0.8-0.1-1.5-0.4-2.2s-0.6-1.3-1.1-1.8s-1-0.9-1.6-1.2c-0.6-0.3-1.3-0.4-1.9-0.4s-1.3,0.1-1.9,0.4
		c-0.6,0.3-1.1,0.7-1.6,1.2c-0.5,0.5-0.8,1.1-1.1,1.8C258.9,124.2,258.8,124.9,258.8,125.7z"/>
	<path class="st0" d="M278,132.8c-1.5,0-2.6-0.5-3.4-1.5c-0.7-1-1.1-2.5-1.1-4.5v-8.1h1.8v7.8c0,3.1,1.1,4.7,3.2,4.7
		c0.5,0,1.1-0.1,1.6-0.3c0.5-0.2,1-0.4,1.4-0.8c0.4-0.3,0.8-0.7,1.2-1.2s0.6-1,0.8-1.6v-8.7h1.8v11.5c0,0.5,0.2,0.7,0.6,0.7v1.6
		c-0.2,0-0.4,0.1-0.5,0.1s-0.2,0-0.3,0c-0.4,0-0.8-0.2-1-0.5s-0.4-0.7-0.4-1.1v-1.6c-0.6,1.1-1.4,1.9-2.5,2.5
		C280.3,132.5,279.2,132.8,278,132.8z"/>
	<path class="st0" d="M296.3,120.3c-1.2,0-2.3,0.4-3.2,1c-0.9,0.6-1.5,1.5-1.9,2.6v8.6h-1.8v-13.8h1.7v3.3c0.5-1.1,1.2-1.9,2.1-2.5
		c0.9-0.6,1.8-0.9,2.8-0.9c0.1,0,0.3,0,0.3,0V120.3z"/>
	<path class="st0" d="M308.3,132.8c-0.7,0-1.3-0.1-1.8-0.3c-0.6-0.2-1-0.5-1.5-0.9c-0.4-0.4-0.7-0.8-1-1.4c-0.2-0.5-0.3-1.1-0.3-1.7
		s0.1-1.2,0.4-1.7c0.3-0.5,0.7-1,1.2-1.3c0.5-0.4,1.1-0.7,1.8-0.9c0.7-0.2,1.5-0.3,2.3-0.3c0.7,0,1.4,0.1,2.1,0.2
		c0.7,0.1,1.4,0.3,1.9,0.5v-1.2c0-1.2-0.3-2.2-1-2.9c-0.7-0.7-1.6-1.1-2.9-1.1c-0.7,0-1.4,0.1-2.2,0.4s-1.5,0.7-2.3,1.2l-0.6-1.2
		c1.8-1.2,3.5-1.8,5.2-1.8c1.7,0,3.1,0.5,4.1,1.5c1,1,1.5,2.3,1.5,4v6.2c0,0.5,0.2,0.7,0.7,0.7v1.6c-0.3,0.1-0.5,0.1-0.7,0.1
		c-0.5,0-0.8-0.1-1.1-0.3c-0.3-0.2-0.4-0.5-0.4-1l-0.1-1.1c-0.6,0.8-1.4,1.5-2.4,1.9S309.4,132.8,308.3,132.8z M308.7,131.4
		c0.9,0,1.8-0.2,2.6-0.5s1.4-0.8,1.8-1.4c0.2-0.2,0.3-0.3,0.4-0.5s0.1-0.4,0.1-0.5v-2.3c-0.6-0.2-1.2-0.4-1.9-0.5s-1.3-0.2-2-0.2
		c-1.3,0-2.3,0.3-3.1,0.8c-0.8,0.5-1.2,1.2-1.2,2.1c0,0.4,0.1,0.8,0.3,1.2c0.2,0.4,0.4,0.7,0.7,1s0.6,0.5,1,0.6
		C307.9,131.3,308.3,131.4,308.7,131.4z"/>
	<path class="st0" d="M326.3,132.8c-1.2,0-2.2-0.3-3.1-0.9c-0.9-0.6-1.6-1.3-2.2-2.2v8.5h-1.8v-19.5h1.6v2.7
		c0.6-0.9,1.3-1.6,2.2-2.1c0.9-0.5,1.9-0.8,2.9-0.8c1,0,1.8,0.2,2.6,0.6c0.8,0.4,1.5,0.9,2.1,1.6c0.6,0.7,1,1.4,1.4,2.3
		c0.3,0.9,0.5,1.8,0.5,2.7c0,1-0.2,1.9-0.5,2.8c-0.3,0.9-0.7,1.6-1.3,2.3c-0.6,0.7-1.2,1.2-2,1.6S327.3,132.8,326.3,132.8z
		 M325.8,131.2c0.7,0,1.4-0.2,2-0.5c0.6-0.3,1.1-0.7,1.6-1.3c0.4-0.5,0.8-1.1,1-1.8c0.2-0.7,0.3-1.3,0.3-2.1c0-0.7-0.1-1.4-0.4-2.1
		c-0.3-0.7-0.6-1.3-1.1-1.8c-0.5-0.5-1-0.9-1.6-1.2c-0.6-0.3-1.3-0.5-2-0.5c-0.5,0-0.9,0.1-1.4,0.3c-0.5,0.2-1,0.4-1.4,0.7
		c-0.4,0.3-0.8,0.7-1.1,1.1c-0.3,0.4-0.5,0.9-0.6,1.3v4.2c0.2,0.5,0.5,1,0.8,1.4s0.7,0.8,1.1,1.1s0.9,0.6,1.3,0.7
		C324.8,131.1,325.3,131.2,325.8,131.2z"/>
	<path class="st0" d="M342.7,132.8c-1.2,0-2.2-0.3-3.1-0.9c-0.9-0.6-1.6-1.3-2.2-2.2v8.5h-1.8v-19.5h1.6v2.7
		c0.6-0.9,1.3-1.6,2.2-2.1c0.9-0.5,1.9-0.8,2.9-0.8c1,0,1.8,0.2,2.6,0.6c0.8,0.4,1.5,0.9,2.1,1.6c0.6,0.7,1,1.4,1.4,2.3
		c0.3,0.9,0.5,1.8,0.5,2.7c0,1-0.2,1.9-0.5,2.8c-0.3,0.9-0.7,1.6-1.3,2.3c-0.6,0.7-1.2,1.2-2,1.6S343.6,132.8,342.7,132.8z
		 M342.2,131.2c0.7,0,1.4-0.2,2-0.5c0.6-0.3,1.1-0.7,1.6-1.3c0.4-0.5,0.8-1.1,1-1.8c0.2-0.7,0.3-1.3,0.3-2.1c0-0.7-0.1-1.4-0.4-2.1
		c-0.3-0.7-0.6-1.3-1.1-1.8c-0.5-0.5-1-0.9-1.6-1.2c-0.6-0.3-1.3-0.5-2-0.5c-0.5,0-0.9,0.1-1.4,0.3c-0.5,0.2-1,0.4-1.4,0.7
		c-0.4,0.3-0.8,0.7-1.1,1.1c-0.3,0.4-0.5,0.9-0.6,1.3v4.2c0.2,0.5,0.5,1,0.8,1.4s0.7,0.8,1.1,1.1s0.9,0.6,1.3,0.7
		C341.2,131.1,341.7,131.2,342.2,131.2z"/>
	<path class="st0" d="M370.4,132.5h-1.8v-7.7c0-1.6-0.2-2.8-0.7-3.6c-0.5-0.7-1.2-1.1-2.2-1.1c-0.5,0-1.1,0.1-1.6,0.3
		c-0.5,0.2-1,0.5-1.5,0.8c-0.5,0.4-0.9,0.8-1.2,1.3c-0.4,0.5-0.6,1-0.8,1.6v8.5h-1.8v-13.8h1.6v3.1c0.6-1,1.4-1.8,2.4-2.4
		c1.1-0.6,2.2-0.9,3.4-0.9c0.8,0,1.4,0.1,1.9,0.4c0.5,0.3,1,0.7,1.3,1.2c0.3,0.5,0.5,1.1,0.7,1.9c0.1,0.7,0.2,1.6,0.2,2.5V132.5z"/>
	<path class="st0" d="M377.7,132.8c-0.7,0-1.3-0.1-1.8-0.3c-0.6-0.2-1-0.5-1.5-0.9c-0.4-0.4-0.7-0.8-1-1.4c-0.2-0.5-0.3-1.1-0.3-1.7
		s0.1-1.2,0.4-1.7c0.3-0.5,0.7-1,1.2-1.3c0.5-0.4,1.1-0.7,1.8-0.9c0.7-0.2,1.5-0.3,2.3-0.3c0.7,0,1.4,0.1,2.1,0.2
		c0.7,0.1,1.4,0.3,1.9,0.5v-1.2c0-1.2-0.3-2.2-1-2.9c-0.7-0.7-1.6-1.1-2.9-1.1c-0.7,0-1.4,0.1-2.2,0.4s-1.5,0.7-2.3,1.2l-0.6-1.2
		c1.8-1.2,3.5-1.8,5.2-1.8c1.7,0,3.1,0.5,4.1,1.5c1,1,1.5,2.3,1.5,4v6.2c0,0.5,0.2,0.7,0.7,0.7v1.6c-0.3,0.1-0.5,0.1-0.7,0.1
		c-0.5,0-0.8-0.1-1.1-0.3c-0.3-0.2-0.4-0.5-0.4-1l-0.1-1.1c-0.6,0.8-1.4,1.5-2.4,1.9S378.8,132.8,377.7,132.8z M378.1,131.4
		c0.9,0,1.8-0.2,2.6-0.5s1.4-0.8,1.8-1.4c0.2-0.2,0.3-0.3,0.4-0.5s0.1-0.4,0.1-0.5v-2.3c-0.6-0.2-1.2-0.4-1.9-0.5s-1.3-0.2-2-0.2
		c-1.3,0-2.3,0.3-3.1,0.8c-0.8,0.5-1.2,1.2-1.2,2.1c0,0.4,0.1,0.8,0.3,1.2c0.2,0.4,0.4,0.7,0.7,1s0.6,0.5,1,0.6
		C377.2,131.3,377.6,131.4,378.1,131.4z"/>
	<path class="st0" d="M409.2,132.5h-1.8v-7.7c0-1.6-0.3-2.8-0.8-3.6c-0.5-0.8-1.3-1.1-2.3-1.1c-0.5,0-1,0.1-1.5,0.3
		c-0.5,0.2-0.9,0.5-1.3,0.8c-0.4,0.4-0.7,0.8-1,1.3c-0.3,0.5-0.5,1-0.7,1.6v8.4H398v-7.7c0-1.6-0.2-2.8-0.7-3.6
		c-0.5-0.7-1.3-1.1-2.3-1.1c-1,0-2,0.4-2.8,1.1s-1.4,1.7-1.7,2.9v8.5h-1.8v-13.8h1.6v3.1c0.6-1.1,1.3-1.9,2.2-2.5
		c0.9-0.6,1.9-0.9,3-0.9c1.2,0,2.1,0.3,2.8,1c0.7,0.7,1.1,1.5,1.3,2.6c1.3-2.4,3.1-3.6,5.3-3.6c0.8,0,1.4,0.1,2,0.4
		c0.5,0.3,1,0.7,1.3,1.2c0.3,0.5,0.6,1.1,0.7,1.9c0.1,0.7,0.2,1.6,0.2,2.5V132.5z"/>
	<path class="st0" d="M419,132.8c-1,0-1.9-0.2-2.8-0.6c-0.8-0.4-1.6-0.9-2.2-1.6c-0.6-0.7-1.1-1.4-1.4-2.3c-0.3-0.9-0.5-1.8-0.5-2.8
		c0-1,0.2-1.9,0.5-2.7c0.3-0.9,0.8-1.6,1.4-2.3c0.6-0.6,1.3-1.2,2.2-1.5c0.8-0.4,1.8-0.6,2.8-0.6c1,0,1.9,0.2,2.8,0.6
		c0.8,0.4,1.6,0.9,2.2,1.6c0.6,0.7,1.1,1.4,1.4,2.3c0.3,0.8,0.5,1.7,0.5,2.7c0,0.1,0,0.3,0,0.4c0,0.1,0,0.2,0,0.3h-11.8
		c0.1,0.7,0.2,1.4,0.5,2.1c0.3,0.6,0.7,1.2,1.1,1.6s1,0.8,1.6,1.1c0.6,0.3,1.2,0.4,1.9,0.4c0.4,0,0.9-0.1,1.3-0.2
		c0.4-0.1,0.8-0.3,1.2-0.5s0.7-0.5,1-0.8c0.3-0.3,0.5-0.6,0.7-1l1.6,0.4c-0.2,0.5-0.5,1-0.9,1.4c-0.4,0.4-0.8,0.8-1.4,1.1
		c-0.5,0.3-1.1,0.5-1.7,0.7C420.3,132.7,419.6,132.8,419,132.8z M424.1,124.9c-0.1-0.7-0.2-1.4-0.5-2c-0.3-0.6-0.7-1.1-1.1-1.6
		c-0.5-0.4-1-0.8-1.6-1c-0.6-0.2-1.2-0.4-1.9-0.4c-0.7,0-1.3,0.1-1.9,0.4c-0.6,0.2-1.1,0.6-1.6,1c-0.5,0.4-0.8,1-1.1,1.6
		c-0.3,0.6-0.4,1.3-0.5,2H424.1z"/>
	<path class="st0" d="M432.1,123.4c0,1.7-0.3,3.4-1,5.1c-0.7,1.7-1.6,3.4-2.7,5l-1.3-0.7c0.5-0.8,1-1.6,1.4-2.4
		c0.4-0.8,0.8-1.6,1.1-2.4c0.3-0.8,0.5-1.6,0.7-2.3c0.2-0.8,0.2-1.5,0.2-2.2c0-0.8-0.1-1.7-0.3-2.7s-0.5-1.8-0.8-2.7
		s-0.7-1.7-1.1-2.5c-0.4-0.8-0.8-1.4-1.2-2l1.4-0.7c0.5,0.9,1,1.7,1.4,2.6c0.5,0.9,0.8,1.7,1.2,2.6c0.3,0.9,0.6,1.7,0.8,2.6
		C432,121.6,432.1,122.5,432.1,123.4z"/>
	<path class="st0" d="M435.2,118.7l0.5-2.8H435v-2.7h1.8v2.7l-0.7,2.8H435.2z M438.4,118.7l0.5-2.8h-0.6v-2.7h1.8v2.7l-0.7,2.8
		H438.4z"/>
</g>
<linearGradient id="SVGID_54_" gradientUnits="userSpaceOnUse" x1="420.7776" y1="186.6831" x2="729.6454" y2="186.6831">
	<stop  offset="0" style="stop-color:#198AFE"/>
	<stop  offset="0.8556" style="stop-color:#198AFE"/>
	<stop  offset="1" style="stop-color:#198AFE"/>
</linearGradient>
<path class="st69" d="M420.8,241.3c0,0,18.6-3.3,18.7-43.7c-0.9-3.8-1.3-7.8-1.3-11.8v0c0-29.7,24.3-54,54-54h183.5
	c29.7,0,54,24.3,54,54v0c0,29.7-24.3,54-54,54H492.2c-10.8,0-20.9-3.2-29.4-8.8C451.6,236.8,435.3,243.2,420.8,241.3z"/>
<g>
	<path class="st0" d="M461.2,175.7l-0.5,2.8h0.6v2.7h-1.8v-2.7l0.7-2.8H461.2z M464.4,175.7l-0.5,2.8h0.6v2.7h-1.8v-2.7l0.7-2.8
		H464.4z"/>
	<path class="st0" d="M482.3,192.3c-1.7,1.9-3.8,2.9-6,2.9c-1.3,0-2.4-0.3-3.5-0.8c-1.1-0.5-2-1.3-2.8-2.2c-0.8-0.9-1.4-1.9-1.8-3.1
		s-0.7-2.3-0.7-3.5c0-1.3,0.2-2.5,0.6-3.6c0.4-1.1,1-2.2,1.8-3c0.8-0.9,1.7-1.6,2.8-2.1c1.1-0.5,2.2-0.8,3.5-0.8
		c0.9,0,1.8,0.1,2.5,0.3s1.4,0.5,2,0.8s1.1,0.8,1.5,1.3c0.4,0.5,0.8,1.1,1.1,1.7l-1.4,1c-0.6-1.2-1.4-2-2.4-2.6s-2.1-0.8-3.4-0.8
		c-1,0-2,0.2-2.8,0.7c-0.8,0.4-1.6,1-2.1,1.8c-0.6,0.7-1,1.6-1.4,2.5c-0.3,0.9-0.5,1.9-0.5,2.9c0,1.1,0.2,2.1,0.5,3s0.9,1.8,1.5,2.5
		c0.6,0.7,1.4,1.3,2.2,1.7c0.9,0.4,1.8,0.6,2.8,0.6c1.1,0,2.1-0.3,3.1-0.8s1.9-1.3,2.8-2.4v-3.1h-4.2v-1.4h5.8v9.2h-1.6V192.3z"/>
	<path class="st0" d="M493.2,195.3c-1,0-1.9-0.2-2.8-0.6c-0.8-0.4-1.6-0.9-2.2-1.6c-0.6-0.7-1.1-1.4-1.4-2.3
		c-0.3-0.9-0.5-1.8-0.5-2.8c0-1,0.2-1.9,0.5-2.7c0.3-0.9,0.8-1.6,1.4-2.3c0.6-0.6,1.3-1.2,2.2-1.5c0.8-0.4,1.8-0.6,2.8-0.6
		c1,0,1.9,0.2,2.8,0.6c0.8,0.4,1.6,0.9,2.2,1.6c0.6,0.7,1.1,1.4,1.4,2.3s0.5,1.7,0.5,2.7c0,0.1,0,0.3,0,0.4c0,0.1,0,0.2,0,0.3h-11.8
		c0.1,0.7,0.2,1.4,0.5,2.1c0.3,0.6,0.7,1.2,1.1,1.6c0.5,0.5,1,0.8,1.6,1.1c0.6,0.3,1.2,0.4,1.9,0.4c0.4,0,0.9-0.1,1.3-0.2
		c0.4-0.1,0.8-0.3,1.2-0.5s0.7-0.5,1-0.8c0.3-0.3,0.5-0.6,0.7-1l1.6,0.4c-0.2,0.5-0.5,1-0.9,1.4c-0.4,0.4-0.8,0.8-1.4,1.1
		s-1.1,0.5-1.7,0.7C494.5,195.2,493.9,195.3,493.2,195.3z M498.3,187.4c-0.1-0.7-0.2-1.4-0.5-2c-0.3-0.6-0.7-1.1-1.1-1.6
		c-0.5-0.4-1-0.8-1.6-1s-1.2-0.4-1.9-0.4c-0.7,0-1.3,0.1-1.9,0.4s-1.1,0.6-1.6,1c-0.5,0.4-0.8,1-1.1,1.6c-0.3,0.6-0.4,1.3-0.5,2
		H498.3z"/>
	<path class="st0" d="M509.3,194.4c-0.1,0.1-0.3,0.1-0.5,0.2c-0.2,0.1-0.4,0.2-0.7,0.3c-0.3,0.1-0.6,0.2-0.9,0.2
		c-0.3,0.1-0.7,0.1-1.1,0.1c-0.4,0-0.8-0.1-1.1-0.2s-0.7-0.3-0.9-0.5c-0.3-0.2-0.5-0.5-0.6-0.8c-0.2-0.3-0.2-0.7-0.2-1.2v-9.9h-1.9
		v-1.4h1.9v-4.7h1.8v4.7h3.2v1.4h-3.2v9.4c0,0.5,0.2,0.9,0.5,1.1c0.3,0.2,0.7,0.4,1.1,0.4c0.5,0,1-0.1,1.4-0.3
		c0.4-0.2,0.6-0.3,0.7-0.4L509.3,194.4z"/>
	<path class="st0" d="M517.5,185.9c0-0.9,0.1-1.8,0.3-2.7c0.2-0.9,0.5-1.7,0.8-2.6c0.3-0.9,0.7-1.7,1.2-2.6c0.5-0.9,0.9-1.7,1.4-2.6
		l1.4,0.7c-0.4,0.5-0.7,1.2-1.1,2c-0.4,0.8-0.8,1.6-1.1,2.5s-0.6,1.8-0.8,2.7s-0.3,1.8-0.3,2.7c0,1.4,0.3,2.9,0.9,4.5
		s1.4,3.2,2.5,4.8l-1.4,0.7c-1.1-1.7-2-3.3-2.7-5C517.9,189.3,517.5,187.6,517.5,185.9z"/>
	<path class="st0" d="M525.9,199.3c0.1,0,0.3,0,0.4,0c0.1,0,0.3,0,0.4,0c0.3,0,0.6,0,0.8-0.1c0.2-0.1,0.4-0.3,0.5-0.6
		c0.2-0.3,0.4-0.7,0.6-1.3c0.2-0.6,0.5-1.3,0.9-2.3l-6-13.8h1.9l5.1,12.1l4.7-12.1h1.7l-7.2,17.8c-0.2,0.5-0.5,1-1,1.3
		c-0.5,0.4-1.1,0.6-1.8,0.6c-0.2,0-0.3,0-0.5,0c-0.2,0-0.4,0-0.6-0.1V199.3z"/>
	<path class="st0" d="M544.9,195.3c-1,0-1.9-0.2-2.8-0.6c-0.8-0.4-1.6-0.9-2.2-1.6c-0.6-0.7-1.1-1.4-1.4-2.3
		c-0.3-0.9-0.5-1.8-0.5-2.7c0-1,0.2-1.9,0.5-2.8c0.3-0.9,0.8-1.6,1.4-2.3s1.3-1.2,2.2-1.6c0.8-0.4,1.7-0.6,2.7-0.6
		c1,0,1.9,0.2,2.7,0.6c0.8,0.4,1.6,0.9,2.2,1.6s1.1,1.4,1.4,2.3c0.3,0.9,0.5,1.8,0.5,2.8c0,1-0.2,1.9-0.5,2.7
		c-0.3,0.9-0.8,1.6-1.4,2.3c-0.6,0.7-1.3,1.2-2.2,1.6C546.8,195.1,545.9,195.3,544.9,195.3z M539.8,188.2c0,0.8,0.1,1.5,0.4,2.2
		c0.3,0.7,0.6,1.2,1.1,1.7c0.5,0.5,1,0.9,1.6,1.2c0.6,0.3,1.3,0.4,1.9,0.4c0.7,0,1.3-0.1,1.9-0.4c0.6-0.3,1.1-0.7,1.6-1.2
		c0.5-0.5,0.8-1.1,1.1-1.8c0.3-0.7,0.4-1.4,0.4-2.2c0-0.8-0.1-1.5-0.4-2.2c-0.3-0.7-0.6-1.3-1.1-1.8c-0.5-0.5-1-0.9-1.6-1.2
		s-1.3-0.4-1.9-0.4c-0.7,0-1.3,0.1-1.9,0.4s-1.1,0.7-1.6,1.2c-0.5,0.5-0.8,1.1-1.1,1.8C540,186.7,539.8,187.4,539.8,188.2z"/>
	<path class="st0" d="M559.1,195.3c-1.5,0-2.6-0.5-3.4-1.5c-0.7-1-1.1-2.5-1.1-4.5v-8.1h1.8v7.8c0,3.1,1.1,4.7,3.2,4.7
		c0.5,0,1.1-0.1,1.6-0.3c0.5-0.2,1-0.4,1.4-0.8c0.4-0.3,0.8-0.7,1.2-1.2c0.3-0.5,0.6-1,0.8-1.6v-8.7h1.8v11.5c0,0.5,0.2,0.7,0.6,0.7
		v1.6c-0.2,0-0.4,0.1-0.5,0.1s-0.2,0-0.3,0c-0.4,0-0.8-0.2-1-0.5c-0.3-0.3-0.4-0.7-0.4-1.1v-1.6c-0.6,1.1-1.4,1.9-2.5,2.5
		C561.3,195,560.2,195.3,559.1,195.3z"/>
	<path class="st0" d="M577.4,182.8c-1.2,0-2.3,0.4-3.2,1s-1.5,1.5-1.9,2.6v8.6h-1.8v-13.8h1.7v3.3c0.5-1.1,1.2-1.9,2.1-2.5
		c0.9-0.6,1.8-0.9,2.8-0.9c0.1,0,0.3,0,0.3,0V182.8z"/>
	<path class="st0" d="M589.4,195.3c-0.7,0-1.3-0.1-1.8-0.3s-1-0.5-1.5-0.9s-0.7-0.8-1-1.4c-0.2-0.5-0.3-1.1-0.3-1.7s0.1-1.2,0.4-1.7
		c0.3-0.5,0.7-1,1.2-1.3s1.1-0.7,1.8-0.9c0.7-0.2,1.5-0.3,2.3-0.3c0.7,0,1.4,0.1,2.1,0.2s1.4,0.3,1.9,0.5v-1.2c0-1.2-0.3-2.2-1-2.9
		c-0.7-0.7-1.6-1.1-2.9-1.1c-0.7,0-1.4,0.1-2.2,0.4c-0.7,0.3-1.5,0.7-2.3,1.2l-0.6-1.2c1.8-1.2,3.5-1.8,5.2-1.8
		c1.7,0,3.1,0.5,4.1,1.5c1,1,1.5,2.3,1.5,4v6.2c0,0.5,0.2,0.7,0.7,0.7v1.6c-0.3,0.1-0.5,0.1-0.7,0.1c-0.5,0-0.8-0.1-1.1-0.3
		c-0.3-0.2-0.4-0.5-0.4-1l-0.1-1.1c-0.6,0.8-1.4,1.5-2.4,1.9C591.5,195.1,590.5,195.3,589.4,195.3z M589.8,193.9
		c0.9,0,1.8-0.2,2.6-0.5s1.4-0.8,1.8-1.4c0.2-0.2,0.3-0.3,0.4-0.5c0.1-0.2,0.1-0.4,0.1-0.5v-2.3c-0.6-0.2-1.2-0.4-1.9-0.5
		s-1.3-0.2-2-0.2c-1.3,0-2.3,0.3-3.1,0.8c-0.8,0.5-1.2,1.2-1.2,2.1c0,0.4,0.1,0.8,0.3,1.2c0.2,0.4,0.4,0.7,0.7,1
		c0.3,0.3,0.6,0.5,1,0.6C588.9,193.9,589.3,193.9,589.8,193.9z"/>
	<path class="st0" d="M607.4,195.3c-1.2,0-2.2-0.3-3.1-0.9c-0.9-0.6-1.6-1.3-2.2-2.2v8.5h-1.8v-19.5h1.6v2.7
		c0.6-0.9,1.3-1.6,2.2-2.1c0.9-0.5,1.9-0.8,2.9-0.8c1,0,1.8,0.2,2.6,0.6c0.8,0.4,1.5,0.9,2.1,1.6s1,1.4,1.4,2.3
		c0.3,0.9,0.5,1.8,0.5,2.7c0,1-0.2,1.9-0.5,2.8c-0.3,0.9-0.7,1.6-1.3,2.3c-0.6,0.7-1.2,1.2-2,1.6S608.3,195.3,607.4,195.3z
		 M606.9,193.7c0.7,0,1.4-0.2,2-0.5s1.1-0.7,1.6-1.3c0.4-0.5,0.8-1.1,1-1.8s0.3-1.3,0.3-2.1c0-0.7-0.1-1.4-0.4-2.1
		c-0.3-0.7-0.6-1.3-1.1-1.8c-0.5-0.5-1-0.9-1.6-1.2s-1.3-0.5-2-0.5c-0.5,0-0.9,0.1-1.4,0.3c-0.5,0.2-1,0.4-1.4,0.7s-0.8,0.7-1.1,1.1
		c-0.3,0.4-0.5,0.9-0.6,1.3v4.2c0.2,0.5,0.5,1,0.8,1.4c0.3,0.4,0.7,0.8,1.1,1.1c0.4,0.3,0.9,0.6,1.3,0.7
		C605.9,193.6,606.4,193.7,606.9,193.7z"/>
	<path class="st0" d="M623.8,195.3c-1.2,0-2.2-0.3-3.1-0.9c-0.9-0.6-1.6-1.3-2.2-2.2v8.5h-1.8v-19.5h1.6v2.7
		c0.6-0.9,1.3-1.6,2.2-2.1c0.9-0.5,1.9-0.8,2.9-0.8c1,0,1.8,0.2,2.6,0.6c0.8,0.4,1.5,0.9,2.1,1.6s1,1.4,1.4,2.3
		c0.3,0.9,0.5,1.8,0.5,2.7c0,1-0.2,1.9-0.5,2.8c-0.3,0.9-0.7,1.6-1.3,2.3c-0.6,0.7-1.2,1.2-2,1.6S624.7,195.3,623.8,195.3z
		 M623.3,193.7c0.7,0,1.4-0.2,2-0.5s1.1-0.7,1.6-1.3c0.4-0.5,0.8-1.1,1-1.8s0.3-1.3,0.3-2.1c0-0.7-0.1-1.4-0.4-2.1
		c-0.3-0.7-0.6-1.3-1.1-1.8c-0.5-0.5-1-0.9-1.6-1.2s-1.3-0.5-2-0.5c-0.5,0-0.9,0.1-1.4,0.3c-0.5,0.2-1,0.4-1.4,0.7s-0.8,0.7-1.1,1.1
		c-0.3,0.4-0.5,0.9-0.6,1.3v4.2c0.2,0.5,0.5,1,0.8,1.4c0.3,0.4,0.7,0.8,1.1,1.1c0.4,0.3,0.9,0.6,1.3,0.7
		C622.2,193.6,622.7,193.7,623.3,193.7z"/>
	<path class="st0" d="M651.4,195.1h-1.8v-7.7c0-1.6-0.2-2.8-0.7-3.6c-0.5-0.7-1.2-1.1-2.2-1.1c-0.5,0-1.1,0.1-1.6,0.3
		c-0.5,0.2-1,0.5-1.5,0.8c-0.5,0.4-0.9,0.8-1.2,1.3c-0.4,0.5-0.6,1-0.8,1.6v8.5h-1.8v-13.8h1.6v3.1c0.6-1,1.4-1.8,2.4-2.4
		c1.1-0.6,2.2-0.9,3.4-0.9c0.8,0,1.4,0.1,1.9,0.4s1,0.7,1.3,1.2c0.3,0.5,0.5,1.1,0.7,1.9s0.2,1.6,0.2,2.5V195.1z"/>
	<path class="st0" d="M658.7,195.3c-0.7,0-1.3-0.1-1.8-0.3s-1-0.5-1.5-0.9s-0.7-0.8-1-1.4c-0.2-0.5-0.3-1.1-0.3-1.7s0.1-1.2,0.4-1.7
		c0.3-0.5,0.7-1,1.2-1.3s1.1-0.7,1.8-0.9c0.7-0.2,1.5-0.3,2.3-0.3c0.7,0,1.4,0.1,2.1,0.2s1.4,0.3,1.9,0.5v-1.2c0-1.2-0.3-2.2-1-2.9
		c-0.7-0.7-1.6-1.1-2.9-1.1c-0.7,0-1.4,0.1-2.2,0.4c-0.7,0.3-1.5,0.7-2.3,1.2l-0.6-1.2c1.8-1.2,3.5-1.8,5.2-1.8
		c1.7,0,3.1,0.5,4.1,1.5c1,1,1.5,2.3,1.5,4v6.2c0,0.5,0.2,0.7,0.7,0.7v1.6c-0.3,0.1-0.5,0.1-0.7,0.1c-0.5,0-0.8-0.1-1.1-0.3
		c-0.3-0.2-0.4-0.5-0.4-1l-0.1-1.1c-0.6,0.8-1.4,1.5-2.4,1.9C660.9,195.1,659.9,195.3,658.7,195.3z M659.2,193.9
		c0.9,0,1.8-0.2,2.6-0.5s1.4-0.8,1.8-1.4c0.2-0.2,0.3-0.3,0.4-0.5c0.1-0.2,0.1-0.4,0.1-0.5v-2.3c-0.6-0.2-1.2-0.4-1.9-0.5
		s-1.3-0.2-2-0.2c-1.3,0-2.3,0.3-3.1,0.8c-0.8,0.5-1.2,1.2-1.2,2.1c0,0.4,0.1,0.8,0.3,1.2c0.2,0.4,0.4,0.7,0.7,1
		c0.3,0.3,0.6,0.5,1,0.6C658.3,193.9,658.7,193.9,659.2,193.9z"/>
	<path class="st0" d="M690.3,195.1h-1.8v-7.7c0-1.6-0.3-2.8-0.8-3.6c-0.5-0.8-1.3-1.1-2.3-1.1c-0.5,0-1,0.1-1.5,0.3
		c-0.5,0.2-0.9,0.5-1.3,0.8c-0.4,0.4-0.7,0.8-1,1.3c-0.3,0.5-0.5,1-0.7,1.6v8.4h-1.8v-7.7c0-1.6-0.2-2.8-0.7-3.6
		c-0.5-0.7-1.3-1.1-2.3-1.1c-1,0-2,0.4-2.8,1.1s-1.4,1.7-1.7,2.9v8.5h-1.8v-13.8h1.6v3.1c0.6-1.1,1.3-1.9,2.2-2.5
		c0.9-0.6,1.9-0.9,3-0.9c1.2,0,2.1,0.3,2.8,1c0.7,0.7,1.1,1.5,1.3,2.6c1.3-2.4,3.1-3.6,5.3-3.6c0.8,0,1.4,0.1,2,0.4s1,0.7,1.3,1.2
		c0.3,0.5,0.6,1.1,0.7,1.9c0.1,0.7,0.2,1.6,0.2,2.5V195.1z"/>
	<path class="st0" d="M700,195.3c-1,0-1.9-0.2-2.8-0.6c-0.8-0.4-1.6-0.9-2.2-1.6c-0.6-0.7-1.1-1.4-1.4-2.3c-0.3-0.9-0.5-1.8-0.5-2.8
		c0-1,0.2-1.9,0.5-2.7c0.3-0.9,0.8-1.6,1.4-2.3c0.6-0.6,1.3-1.2,2.2-1.5c0.8-0.4,1.8-0.6,2.8-0.6c1,0,1.9,0.2,2.8,0.6
		c0.8,0.4,1.6,0.9,2.2,1.6c0.6,0.7,1.1,1.4,1.4,2.3s0.5,1.7,0.5,2.7c0,0.1,0,0.3,0,0.4c0,0.1,0,0.2,0,0.3H695
		c0.1,0.7,0.2,1.4,0.5,2.1c0.3,0.6,0.7,1.2,1.1,1.6c0.5,0.5,1,0.8,1.6,1.1c0.6,0.3,1.2,0.4,1.9,0.4c0.4,0,0.9-0.1,1.3-0.2
		c0.4-0.1,0.8-0.3,1.2-0.5s0.7-0.5,1-0.8c0.3-0.3,0.5-0.6,0.7-1l1.6,0.4c-0.2,0.5-0.5,1-0.9,1.4c-0.4,0.4-0.8,0.8-1.4,1.1
		s-1.1,0.5-1.7,0.7C701.4,195.2,700.7,195.3,700,195.3z M705.1,187.4c-0.1-0.7-0.2-1.4-0.5-2c-0.3-0.6-0.7-1.1-1.1-1.6
		c-0.5-0.4-1-0.8-1.6-1s-1.2-0.4-1.9-0.4c-0.7,0-1.3,0.1-1.9,0.4s-1.1,0.6-1.6,1c-0.5,0.4-0.8,1-1.1,1.6c-0.3,0.6-0.4,1.3-0.5,2
		H705.1z"/>
	<path class="st0" d="M713.2,185.9c0,1.7-0.3,3.4-1,5.1c-0.7,1.7-1.6,3.4-2.7,5l-1.3-0.7c0.5-0.8,1-1.6,1.4-2.4
		c0.4-0.8,0.8-1.6,1.1-2.4c0.3-0.8,0.5-1.6,0.7-2.3c0.2-0.8,0.2-1.5,0.2-2.2c0-0.8-0.1-1.7-0.3-2.7s-0.5-1.8-0.8-2.7
		s-0.7-1.7-1.1-2.5c-0.4-0.8-0.8-1.4-1.2-2l1.4-0.7c0.5,0.9,1,1.7,1.4,2.6c0.5,0.9,0.8,1.7,1.2,2.6c0.3,0.9,0.6,1.7,0.8,2.6
		C713.1,184.1,713.2,185,713.2,185.9z"/>
	<path class="st0" d="M716.3,181.3l0.5-2.8h-0.6v-2.7h1.8v2.7l-0.7,2.8H716.3z M719.5,181.3l0.5-2.8h-0.6v-2.7h1.8v2.7l-0.7,2.8
		H719.5z"/>
</g>
<linearGradient id="SVGID_55_" gradientUnits="userSpaceOnUse" x1="301.1781" y1="309.007" x2="610.0458" y2="309.007" gradientTransform="matrix(-1 0 0 1 882.7778 0)">
	<stop  offset="0" style="stop-color:#198AFE"/>
	<stop  offset="0.8556" style="stop-color:#198AFE"/>
	<stop  offset="1" style="stop-color:#198AFE"/>
</linearGradient>
<path class="st70" d="M581.6,363.6c0,0-18.6-3.3-18.7-43.7c0.9-3.8,1.3-7.8,1.3-11.8v0c0-29.7-24.3-54-54-54H326.8
	c-29.7,0-54,24.3-54,54v0c0,29.7,24.3,54,54,54h183.5c10.8,0,20.9-3.2,29.4-8.8C550.8,359.1,567.1,365.5,581.6,363.6z"/>
<g>
	<path class="st0" d="M335.6,315.7v-18.8h1.9v18.8H335.6z"/>
	<path class="st0" d="M348.4,315c-0.1,0.1-0.3,0.1-0.5,0.2c-0.2,0.1-0.4,0.2-0.7,0.3c-0.3,0.1-0.6,0.2-0.9,0.2
		c-0.3,0.1-0.7,0.1-1.1,0.1c-0.4,0-0.8-0.1-1.1-0.2s-0.7-0.3-0.9-0.5c-0.3-0.2-0.5-0.5-0.6-0.8c-0.2-0.3-0.2-0.7-0.2-1.2v-9.9h-1.9
		v-1.4h1.9v-4.7h1.8v4.7h3.2v1.4h-3.2v9.4c0,0.5,0.2,0.9,0.5,1.1c0.3,0.2,0.7,0.4,1.1,0.4c0.5,0,1-0.1,1.4-0.3
		c0.4-0.2,0.6-0.3,0.7-0.4L348.4,315z"/>
	<path class="st0" d="M350.6,301.9l0.5-2.8h-0.6v-2.7h1.8v2.7l-0.7,2.8H350.6z"/>
	<path class="st0" d="M360,315.9c-1.1,0-2.1-0.2-3.2-0.5c-1-0.4-1.9-0.9-2.7-1.5l0.8-1.2c0.8,0.6,1.6,1.1,2.4,1.4
		c0.8,0.3,1.7,0.5,2.6,0.5c1.1,0,2-0.2,2.7-0.7s1-1.1,1-1.9c0-0.4-0.1-0.7-0.3-1c-0.2-0.3-0.4-0.5-0.8-0.7c-0.3-0.2-0.8-0.4-1.3-0.5
		c-0.5-0.2-1.1-0.3-1.8-0.5c-0.8-0.2-1.5-0.4-2.1-0.6s-1.1-0.4-1.4-0.7c-0.4-0.2-0.7-0.6-0.8-0.9s-0.3-0.8-0.3-1.4
		c0-0.7,0.1-1.3,0.4-1.8c0.3-0.5,0.6-1,1.1-1.3c0.5-0.3,1-0.6,1.6-0.8c0.6-0.2,1.3-0.3,2-0.3c1.1,0,2,0.2,2.9,0.5
		c0.9,0.3,1.6,0.8,2.1,1.4l-0.9,1.1c-0.5-0.5-1.1-0.9-1.9-1.2c-0.7-0.3-1.5-0.4-2.3-0.4c-0.5,0-0.9,0-1.3,0.1
		c-0.4,0.1-0.8,0.3-1.1,0.5s-0.6,0.5-0.7,0.8c-0.2,0.3-0.3,0.7-0.3,1.2c0,0.4,0.1,0.7,0.2,0.9c0.1,0.2,0.3,0.4,0.6,0.6
		s0.6,0.3,1.1,0.5c0.4,0.1,1,0.3,1.6,0.4c0.9,0.2,1.7,0.4,2.3,0.6c0.7,0.2,1.2,0.5,1.7,0.7c0.5,0.3,0.8,0.6,1,1s0.3,0.9,0.3,1.5
		c0,1.3-0.5,2.3-1.5,3C362.9,315.6,361.6,315.9,360,315.9z"/>
	<path class="st0" d="M381.7,315c-0.1,0.1-0.3,0.1-0.5,0.2c-0.2,0.1-0.4,0.2-0.7,0.3c-0.3,0.1-0.6,0.2-0.9,0.2
		c-0.3,0.1-0.7,0.1-1.1,0.1c-0.4,0-0.8-0.1-1.1-0.2s-0.7-0.3-0.9-0.5c-0.3-0.2-0.5-0.5-0.6-0.8c-0.2-0.3-0.2-0.7-0.2-1.2v-9.9h-1.9
		v-1.4h1.9v-4.7h1.8v4.7h3.2v1.4h-3.2v9.4c0,0.5,0.2,0.9,0.5,1.1c0.3,0.2,0.7,0.4,1.1,0.4c0.5,0,1-0.1,1.4-0.3
		c0.4-0.2,0.6-0.3,0.7-0.4L381.7,315z"/>
	<path class="st0" d="M395.5,315.7h-1.8V308c0-1.6-0.3-2.7-0.8-3.5c-0.5-0.8-1.3-1.2-2.4-1.2c-0.5,0-1,0.1-1.5,0.3
		c-0.5,0.2-1,0.5-1.4,0.8c-0.4,0.4-0.8,0.8-1.2,1.2c-0.3,0.5-0.6,1-0.7,1.6v8.5h-1.8v-19.3h1.8v8.7c0.5-1,1.3-1.9,2.3-2.5
		c1-0.6,2-0.9,3.2-0.9c0.8,0,1.5,0.1,2,0.4c0.5,0.3,1,0.7,1.4,1.2c0.4,0.5,0.6,1.1,0.8,1.9c0.2,0.7,0.2,1.5,0.2,2.4V315.7z"/>
	<path class="st0" d="M402.9,315.9c-0.7,0-1.3-0.1-1.8-0.3c-0.6-0.2-1-0.5-1.5-0.9c-0.4-0.4-0.7-0.8-1-1.4c-0.2-0.5-0.3-1.1-0.3-1.7
		s0.1-1.2,0.4-1.7c0.3-0.5,0.7-1,1.2-1.3c0.5-0.4,1.1-0.7,1.8-0.9c0.7-0.2,1.5-0.3,2.3-0.3c0.7,0,1.4,0.1,2.1,0.2
		c0.7,0.1,1.4,0.3,1.9,0.5V307c0-1.2-0.3-2.2-1-2.9c-0.7-0.7-1.6-1.1-2.9-1.1c-0.7,0-1.4,0.1-2.2,0.4c-0.7,0.3-1.5,0.7-2.3,1.2
		l-0.6-1.2c1.8-1.2,3.5-1.8,5.2-1.8c1.7,0,3.1,0.5,4.1,1.5s1.5,2.3,1.5,4v6.2c0,0.5,0.2,0.7,0.7,0.7v1.6c-0.3,0.1-0.5,0.1-0.7,0.1
		c-0.5,0-0.8-0.1-1.1-0.3s-0.4-0.5-0.4-1l-0.1-1.1c-0.6,0.8-1.4,1.5-2.4,1.9S404,315.9,402.9,315.9z M403.3,314.6
		c0.9,0,1.8-0.2,2.6-0.5c0.8-0.4,1.4-0.8,1.8-1.4c0.2-0.2,0.3-0.3,0.4-0.5s0.1-0.4,0.1-0.5v-2.3c-0.6-0.2-1.2-0.4-1.9-0.5
		s-1.3-0.2-2-0.2c-1.3,0-2.3,0.3-3.1,0.8s-1.2,1.2-1.2,2.1c0,0.4,0.1,0.8,0.3,1.2c0.2,0.4,0.4,0.7,0.7,1c0.3,0.3,0.6,0.5,1,0.6
		C402.4,314.5,402.8,314.6,403.3,314.6z"/>
	<path class="st0" d="M420.4,315c-0.1,0.1-0.3,0.1-0.5,0.2c-0.2,0.1-0.4,0.2-0.7,0.3c-0.3,0.1-0.6,0.2-0.9,0.2
		c-0.3,0.1-0.7,0.1-1.1,0.1c-0.4,0-0.8-0.1-1.1-0.2s-0.7-0.3-0.9-0.5c-0.3-0.2-0.5-0.5-0.6-0.8c-0.2-0.3-0.2-0.7-0.2-1.2v-9.9h-1.9
		v-1.4h1.9v-4.7h1.8v4.7h3.2v1.4h-3.2v9.4c0,0.5,0.2,0.9,0.5,1.1c0.3,0.2,0.7,0.4,1.1,0.4c0.5,0,1-0.1,1.4-0.3
		c0.4-0.2,0.6-0.3,0.7-0.4L420.4,315z"/>
	<path class="st0" d="M435.3,315.9c-1,0-1.9-0.2-2.8-0.6c-0.8-0.4-1.6-0.9-2.2-1.6c-0.6-0.7-1.1-1.4-1.4-2.3
		c-0.3-0.9-0.5-1.8-0.5-2.8c0-1,0.2-1.9,0.5-2.7c0.3-0.9,0.8-1.6,1.4-2.3c0.6-0.6,1.3-1.2,2.2-1.5c0.8-0.4,1.8-0.6,2.8-0.6
		c1,0,1.9,0.2,2.8,0.6c0.8,0.4,1.6,0.9,2.2,1.5c0.6,0.7,1.1,1.4,1.4,2.3c0.3,0.8,0.5,1.7,0.5,2.7c0,0.1,0,0.3,0,0.4s0,0.2,0,0.3
		h-11.8c0.1,0.7,0.2,1.4,0.5,2.1c0.3,0.6,0.7,1.2,1.1,1.6c0.5,0.5,1,0.8,1.6,1.1c0.6,0.3,1.2,0.4,1.9,0.4c0.4,0,0.9-0.1,1.3-0.2
		c0.4-0.1,0.8-0.3,1.2-0.5c0.4-0.2,0.7-0.5,1-0.8c0.3-0.3,0.5-0.6,0.7-1l1.6,0.4c-0.2,0.5-0.5,1-0.9,1.4s-0.8,0.8-1.4,1.1
		s-1.1,0.5-1.7,0.7C436.6,315.9,436,315.9,435.3,315.9z M440.4,308.1c-0.1-0.7-0.2-1.4-0.5-2c-0.3-0.6-0.7-1.1-1.1-1.6
		c-0.5-0.4-1-0.8-1.6-1c-0.6-0.2-1.2-0.4-1.9-0.4c-0.7,0-1.3,0.1-1.9,0.4c-0.6,0.2-1.1,0.6-1.6,1s-0.8,1-1.1,1.6
		c-0.3,0.6-0.4,1.3-0.5,2H440.4z"/>
	<path class="st0" d="M448.4,315.9c-0.7,0-1.3-0.1-1.8-0.3s-1-0.5-1.5-0.9s-0.7-0.8-1-1.4c-0.2-0.5-0.3-1.1-0.3-1.7s0.1-1.2,0.4-1.7
		c0.3-0.5,0.7-1,1.2-1.3s1.1-0.7,1.8-0.9c0.7-0.2,1.5-0.3,2.3-0.3c0.7,0,1.4,0.1,2.1,0.2s1.4,0.3,1.9,0.5V307c0-1.2-0.3-2.2-1-2.9
		c-0.7-0.7-1.6-1.1-2.9-1.1c-0.7,0-1.4,0.1-2.2,0.4c-0.7,0.3-1.5,0.7-2.3,1.2l-0.6-1.2c1.8-1.2,3.5-1.8,5.2-1.8
		c1.7,0,3.1,0.5,4.1,1.5s1.5,2.3,1.5,4v6.2c0,0.5,0.2,0.7,0.7,0.7v1.6c-0.3,0.1-0.5,0.1-0.7,0.1c-0.5,0-0.8-0.1-1.1-0.3
		c-0.3-0.2-0.4-0.5-0.4-1l-0.1-1.1c-0.6,0.8-1.4,1.5-2.4,1.9C450.5,315.7,449.5,315.9,448.4,315.9z M448.8,314.6
		c0.9,0,1.8-0.2,2.6-0.5c0.8-0.4,1.4-0.8,1.8-1.4c0.2-0.2,0.3-0.3,0.4-0.5c0.1-0.2,0.1-0.4,0.1-0.5v-2.3c-0.6-0.2-1.2-0.4-1.9-0.5
		s-1.3-0.2-2-0.2c-1.3,0-2.3,0.3-3.1,0.8s-1.2,1.2-1.2,2.1c0,0.4,0.1,0.8,0.3,1.2c0.2,0.4,0.4,0.7,0.7,1c0.3,0.3,0.6,0.5,1,0.6
		S448.4,314.6,448.8,314.6z"/>
	<path class="st0" d="M464,315.9c-1.1,0-2.1-0.2-3.2-0.5c-1-0.4-1.9-0.9-2.7-1.5l0.8-1.2c0.8,0.6,1.6,1.1,2.4,1.4
		c0.8,0.3,1.7,0.5,2.6,0.5c1.1,0,2-0.2,2.7-0.7s1-1.1,1-1.9c0-0.4-0.1-0.7-0.3-1s-0.4-0.5-0.8-0.7s-0.8-0.4-1.3-0.5
		c-0.5-0.2-1.1-0.3-1.8-0.5c-0.8-0.2-1.5-0.4-2.1-0.6s-1.1-0.4-1.4-0.7c-0.4-0.2-0.7-0.6-0.8-0.9s-0.3-0.8-0.3-1.4
		c0-0.7,0.1-1.3,0.4-1.8c0.3-0.5,0.6-1,1.1-1.3c0.5-0.3,1-0.6,1.6-0.8c0.6-0.2,1.3-0.3,2-0.3c1.1,0,2,0.2,2.9,0.5
		c0.9,0.3,1.6,0.8,2.1,1.4l-0.9,1.1c-0.5-0.5-1.1-0.9-1.9-1.2c-0.7-0.3-1.5-0.4-2.3-0.4c-0.5,0-0.9,0-1.3,0.1
		c-0.4,0.1-0.8,0.3-1.1,0.5s-0.6,0.5-0.7,0.8c-0.2,0.3-0.3,0.7-0.3,1.2c0,0.4,0.1,0.7,0.2,0.9c0.1,0.2,0.3,0.4,0.6,0.6
		c0.3,0.2,0.6,0.3,1.1,0.5c0.4,0.1,1,0.3,1.6,0.4c0.9,0.2,1.7,0.4,2.3,0.6c0.7,0.2,1.2,0.5,1.7,0.7c0.5,0.3,0.8,0.6,1,1
		s0.3,0.9,0.3,1.5c0,1.3-0.5,2.3-1.5,3C466.9,315.6,465.6,315.9,464,315.9z"/>
	<path class="st0" d="M472.8,319.9c0.1,0,0.3,0,0.4,0c0.1,0,0.3,0,0.4,0c0.3,0,0.6,0,0.8-0.1c0.2-0.1,0.4-0.3,0.5-0.6
		c0.2-0.3,0.4-0.7,0.6-1.3s0.5-1.3,0.9-2.3l-6-13.8h1.9l5.1,12.1l4.7-12.1h1.7l-7.2,17.8c-0.2,0.5-0.5,1-1,1.3
		c-0.5,0.4-1.1,0.6-1.8,0.6c-0.2,0-0.3,0-0.5,0c-0.2,0-0.4,0-0.6-0.1V319.9z"/>
	<path class="st0" d="M486.8,309.6v-13h1.8v13H486.8z M486.8,315.7v-3h1.8v3H486.8z"/>
</g>
</svg>
