<?xml version="1.0" encoding="utf-8"?>
<!-- Generator: Adobe Illustrator 23.0.1, SVG Export Plug-In . SVG Version: 6.00 Build 0)  -->
<svg version="1.1" id="Layer_1" xmlns="http://www.w3.org/2000/svg" xmlns:xlink="http://www.w3.org/1999/xlink" x="0px" y="0px"
	 viewBox="0 0 850 511" style="enable-background:new 0 0 850 511;" xml:space="preserve">
<style type="text/css">
	.st0{fill:#232323;}
	.st1{fill:#4A9DBC;}
	.st2{fill:#FFFFFF;}
	.st3{fill:#756F6F;}
	.st4{fill:none;stroke:#4F4A4A;stroke-width:0.5;stroke-miterlimit:10;}
	.st5{fill:#EDEDED;}
	.st6{fill:#C6C4C4;}
	.st7{fill:none;stroke:#929292;stroke-width:0.5;stroke-miterlimit:10;}
	.st8{fill:none;stroke:#4A9DBC;stroke-miterlimit:10;}
	.st9{fill:#696969;}
	.st10{fill:none;stroke:#696969;stroke-miterlimit:10;}
	.st11{fill:#EFEFEF;}
	.st12{fill:none;stroke:#BEBEBE;stroke-miterlimit:10;}
	.st13{fill:none;stroke:#666666;stroke-miterlimit:10;}
	.st14{fill:#FFFFFF;stroke:#BEBEBE;stroke-miterlimit:10;}
	.st15{fill:#A5A5A5;}
	.st16{fill:#37B4BB;}
	.st17{fill:none;stroke:#FFFFFF;stroke-width:0.75;stroke-miterlimit:10;}
	.st18{fill:#37B8C0;}
	.st19{opacity:0.2;fill:#FFFFFF;}
	.st20{opacity:0.51;fill:#FFFFFF;}
</style>
<g>
	<circle class="st0" cx="683.3" cy="37.2" r="6.4"/>
	<circle class="st1" cx="683.3" cy="37.4" r="3.3"/>
	<path class="st2" d="M684.2,38.7c-1.4-0.1-2.3-1.3-2.2-2.7c0-0.3,0.1-0.6,0.2-0.8c-0.8,0.4-1.3,1.1-1.4,2c-0.1,1.4,0.8,2.6,2.2,2.7
		c1.1,0.1,2-0.5,2.5-1.4C685.1,38.7,684.7,38.8,684.2,38.7z"/>
	
		<rect x="610.1" y="27.2" transform="matrix(0.995 9.980638e-02 -9.980638e-02 0.995 6.4525 -63.2501)" class="st3" width="50.5" height="11.3"/>
	<g>
		<line class="st4" x1="615.7" y1="26.8" x2="615" y2="34.2"/>
		<line class="st4" x1="619" y1="27.1" x2="618.3" y2="34.5"/>
		<line class="st4" x1="622.3" y1="27.4" x2="621.5" y2="34.8"/>
		<line class="st4" x1="625.6" y1="27.8" x2="624.8" y2="35.1"/>
		<line class="st4" x1="628.9" y1="28.1" x2="628.1" y2="35.5"/>
		<line class="st4" x1="632.1" y1="28.4" x2="631.4" y2="35.8"/>
		<line class="st4" x1="635.4" y1="28.8" x2="634.7" y2="36.1"/>
		<line class="st4" x1="638.7" y1="29.1" x2="638" y2="36.5"/>
		<line class="st4" x1="642" y1="29.4" x2="641.3" y2="36.8"/>
		<line class="st4" x1="645.3" y1="29.7" x2="644.6" y2="37.1"/>
		<line class="st4" x1="648.6" y1="30.1" x2="647.8" y2="37.4"/>
		<line class="st4" x1="651.9" y1="30.4" x2="651.1" y2="37.8"/>
		<line class="st4" x1="655.2" y1="30.7" x2="654.4" y2="38.1"/>
		<line class="st4" x1="612.9" y1="31.7" x2="657.8" y2="36.2"/>
		<line class="st4" x1="613.2" y1="29.1" x2="658.1" y2="33.6"/>
	</g>
	
		<rect x="499.6" y="58.1" transform="matrix(0.995 9.980638e-02 -9.980638e-02 0.995 29.2943 -59.9211)" class="st5" width="227.8" height="409.5"/>
	
		<rect x="519.8" y="37.9" transform="matrix(0.995 9.980638e-02 -9.980638e-02 0.995 9.3424 -62.9357)" class="st6" width="227.8" height="48.1"/>
	<g>
		<circle class="st7" cx="706.9" cy="130" r="21.5"/>
		<path class="st7" d="M695.1,147.7l5.5-5.2c0,0-2.5-3.5-3-5.6c0,0-3.1-0.8-3.4-4.9s2-3.4,2-3.4s-2-13.2,12-13.7l-0.2,1.9
			c0,0,10.7-0.5,9.3,14c0,0,2.6-0.1,1.3,3.6c-1.3,3.7-3.4,3.3-3.4,3.3s-2.9,4.7-5.6,5.2c0,0,2.6,5.8,4.9,7"/>
	</g>
	<circle class="st1" cx="730.6" cy="80.3" r="1.3"/>
	<circle class="st1" cx="730.2" cy="84.4" r="1.3"/>
	<circle class="st1" cx="729.8" cy="88.6" r="1.3"/>
	<circle class="st8" cx="702.3" cy="80.9" r="4.9"/>
	<line class="st8" x1="705.7" y1="84.5" x2="708.8" y2="88.4"/>
	<path class="st8" d="M664.7,73.1l2.2-1.6l1.9,3.6l-1.6,1.1c0,0,0.2,4.8,4.7,5.7l1.4-1.3l2.7,2.1c0,0-1.6,2.4-3.9,1.8
		C669.8,84,663.7,81.1,664.7,73.1z"/>
	<g>
		<g>
			<path class="st9" d="M721.8,63.8c0.5,0,0.9-0.1,1.2-0.4c0.3-0.3,0.5-0.7,0.6-1.3l0.1-0.6c-0.2,0.3-0.4,0.4-0.7,0.6
				c-0.3,0.1-0.6,0.2-0.9,0.1c-0.6-0.1-1-0.3-1.3-0.7c-0.3-0.4-0.4-1-0.4-1.6c0.1-0.6,0.3-1.2,0.7-1.6s0.9-0.6,1.4-0.5
				c0.6,0.1,1.1,0.3,1.4,0.7c0.3,0.4,0.5,1,0.4,1.8l-0.2,1.9c-0.1,0.7-0.3,1.3-0.8,1.6c-0.4,0.4-1,0.5-1.6,0.5
				c-0.2,0-0.5-0.1-0.7-0.1c-0.2-0.1-0.4-0.2-0.6-0.3l0.1-0.4c0.2,0.1,0.4,0.2,0.6,0.3C721.4,63.8,721.6,63.8,721.8,63.8z
				 M722.1,61.7c0.4,0,0.7,0,1-0.2c0.3-0.2,0.5-0.4,0.6-0.7l0.1-0.7c0.1-0.6,0-1.1-0.3-1.4c-0.2-0.3-0.6-0.5-1-0.6
				c-0.4,0-0.8,0.1-1.1,0.4s-0.5,0.7-0.5,1.2c0,0.5,0,0.9,0.3,1.3C721.4,61.5,721.7,61.7,722.1,61.7z"/>
			<path class="st9" d="M729.3,60.2c0,0.3-0.2,0.6-0.4,0.9c-0.2,0.2-0.5,0.4-0.9,0.5c0.4,0.2,0.7,0.4,0.9,0.7c0.2,0.3,0.3,0.6,0.3,1
				c-0.1,0.6-0.3,1-0.7,1.3c-0.4,0.3-0.9,0.4-1.5,0.3c-0.6-0.1-1.1-0.3-1.4-0.6c-0.3-0.3-0.5-0.8-0.4-1.4c0-0.4,0.2-0.7,0.4-0.9
				c0.3-0.3,0.6-0.4,1-0.5c-0.3-0.1-0.6-0.4-0.7-0.6c-0.2-0.3-0.2-0.6-0.2-0.9c0.1-0.5,0.3-0.9,0.6-1.2c0.4-0.3,0.8-0.4,1.4-0.3
				c0.5,0.1,1,0.3,1.3,0.6C729.2,59.2,729.3,59.7,729.3,60.2z M728.6,63.2c0-0.4-0.1-0.7-0.3-1c-0.3-0.3-0.6-0.4-1-0.5
				c-0.4,0-0.8,0-1.1,0.3c-0.3,0.2-0.5,0.5-0.5,0.9c0,0.4,0.1,0.8,0.3,1c0.3,0.3,0.6,0.4,1.1,0.5c0.4,0,0.8,0,1.1-0.2
				C728.4,63.9,728.6,63.6,728.6,63.2z M728.8,60.2c0-0.4-0.1-0.7-0.3-0.9c-0.2-0.3-0.5-0.4-0.9-0.5c-0.4,0-0.7,0-1,0.3
				c-0.3,0.2-0.4,0.5-0.5,0.9c0,0.4,0.1,0.7,0.3,0.9c0.2,0.2,0.5,0.4,0.9,0.4c0.4,0,0.7,0,1-0.2C728.6,60.8,728.7,60.5,728.8,60.2z"
				/>
			<path class="st9" d="M730.4,59.9c0-0.4,0.2-0.7,0.4-0.9c0.3-0.2,0.6-0.3,0.9-0.3c0.4,0,0.7,0.2,0.9,0.5c0.2,0.3,0.3,0.6,0.2,1
				l0,0.3c0,0.4-0.2,0.7-0.4,0.9c-0.3,0.2-0.6,0.3-0.9,0.3c-0.4,0-0.7-0.2-0.9-0.5c-0.2-0.3-0.3-0.6-0.3-1L730.4,59.9z M730.8,60.3
				c0,0.3,0,0.5,0.1,0.7c0.1,0.2,0.3,0.3,0.6,0.3c0.3,0,0.5,0,0.6-0.2c0.2-0.2,0.3-0.4,0.3-0.6l0-0.3c0-0.3,0-0.5-0.1-0.7
				c-0.1-0.2-0.3-0.3-0.6-0.3c-0.3,0-0.5,0-0.6,0.2c-0.2,0.2-0.3,0.4-0.3,0.6L730.8,60.3z M731.5,64.6l-0.3-0.2l3.6-4.6L735,60
				L731.5,64.6z M733.2,63.8c0-0.4,0.2-0.7,0.4-0.9c0.3-0.2,0.6-0.3,0.9-0.3c0.4,0,0.7,0.2,0.9,0.5c0.2,0.3,0.3,0.6,0.3,1l0,0.3
				c0,0.4-0.2,0.7-0.4,0.9c-0.3,0.2-0.6,0.3-0.9,0.3c-0.4,0-0.7-0.2-0.9-0.5c-0.2-0.3-0.3-0.6-0.3-1L733.2,63.8z M733.6,64.2
				c0,0.3,0,0.5,0.1,0.7c0.1,0.2,0.3,0.3,0.6,0.3c0.3,0,0.5,0,0.6-0.2c0.2-0.2,0.3-0.4,0.3-0.6l0-0.3c0-0.3,0-0.5-0.1-0.7
				c-0.1-0.2-0.3-0.3-0.6-0.3c-0.3,0-0.5,0-0.6,0.2c-0.2,0.2-0.3,0.4-0.3,0.6L733.6,64.2z"/>
		</g>
		<g>
			<path class="st9" d="M714.3,58.4l-0.9,0.7l-0.5,4.5c0.3,0,0.6,0.1,0.8,0.1L714.3,58.4z"/>
			<path class="st9" d="M709.5,63.4c0.2,0,0.5,0.1,0.8,0.1l0.2-1.9l-0.9,0.7L709.5,63.4z"/>
			<path class="st9" d="M712.4,60l-0.9,0.7l-0.3,2.8c0.3,0,0.6,0.1,0.8,0.1L712.4,60z"/>
			<path class="st9" d="M708.7,63.1l-0.2,0.2c0,0,0.1,0,0.2,0L708.7,63.1z"/>
			<path class="st9" d="M715.3,57.7l-0.6,6.2c0.2,0,0.9,0.1,0.9,0.1l0.7-7.2L715.3,57.7z"/>
		</g>
		<path class="st10" d="M696.5,56.7c0,0,1.6-1.5,4.6-1.2c3,0.3,4.1,2.1,4.1,2.1"/>
		<path class="st10" d="M697.6,58.2c0,0,1.4-1.1,3.3-0.9s2.9,1.5,2.9,1.5"/>
		<path class="st10" d="M698.7,59.9c0,0,0.9-0.7,1.9-0.6c1,0.1,1.7,0.9,1.7,0.9"/>
		<path class="st9" d="M700.3,62.1l-0.8-1c0,0,0.4-0.5,0.9-0.4c0.6,0.1,0.8,0.5,0.8,0.5L700.3,62.1z"/>
		<path class="st9" d="M686.5,52.7c-1.8-0.2-3.3,1.1-3.5,2.9c-0.2,1.8,2.4,6.4,2.6,6.4c0.2,0,3.6-4,3.8-5.7S688.3,52.9,686.5,52.7z
			 M686.1,57c-0.6-0.1-1.1-0.6-1-1.2c0.1-0.6,0.6-1.1,1.2-1s1.1,0.6,1,1.2C687.3,56.6,686.7,57.1,686.1,57z"/>
	</g>
	
		<rect x="480.9" y="426.9" transform="matrix(0.995 9.980638e-02 -9.980638e-02 0.995 47.4632 -57.0576)" class="st11" width="226.1" height="37.9"/>
	<g>
		<circle class="st12" cx="500.4" cy="435.8" r="11"/>
		<g>
			<line class="st13" x1="500.9" y1="431.2" x2="499.9" y2="440.4"/>
			<line class="st13" x1="495.4" y1="435.3" x2="505.4" y2="436.3"/>
		</g>
	</g>
	<path class="st14" d="M657.9,464.1L526.5,451c-6.4-0.6-11.1-6.4-10.4-12.7l0.2-1.6c0.6-6.4,6.4-11.1,12.7-10.4l131.3,13.2
		c6.4,0.6,11.1,6.4,10.4,12.7l-0.2,1.6C670,460.1,664.2,464.8,657.9,464.1z"/>
	<g>
		<path class="st15" d="M530.9,438.7l-3.4-0.3l-0.3,2.7l3.9,0.4l-0.1,0.8l-5-0.5l0.7-7.5l4.9,0.5l-0.1,0.8l-3.9-0.4l-0.2,2.4
			l3.4,0.3L530.9,438.7z"/>
		<path class="st15" d="M533.5,436.9l0,0.8c0.2-0.3,0.5-0.5,0.8-0.6c0.3-0.1,0.6-0.2,1-0.1c0.6,0.1,1,0.3,1.3,0.7
			c0.3,0.4,0.4,0.9,0.3,1.7l-0.4,3.5l-1-0.1l0.3-3.5c0-0.5,0-0.8-0.2-1.1c-0.2-0.2-0.5-0.4-0.9-0.4c-0.3,0-0.6,0-0.8,0.1
			c-0.2,0.1-0.4,0.3-0.6,0.5l-0.4,4l-1-0.1l0.6-5.6L533.5,436.9z"/>
		<path class="st15" d="M540.1,436.2l-0.1,1.3l1.1,0.1l-0.1,0.7l-1.1-0.1l-0.3,3.4c0,0.3,0,0.4,0.1,0.6c0.1,0.1,0.2,0.2,0.4,0.2
			c0.1,0,0.1,0,0.2,0c0.1,0,0.1,0,0.2,0l0.1,0.7c-0.1,0.1-0.2,0.1-0.3,0.1c-0.1,0-0.3,0-0.4,0c-0.4,0-0.7-0.2-0.9-0.5
			c-0.2-0.3-0.3-0.7-0.2-1.2l0.3-3.4l-0.9-0.1l0.1-0.7l0.9,0.1l0.1-1.3L540.1,436.2z"/>
		<path class="st15" d="M544,443.7c-0.8-0.1-1.4-0.4-1.8-1c-0.4-0.6-0.6-1.3-0.5-2.1l0-0.2c0.1-0.8,0.4-1.4,0.9-1.9
			c0.5-0.5,1.1-0.7,1.8-0.6c0.7,0.1,1.3,0.4,1.6,0.8c0.3,0.5,0.5,1.1,0.4,1.9l-0.1,0.6l-3.6-0.4l0,0c0,0.5,0,1,0.3,1.4
			c0.2,0.4,0.6,0.6,1,0.6c0.3,0,0.6,0,0.9-0.1c0.3-0.1,0.5-0.2,0.7-0.3l0.3,0.7c-0.2,0.2-0.5,0.3-0.8,0.4
			C544.8,443.7,544.4,443.7,544,443.7z M544.3,438.7c-0.3,0-0.6,0.1-0.9,0.3s-0.5,0.6-0.5,1l0,0l2.6,0.3l0-0.1c0-0.4,0-0.7-0.2-1
			C545,438.9,544.7,438.7,544.3,438.7z"/>
		<path class="st15" d="M550.3,439.5l-0.5-0.1c-0.3,0-0.5,0-0.7,0.1c-0.2,0.1-0.4,0.3-0.5,0.5l-0.4,4l-1-0.1l0.6-5.6l0.9,0.1l0,0.8
			c0.2-0.3,0.4-0.5,0.7-0.6c0.2-0.1,0.5-0.2,0.8-0.2c0.1,0,0.1,0,0.2,0c0.1,0,0.1,0,0.2,0.1L550.3,439.5z"/>
		<path class="st15" d="M554.9,439l0,0.7c0.2-0.2,0.5-0.4,0.8-0.5c0.3-0.1,0.6-0.2,1-0.1c0.4,0,0.7,0.2,0.9,0.4
			c0.2,0.2,0.4,0.5,0.5,0.8c0.2-0.3,0.5-0.5,0.8-0.7c0.3-0.2,0.7-0.2,1-0.2c0.6,0.1,1,0.3,1.3,0.7c0.3,0.4,0.4,1,0.3,1.8l-0.3,3.3
			l-1-0.1l0.3-3.3c0.1-0.5,0-0.9-0.2-1.2c-0.2-0.2-0.4-0.4-0.8-0.4c-0.3,0-0.6,0.1-0.9,0.3c-0.2,0.2-0.4,0.5-0.5,0.9l0,0l-0.4,3.5
			l-1-0.1l0.3-3.3c0.1-0.5,0-0.9-0.2-1.2c-0.2-0.3-0.4-0.4-0.8-0.4c-0.3,0-0.6,0-0.8,0.1c-0.2,0.1-0.4,0.3-0.5,0.5l-0.4,4.1l-1-0.1
			l0.6-5.6L554.9,439z"/>
		<path class="st15" d="M564.9,445.8c-0.8-0.1-1.4-0.4-1.8-1c-0.4-0.6-0.6-1.3-0.5-2.1l0-0.2c0.1-0.8,0.4-1.4,0.9-1.9
			c0.5-0.5,1.1-0.7,1.8-0.6c0.7,0.1,1.3,0.4,1.6,0.8c0.3,0.5,0.5,1.1,0.4,1.9l-0.1,0.6l-3.6-0.4l0,0c0,0.5,0,1,0.3,1.4
			c0.2,0.4,0.6,0.6,1,0.6c0.3,0,0.6,0,0.9-0.1c0.3-0.1,0.5-0.2,0.7-0.3l0.3,0.7c-0.2,0.2-0.5,0.3-0.8,0.4
			C565.8,445.8,565.4,445.8,564.9,445.8z M565.3,440.8c-0.3,0-0.6,0.1-0.9,0.3s-0.5,0.6-0.5,1l0,0l2.6,0.3l0-0.1c0-0.4,0-0.7-0.2-1
			C566,441,565.7,440.8,565.3,440.8z"/>
		<path class="st15" d="M571.6,444.8c0-0.2,0-0.4-0.2-0.6c-0.2-0.2-0.5-0.3-0.9-0.5c-0.7-0.2-1.1-0.5-1.5-0.7
			c-0.3-0.3-0.5-0.6-0.4-1.1c0-0.5,0.3-0.8,0.7-1.1c0.4-0.3,0.9-0.4,1.5-0.3c0.6,0.1,1.1,0.3,1.5,0.7c0.3,0.4,0.5,0.8,0.4,1.3l0,0
			l-1-0.1c0-0.2-0.1-0.5-0.2-0.7c-0.2-0.2-0.4-0.3-0.8-0.4c-0.4,0-0.6,0-0.8,0.2c-0.2,0.1-0.3,0.3-0.3,0.5c0,0.2,0,0.4,0.2,0.5
			c0.1,0.1,0.4,0.3,0.9,0.4c0.7,0.2,1.2,0.5,1.5,0.8c0.3,0.3,0.5,0.7,0.4,1.1c0,0.5-0.3,0.9-0.7,1.1c-0.4,0.3-1,0.4-1.6,0.3
			c-0.7-0.1-1.2-0.3-1.6-0.7c-0.4-0.4-0.5-0.8-0.5-1.3l0,0l1,0.1c0,0.4,0.1,0.6,0.3,0.8s0.5,0.3,0.9,0.3c0.4,0,0.6,0,0.9-0.1
			C571.4,445.2,571.6,445.1,571.6,444.8z"/>
		<path class="st15" d="M577.1,445.4c0-0.2,0-0.4-0.2-0.6c-0.2-0.2-0.5-0.3-0.9-0.5c-0.7-0.2-1.1-0.5-1.5-0.7
			c-0.3-0.3-0.5-0.6-0.4-1.1c0-0.5,0.3-0.8,0.7-1.1c0.4-0.3,0.9-0.4,1.5-0.3c0.6,0.1,1.1,0.3,1.5,0.7c0.3,0.4,0.5,0.8,0.4,1.3l0,0
			l-1-0.1c0-0.2-0.1-0.5-0.2-0.7c-0.2-0.2-0.4-0.3-0.8-0.4c-0.4,0-0.6,0-0.8,0.2c-0.2,0.1-0.3,0.3-0.3,0.5c0,0.2,0,0.4,0.2,0.5
			c0.1,0.1,0.4,0.3,0.9,0.4c0.7,0.2,1.2,0.5,1.5,0.8c0.3,0.3,0.5,0.7,0.4,1.1c0,0.5-0.3,0.9-0.7,1.1c-0.4,0.3-1,0.4-1.6,0.3
			c-0.7-0.1-1.2-0.3-1.6-0.7s-0.5-0.8-0.5-1.3l0,0l1,0.1c0,0.4,0.1,0.6,0.3,0.8s0.5,0.3,0.9,0.3c0.4,0,0.6,0,0.9-0.1
			C576.9,445.8,577.1,445.6,577.1,445.4z"/>
		<path class="st15" d="M582.6,447.4c0-0.2,0-0.3,0-0.5c0-0.1,0-0.3,0-0.4c-0.2,0.2-0.5,0.4-0.8,0.6c-0.3,0.1-0.7,0.2-1,0.2
			c-0.6-0.1-1-0.2-1.3-0.6c-0.3-0.3-0.4-0.7-0.3-1.3c0.1-0.5,0.3-0.9,0.8-1.2c0.5-0.3,1.1-0.3,1.8-0.3l1.1,0.1l0.1-0.5
			c0-0.3,0-0.6-0.2-0.8c-0.2-0.2-0.5-0.3-0.8-0.4c-0.3,0-0.6,0-0.8,0.2c-0.2,0.1-0.3,0.3-0.4,0.6l-1-0.1l0,0c0-0.4,0.2-0.8,0.7-1.1
			c0.4-0.3,1-0.4,1.6-0.3c0.6,0.1,1.1,0.3,1.5,0.6c0.4,0.4,0.5,0.8,0.4,1.4l-0.3,2.7c0,0.2,0,0.4,0,0.6c0,0.2,0,0.4,0.1,0.6
			L582.6,447.4z M581,446.5c0.4,0,0.7,0,1-0.2c0.3-0.2,0.5-0.4,0.6-0.6l0.1-0.9l-1.1-0.1c-0.4,0-0.7,0-1,0.2
			c-0.3,0.2-0.4,0.4-0.4,0.7c0,0.2,0,0.4,0.2,0.6C580.5,446.4,580.7,446.5,581,446.5z"/>
		<path class="st15" d="M585,445c0.1-0.9,0.4-1.6,0.8-2.1c0.4-0.5,1-0.7,1.7-0.7c0.4,0,0.7,0.1,0.9,0.3c0.3,0.2,0.5,0.4,0.6,0.7
			l0.2-0.7l0.8,0.1l-0.6,5.6c-0.1,0.7-0.3,1.2-0.8,1.6c-0.5,0.3-1.1,0.5-1.8,0.4c-0.3,0-0.6-0.1-0.9-0.2c-0.3-0.1-0.6-0.2-0.8-0.4
			l0.3-0.8c0.2,0.1,0.4,0.2,0.6,0.3c0.3,0.1,0.5,0.1,0.8,0.2c0.5,0,0.9,0,1.1-0.2c0.2-0.2,0.4-0.5,0.4-1l0.1-0.6
			c-0.2,0.2-0.4,0.4-0.7,0.5c-0.3,0.1-0.6,0.1-0.9,0.1c-0.7-0.1-1.2-0.4-1.5-0.9c-0.3-0.5-0.5-1.2-0.4-2L585,445z M586,445.2
			c-0.1,0.6,0,1,0.2,1.4c0.2,0.4,0.5,0.6,1,0.6c0.3,0,0.6,0,0.8-0.1c0.2-0.1,0.4-0.3,0.6-0.5l0.3-2.6c-0.1-0.2-0.3-0.5-0.5-0.6
			c-0.2-0.2-0.4-0.3-0.7-0.3c-0.5,0-0.9,0.1-1.1,0.5c-0.3,0.4-0.5,0.9-0.5,1.5L586,445.2z"/>
		<path class="st15" d="M593.3,448.6c-0.8-0.1-1.4-0.4-1.8-1c-0.4-0.6-0.6-1.3-0.5-2.1l0-0.2c0.1-0.8,0.4-1.4,0.9-1.9
			c0.5-0.5,1.1-0.7,1.8-0.6c0.7,0.1,1.3,0.4,1.6,0.8c0.3,0.5,0.5,1.1,0.4,1.9l-0.1,0.6l-3.6-0.4l0,0c0,0.5,0,1,0.3,1.4
			c0.2,0.4,0.6,0.6,1,0.6c0.3,0,0.6,0,0.9-0.1c0.3-0.1,0.5-0.2,0.7-0.3l0.3,0.7c-0.2,0.2-0.5,0.3-0.8,0.4
			C594.1,448.6,593.7,448.6,593.3,448.6z M593.6,443.6c-0.3,0-0.6,0.1-0.9,0.3s-0.5,0.6-0.5,1l0,0l2.6,0.3l0-0.1c0-0.4,0-0.7-0.2-1
			C594.3,443.8,594,443.7,593.6,443.6z"/>
	</g>
	<g>
		<circle class="st16" cx="686.7" cy="454.7" r="10.9"/>
		<g>
			<path class="st17" d="M686.1,461l1.1-11.3c0,0-0.1-0.9-0.8-1c-0.7-0.1-1.1,0.3-1.2,1s-0.7,7.2-0.7,7.2s-0.2,0.9-1.1,0.8
				c-1-0.1-1-1.1-1-1.1l0.5-4.9"/>
			<line class="st17" x1="680.5" y1="452.4" x2="680.2" y2="455.5"/>
			<line class="st17" x1="693.2" y1="453.7" x2="692.9" y2="456.8"/>
			<line class="st17" x1="691.1" y1="453.9" x2="690.9" y2="456.2"/>
			<line class="st17" x1="689.2" y1="452.1" x2="688.6" y2="457.7"/>
		</g>
	</g>
	<path class="st18" d="M677.6,140c0,0-3.5-2.5-4.6-6.3c2.2-1.5,3.7-3.9,4-6.7c0.5-5.1-3.2-9.7-8.3-10.2l-14.4-1.4
		c-5.1-0.5-9.7,3.2-10.2,8.3c-0.5,5.1,3.2,9.7,8.3,10.2l14.4,1.4c0.4,0,0.7,0,1.1,0C669,136.9,671.7,139.4,677.6,140z"/>
	<g>
		<path class="st2" d="M653.6,123.4c0.2-0.2,0.4-0.3,0.6-0.4c0.2-0.1,0.5-0.1,0.7-0.1c0.5,0,0.8,0.2,1,0.5c0.2,0.3,0.3,0.7,0.3,1.3
			l-0.3,2.7l-0.8-0.1l0.3-2.7c0-0.4,0-0.6-0.2-0.8c-0.1-0.2-0.4-0.3-0.7-0.3c-0.2,0-0.4,0-0.6,0.1c-0.2,0.1-0.3,0.2-0.5,0.4
			l-0.3,3.2l-0.8-0.1l0.6-6.2l0.8,0.1L653.6,123.4z"/>
		<path class="st2" d="M658.9,127.8c-0.6-0.1-1.1-0.3-1.4-0.7c-0.3-0.4-0.4-1-0.4-1.6l0-0.2c0.1-0.6,0.3-1.1,0.7-1.5
			c0.4-0.4,0.9-0.5,1.4-0.5c0.6,0.1,1,0.3,1.3,0.7c0.3,0.4,0.4,0.9,0.3,1.5l0,0.5l-2.8-0.3l0,0c0,0.4,0,0.8,0.2,1.1
			c0.2,0.3,0.4,0.4,0.8,0.5c0.3,0,0.5,0,0.7,0c0.2-0.1,0.4-0.1,0.6-0.3l0.3,0.5c-0.2,0.1-0.4,0.2-0.6,0.3
			C659.6,127.8,659.3,127.9,658.9,127.8z M659.2,123.9c-0.3,0-0.5,0.1-0.7,0.3c-0.2,0.2-0.4,0.5-0.4,0.8l0,0l2,0.2l0-0.1
			c0-0.3,0-0.6-0.2-0.8S659.5,124,659.2,123.9z"/>
		<path class="st2" d="M662.3,128.1l-0.8-0.1l0.6-6.2l0.8,0.1L662.3,128.1z"/>
		<path class="st2" d="M664.4,128.3l-0.8-0.1l0.6-6.2l0.8,0.1L664.4,128.3z"/>
		<path class="st2" d="M665.6,126.2c0.1-0.6,0.3-1.2,0.7-1.5c0.4-0.4,0.9-0.5,1.5-0.5c0.6,0.1,1.1,0.3,1.4,0.8
			c0.3,0.4,0.4,1,0.4,1.6l0,0.1c-0.1,0.6-0.3,1.2-0.7,1.5c-0.4,0.4-0.9,0.5-1.5,0.5c-0.6-0.1-1-0.3-1.4-0.8
			C665.7,127.5,665.6,126.9,665.6,126.2L665.6,126.2z M666.4,126.4c0,0.5,0,0.8,0.2,1.2s0.4,0.5,0.8,0.5c0.4,0,0.7-0.1,0.9-0.4
			c0.2-0.3,0.4-0.6,0.4-1.1l0-0.1c0-0.5,0-0.8-0.2-1.2c-0.2-0.3-0.4-0.5-0.8-0.5c-0.4,0-0.7,0.1-0.9,0.4S666.5,125.8,666.4,126.4
			L666.4,126.4z"/>
	</g>
	<polygon class="st19" points="522.7,26.6 480.2,450.2 499.7,462.2 519.2,461.6 666.3,40.4 556.9,29.4 	"/>
	<path d="M742.5,158.1C742.5,158.1,742.4,158.1,742.5,158.1l10.3-103.2c1-10.2-6.5-19.3-16.6-20.3L538.3,14.7
		c-10.2-1-19.3,6.5-20.3,16.6l-4.9,49c-2.5,0.1-2.6,2.3-2.9,4.9l-3.7,37.2c0.7,0.2,1.2,0.9,1.2,1.7c-0.1,0.8-0.7,1.4-1.5,1.4
		l-3.6,36.2c-0.3,2.6-0.6,4.8,1.8,5.4l-2.6,25.8c-2.3-0.2-2.3,1.7-2.5,4l-4.8,48.1c-0.2,2.3-0.6,4.2,1.7,4.4l-20,199.8
		c-1,10.2,6.5,19.3,16.6,20.3l197.8,19.8c10.2,1,19.3-6.5,20.3-16.6L736,222.4c0,0,0,0,0,0c1.6,0.2,2-1.1,2.2-2.8l5.9-58.4
		C744.2,159.6,744.1,158.3,742.5,158.1z M683.8,32.6c2.6,0.3,4.6,2.6,4.3,5.3c-0.3,2.6-2.6,4.6-5.3,4.3c-2.6-0.3-4.6-2.6-4.3-5.3
		C678.8,34.2,681.1,32.3,683.8,32.6z M617.1,28.2l37.7,3.8c1.4,0.1,2.4,1.4,2.3,2.8c-0.1,1.4-1.4,2.4-2.8,2.3l-37.7-3.8
		c-1.4-0.1-2.4-1.4-2.3-2.8C614.4,29.1,615.7,28.1,617.1,28.2z M706.2,455.5c-1,10.4-10.4,18-20.8,17L501,454
		c-10.4-1-18-10.4-17-20.8l38.6-384.6c1-10.4,10.4-18,20.8-17l184.5,18.5c10.4,1,18,10.4,17,20.8L706.2,455.5z"/>
	<circle class="st20" cx="683.4" cy="37.4" r="1.7"/>
</g>
<g>
	<circle class="st0" cx="234" cy="25" r="6.4"/>
	<circle class="st1" cx="234" cy="25.2" r="3.3"/>
	<path class="st2" d="M235.2,26.3c-1.3,0.2-2.6-0.8-2.7-2.2c0-0.3,0-0.6,0.1-0.8c-0.7,0.5-1.1,1.3-0.9,2.2c0.2,1.3,1.4,2.3,2.7,2.2
		c1.1-0.1,1.9-0.9,2.1-1.9C236.1,26.1,235.6,26.3,235.2,26.3z"/>
	<rect x="161" y="25.5" transform="matrix(0.993 -0.118 0.118 0.993 -2.3739 22.1881)" class="st3" width="50.5" height="11.3"/>
	<g>
		<line class="st4" x1="165.7" y1="29.5" x2="166.6" y2="36.8"/>
		<line class="st4" x1="169" y1="29.1" x2="169.9" y2="36.4"/>
		<line class="st4" x1="172.3" y1="28.7" x2="173.1" y2="36"/>
		<line class="st4" x1="175.6" y1="28.3" x2="176.4" y2="35.6"/>
		<line class="st4" x1="178.8" y1="27.9" x2="179.7" y2="35.3"/>
		<line class="st4" x1="182.1" y1="27.5" x2="183" y2="34.9"/>
		<line class="st4" x1="185.4" y1="27.1" x2="186.3" y2="34.5"/>
		<line class="st4" x1="188.7" y1="26.7" x2="189.5" y2="34.1"/>
		<line class="st4" x1="192" y1="26.3" x2="192.8" y2="33.7"/>
		<line class="st4" x1="195.2" y1="25.9" x2="196.1" y2="33.3"/>
		<line class="st4" x1="198.5" y1="25.6" x2="199.4" y2="32.9"/>
		<line class="st4" x1="201.8" y1="25.2" x2="202.7" y2="32.5"/>
		<line class="st4" x1="205.1" y1="24.8" x2="205.9" y2="32.1"/>
		<line class="st4" x1="164.1" y1="34.8" x2="208.9" y2="29.5"/>
		<line class="st4" x1="163.8" y1="32.3" x2="208.6" y2="27"/>
	</g>
	
		<rect x="100.8" y="55.6" transform="matrix(0.993 -0.118 0.118 0.993 -29.2192 27.1457)" class="st5" width="227.8" height="409.5"/>
	<rect x="76.9" y="35.8" transform="matrix(0.993 -0.118 0.118 0.993 -5.7296 22.9349)" class="st6" width="227.8" height="48.1"/>
	<g>
		<circle class="st7" cx="277.1" cy="110.5" r="21.5"/>
		<path class="st7" d="M269.4,130.3l4.2-6.2c0,0-3.2-2.8-4.1-4.8c0,0-3.2-0.1-4.4-4c-1.2-3.9,1.2-3.7,1.2-3.7s-4.8-12.5,8.7-16
			l0.2,1.9c0,0,10.4-2.8,12.1,11.7c0,0,2.5-0.6,2,3.2s-2.6,4-2.6,4s-1.8,5.2-4.4,6.3c0,0,3.8,5.1,6.3,5.8"/>
	</g>
	<circle class="st1" cx="289.5" cy="56.8" r="1.3"/>
	<circle class="st1" cx="289.9" cy="61" r="1.3"/>
	<circle class="st1" cx="290.4" cy="65.1" r="1.3"/>
	<circle class="st8" cx="262" cy="63.5" r="4.9"/>
	<line class="st8" x1="266" y1="66.3" x2="270" y2="69.4"/>
	<path class="st8" d="M223.6,64.1l1.7-2.1l2.6,3.1l-1.3,1.4c0,0,1.3,4.6,5.9,4.5l1.1-1.6l3.1,1.5c0,0-1,2.6-3.4,2.6
		C230.9,73.6,224.3,72.1,223.6,64.1z"/>
	<g>
		<g>
			<path class="st9" d="M277.3,42.7c0.5-0.1,0.8-0.3,1.1-0.6c0.2-0.4,0.3-0.8,0.3-1.4l-0.1-0.6c-0.1,0.3-0.3,0.5-0.5,0.7
				c-0.2,0.2-0.5,0.3-0.8,0.3c-0.6,0.1-1.1-0.1-1.5-0.4c-0.4-0.4-0.6-0.9-0.7-1.5c-0.1-0.6,0-1.2,0.4-1.7c0.3-0.5,0.7-0.7,1.3-0.8
				c0.6-0.1,1.1,0.1,1.5,0.4c0.4,0.4,0.7,0.9,0.8,1.7l0.2,1.9c0.1,0.7,0,1.3-0.4,1.8c-0.3,0.4-0.8,0.7-1.5,0.8c-0.2,0-0.5,0-0.7,0
				c-0.2,0-0.5-0.1-0.7-0.1l0-0.4c0.2,0.1,0.4,0.1,0.6,0.1C276.9,42.7,277.1,42.7,277.3,42.7z M277.2,40.6c0.4,0,0.7-0.2,0.9-0.4
				c0.2-0.2,0.4-0.5,0.5-0.8l-0.1-0.7c-0.1-0.6-0.3-1-0.6-1.3c-0.3-0.3-0.7-0.4-1.1-0.3c-0.4,0-0.7,0.3-0.9,0.6
				c-0.2,0.4-0.3,0.8-0.2,1.3c0.1,0.5,0.2,0.9,0.5,1.2C276.4,40.5,276.7,40.6,277.2,40.6z"/>
			<path class="st9" d="M283.8,37.5c0,0.3,0,0.7-0.2,0.9s-0.4,0.5-0.7,0.7c0.4,0.1,0.7,0.2,1,0.5c0.3,0.2,0.4,0.6,0.5,0.9
				c0.1,0.6-0.1,1-0.4,1.4c-0.3,0.3-0.8,0.6-1.4,0.6c-0.6,0.1-1.1,0-1.5-0.3c-0.4-0.3-0.6-0.7-0.7-1.2c0-0.4,0-0.7,0.2-1
				c0.2-0.3,0.5-0.5,0.8-0.7c-0.3-0.1-0.6-0.2-0.9-0.5c-0.2-0.2-0.4-0.5-0.4-0.9c-0.1-0.5,0.1-1,0.4-1.3c0.3-0.3,0.7-0.5,1.3-0.6
				c0.5-0.1,1,0,1.4,0.3C283.5,36.6,283.8,37,283.8,37.5z M283.8,40.6c0-0.4-0.2-0.7-0.5-0.9c-0.3-0.2-0.7-0.3-1.1-0.2
				c-0.4,0.1-0.8,0.2-1,0.5c-0.3,0.3-0.4,0.6-0.3,1c0,0.4,0.2,0.7,0.5,0.9c0.3,0.2,0.7,0.3,1.1,0.2c0.4-0.1,0.8-0.2,1-0.5
				C283.8,41.3,283.9,41,283.8,40.6z M283.3,37.6c0-0.4-0.2-0.7-0.5-0.9c-0.3-0.2-0.6-0.3-1-0.2c-0.4,0-0.7,0.2-0.9,0.5
				c-0.2,0.3-0.3,0.6-0.3,1c0,0.4,0.2,0.7,0.5,0.8c0.3,0.2,0.6,0.3,1,0.2c0.4,0,0.7-0.2,0.9-0.4C283.3,38.3,283.3,37.9,283.3,37.6z"
				/>
			<path class="st9" d="M284.8,37c0-0.4,0-0.7,0.2-1c0.2-0.3,0.5-0.4,0.8-0.5c0.4,0,0.7,0,0.9,0.3c0.3,0.2,0.4,0.5,0.5,0.9l0,0.3
				c0,0.4,0,0.7-0.2,1c-0.2,0.3-0.5,0.4-0.8,0.5c-0.4,0-0.7,0-0.9-0.3c-0.3-0.2-0.4-0.5-0.5-0.9L284.8,37z M285.3,37.3
				c0,0.3,0.1,0.5,0.3,0.6c0.2,0.2,0.4,0.2,0.6,0.2c0.3,0,0.4-0.1,0.6-0.3c0.1-0.2,0.2-0.4,0.1-0.7l0-0.3c0-0.3-0.1-0.5-0.3-0.6
				c-0.2-0.2-0.4-0.2-0.6-0.2s-0.5,0.1-0.6,0.3c-0.1,0.2-0.2,0.4-0.1,0.7L285.3,37.3z M286.9,41.4l-0.3-0.2l2.5-5.3l0.3,0.2
				L286.9,41.4z M288.4,40.1c0-0.4,0-0.7,0.2-1c0.2-0.3,0.5-0.4,0.8-0.5c0.4,0,0.7,0,0.9,0.3c0.3,0.2,0.4,0.5,0.5,0.9l0,0.3
				c0,0.4,0,0.7-0.2,1c-0.2,0.3-0.5,0.4-0.8,0.5c-0.4,0-0.7,0-0.9-0.3c-0.3-0.2-0.4-0.5-0.5-0.9L288.4,40.1z M288.9,40.4
				c0,0.3,0.1,0.5,0.3,0.6c0.2,0.2,0.4,0.2,0.6,0.2c0.3,0,0.4-0.1,0.6-0.3c0.1-0.2,0.2-0.4,0.1-0.7l0-0.3c0-0.3-0.1-0.5-0.3-0.6
				c-0.2-0.2-0.4-0.2-0.6-0.2s-0.5,0.1-0.6,0.3c-0.1,0.2-0.2,0.4-0.1,0.7L288.9,40.4z"/>
		</g>
		<g>
			<path class="st9" d="M268.8,39l-0.7,0.9l0.5,4.5c0.3,0,0.6-0.1,0.8-0.1L268.8,39z"/>
			<path class="st9" d="M265.2,44.9c0.2,0,0.5-0.1,0.8-0.1l-0.2-1.9l-0.7,0.9L265.2,44.9z"/>
			<path class="st9" d="M267.3,40.9l-0.7,0.9l0.3,2.8c0.3,0,0.5-0.1,0.8-0.1L267.3,40.9z"/>
			<path class="st9" d="M264.3,44.8l-0.2,0.2c0,0,0.1,0,0.2,0L264.3,44.8z"/>
			<path class="st9" d="M269.6,38l0.7,6.2c0.2,0,0.9-0.1,0.9-0.1l-0.9-7.2L269.6,38z"/>
		</g>
		<path class="st10" d="M251,41.2c0,0,1.2-1.8,4.2-2.2c3-0.4,4.5,1.1,4.5,1.1"/>
		<path class="st10" d="M252.5,42.5c0,0,1.1-1.4,3-1.6c1.9-0.2,3.2,0.9,3.2,0.9"/>
		<path class="st10" d="M253.9,43.8c0,0,0.7-0.8,1.7-1s1.8,0.6,1.8,0.6"/>
		<path class="st9" d="M256,45.7l-1-0.8c0,0,0.3-0.5,0.8-0.6c0.6-0.1,0.9,0.3,0.9,0.3L256,45.7z"/>
		<path class="st9" d="M240.5,39.4c-1.8,0.2-3,1.8-2.8,3.5c0.2,1.8,3.7,5.7,3.9,5.7c0.2,0,2.7-4.7,2.5-6.4S242.2,39.2,240.5,39.4z
			 M241,43.7c-0.6,0.1-1.2-0.4-1.3-1c-0.1-0.6,0.4-1.2,1-1.3c0.6-0.1,1.2,0.4,1.3,1C242,43.1,241.6,43.7,241,43.7z"/>
	</g>
	
		<rect x="122.2" y="424.3" transform="matrix(0.993 -0.118 0.118 0.993 -50.6548 30.8478)" class="st11" width="226.1" height="37.9"/>
	<g>
		<circle class="st12" cx="141.7" cy="453.8" r="11"/>
		<g>
			<line class="st13" x1="141.2" y1="449.2" x2="142.2" y2="458.4"/>
			<line class="st13" x1="136.7" y1="454.4" x2="146.7" y2="453.2"/>
		</g>
	</g>
	<path class="st14" d="M301.5,447.3l-131.1,15.6c-6.4,0.8-12.2-3.8-12.9-10.2l-0.2-1.6c-0.8-6.4,3.8-12.2,10.2-12.9l131.1-15.6
		c6.4-0.8,12.2,3.8,12.9,10.2l0.2,1.6C312.5,440.7,307.9,446.6,301.5,447.3z"/>
	<g>
		<path class="st15" d="M172.1,450l-3.4,0.4l0.3,2.7l3.9-0.5l0.1,0.8l-4.9,0.6l-0.9-7.5l4.9-0.6l0.1,0.8l-3.9,0.5l0.3,2.4l3.4-0.4
			L172.1,450z"/>
		<path class="st15" d="M174.3,447.6l0.2,0.8c0.1-0.3,0.4-0.6,0.6-0.8c0.3-0.2,0.6-0.3,0.9-0.4c0.6-0.1,1.1,0,1.5,0.4
			c0.4,0.3,0.6,0.8,0.7,1.6l0.4,3.5l-1,0.1l-0.4-3.5c-0.1-0.5-0.2-0.8-0.4-1c-0.2-0.2-0.5-0.2-0.9-0.2c-0.3,0-0.5,0.1-0.7,0.3
			c-0.2,0.2-0.4,0.4-0.5,0.6l0.5,4l-1,0.1l-0.7-5.5L174.3,447.6z"/>
		<path class="st15" d="M180.5,445.5l0.2,1.3l1-0.1l0.1,0.7l-1,0.1l0.4,3.4c0,0.3,0.1,0.4,0.2,0.5c0.1,0.1,0.3,0.1,0.4,0.1
			c0.1,0,0.1,0,0.2,0c0.1,0,0.1,0,0.2-0.1l0.2,0.7c-0.1,0.1-0.2,0.1-0.3,0.2c-0.1,0.1-0.3,0.1-0.4,0.1c-0.4,0-0.8,0-1-0.3
			c-0.3-0.2-0.4-0.6-0.5-1.1l-0.4-3.4l-0.9,0.1l-0.1-0.7l0.9-0.1l-0.2-1.3L180.5,445.5z"/>
		<path class="st15" d="M185.9,452c-0.8,0.1-1.4-0.1-1.9-0.6c-0.5-0.5-0.8-1.1-0.9-1.9l0-0.2c-0.1-0.8,0.1-1.5,0.5-2.1
			c0.4-0.6,0.9-0.9,1.6-1c0.7-0.1,1.3,0.1,1.8,0.5c0.4,0.4,0.7,1,0.8,1.7l0.1,0.6l-3.6,0.4l0,0c0.1,0.5,0.3,1,0.6,1.3
			c0.3,0.3,0.7,0.4,1.2,0.4c0.3,0,0.6-0.1,0.9-0.3c0.2-0.1,0.5-0.3,0.6-0.5l0.5,0.6c-0.2,0.2-0.4,0.4-0.7,0.6
			C186.8,451.8,186.4,451.9,185.9,452z M185.2,447c-0.3,0-0.6,0.2-0.8,0.5s-0.3,0.7-0.3,1.1l0,0l2.6-0.3l0-0.1c0-0.4-0.2-0.7-0.4-1
			C185.9,447.1,185.6,447,185.2,447z"/>
		<path class="st15" d="M191.2,446.5l-0.5,0c-0.3,0-0.5,0.1-0.7,0.3c-0.2,0.1-0.3,0.3-0.4,0.6l0.5,4l-1,0.1l-0.7-5.5l0.9-0.1
			l0.2,0.8c0.1-0.3,0.3-0.6,0.5-0.7c0.2-0.2,0.5-0.3,0.8-0.3c0.1,0,0.1,0,0.2,0c0.1,0,0.1,0,0.2,0L191.2,446.5z"/>
		<path class="st15" d="M195.6,445.1l0.2,0.7c0.1-0.3,0.4-0.5,0.6-0.7c0.3-0.2,0.6-0.3,0.9-0.3c0.4,0,0.7,0,1,0.1
			c0.3,0.1,0.5,0.4,0.7,0.7c0.1-0.3,0.3-0.6,0.6-0.8c0.3-0.2,0.6-0.4,1-0.4c0.6-0.1,1,0.1,1.4,0.4c0.4,0.3,0.6,0.9,0.7,1.7l0.4,3.3
			l-1,0.1l-0.4-3.3c-0.1-0.5-0.2-0.9-0.4-1.1c-0.2-0.2-0.5-0.3-0.9-0.2c-0.3,0-0.6,0.2-0.8,0.5c-0.2,0.3-0.3,0.6-0.3,1l0,0l0.4,3.5
			l-1,0.1l-0.4-3.3c-0.1-0.5-0.2-0.9-0.4-1.1c-0.2-0.2-0.5-0.3-0.9-0.3c-0.3,0-0.6,0.1-0.7,0.3c-0.2,0.1-0.3,0.3-0.4,0.6l0.5,4.1
			l-1,0.1l-0.7-5.5L195.6,445.1z"/>
		<path class="st15" d="M206.9,449.5c-0.8,0.1-1.4-0.1-1.9-0.6c-0.5-0.5-0.8-1.1-0.9-1.9l0-0.2c-0.1-0.8,0.1-1.5,0.5-2.1
			c0.4-0.6,0.9-0.9,1.6-1c0.7-0.1,1.3,0.1,1.8,0.5c0.4,0.4,0.7,1,0.8,1.7l0.1,0.6l-3.6,0.4l0,0c0.1,0.5,0.3,1,0.6,1.3
			c0.3,0.3,0.7,0.4,1.2,0.4c0.3,0,0.6-0.1,0.9-0.3c0.2-0.1,0.5-0.3,0.6-0.5l0.5,0.6c-0.2,0.2-0.4,0.4-0.7,0.6
			C207.7,449.3,207.3,449.4,206.9,449.5z M206.1,444.6c-0.3,0-0.6,0.2-0.8,0.5s-0.3,0.7-0.3,1.1l0,0l2.6-0.3l0-0.1
			c0-0.4-0.2-0.7-0.4-1C206.9,444.6,206.5,444.5,206.1,444.6z"/>
		<path class="st15" d="M213.1,447.1c0-0.2-0.1-0.4-0.3-0.5c-0.2-0.1-0.5-0.2-1-0.3c-0.7-0.1-1.2-0.2-1.6-0.4
			c-0.4-0.2-0.6-0.5-0.6-1c-0.1-0.5,0.1-0.9,0.4-1.2c0.3-0.4,0.8-0.6,1.4-0.7c0.6-0.1,1.2,0,1.6,0.3c0.4,0.3,0.6,0.7,0.7,1.1l0,0
			l-1,0.1c0-0.2-0.2-0.4-0.4-0.6c-0.2-0.2-0.5-0.2-0.8-0.2c-0.4,0-0.6,0.2-0.8,0.3c-0.2,0.2-0.2,0.4-0.2,0.6c0,0.2,0.1,0.4,0.3,0.5
			c0.2,0.1,0.5,0.2,1,0.2c0.7,0.1,1.3,0.2,1.6,0.4c0.4,0.2,0.6,0.5,0.6,1c0.1,0.5-0.1,0.9-0.5,1.3c-0.4,0.4-0.9,0.6-1.5,0.6
			c-0.7,0.1-1.3,0-1.7-0.3c-0.4-0.3-0.7-0.7-0.7-1.2l0,0l1-0.1c0.1,0.4,0.2,0.6,0.5,0.7c0.3,0.1,0.6,0.2,0.9,0.1
			c0.4,0,0.6-0.1,0.8-0.3C213.1,447.6,213.2,447.4,213.1,447.1z"/>
		<path class="st15" d="M218.6,446.5c0-0.2-0.1-0.4-0.3-0.5c-0.2-0.1-0.5-0.2-1-0.3c-0.7-0.1-1.2-0.2-1.6-0.4
			c-0.4-0.2-0.6-0.5-0.6-1c-0.1-0.5,0.1-0.9,0.4-1.2c0.3-0.4,0.8-0.6,1.4-0.7c0.6-0.1,1.2,0,1.6,0.3c0.4,0.3,0.6,0.7,0.7,1.1l0,0
			l-1,0.1c0-0.2-0.2-0.4-0.4-0.6c-0.2-0.2-0.5-0.2-0.8-0.2c-0.4,0-0.6,0.2-0.8,0.3c-0.2,0.2-0.2,0.4-0.2,0.6c0,0.2,0.1,0.4,0.3,0.5
			c0.2,0.1,0.5,0.2,1,0.2c0.7,0.1,1.3,0.2,1.6,0.4c0.4,0.2,0.6,0.5,0.6,1c0.1,0.5-0.1,0.9-0.5,1.3c-0.4,0.4-0.9,0.6-1.5,0.6
			c-0.7,0.1-1.3,0-1.7-0.3c-0.4-0.3-0.7-0.7-0.7-1.2l0,0l1-0.1c0.1,0.4,0.2,0.6,0.5,0.7c0.3,0.1,0.6,0.2,0.9,0.1
			c0.4,0,0.6-0.1,0.8-0.3C218.6,446.9,218.7,446.7,218.6,446.5z"/>
		<path class="st15" d="M224.5,447.3c-0.1-0.2-0.1-0.3-0.1-0.4c0-0.1-0.1-0.3-0.1-0.4c-0.2,0.3-0.4,0.5-0.7,0.8
			c-0.3,0.2-0.6,0.3-0.9,0.4c-0.6,0.1-1,0-1.4-0.3c-0.3-0.3-0.5-0.6-0.6-1.2c-0.1-0.5,0.1-1,0.5-1.3c0.4-0.4,1-0.6,1.7-0.7l1.1-0.1
			l-0.1-0.5c0-0.3-0.2-0.6-0.4-0.7c-0.2-0.2-0.5-0.2-0.9-0.2c-0.3,0-0.6,0.2-0.8,0.3c-0.2,0.2-0.3,0.4-0.2,0.6l-1,0.1l0,0
			c-0.1-0.4,0.1-0.8,0.4-1.2c0.4-0.4,0.9-0.6,1.5-0.7c0.6-0.1,1.2,0,1.6,0.3c0.4,0.3,0.7,0.7,0.7,1.3l0.3,2.7c0,0.2,0.1,0.4,0.1,0.6
			c0,0.2,0.1,0.4,0.2,0.5L224.5,447.3z M222.7,446.7c0.4,0,0.7-0.2,1-0.4c0.3-0.2,0.4-0.5,0.5-0.7l-0.1-0.9l-1.1,0.1
			c-0.4,0-0.7,0.2-0.9,0.4c-0.2,0.2-0.3,0.5-0.3,0.8c0,0.2,0.1,0.4,0.3,0.6C222.2,446.7,222.4,446.8,222.7,446.7z"/>
		<path class="st15" d="M226.3,444.4c-0.1-0.9,0-1.6,0.3-2.2c0.3-0.6,0.8-0.9,1.5-1c0.4,0,0.7,0,1,0.1c0.3,0.1,0.5,0.3,0.7,0.5
			l0-0.7l0.8-0.1l0.7,5.6c0.1,0.7-0.1,1.3-0.4,1.7c-0.4,0.4-0.9,0.7-1.7,0.8c-0.3,0-0.6,0-0.9,0c-0.3,0-0.6-0.1-0.9-0.2l0.2-0.8
			c0.2,0.1,0.4,0.1,0.7,0.2c0.3,0,0.5,0,0.8,0c0.5-0.1,0.8-0.2,1-0.5c0.2-0.3,0.3-0.6,0.2-1.1l-0.1-0.6c-0.2,0.3-0.4,0.5-0.6,0.6
			c-0.2,0.1-0.5,0.2-0.8,0.3c-0.7,0.1-1.2-0.1-1.7-0.5c-0.4-0.4-0.7-1.1-0.8-1.9L226.3,444.4z M227.3,444.4c0.1,0.6,0.2,1,0.5,1.3
			c0.3,0.3,0.7,0.4,1.1,0.4c0.3,0,0.5-0.1,0.7-0.3c0.2-0.2,0.3-0.4,0.4-0.6l-0.3-2.6c-0.2-0.2-0.3-0.4-0.6-0.5
			c-0.2-0.1-0.5-0.2-0.8-0.1c-0.5,0.1-0.8,0.3-1,0.7c-0.2,0.4-0.3,1-0.2,1.6L227.3,444.4z"/>
		<path class="st15" d="M235.1,446.1c-0.8,0.1-1.4-0.1-1.9-0.6c-0.5-0.5-0.8-1.1-0.9-1.9l0-0.2c-0.1-0.8,0.1-1.5,0.5-2.1
			c0.4-0.6,0.9-0.9,1.6-1c0.7-0.1,1.3,0.1,1.8,0.5c0.4,0.4,0.7,1,0.8,1.7l0.1,0.6l-3.6,0.4l0,0c0.1,0.5,0.3,1,0.6,1.3
			c0.3,0.3,0.7,0.4,1.2,0.4c0.3,0,0.6-0.1,0.9-0.3c0.2-0.1,0.5-0.3,0.6-0.5l0.5,0.6c-0.2,0.2-0.4,0.4-0.7,0.6
			C236,446,235.6,446.1,235.1,446.1z M234.4,441.2c-0.3,0-0.6,0.2-0.8,0.5s-0.3,0.7-0.3,1.1l0,0l2.6-0.3l0-0.1c0-0.4-0.2-0.7-0.4-1
			C235.1,441.2,234.8,441.1,234.4,441.2z"/>
	</g>
	<g>
		<circle class="st16" cx="327.6" cy="431.9" r="10.9"/>
		<g>
			<path class="st17" d="M328.4,438.2l-1.3-11.3c0,0-0.3-0.8-1-0.8c-0.7,0.1-1,0.6-1,1.2c0.1,0.6,0.9,7.2,0.9,7.2s0,0.9-1,1
				s-1.2-0.8-1.2-0.8l-0.6-4.9"/>
			<line class="st17" x1="321.1" y1="431" x2="321.5" y2="434.1"/>
			<line class="st17" x1="333.8" y1="429.5" x2="334.1" y2="432.6"/>
			<line class="st17" x1="331.8" y1="430.1" x2="332.1" y2="432.5"/>
			<line class="st17" x1="329.5" y1="428.8" x2="330.2" y2="434.4"/>
		</g>
	</g>
	<path class="st18" d="M250.7,126.6c0,0-4-1.7-5.9-5.2c1.8-1.9,2.8-4.6,2.4-7.4c-0.6-5.1-5.3-8.7-10.3-8.1l-14.4,1.7
		c-5.1,0.6-8.7,5.3-8.1,10.3c0.6,5.1,5.3,8.7,10.3,8.1l14.4-1.7c0.4,0,0.7-0.1,1.1-0.2C241.6,125.4,244.8,127.3,250.7,126.6z"/>
	<g>
		<path class="st2" d="M223.7,115.6c0.1-0.2,0.3-0.4,0.5-0.6c0.2-0.1,0.4-0.2,0.7-0.3c0.5-0.1,0.8,0,1.1,0.3
			c0.3,0.2,0.5,0.7,0.5,1.2l0.3,2.7l-0.8,0.1l-0.3-2.7c0-0.4-0.2-0.6-0.3-0.8c-0.2-0.2-0.4-0.2-0.7-0.2c-0.2,0-0.4,0.1-0.6,0.2
			c-0.2,0.1-0.3,0.3-0.4,0.5l0.4,3.2l-0.8,0.1l-0.7-6.2l0.8-0.1L223.7,115.6z"/>
		<path class="st2" d="M229.8,118.8c-0.6,0.1-1.1-0.1-1.5-0.4c-0.4-0.4-0.6-0.9-0.7-1.5l0-0.2c-0.1-0.6,0-1.1,0.4-1.6
			c0.3-0.5,0.7-0.7,1.2-0.8c0.6-0.1,1,0.1,1.4,0.4c0.3,0.3,0.5,0.8,0.6,1.4l0.1,0.5l-2.8,0.3l0,0c0.1,0.4,0.2,0.7,0.4,1
			c0.2,0.2,0.5,0.3,0.9,0.3c0.3,0,0.5-0.1,0.7-0.2c0.2-0.1,0.4-0.2,0.5-0.4l0.4,0.5c-0.1,0.2-0.3,0.3-0.6,0.5
			C230.4,118.6,230.1,118.7,229.8,118.8z M229.2,114.9c-0.3,0-0.5,0.2-0.6,0.4c-0.2,0.2-0.2,0.5-0.2,0.9l0,0l2-0.2l0-0.1
			c0-0.3-0.1-0.6-0.3-0.7C229.8,114.9,229.5,114.9,229.2,114.9z"/>
		<path class="st2" d="M233.2,118.3l-0.8,0.1l-0.7-6.2l0.8-0.1L233.2,118.3z"/>
		<path class="st2" d="M235.2,118l-0.8,0.1l-0.7-6.2l0.8-0.1L235.2,118z"/>
		<path class="st2" d="M236,115.7c-0.1-0.6,0-1.2,0.3-1.6c0.3-0.5,0.7-0.7,1.3-0.8c0.6-0.1,1.1,0.1,1.5,0.5c0.4,0.4,0.6,0.9,0.7,1.5
			l0,0.1c0.1,0.6,0,1.2-0.3,1.6c-0.3,0.5-0.7,0.7-1.3,0.8c-0.6,0.1-1.1-0.1-1.5-0.4C236.3,116.9,236.1,116.4,236,115.7L236,115.7z
			 M236.8,115.7c0.1,0.5,0.2,0.8,0.4,1.1s0.5,0.4,0.9,0.3c0.4,0,0.6-0.2,0.8-0.5c0.2-0.3,0.2-0.7,0.2-1.2l0-0.1
			c-0.1-0.5-0.2-0.8-0.4-1.1c-0.2-0.3-0.5-0.4-0.9-0.3c-0.4,0-0.6,0.2-0.8,0.6S236.7,115.2,236.8,115.7L236.8,115.7z"/>
	</g>
	<polygon class="st19" points="74.9,49.4 125.1,472.2 146.8,479.6 165.7,474.9 218,31.8 108.9,44.8 	"/>
	<path d="M317.9,130.3C317.9,130.3,317.9,130.3,317.9,130.3l-12.3-103C304.4,17.1,295.1,9.8,285,11L87.6,34.5
		c-10.1,1.2-17.4,10.5-16.2,20.6l5.8,48.9c-2.5,0.7-2,2.8-1.7,5.4l4.4,37.2c0.8,0,1.4,0.6,1.5,1.4c0.1,0.8-0.4,1.5-1.1,1.7l4.3,36.1
		c0.3,2.6,0.4,4.8,3,4.9l3.1,25.7c-2.3,0.3-1.9,2.2-1.6,4.5l5.7,48c0.3,2.3,0.3,4.2,2.6,4l23.7,199.4c1.2,10.1,10.5,17.4,20.6,16.2
		l197.5-23.5c10.1-1.2,17.4-10.5,16.2-20.6l-29.7-249.9c0,0,0,0,0,0c1.6-0.2,1.7-1.6,1.5-3.2l-6.9-58.3
		C320,131.4,319.5,130.1,317.9,130.3z M233.4,20.4c2.6-0.3,5,1.6,5.3,4.2c0.3,2.6-1.6,5-4.2,5.3c-2.6,0.3-5-1.6-5.3-4.2
		C228.9,23.1,230.8,20.7,233.4,20.4z M167.4,30.6l37.7-4.5c1.4-0.2,2.7,0.8,2.9,2.3c0.2,1.4-0.8,2.7-2.3,2.9L168,35.7
		c-1.4,0.2-2.7-0.8-2.9-2.3C165,32,166,30.8,167.4,30.6z M346.9,428.4c1.2,10.4-6.2,19.8-16.6,21.1l-184.1,21.9
		c-10.4,1.2-19.8-6.2-21.1-16.6L79.6,70.9c-1.2-10.4,6.2-19.8,16.6-21.1L280.3,28c10.4-1.2,19.8,6.2,21.1,16.6L346.9,428.4z"/>
	<circle class="st20" cx="234.1" cy="25.1" r="1.7"/>
</g>
<g>
	<circle class="st0" cx="471.5" cy="54.8" r="6.4"/>
	<circle class="st1" cx="471.5" cy="54.9" r="3.3"/>
	<path class="st2" d="M472.5,56.2c-1.4,0-2.5-1.1-2.5-2.5c0-0.3,0.1-0.6,0.1-0.8c-0.7,0.4-1.2,1.2-1.2,2.1c0,1.4,1.1,2.5,2.5,2.5
		c1.1,0,2-0.7,2.3-1.6C473.4,56.1,473,56.2,472.5,56.2z"/>
	<rect x="398.1" y="49.6" class="st3" width="50.5" height="11.3"/>
	<g>
		<line class="st4" x1="403.2" y1="51.2" x2="403.2" y2="58.6"/>
		<line class="st4" x1="406.5" y1="51.2" x2="406.5" y2="58.6"/>
		<line class="st4" x1="409.8" y1="51.2" x2="409.8" y2="58.6"/>
		<line class="st4" x1="413.1" y1="51.2" x2="413.1" y2="58.6"/>
		<line class="st4" x1="416.4" y1="51.2" x2="416.4" y2="58.6"/>
		<line class="st4" x1="419.7" y1="51.2" x2="419.7" y2="58.6"/>
		<line class="st4" x1="423" y1="51.2" x2="423" y2="58.6"/>
		<line class="st4" x1="426.3" y1="51.2" x2="426.3" y2="58.6"/>
		<line class="st4" x1="429.6" y1="51.2" x2="429.6" y2="58.6"/>
		<line class="st4" x1="432.9" y1="51.2" x2="432.9" y2="58.6"/>
		<line class="st4" x1="436.2" y1="51.2" x2="436.2" y2="58.6"/>
		<line class="st4" x1="439.5" y1="51.2" x2="439.5" y2="58.6"/>
		<line class="st4" x1="442.8" y1="51.2" x2="442.8" y2="58.6"/>
		<line class="st4" x1="400.9" y1="56.3" x2="446" y2="56.3"/>
		<line class="st4" x1="400.9" y1="53.7" x2="446" y2="53.7"/>
	</g>
	<rect x="310.6" y="81.5" class="st5" width="227.8" height="409.5"/>
	<rect x="310.6" y="60.3" class="st6" width="227.8" height="48.1"/>
	<g>
		<circle class="st7" cx="504.2" cy="144.8" r="21.5"/>
		<path class="st7" d="M494.2,163.6l4.9-5.7c0,0-2.8-3.2-3.5-5.3c0,0-3.2-0.5-3.9-4.5c-0.7-4,1.6-3.5,1.6-3.5s-3.3-12.9,10.5-14.8
			v1.9c0,0,10.6-1.6,10.6,13c0,0,2.6-0.3,1.6,3.5c-0.9,3.8-3,3.6-3,3.6s-2.4,4.9-5.1,5.7c0,0,3.2,5.5,5.5,6.5"/>
	</g>
	<circle class="st1" cx="522.8" cy="93" r="1.3"/>
	<circle class="st1" cx="522.8" cy="97.1" r="1.3"/>
	<circle class="st1" cx="522.8" cy="101.3" r="1.3"/>
	<circle class="st8" cx="494.8" cy="96.4" r="4.9"/>
	<line class="st8" x1="498.4" y1="99.6" x2="502" y2="103.2"/>
	<path class="st8" d="M456.5,92.4l2-1.8l2.2,3.4l-1.5,1.2c0,0,0.7,4.8,5.3,5.2l1.3-1.4l2.9,1.8c0,0-1.3,2.5-3.7,2.2
		C462.7,102.7,456.3,100.4,456.5,92.4z"/>
	<g>
		<g>
			<path class="st9" d="M512.4,77.5c0.5,0,0.9-0.2,1.2-0.5c0.3-0.3,0.4-0.8,0.4-1.4v-0.6c-0.2,0.3-0.4,0.5-0.6,0.6
				c-0.3,0.1-0.6,0.2-0.9,0.2c-0.6,0-1-0.2-1.4-0.6s-0.5-0.9-0.5-1.6c0-0.6,0.2-1.2,0.6-1.6c0.4-0.4,0.8-0.6,1.4-0.6
				c0.6,0,1.1,0.2,1.5,0.6c0.4,0.4,0.6,1,0.6,1.7v1.9c0,0.7-0.2,1.3-0.6,1.7c-0.4,0.4-0.9,0.6-1.5,0.6c-0.2,0-0.5,0-0.7-0.1
				c-0.2,0-0.4-0.1-0.7-0.2l0.1-0.4c0.2,0.1,0.4,0.2,0.6,0.2C512,77.4,512.2,77.5,512.4,77.5z M512.5,75.3c0.4,0,0.7-0.1,0.9-0.3
				c0.3-0.2,0.4-0.4,0.5-0.7v-0.7c0-0.6-0.1-1.1-0.4-1.4c-0.3-0.3-0.6-0.5-1.1-0.5c-0.4,0-0.7,0.2-1,0.5s-0.4,0.8-0.4,1.3
				c0,0.5,0.1,0.9,0.4,1.2C511.7,75.2,512.1,75.3,512.5,75.3z"/>
			<path class="st9" d="M519.5,73.1c0,0.3-0.1,0.6-0.3,0.9c-0.2,0.3-0.5,0.4-0.8,0.6c0.4,0.1,0.7,0.3,0.9,0.6c0.2,0.3,0.4,0.6,0.4,1
				c0,0.6-0.2,1-0.6,1.3c-0.4,0.3-0.9,0.5-1.5,0.5c-0.6,0-1.1-0.2-1.5-0.5c-0.4-0.3-0.6-0.7-0.6-1.3c0-0.4,0.1-0.7,0.3-1
				c0.2-0.3,0.5-0.5,0.9-0.6c-0.3-0.1-0.6-0.3-0.8-0.6s-0.3-0.6-0.3-0.9c0-0.5,0.2-1,0.5-1.3c0.3-0.3,0.8-0.5,1.3-0.5
				c0.5,0,1,0.2,1.3,0.5C519.3,72.1,519.5,72.5,519.5,73.1z M519.1,76.1c0-0.4-0.1-0.7-0.4-1c-0.3-0.3-0.7-0.4-1.1-0.4
				c-0.4,0-0.8,0.1-1.1,0.4c-0.3,0.3-0.4,0.6-0.4,1c0,0.4,0.1,0.7,0.4,1c0.3,0.2,0.6,0.4,1.1,0.4c0.4,0,0.8-0.1,1.1-0.4
				C519,76.9,519.1,76.5,519.1,76.1z M519,73.1c0-0.4-0.1-0.7-0.4-0.9c-0.3-0.2-0.6-0.4-1-0.4c-0.4,0-0.7,0.1-1,0.3
				c-0.3,0.2-0.4,0.5-0.4,0.9c0,0.4,0.1,0.7,0.4,0.9c0.3,0.2,0.6,0.3,1,0.3c0.4,0,0.7-0.1,1-0.3S519,73.5,519,73.1z"/>
			<path class="st9" d="M520.6,72.7c0-0.4,0.1-0.7,0.3-0.9c0.2-0.3,0.5-0.4,0.9-0.4c0.4,0,0.7,0.1,0.9,0.4c0.2,0.3,0.3,0.6,0.3,0.9
				V73c0,0.4-0.1,0.7-0.3,0.9s-0.5,0.4-0.9,0.4c-0.4,0-0.7-0.1-0.9-0.4c-0.2-0.3-0.3-0.6-0.3-0.9V72.7z M521,73
				c0,0.3,0.1,0.5,0.2,0.7c0.1,0.2,0.3,0.3,0.6,0.3c0.3,0,0.5-0.1,0.6-0.3c0.1-0.2,0.2-0.4,0.2-0.7v-0.3c0-0.3-0.1-0.5-0.2-0.7
				c-0.1-0.2-0.3-0.3-0.6-0.3c-0.3,0-0.5,0.1-0.6,0.3c-0.1,0.2-0.2,0.4-0.2,0.7V73z M522.1,77.3l-0.3-0.2l3.1-5l0.3,0.2L522.1,77.3z
				 M523.8,76.3c0-0.4,0.1-0.7,0.3-0.9c0.2-0.3,0.5-0.4,0.9-0.4c0.4,0,0.7,0.1,0.9,0.4c0.2,0.3,0.3,0.6,0.3,0.9v0.3
				c0,0.4-0.1,0.7-0.3,0.9c-0.2,0.3-0.5,0.4-0.9,0.4c-0.4,0-0.7-0.1-0.9-0.4c-0.2-0.3-0.3-0.6-0.3-0.9V76.3z M524.2,76.6
				c0,0.3,0.1,0.5,0.2,0.7c0.1,0.2,0.3,0.3,0.6,0.3c0.3,0,0.5-0.1,0.6-0.3c0.1-0.2,0.2-0.4,0.2-0.7v-0.3c0-0.3-0.1-0.5-0.2-0.7
				c-0.1-0.2-0.3-0.3-0.6-0.3s-0.5,0.1-0.6,0.3c-0.1,0.2-0.2,0.4-0.2,0.7V76.6z"/>
		</g>
		<g>
			<path class="st9" d="M504.4,72.8l-0.8,0.8v4.5c0.3,0,0.6,0,0.8,0V72.8z"/>
			<path class="st9" d="M500.2,78.2c0.2,0,0.5,0,0.8,0v-1.9l-0.8,0.8V78.2z"/>
			<path class="st9" d="M502.7,74.6l-0.8,0.8v2.8c0.3,0,0.6,0,0.8,0V74.6z"/>
			<path class="st9" d="M499.3,78l-0.2,0.2c0,0,0.1,0,0.2,0V78z"/>
			<path class="st9" d="M505.3,71.9v6.3c0.2,0,0.9,0,0.9,0V71L505.3,71.9z"/>
		</g>
		<path class="st10" d="M486.5,72.9c0,0,1.4-1.7,4.5-1.7c3,0,4.3,1.6,4.3,1.6"/>
		<path class="st10" d="M487.8,74.3c0,0,1.3-1.2,3.2-1.2c1.9,0,3.1,1.2,3.1,1.2"/>
		<path class="st10" d="M489.1,75.8c0,0,0.8-0.7,1.8-0.7s1.8,0.8,1.8,0.8"/>
		<path class="st9" d="M490.9,77.9L490,77c0,0,0.3-0.5,0.9-0.5s0.9,0.4,0.9,0.4L490.9,77.9z"/>
		<path class="st9" d="M476.2,69.9c-1.8,0-3.2,1.4-3.2,3.2s3.1,6.1,3.2,6.1c0.2,0,3.2-4.3,3.2-6.1S478,69.9,476.2,69.9z M476.2,74.2
			c-0.6,0-1.1-0.5-1.1-1.1s0.5-1.1,1.1-1.1s1.1,0.5,1.1,1.1S476.8,74.2,476.2,74.2z"/>
	</g>
	<rect x="310.3" y="451.3" class="st11" width="226.1" height="37.9"/>
	<g>
		<circle class="st12" cx="329.3" cy="469.7" r="11"/>
		<g>
			<line class="st13" x1="329.3" y1="465.1" x2="329.3" y2="474.3"/>
			<line class="st13" x1="324.2" y1="469.7" x2="334.3" y2="469.7"/>
		</g>
	</g>
	<path class="st14" d="M488.7,482.1h-132c-6.4,0-11.6-5.2-11.6-11.6v-1.6c0-6.4,5.2-11.6,11.6-11.6h132c6.4,0,11.6,5.2,11.6,11.6
		v1.6C500.4,476.9,495.1,482.1,488.7,482.1z"/>
	<g>
		<path class="st15" d="M359.9,469.5h-3.4v2.7h4v0.8h-5v-7.5h4.9v0.8h-3.9v2.4h3.4V469.5z"/>
		<path class="st15" d="M362.3,467.4l0.1,0.8c0.2-0.3,0.4-0.5,0.7-0.7c0.3-0.2,0.6-0.2,1-0.2c0.6,0,1.1,0.2,1.4,0.5
			c0.3,0.4,0.5,0.9,0.5,1.6v3.5h-1v-3.5c0-0.5-0.1-0.8-0.3-1c-0.2-0.2-0.5-0.3-0.9-0.3c-0.3,0-0.6,0.1-0.8,0.2
			c-0.2,0.1-0.4,0.3-0.5,0.6v4.1h-1v-5.6H362.3z"/>
		<path class="st15" d="M368.8,466.1v1.3h1.1v0.8h-1.1v3.4c0,0.3,0.1,0.4,0.2,0.6c0.1,0.1,0.3,0.2,0.4,0.2c0.1,0,0.1,0,0.2,0
			c0.1,0,0.1,0,0.2-0.1l0.1,0.7c-0.1,0.1-0.2,0.1-0.3,0.2c-0.1,0-0.3,0.1-0.4,0.1c-0.4,0-0.7-0.1-1-0.4c-0.2-0.2-0.4-0.6-0.4-1.2
			v-3.4h-0.9v-0.8h0.9v-1.3H368.8z"/>
		<path class="st15" d="M373.4,473.1c-0.8,0-1.4-0.3-1.9-0.8c-0.5-0.5-0.7-1.2-0.7-2v-0.2c0-0.8,0.2-1.5,0.7-2
			c0.5-0.5,1-0.8,1.7-0.8c0.8,0,1.3,0.2,1.7,0.7c0.4,0.5,0.6,1.1,0.6,1.8v0.6h-3.6l0,0c0,0.5,0.1,1,0.4,1.3c0.3,0.3,0.6,0.5,1.1,0.5
			c0.3,0,0.6,0,0.9-0.1c0.3-0.1,0.5-0.2,0.7-0.4l0.4,0.7c-0.2,0.2-0.5,0.4-0.8,0.5C374.3,473.1,373.9,473.1,373.4,473.1z
			 M373.2,468.1c-0.3,0-0.6,0.1-0.9,0.4c-0.2,0.3-0.4,0.6-0.4,1.1l0,0h2.6v-0.1c0-0.4-0.1-0.7-0.3-1
			C374,468.3,373.7,468.1,373.2,468.1z"/>
		<path class="st15" d="M379.3,468.3l-0.5,0c-0.3,0-0.5,0.1-0.7,0.2c-0.2,0.1-0.3,0.3-0.4,0.5v4h-1v-5.6h0.9l0.1,0.8
			c0.2-0.3,0.4-0.5,0.6-0.7c0.2-0.2,0.5-0.2,0.8-0.2c0.1,0,0.1,0,0.2,0c0.1,0,0.1,0,0.2,0L379.3,468.3z"/>
		<path class="st15" d="M383.8,467.4l0.1,0.7c0.2-0.3,0.4-0.5,0.7-0.6c0.3-0.1,0.6-0.2,1-0.2c0.4,0,0.7,0.1,1,0.3
			c0.3,0.2,0.5,0.4,0.6,0.8c0.2-0.3,0.4-0.6,0.7-0.8c0.3-0.2,0.6-0.3,1-0.3c0.6,0,1,0.2,1.3,0.6c0.3,0.4,0.5,1,0.5,1.8v3.3h-1v-3.3
			c0-0.6-0.1-0.9-0.3-1.2c-0.2-0.2-0.5-0.3-0.8-0.3c-0.3,0-0.6,0.1-0.8,0.4c-0.2,0.2-0.3,0.5-0.4,0.9v0v3.5h-1v-3.3
			c0-0.5-0.1-0.9-0.3-1.1c-0.2-0.2-0.5-0.4-0.8-0.4c-0.3,0-0.6,0.1-0.8,0.2c-0.2,0.1-0.4,0.3-0.5,0.5v4.1h-1v-5.6H383.8z"/>
		<path class="st15" d="M394.5,473.1c-0.8,0-1.4-0.3-1.9-0.8c-0.5-0.5-0.7-1.2-0.7-2v-0.2c0-0.8,0.2-1.5,0.7-2
			c0.5-0.5,1-0.8,1.7-0.8c0.8,0,1.3,0.2,1.7,0.7c0.4,0.5,0.6,1.1,0.6,1.8v0.6H393l0,0c0,0.5,0.1,1,0.4,1.3c0.3,0.3,0.6,0.5,1.1,0.5
			c0.3,0,0.6,0,0.9-0.1c0.3-0.1,0.5-0.2,0.7-0.4l0.4,0.7c-0.2,0.2-0.5,0.4-0.8,0.5C395.3,473.1,394.9,473.1,394.5,473.1z
			 M394.3,468.1c-0.3,0-0.6,0.1-0.9,0.4c-0.2,0.3-0.4,0.6-0.4,1.1l0,0h2.6v-0.1c0-0.4-0.1-0.7-0.3-1
			C395,468.3,394.7,468.1,394.3,468.1z"/>
		<path class="st15" d="M401,471.5c0-0.2-0.1-0.4-0.3-0.6c-0.2-0.1-0.5-0.3-1-0.4c-0.7-0.1-1.2-0.3-1.5-0.6c-0.3-0.3-0.5-0.6-0.5-1
			c0-0.5,0.2-0.8,0.6-1.2c0.4-0.3,0.9-0.5,1.5-0.5c0.6,0,1.2,0.2,1.5,0.5c0.4,0.3,0.6,0.7,0.5,1.2l0,0h-1c0-0.2-0.1-0.5-0.3-0.7
			c-0.2-0.2-0.5-0.3-0.8-0.3c-0.4,0-0.6,0.1-0.8,0.2c-0.2,0.2-0.3,0.3-0.3,0.6c0,0.2,0.1,0.4,0.2,0.5c0.2,0.1,0.5,0.2,0.9,0.3
			c0.7,0.2,1.2,0.4,1.6,0.6c0.3,0.3,0.5,0.6,0.5,1c0,0.5-0.2,0.9-0.6,1.2c-0.4,0.3-0.9,0.5-1.6,0.5c-0.7,0-1.3-0.2-1.7-0.5
			c-0.4-0.4-0.6-0.8-0.6-1.3l0,0h1c0,0.4,0.2,0.6,0.4,0.8c0.3,0.2,0.5,0.2,0.9,0.2c0.4,0,0.6-0.1,0.8-0.2
			C400.9,472,401,471.8,401,471.5z"/>
		<path class="st15" d="M406.5,471.5c0-0.2-0.1-0.4-0.3-0.6c-0.2-0.1-0.5-0.3-1-0.4c-0.7-0.1-1.2-0.3-1.5-0.6
			c-0.3-0.3-0.5-0.6-0.5-1c0-0.5,0.2-0.8,0.6-1.2c0.4-0.3,0.9-0.5,1.5-0.5c0.6,0,1.2,0.2,1.5,0.5c0.4,0.3,0.6,0.7,0.5,1.2l0,0h-1
			c0-0.2-0.1-0.5-0.3-0.7c-0.2-0.2-0.5-0.3-0.8-0.3c-0.4,0-0.6,0.1-0.8,0.2c-0.2,0.2-0.3,0.3-0.3,0.6c0,0.2,0.1,0.4,0.2,0.5
			c0.2,0.1,0.5,0.2,0.9,0.3c0.7,0.2,1.2,0.4,1.6,0.6c0.3,0.3,0.5,0.6,0.5,1c0,0.5-0.2,0.9-0.6,1.2c-0.4,0.3-0.9,0.5-1.6,0.5
			c-0.7,0-1.3-0.2-1.7-0.5c-0.4-0.4-0.6-0.8-0.6-1.3l0,0h1c0,0.4,0.2,0.6,0.4,0.8c0.3,0.2,0.5,0.2,0.9,0.2c0.4,0,0.6-0.1,0.8-0.2
			C406.4,472,406.5,471.8,406.5,471.5z"/>
		<path class="st15" d="M412.2,473c0-0.2-0.1-0.3-0.1-0.4c0-0.1,0-0.3,0-0.4c-0.2,0.3-0.4,0.5-0.7,0.7c-0.3,0.2-0.6,0.3-1,0.3
			c-0.6,0-1-0.1-1.3-0.4c-0.3-0.3-0.5-0.7-0.5-1.2c0-0.5,0.2-1,0.6-1.3c0.4-0.3,1-0.5,1.8-0.5h1.1v-0.6c0-0.3-0.1-0.6-0.3-0.8
			c-0.2-0.2-0.5-0.3-0.8-0.3c-0.3,0-0.6,0.1-0.8,0.3c-0.2,0.2-0.3,0.4-0.3,0.6h-1l0,0c0-0.4,0.2-0.8,0.6-1.1
			c0.4-0.3,0.9-0.5,1.6-0.5c0.6,0,1.1,0.2,1.5,0.5c0.4,0.3,0.6,0.8,0.6,1.4v2.7c0,0.2,0,0.4,0,0.6c0,0.2,0.1,0.4,0.1,0.5H412.2z
			 M410.5,472.3c0.4,0,0.7-0.1,1-0.3c0.3-0.2,0.5-0.4,0.6-0.6v-0.9H411c-0.4,0-0.7,0.1-1,0.3c-0.2,0.2-0.4,0.4-0.4,0.7
			c0,0.2,0.1,0.4,0.2,0.6S410.2,472.3,410.5,472.3z"/>
		<path class="st15" d="M414.4,470.3c0-0.9,0.2-1.6,0.6-2.2c0.4-0.6,0.9-0.8,1.6-0.8c0.4,0,0.7,0.1,0.9,0.2c0.3,0.1,0.5,0.3,0.7,0.6
			l0.1-0.7h0.8v5.6c0,0.7-0.2,1.3-0.6,1.6c-0.4,0.4-1,0.6-1.8,0.6c-0.3,0-0.6,0-0.9-0.1c-0.3-0.1-0.6-0.2-0.8-0.3l0.3-0.8
			c0.2,0.1,0.4,0.2,0.7,0.2c0.3,0.1,0.5,0.1,0.8,0.1c0.5,0,0.9-0.1,1.1-0.3c0.2-0.2,0.3-0.6,0.3-1v-0.6c-0.2,0.2-0.4,0.4-0.7,0.5
			c-0.3,0.1-0.5,0.2-0.9,0.2c-0.7,0-1.2-0.2-1.6-0.7c-0.4-0.5-0.6-1.1-0.6-1.9V470.3z M415.4,470.4c0,0.6,0.1,1,0.4,1.4
			c0.2,0.3,0.6,0.5,1.1,0.5c0.3,0,0.6-0.1,0.8-0.2c0.2-0.1,0.4-0.3,0.5-0.6v-2.6c-0.1-0.2-0.3-0.4-0.5-0.6c-0.2-0.1-0.5-0.2-0.8-0.2
			c-0.5,0-0.8,0.2-1.1,0.6c-0.2,0.4-0.4,0.9-0.4,1.6V470.4z"/>
		<path class="st15" d="M422.9,473.1c-0.8,0-1.4-0.3-1.9-0.8c-0.5-0.5-0.7-1.2-0.7-2v-0.2c0-0.8,0.2-1.5,0.7-2
			c0.5-0.5,1-0.8,1.7-0.8c0.8,0,1.3,0.2,1.7,0.7c0.4,0.5,0.6,1.1,0.6,1.8v0.6h-3.6l0,0c0,0.5,0.1,1,0.4,1.3c0.3,0.3,0.6,0.5,1.1,0.5
			c0.3,0,0.6,0,0.9-0.1c0.3-0.1,0.5-0.2,0.7-0.4l0.4,0.7c-0.2,0.2-0.5,0.4-0.8,0.5C423.8,473.1,423.4,473.1,422.9,473.1z
			 M422.8,468.1c-0.3,0-0.6,0.1-0.9,0.4c-0.2,0.3-0.4,0.6-0.4,1.1l0,0h2.6v-0.1c0-0.4-0.1-0.7-0.3-1
			C423.5,468.3,423.2,468.1,422.8,468.1z"/>
	</g>
	<g>
		<circle class="st16" cx="516.5" cy="469.9" r="10.9"/>
		<g>
			<path class="st17" d="M516.5,476.2v-11.4c0,0-0.2-0.9-0.9-0.9c-0.7,0-1.1,0.4-1.1,1.1c0,0.6,0,7.3,0,7.3s-0.1,0.9-1.1,0.9
				c-1,0-1.1-1-1.1-1v-5"/>
			<line class="st17" x1="510.1" y1="468.2" x2="510.1" y2="471.3"/>
			<line class="st17" x1="522.8" y1="468.2" x2="522.8" y2="471.3"/>
			<line class="st17" x1="520.8" y1="468.6" x2="520.8" y2="471"/>
			<line class="st17" x1="518.7" y1="467" x2="518.7" y2="472.7"/>
		</g>
	</g>
	<path class="st18" d="M476.1,157.6c0,0-3.8-2.2-5.2-5.8c2-1.7,3.3-4.3,3.3-7.1c0-5.1-4.2-9.3-9.3-9.3h-14.5c-5.1,0-9.3,4.2-9.3,9.3
		c0,5.1,4.2,9.3,9.3,9.3h14.5c0.4,0,0.7,0,1.1-0.1C467.2,155.4,470.1,157.6,476.1,157.6z"/>
	<g>
		<path class="st2" d="M450.6,143.5c0.2-0.2,0.3-0.4,0.6-0.5c0.2-0.1,0.5-0.2,0.7-0.2c0.5,0,0.8,0.1,1.1,0.4
			c0.3,0.3,0.4,0.7,0.4,1.3v2.7h-0.8v-2.7c0-0.4-0.1-0.6-0.2-0.8c-0.2-0.2-0.4-0.3-0.7-0.3c-0.2,0-0.4,0.1-0.6,0.2
			c-0.2,0.1-0.3,0.2-0.4,0.4v3.2h-0.8V141h0.8V143.5z"/>
		<path class="st2" d="M456.2,147.4c-0.6,0-1.1-0.2-1.4-0.6c-0.4-0.4-0.5-0.9-0.5-1.6V145c0-0.6,0.2-1.1,0.6-1.5
			c0.4-0.4,0.8-0.6,1.3-0.6c0.6,0,1,0.2,1.3,0.5c0.3,0.4,0.5,0.8,0.5,1.4v0.5h-2.8l0,0c0,0.4,0.1,0.8,0.3,1c0.2,0.3,0.5,0.4,0.9,0.4
			c0.3,0,0.5,0,0.7-0.1c0.2-0.1,0.4-0.2,0.5-0.3l0.3,0.5c-0.2,0.2-0.4,0.3-0.6,0.4C456.9,147.3,456.6,147.4,456.2,147.4z
			 M456.1,143.5c-0.3,0-0.5,0.1-0.7,0.3c-0.2,0.2-0.3,0.5-0.3,0.8l0,0h2v-0.1c0-0.3-0.1-0.6-0.2-0.8
			C456.7,143.6,456.5,143.5,456.1,143.5z"/>
		<path class="st2" d="M459.6,147.3h-0.8V141h0.8V147.3z"/>
		<path class="st2" d="M461.7,147.3h-0.8V141h0.8V147.3z"/>
		<path class="st2" d="M462.8,145.1c0-0.6,0.2-1.2,0.5-1.6c0.3-0.4,0.8-0.6,1.4-0.6c0.6,0,1.1,0.2,1.4,0.6c0.4,0.4,0.5,0.9,0.5,1.6
			v0.1c0,0.6-0.2,1.2-0.5,1.6c-0.3,0.4-0.8,0.6-1.4,0.6c-0.6,0-1.1-0.2-1.4-0.6C462.9,146.4,462.8,145.8,462.8,145.1L462.8,145.1z
			 M463.5,145.2c0,0.5,0.1,0.8,0.3,1.1c0.2,0.3,0.5,0.4,0.9,0.4c0.4,0,0.7-0.1,0.9-0.4s0.3-0.7,0.3-1.1v-0.1c0-0.5-0.1-0.8-0.3-1.1
			c-0.2-0.3-0.5-0.5-0.9-0.5c-0.4,0-0.7,0.2-0.9,0.5C463.6,144.3,463.5,144.6,463.5,145.2L463.5,145.2z"/>
	</g>
	<polygon class="st19" points="310.6,60.3 310.6,486 331.2,496 350.6,493.5 454.8,59.7 345,59.7 	"/>
	<path d="M542.4,169.2C542.4,169.2,542.4,169.2,542.4,169.2l0-103.8c0-10.2-8.3-18.5-18.5-18.5H325c-10.2,0-18.5,8.3-18.5,18.5v49.2
		c-2.5,0.4-2.4,2.6-2.4,5.2v37.4c0.7,0.1,1.3,0.8,1.3,1.6s-0.6,1.4-1.3,1.6v36.4c0,2.6-0.2,4.8,2.4,5.2v25.9c-2.3,0-2.1,1.9-2.1,4.2
		v48.4c0,2.3-0.2,4.2,2.1,4.2v200.8c0,10.2,8.3,18.5,18.5,18.5h198.8c10.2,0,18.5-8.3,18.5-18.5V233.8c0,0,0,0,0,0
		c1.6,0,1.9-1.3,1.9-3v-58.7C544.3,170.5,544,169.2,542.4,169.2z M471.5,50.1c2.7,0,4.8,2.1,4.8,4.8c0,2.7-2.1,4.8-4.8,4.8
		c-2.7,0-4.8-2.1-4.8-4.8C466.7,52.3,468.8,50.1,471.5,50.1z M404.7,52.5h37.9c1.4,0,2.6,1.2,2.6,2.6c0,1.4-1.2,2.6-2.6,2.6h-37.9
		c-1.4,0-2.6-1.2-2.6-2.6C402.1,53.6,403.3,52.5,404.7,52.5z M536,468.7c0,10.4-8.5,19-19,19H331.7c-10.4,0-19-8.5-19-19V82.2
		c0-10.4,8.5-19,19-19h185.4c10.4,0,19,8.5,19,19V468.7z"/>
	<circle class="st20" cx="471.6" cy="54.9" r="1.7"/>
</g>
<path class="st18" d="M206.6,182.2c0,0-21.5-12.5-30.1-33.4c11.5-9.8,18.9-24.4,18.9-40.6c0-29.3-24-53.3-53.3-53.3H58.9
	c-29.3,0-53.3,24-53.3,53.3s24,53.3,53.3,53.3h83.2c2.1,0,4.1-0.2,6.1-0.4C155.6,169.3,172.6,182.2,206.6,182.2z"/>
<path class="st18" d="M428.5,300.1c0,0-21.5-12.5-30.1-33.4c11.5-9.8,18.9-24.4,18.9-40.6c0-29.3-24-53.3-53.3-53.3H255.3
	c-29.3,0-53.3,24-53.3,53.3s24,53.3,53.3,53.3H364c2.1,0,4.1-0.2,6.1-0.4C377.5,287.2,394.5,300.1,428.5,300.1z"/>
<path class="st18" d="M564.7,198.8c0,0,21.5-12.5,30.1-33.4c-11.5-9.8-18.9-24.4-18.9-40.6c0-29.3,24-53.3,53.3-53.3h108.7
	c29.3,0,53.3,24,53.3,53.3s-24,53.3-53.3,53.3H629.2c-2.1,0-4.1-0.2-6.1-0.4C615.7,185.9,598.7,198.8,564.7,198.8z"/>
<g>
	<path class="st2" d="M39.9,87.7H34v-2.1h14.5v2.1h-6v17.4h-2.6V87.7z"/>
	<path class="st2" d="M49.9,98.5c0.1,3.5,2.3,4.9,4.8,4.9c1.8,0,2.9-0.3,3.9-0.7l0.4,1.8c-0.9,0.4-2.4,0.9-4.7,0.9
		c-4.3,0-6.9-2.8-6.9-7.1s2.5-7.6,6.6-7.6c4.6,0,5.8,4,5.8,6.6c0,0.5-0.1,0.9-0.1,1.2H49.9z M57.4,96.7c0-1.6-0.7-4.1-3.5-4.1
		c-2.6,0-3.7,2.4-3.9,4.1H57.4z"/>
	<path class="st2" d="M64.1,91l2,3c0.5,0.8,1,1.5,1.4,2.3h0.1c0.5-0.8,0.9-1.6,1.4-2.3l2-3h2.8L69,97.8l4.9,7.3H71l-2.1-3.2
		c-0.6-0.8-1-1.6-1.5-2.4h-0.1c-0.5,0.8-1,1.6-1.5,2.4l-2,3.2h-2.8l5-7.2L61.3,91H64.1z"/>
	<path class="st2" d="M79.8,87v4h3.7V93h-3.7v7.6c0,1.7,0.5,2.7,1.9,2.7c0.7,0,1.2-0.1,1.5-0.2l0.1,1.9c-0.5,0.2-1.3,0.3-2.3,0.3
		c-1.2,0-2.1-0.4-2.8-1.1c-0.7-0.8-1-2-1-3.7V93h-2.2V91h2.2v-3.4L79.8,87z"/>
	<path class="st2" d="M89,92.3c0.7-2.4,1.9-5.6,2.7-6.9l1.6-0.2c-0.6,1.7-1.4,4.7-1.7,6.8L89,92.3z M93.3,92.3
		c0.6-2.4,1.9-5.6,2.7-6.9l1.6-0.2c-0.6,1.7-1.4,4.7-1.7,6.8L93.3,92.3z"/>
	<path class="st2" d="M100.5,84.5h2.6v8.8h0.1c0.4-0.7,1-1.4,1.8-1.8c0.8-0.4,1.7-0.7,2.6-0.7c1.9,0,4.9,1.2,4.9,6v8.4h-2.6V97
		c0-2.3-0.8-4.2-3.2-4.2c-1.7,0-3,1.2-3.4,2.6c-0.1,0.3-0.2,0.7-0.2,1.2v8.5h-2.6V84.5z"/>
	<path class="st2" d="M118.1,98.5c0.1,3.5,2.3,4.9,4.8,4.9c1.8,0,2.9-0.3,3.9-0.7l0.4,1.8c-0.9,0.4-2.4,0.9-4.7,0.9
		c-4.3,0-6.9-2.8-6.9-7.1s2.5-7.6,6.6-7.6c4.6,0,5.8,4,5.8,6.6c0,0.5-0.1,0.9-0.1,1.2H118.1z M125.6,96.7c0-1.6-0.7-4.1-3.5-4.1
		c-2.6,0-3.7,2.4-3.9,4.1H125.6z"/>
	<path class="st2" d="M131.2,84.5h2.6v20.6h-2.6V84.5z"/>
	<path class="st2" d="M138,84.5h2.6v20.6H138V84.5z"/>
	<path class="st2" d="M157.6,98c0,5.2-3.6,7.5-7,7.5c-3.8,0-6.7-2.8-6.7-7.2c0-4.7,3.1-7.5,7-7.5C154.9,90.7,157.6,93.7,157.6,98z
		 M146.4,98.1c0,3.1,1.8,5.4,4.3,5.4c2.4,0,4.3-2.3,4.3-5.5c0-2.4-1.2-5.4-4.2-5.4S146.4,95.4,146.4,98.1z"/>
	<path class="st2" d="M163,85.2c-0.7,2.4-1.9,5.5-2.7,6.9l-1.6,0.2c0.6-1.7,1.4-4.7,1.7-6.8L163,85.2z M167.3,85.2
		c-0.7,2.4-1.9,5.5-2.7,6.9l-1.6,0.2c0.6-1.7,1.4-4.7,1.7-6.8L167.3,85.2z"/>
	<path class="st2" d="M45.4,121.8v4H49v1.9h-3.7v7.6c0,1.7,0.5,2.7,1.9,2.7c0.7,0,1.2-0.1,1.5-0.2l0.1,1.9c-0.5,0.2-1.3,0.3-2.3,0.3
		c-1.2,0-2.1-0.4-2.8-1.1c-0.7-0.8-1-2-1-3.7v-7.7h-2.2v-1.9h2.2v-3.4L45.4,121.8z"/>
	<path class="st2" d="M64.4,132.8c0,5.2-3.6,7.5-7,7.5c-3.8,0-6.7-2.8-6.7-7.2c0-4.7,3.1-7.5,7-7.5
		C61.7,125.5,64.4,128.5,64.4,132.8z M53.3,132.9c0,3.1,1.8,5.4,4.3,5.4c2.4,0,4.3-2.3,4.3-5.5c0-2.4-1.2-5.4-4.2-5.4
		S53.3,130.2,53.3,132.9z"/>
	<path class="st2" d="M73.4,137.3c0.8,0.5,2.1,1,3.4,1c1.9,0,2.7-0.9,2.7-2.1c0-1.2-0.7-1.9-2.6-2.6c-2.5-0.9-3.7-2.3-3.7-4
		c0-2.3,1.8-4.1,4.8-4.1c1.4,0,2.7,0.4,3.5,0.9l-0.6,1.9c-0.6-0.3-1.6-0.8-2.9-0.8c-1.5,0-2.3,0.9-2.3,1.9c0,1.2,0.8,1.7,2.7,2.4
		c2.4,0.9,3.7,2.1,3.7,4.2c0,2.5-1.9,4.2-5.3,4.2c-1.5,0-3-0.4-3.9-1L73.4,137.3z"/>
	<path class="st2" d="M88.4,121.8v4H92v1.9h-3.7v7.6c0,1.7,0.5,2.7,1.9,2.7c0.7,0,1.2-0.1,1.5-0.2l0.1,1.9c-0.5,0.2-1.3,0.3-2.3,0.3
		c-1.2,0-2.1-0.4-2.8-1.1c-0.7-0.8-1-2-1-3.7v-7.7h-2.2v-1.9h2.2v-3.4L88.4,121.8z"/>
	<path class="st2" d="M102.7,139.9l-0.2-1.8h-0.1c-0.8,1.1-2.3,2.1-4.3,2.1c-2.8,0-4.3-2-4.3-4c0-3.4,3-5.3,8.4-5.2v-0.3
		c0-1.2-0.3-3.2-3.2-3.2c-1.3,0-2.7,0.4-3.7,1l-0.6-1.7c1.2-0.8,2.8-1.2,4.6-1.2c4.3,0,5.3,2.9,5.3,5.7v5.3c0,1.2,0.1,2.4,0.2,3.4
		H102.7z M102.3,132.7c-2.8-0.1-5.9,0.4-5.9,3.2c0,1.7,1.1,2.4,2.4,2.4c1.8,0,3-1.2,3.4-2.3c0.1-0.3,0.1-0.6,0.1-0.8V132.7z"/>
	<path class="st2" d="M108.9,130.2c0-1.7,0-3.1-0.1-4.4h2.2l0.1,2.8h0.1c0.6-1.9,2.2-3.1,3.9-3.1c0.3,0,0.5,0,0.7,0.1v2.4
		c-0.3-0.1-0.5-0.1-0.9-0.1c-1.8,0-3.1,1.4-3.4,3.3c-0.1,0.3-0.1,0.8-0.1,1.2v7.5h-2.5V130.2z"/>
	<path class="st2" d="M122.1,121.8v4h3.7v1.9h-3.7v7.6c0,1.7,0.5,2.7,1.9,2.7c0.7,0,1.2-0.1,1.5-0.2l0.1,1.9
		c-0.5,0.2-1.3,0.3-2.3,0.3c-1.2,0-2.1-0.4-2.8-1.1c-0.7-0.8-1-2-1-3.7v-7.7h-2.2v-1.9h2.2v-3.4L122.1,121.8z"/>
</g>
<g>
	<path class="st2" d="M238.2,200.6h-5.9v-2.1h14.5v2.1h-6V218h-2.6V200.6z"/>
	<path class="st2" d="M248.1,211.4c0.1,3.5,2.3,4.9,4.8,4.9c1.8,0,2.9-0.3,3.9-0.7l0.4,1.8c-0.9,0.4-2.4,0.9-4.7,0.9
		c-4.3,0-6.9-2.8-6.9-7.1s2.5-7.6,6.6-7.6c4.6,0,5.8,4,5.8,6.6c0,0.5-0.1,0.9-0.1,1.2H248.1z M255.6,209.6c0-1.6-0.7-4.1-3.5-4.1
		c-2.6,0-3.7,2.4-3.9,4.1H255.6z"/>
	<path class="st2" d="M262.4,203.9l2,3c0.5,0.8,1,1.5,1.4,2.3h0.1c0.5-0.8,0.9-1.6,1.4-2.3l2-3h2.8l-4.8,6.8l4.9,7.3h-2.9l-2.1-3.2
		c-0.6-0.8-1-1.6-1.5-2.4h-0.1c-0.5,0.8-1,1.6-1.5,2.4l-2,3.2h-2.8l5-7.2l-4.8-6.9H262.4z"/>
	<path class="st2" d="M278.1,199.9v4h3.7v1.9h-3.7v7.6c0,1.7,0.5,2.7,1.9,2.7c0.7,0,1.2-0.1,1.5-0.2l0.1,1.9
		c-0.5,0.2-1.3,0.3-2.3,0.3c-1.2,0-2.1-0.4-2.8-1.1c-0.7-0.8-1-2-1-3.7v-7.7h-2.2v-1.9h2.2v-3.4L278.1,199.9z"/>
	<path class="st2" d="M287.2,205.2c0.7-2.4,1.9-5.6,2.7-6.9l1.6-0.2c-0.6,1.7-1.4,4.7-1.7,6.8L287.2,205.2z M291.5,205.2
		c0.6-2.4,1.9-5.6,2.7-6.9l1.6-0.2c-0.6,1.7-1.4,4.7-1.7,6.8L291.5,205.2z"/>
	<path class="st2" d="M297.3,215.4c0.8,0.5,2.1,1,3.4,1c1.9,0,2.7-0.9,2.7-2.1c0-1.2-0.7-1.9-2.6-2.6c-2.5-0.9-3.7-2.3-3.7-4
		c0-2.3,1.8-4.1,4.8-4.1c1.4,0,2.7,0.4,3.5,0.9l-0.6,1.9c-0.6-0.3-1.6-0.8-2.9-0.8c-1.5,0-2.3,0.9-2.3,1.9c0,1.2,0.8,1.7,2.7,2.4
		c2.4,0.9,3.7,2.1,3.7,4.2c0,2.5-1.9,4.2-5.3,4.2c-1.5,0-3-0.4-3.9-1L297.3,215.4z"/>
	<path class="st2" d="M310.5,211.4c0.1,3.5,2.3,4.9,4.8,4.9c1.8,0,2.9-0.3,3.9-0.7l0.4,1.8c-0.9,0.4-2.4,0.9-4.7,0.9
		c-4.3,0-6.9-2.8-6.9-7.1s2.5-7.6,6.6-7.6c4.6,0,5.8,4,5.8,6.6c0,0.5-0.1,0.9-0.1,1.2H310.5z M318,209.6c0-1.6-0.7-4.1-3.5-4.1
		c-2.6,0-3.7,2.4-3.9,4.1H318z"/>
	<path class="st2" d="M326.7,199.9v4h3.7v1.9h-3.7v7.6c0,1.7,0.5,2.7,1.9,2.7c0.7,0,1.2-0.1,1.5-0.2l0.1,1.9
		c-0.5,0.2-1.3,0.3-2.3,0.3c-1.2,0-2.1-0.4-2.8-1.1c-0.7-0.8-1-2-1-3.7v-7.7h-2.2v-1.9h2.2v-3.4L326.7,199.9z"/>
	<path class="st2" d="M337.1,198.1c-0.7,2.4-1.9,5.5-2.7,6.9l-1.6,0.2c0.6-1.7,1.4-4.7,1.7-6.8L337.1,198.1z M341.4,198.1
		c-0.7,2.4-1.9,5.5-2.7,6.9l-1.6,0.2c0.6-1.7,1.4-4.7,1.7-6.8L341.4,198.1z"/>
	<path class="st2" d="M346.9,199.9v4h3.7v1.9h-3.7v7.6c0,1.7,0.5,2.7,1.9,2.7c0.7,0,1.2-0.1,1.5-0.2l0.1,1.9
		c-0.5,0.2-1.3,0.3-2.3,0.3c-1.2,0-2.1-0.4-2.8-1.1c-0.7-0.8-1-2-1-3.7v-7.7h-2.2v-1.9h2.2v-3.4L346.9,199.9z"/>
	<path class="st2" d="M366,210.8c0,5.2-3.6,7.5-7,7.5c-3.8,0-6.7-2.8-6.7-7.2c0-4.7,3.1-7.5,7-7.5C363.2,203.6,366,206.5,366,210.8z
		 M354.8,211c0,3.1,1.8,5.4,4.3,5.4c2.4,0,4.3-2.3,4.3-5.5c0-2.4-1.2-5.4-4.2-5.4S354.8,208.3,354.8,211z"/>
	<path class="st2" d="M234,250.2c0.8,0.5,2.1,1,3.4,1c1.9,0,2.7-0.9,2.7-2.1c0-1.2-0.7-1.9-2.6-2.6c-2.5-0.9-3.7-2.3-3.7-4
		c0-2.3,1.8-4.1,4.8-4.1c1.4,0,2.7,0.4,3.5,0.9l-0.6,1.9c-0.6-0.3-1.6-0.8-2.9-0.8c-1.5,0-2.3,0.9-2.3,1.9c0,1.2,0.8,1.7,2.7,2.4
		c2.4,0.9,3.7,2.1,3.7,4.2c0,2.5-1.9,4.2-5.3,4.2c-1.5,0-3-0.4-3.9-1L234,250.2z"/>
	<path class="st2" d="M247.3,246.2c0.1,3.5,2.3,4.9,4.8,4.9c1.8,0,2.9-0.3,3.9-0.7l0.4,1.8c-0.9,0.4-2.4,0.9-4.7,0.9
		c-4.3,0-6.9-2.8-6.9-7.1s2.5-7.6,6.6-7.6c4.6,0,5.8,4,5.8,6.6c0,0.5-0.1,0.9-0.1,1.2H247.3z M254.8,244.4c0-1.6-0.7-4.1-3.5-4.1
		c-2.6,0-3.7,2.4-3.9,4.1H254.8z"/>
	<path class="st2" d="M263.5,234.7v4h3.7v1.9h-3.7v7.6c0,1.7,0.5,2.7,1.9,2.7c0.7,0,1.2-0.1,1.5-0.2l0.1,1.9
		c-0.5,0.2-1.3,0.3-2.3,0.3c-1.2,0-2.1-0.4-2.8-1.1c-0.7-0.8-1-2-1-3.7v-7.7h-2.2v-1.9h2.2v-3.4L263.5,234.7z"/>
	<path class="st2" d="M276.1,243.3c0-1.8-0.1-3.2-0.1-4.6h2.3l0.1,2.4h0.1c1-1.7,2.7-2.7,5-2.7c3.4,0,5.9,2.9,5.9,7.1
		c0,5-3.1,7.5-6.4,7.5c-1.9,0-3.5-0.8-4.3-2.2h-0.1v7.6h-2.5V243.3z M278.7,247.1c0,0.4,0.1,0.7,0.1,1c0.5,1.8,2,3,3.8,3
		c2.7,0,4.3-2.2,4.3-5.4c0-2.8-1.5-5.2-4.2-5.2c-1.7,0-3.4,1.2-3.9,3.2c-0.1,0.3-0.2,0.7-0.2,1V247.1z"/>
	<path class="st2" d="M300.4,252.8l-0.2-1.8h-0.1c-0.8,1.1-2.3,2.1-4.3,2.1c-2.8,0-4.3-2-4.3-4c0-3.4,3-5.3,8.4-5.2v-0.3
		c0-1.2-0.3-3.2-3.2-3.2c-1.3,0-2.7,0.4-3.7,1l-0.6-1.7c1.2-0.8,2.8-1.2,4.6-1.2c4.3,0,5.3,2.9,5.3,5.7v5.3c0,1.2,0.1,2.4,0.2,3.4
		H300.4z M300,245.6c-2.8-0.1-5.9,0.4-5.9,3.2c0,1.7,1.1,2.4,2.4,2.4c1.8,0,3-1.2,3.4-2.3c0.1-0.3,0.1-0.6,0.1-0.8V245.6z"/>
	<path class="st2" d="M306.3,250.2c0.8,0.5,2.1,1,3.4,1c1.9,0,2.7-0.9,2.7-2.1c0-1.2-0.7-1.9-2.6-2.6c-2.5-0.9-3.7-2.3-3.7-4
		c0-2.3,1.8-4.1,4.8-4.1c1.4,0,2.7,0.4,3.5,0.9l-0.6,1.9c-0.6-0.3-1.6-0.8-2.9-0.8c-1.5,0-2.3,0.9-2.3,1.9c0,1.2,0.8,1.7,2.7,2.4
		c2.4,0.9,3.7,2.1,3.7,4.2c0,2.5-1.9,4.2-5.3,4.2c-1.5,0-3-0.4-3.9-1L306.3,250.2z"/>
	<path class="st2" d="M317.8,250.2c0.8,0.5,2.1,1,3.4,1c1.9,0,2.7-0.9,2.7-2.1c0-1.2-0.7-1.9-2.6-2.6c-2.5-0.9-3.7-2.3-3.7-4
		c0-2.3,1.8-4.1,4.8-4.1c1.4,0,2.7,0.4,3.5,0.9l-0.6,1.9c-0.6-0.3-1.6-0.8-2.9-0.8c-1.5,0-2.3,0.9-2.3,1.9c0,1.2,0.8,1.7,2.7,2.4
		c2.4,0.9,3.7,2.1,3.7,4.2c0,2.5-1.9,4.2-5.3,4.2c-1.5,0-3-0.4-3.9-1L317.8,250.2z"/>
	<path class="st2" d="M330.6,238.8l1.9,7.1c0.4,1.6,0.8,3,1,4.5h0.1c0.3-1.4,0.8-2.9,1.2-4.4l2.3-7.2h2.1l2.2,7
		c0.5,1.7,0.9,3.2,1.2,4.6h0.1c0.2-1.4,0.6-2.9,1.1-4.6l2-7h2.5l-4.5,14h-2.3l-2.1-6.7c-0.5-1.6-0.9-3-1.2-4.6h-0.1
		c-0.3,1.7-0.8,3.1-1.3,4.6l-2.3,6.7h-2.3l-4.2-14H330.6z"/>
	<path class="st2" d="M363.4,245.7c0,5.2-3.6,7.5-7,7.5c-3.8,0-6.7-2.8-6.7-7.2c0-4.7,3.1-7.5,7-7.5
		C360.7,238.4,363.4,241.4,363.4,245.7z M352.2,245.8c0,3.1,1.8,5.4,4.3,5.4c2.4,0,4.3-2.3,4.3-5.5c0-2.4-1.2-5.4-4.2-5.4
		S352.2,243.1,352.2,245.8z"/>
	<path class="st2" d="M366.6,243.1c0-1.7,0-3.1-0.1-4.4h2.2l0.1,2.8h0.1c0.6-1.9,2.2-3.1,3.9-3.1c0.3,0,0.5,0,0.7,0.1v2.4
		c-0.3-0.1-0.5-0.1-0.9-0.1c-1.8,0-3.1,1.4-3.4,3.3c-0.1,0.3-0.1,0.8-0.1,1.2v7.5h-2.5V243.1z"/>
	<path class="st2" d="M387.9,232.2v17c0,1.2,0,2.7,0.1,3.6h-2.3l-0.1-2.4h-0.1c-0.8,1.6-2.5,2.8-4.8,2.8c-3.4,0-6-2.9-6-7.1
		c0-4.7,2.9-7.5,6.3-7.5c2.1,0,3.6,1,4.2,2.1h0.1v-8.4H387.9z M385.4,244.5c0-0.3,0-0.8-0.1-1.1c-0.4-1.6-1.8-3-3.7-3
		c-2.6,0-4.2,2.3-4.2,5.4c0,2.8,1.4,5.2,4.1,5.2c1.7,0,3.3-1.1,3.7-3c0.1-0.3,0.1-0.7,0.1-1.1V244.5z"/>
</g>
<g>
	<path class="st2" d="M620.4,94.8h-5.9v-2.1h14.5v2.1h-6v17.4h-2.6V94.8z"/>
	<path class="st2" d="M630.4,105.6c0.1,3.5,2.3,4.9,4.8,4.9c1.8,0,2.9-0.3,3.9-0.7l0.4,1.8c-0.9,0.4-2.4,0.9-4.7,0.9
		c-4.3,0-6.9-2.8-6.9-7.1s2.5-7.6,6.6-7.6c4.6,0,5.8,4,5.8,6.6c0,0.5-0.1,0.9-0.1,1.2H630.4z M637.8,103.8c0-1.6-0.7-4.1-3.5-4.1
		c-2.6,0-3.7,2.4-3.9,4.1H637.8z"/>
	<path class="st2" d="M644.6,98.2l2,3c0.5,0.8,1,1.5,1.4,2.3h0.1c0.5-0.8,0.9-1.6,1.4-2.3l2-3h2.8l-4.8,6.8l4.9,7.3h-2.9l-2.1-3.2
		c-0.6-0.8-1-1.6-1.5-2.4h-0.1c-0.5,0.8-1,1.6-1.5,2.4l-2,3.2h-2.8l5-7.2l-4.8-6.9H644.6z"/>
	<path class="st2" d="M660.3,94.1v4h3.7v1.9h-3.7v7.6c0,1.7,0.5,2.7,1.9,2.7c0.7,0,1.2-0.1,1.5-0.2l0.1,1.9
		c-0.5,0.2-1.3,0.3-2.3,0.3c-1.2,0-2.1-0.4-2.8-1.1c-0.7-0.8-1-2-1-3.7v-7.7h-2.2v-1.9h2.2v-3.4L660.3,94.1z"/>
	<path class="st2" d="M669.4,99.4c0.7-2.4,1.9-5.6,2.7-6.9l1.6-0.2c-0.6,1.7-1.4,4.7-1.7,6.8L669.4,99.4z M673.7,99.4
		c0.6-2.4,1.9-5.6,2.7-6.9l1.6-0.2c-0.6,1.7-1.4,4.7-1.7,6.8L673.7,99.4z"/>
	<path class="st2" d="M691.1,98.2c-0.1,1-0.1,2.1-0.1,3.9v8.2c0,3.2-0.6,5.2-2,6.4c-1.4,1.3-3.3,1.7-5.1,1.7c-1.7,0-3.5-0.4-4.7-1.2
		l0.6-1.9c0.9,0.6,2.4,1.1,4.1,1.1c2.6,0,4.5-1.4,4.5-4.9v-1.6h-0.1c-0.8,1.3-2.3,2.3-4.5,2.3c-3.5,0-6-3-6-6.8
		c0-4.8,3.1-7.5,6.3-7.5c2.4,0,3.8,1.3,4.4,2.4h0.1l0.1-2.1H691.1z M688.5,103.7c0-0.4,0-0.8-0.1-1.2c-0.5-1.5-1.7-2.7-3.6-2.7
		c-2.4,0-4.2,2.1-4.2,5.3c0,2.8,1.4,5,4.1,5c1.6,0,3-1,3.5-2.6c0.1-0.4,0.2-0.9,0.2-1.4V103.7z"/>
	<path class="st2" d="M696.7,105.6c0.1,3.5,2.3,4.9,4.8,4.9c1.8,0,2.9-0.3,3.9-0.7l0.4,1.8c-0.9,0.4-2.4,0.9-4.7,0.9
		c-4.3,0-6.9-2.8-6.9-7.1s2.5-7.6,6.6-7.6c4.6,0,5.8,4,5.8,6.6c0,0.5-0.1,0.9-0.1,1.2H696.7z M704.1,103.8c0-1.6-0.7-4.1-3.5-4.1
		c-2.6,0-3.7,2.4-3.9,4.1H704.1z"/>
	<path class="st2" d="M712.8,94.1v4h3.7v1.9h-3.7v7.6c0,1.7,0.5,2.7,1.9,2.7c0.7,0,1.2-0.1,1.5-0.2l0.1,1.9
		c-0.5,0.2-1.3,0.3-2.3,0.3c-1.2,0-2.1-0.4-2.8-1.1c-0.7-0.8-1-2-1-3.7v-7.7h-2.2v-1.9h2.2v-3.4L712.8,94.1z"/>
	<path class="st2" d="M723.2,92.3c-0.7,2.4-1.9,5.5-2.7,6.9l-1.6,0.2c0.6-1.7,1.4-4.7,1.7-6.8L723.2,92.3z M727.5,92.3
		c-0.7,2.4-1.9,5.5-2.7,6.9l-1.6,0.2c0.6-1.7,1.4-4.7,1.7-6.8L727.5,92.3z"/>
	<path class="st2" d="M733,94.1v4h3.7v1.9H733v7.6c0,1.7,0.5,2.7,1.9,2.7c0.7,0,1.2-0.1,1.5-0.2l0.1,1.9c-0.5,0.2-1.3,0.3-2.3,0.3
		c-1.2,0-2.1-0.4-2.8-1.1c-0.7-0.8-1-2-1-3.7v-7.7h-2.2v-1.9h2.2v-3.4L733,94.1z"/>
	<path class="st2" d="M752.1,105.1c0,5.2-3.6,7.5-7,7.5c-3.8,0-6.7-2.8-6.7-7.2c0-4.7,3.1-7.5,7-7.5
		C749.3,97.8,752.1,100.8,752.1,105.1z M740.9,105.2c0,3.1,1.8,5.4,4.3,5.4c2.4,0,4.3-2.3,4.3-5.5c0-2.4-1.2-5.4-4.2-5.4
		S740.9,102.5,740.9,105.2z"/>
	<path class="st2" d="M628.7,133c-0.1,1-0.1,2.1-0.1,3.9v8.2c0,3.2-0.6,5.2-2,6.4c-1.4,1.3-3.3,1.7-5.1,1.7c-1.7,0-3.5-0.4-4.7-1.2
		l0.6-1.9c0.9,0.6,2.4,1.1,4.1,1.1c2.6,0,4.5-1.4,4.5-4.9v-1.6H626c-0.8,1.3-2.3,2.3-4.5,2.3c-3.5,0-6-3-6-6.8
		c0-4.8,3.1-7.5,6.3-7.5c2.4,0,3.8,1.3,4.4,2.4h0.1l0.1-2.1H628.7z M626,138.5c0-0.4,0-0.8-0.1-1.2c-0.5-1.5-1.7-2.7-3.6-2.7
		c-2.4,0-4.2,2.1-4.2,5.3c0,2.8,1.4,5,4.1,5c1.6,0,3-1,3.5-2.6c0.1-0.4,0.2-0.9,0.2-1.4V138.5z"/>
	<path class="st2" d="M634.2,140.5c0.1,3.5,2.3,4.9,4.8,4.9c1.8,0,2.9-0.3,3.9-0.7l0.4,1.8c-0.9,0.4-2.4,0.9-4.7,0.9
		c-4.3,0-6.9-2.8-6.9-7.1s2.5-7.6,6.6-7.6c4.6,0,5.8,4,5.8,6.6c0,0.5-0.1,0.9-0.1,1.2H634.2z M641.7,138.6c0-1.6-0.7-4.1-3.5-4.1
		c-2.6,0-3.7,2.4-3.9,4.1H641.7z"/>
	<path class="st2" d="M650.4,128.9v4h3.7v1.9h-3.7v7.6c0,1.7,0.5,2.7,1.9,2.7c0.7,0,1.2-0.1,1.5-0.2l0.1,1.9
		c-0.5,0.2-1.3,0.3-2.3,0.3c-1.2,0-2.1-0.4-2.8-1.1c-0.7-0.8-1-2-1-3.7v-7.7h-2.2V133h2.2v-3.4L650.4,128.9z"/>
	<path class="st2" d="M663.1,137.6c0-1.8-0.1-3.2-0.1-4.6h2.3l0.1,2.4h0.1c1-1.7,2.7-2.7,5-2.7c3.4,0,5.9,2.9,5.9,7.1
		c0,5-3.1,7.5-6.4,7.5c-1.9,0-3.5-0.8-4.3-2.2h-0.1v7.6h-2.5V137.6z M665.6,141.3c0,0.4,0.1,0.7,0.1,1c0.5,1.8,2,3,3.8,3
		c2.7,0,4.3-2.2,4.3-5.4c0-2.8-1.5-5.2-4.2-5.2c-1.7,0-3.4,1.2-3.9,3.2c-0.1,0.3-0.2,0.7-0.2,1V141.3z"/>
	<path class="st2" d="M687.4,147l-0.2-1.8h-0.1c-0.8,1.1-2.3,2.1-4.3,2.1c-2.8,0-4.3-2-4.3-4c0-3.4,3-5.3,8.4-5.2v-0.3
		c0-1.2-0.3-3.2-3.2-3.2c-1.3,0-2.7,0.4-3.7,1l-0.6-1.7c1.2-0.8,2.8-1.2,4.6-1.2c4.3,0,5.3,2.9,5.3,5.7v5.3c0,1.2,0.1,2.4,0.2,3.4
		H687.4z M687,139.9c-2.8-0.1-5.9,0.4-5.9,3.2c0,1.7,1.1,2.4,2.4,2.4c1.8,0,3-1.2,3.4-2.3c0.1-0.3,0.1-0.6,0.1-0.8V139.9z"/>
	<path class="st2" d="M693.2,144.4c0.8,0.5,2.1,1,3.4,1c1.9,0,2.7-0.9,2.7-2.1c0-1.2-0.7-1.9-2.6-2.6c-2.5-0.9-3.7-2.3-3.7-4
		c0-2.3,1.8-4.1,4.8-4.1c1.4,0,2.7,0.4,3.5,0.9l-0.6,1.9c-0.6-0.3-1.6-0.8-2.9-0.8c-1.5,0-2.3,0.9-2.3,1.9c0,1.2,0.8,1.7,2.7,2.4
		c2.4,0.9,3.7,2.1,3.7,4.2c0,2.5-1.9,4.2-5.3,4.2c-1.5,0-3-0.4-3.9-1L693.2,144.4z"/>
	<path class="st2" d="M704.7,144.4c0.8,0.5,2.1,1,3.4,1c1.9,0,2.7-0.9,2.7-2.1c0-1.2-0.7-1.9-2.6-2.6c-2.5-0.9-3.7-2.3-3.7-4
		c0-2.3,1.8-4.1,4.8-4.1c1.4,0,2.7,0.4,3.5,0.9l-0.6,1.9c-0.6-0.3-1.6-0.8-2.9-0.8c-1.5,0-2.3,0.9-2.3,1.9c0,1.2,0.8,1.7,2.7,2.4
		c2.4,0.9,3.7,2.1,3.7,4.2c0,2.5-1.9,4.2-5.3,4.2c-1.5,0-3-0.4-3.9-1L704.7,144.4z"/>
	<path class="st2" d="M717.6,133l1.9,7.1c0.4,1.6,0.8,3,1,4.5h0.1c0.3-1.4,0.8-2.9,1.2-4.4l2.3-7.2h2.1l2.2,7
		c0.5,1.7,0.9,3.2,1.2,4.6h0.1c0.2-1.4,0.6-2.9,1.1-4.6l2-7h2.5l-4.5,14h-2.3l-2.1-6.7c-0.5-1.6-0.9-3-1.2-4.6h-0.1
		c-0.3,1.7-0.8,3.1-1.3,4.6l-2.3,6.7h-2.3l-4.2-14H717.6z"/>
	<path class="st2" d="M750.3,139.9c0,5.2-3.6,7.5-7,7.5c-3.8,0-6.7-2.8-6.7-7.2c0-4.7,3.1-7.5,7-7.5
		C747.6,132.7,750.3,135.6,750.3,139.9z M739.2,140c0,3.1,1.8,5.4,4.3,5.4c2.4,0,4.3-2.3,4.3-5.5c0-2.4-1.2-5.4-4.2-5.4
		S739.2,137.4,739.2,140z"/>
	<path class="st2" d="M753.6,137.4c0-1.7,0-3.1-0.1-4.4h2.2l0.1,2.8h0.1c0.6-1.9,2.2-3.1,3.9-3.1c0.3,0,0.5,0,0.7,0.1v2.4
		c-0.3-0.1-0.5-0.1-0.9-0.1c-1.8,0-3.1,1.4-3.4,3.3c-0.1,0.3-0.1,0.8-0.1,1.2v7.5h-2.5V137.4z"/>
	<path class="st2" d="M774.9,126.4v17c0,1.2,0,2.7,0.1,3.6h-2.3l-0.1-2.4h-0.1c-0.8,1.6-2.5,2.8-4.8,2.8c-3.4,0-6-2.9-6-7.1
		c0-4.7,2.9-7.5,6.3-7.5c2.1,0,3.6,1,4.2,2.1h0.1v-8.4H774.9z M772.3,138.7c0-0.3,0-0.8-0.1-1.1c-0.4-1.6-1.8-3-3.7-3
		c-2.6,0-4.2,2.3-4.2,5.4c0,2.8,1.4,5.2,4.1,5.2c1.7,0,3.3-1.1,3.7-3c0.1-0.3,0.1-0.7,0.1-1.1V138.7z"/>
</g>
</svg>
