<?xml version="1.0" encoding="utf-8"?>
<!-- Generator: Adobe Illustrator 21.0.2, SVG Export Plug-In . SVG Version: 6.00 Build 0)  -->
<svg version="1.1" id="Layer_1" xmlns="http://www.w3.org/2000/svg" xmlns:xlink="http://www.w3.org/1999/xlink" x="0px" y="0px"
	 viewBox="0 0 300 300" style="enable-background:new 0 0 300 300;" xml:space="preserve">
<style type="text/css">
	.st0{fill:#FFFFFF;}
</style>
<path class="st0" d="M281.5,69.5h-263C12.7,69.5,8,64.8,8,59s4.7-10.5,10.5-10.5h263c5.8,0,10.5,4.7,10.5,10.5
	S287.3,69.5,281.5,69.5z"/>
<path class="st0" d="M281.5,250.5h-263C12.7,250.5,8,245.8,8,240s4.7-10.5,10.5-10.5h263c5.8,0,10.5,4.7,10.5,10.5
	S287.3,250.5,281.5,250.5z"/>
<path class="st0" d="M281.5,160h-263C12.7,160,8,155.3,8,149.5S12.7,139,18.5,139h263c5.8,0,10.5,4.7,10.5,10.5S287.3,160,281.5,160
	z"/>
</svg>
