<?xml version="1.0" encoding="utf-8"?>
<!-- Generator: Adobe Illustrator 23.0.1, SVG Export Plug-In . SVG Version: 6.00 Build 0)  -->
<svg version="1.1" id="Layer_1" xmlns="http://www.w3.org/2000/svg" xmlns:xlink="http://www.w3.org/1999/xlink" x="0px" y="0px"
	 viewBox="0 0 175.6 175.6" style="enable-background:new 0 0 175.6 175.6;" xml:space="preserve">
<style type="text/css">
	.st0{fill:#DE1A25;}
	.st1{opacity:0.29;fill:#DE1A25;enable-background:new    ;}
</style>
<title>onehundred</title>
<path class="st0" d="M161.1,135.9c-0.1,0-0.2,0-0.3-0.1c-0.2-0.1-0.3-0.4-0.1-0.7c26.1-40.2,14.7-94-25.6-120.1
	C103.6-5.5,62.6-3.4,33.3,20.2c-0.2,0.1-0.5,0.1-0.7-0.1c0,0,0,0,0,0c-0.1-0.2-0.1-0.4,0.1-0.6C70.5-11,125.8-5,156.2,32.7
	c23.8,29.6,25.9,71.1,5.3,102.9C161.4,135.8,161.2,135.9,161.1,135.9z"/>
<path class="st0" d="M87.8,175.6C39.3,175.6,0,136.3,0,87.8c0-20.1,6.9-39.6,19.6-55.2c0.2-0.2,0.5-0.2,0.7-0.1l0,0
	c0.2,0.2,0.2,0.5,0.1,0.7c0,0,0,0,0,0l0,0c-30.2,37.3-24.4,92,12.9,122.2c15.5,12.5,34.8,19.4,54.7,19.3c19.7,0.1,38.9-6.6,54.2-19
	c0.2-0.2,0.5-0.1,0.7,0.1c0.2,0.2,0.1,0.5-0.1,0.7l0,0C127.1,168.9,107.8,175.7,87.8,175.6z"/>
<path class="st0" d="M30.7,25.1c-1.9,0-3.4-1.6-3.4-3.4c0-1.5,1-2.8,2.4-3.2c1.8-0.5,3.6,0.5,4.2,2.3c0.5,1.8-0.5,3.7-2.3,4.2
	C31.4,25.1,31.1,25.1,30.7,25.1z M30.7,19.3c-0.2,0-0.5,0-0.7,0.1c-1.3,0.4-2,1.7-1.7,3c0,0,0,0,0,0l0,0c0.2,0.6,0.6,1.1,1.1,1.5
	c0.6,0.3,1.2,0.4,1.9,0.2c1.3-0.4,2-1.7,1.6-3C32.7,20,31.8,19.3,30.7,19.3z"/>
<path class="st0" d="M159.7,141.4c-1.9,0-3.4-1.5-3.4-3.4c0-1.9,1.5-3.4,3.4-3.4c1.9,0,3.4,1.5,3.4,3.4c0,1.5-1,2.8-2.4,3.2l0,0
	C160.3,141.3,160,141.4,159.7,141.4z M159.7,135.6c-0.2,0-0.5,0-0.7,0.1c-0.6,0.2-1.1,0.6-1.4,1.1c-0.3,0.6-0.4,1.2-0.2,1.9
	c0.4,1.3,1.7,2,3,1.7c1.3-0.4,2-1.7,1.7-3C161.7,136.3,160.8,135.6,159.7,135.6z"/>
<path class="st0" d="M65.9,56.6v2.3H50v-2.3h7.1V33.5c-0.4,0.5-0.9,0.9-1.4,1.3c-0.7,0.5-1.4,0.9-2.2,1.3c-0.8,0.4-1.6,0.7-2.5,1
	c-0.7,0.3-1.5,0.4-2.3,0.4v-2.5c0.9,0,1.8-0.3,2.7-0.7c0.9-0.4,1.8-0.9,2.6-1.5c0.7-0.5,1.4-1,2-1.6c0.3-0.3,0.6-0.6,0.9-0.9h2.5
	v26.3H65.9z"/>
<path class="st0" d="M94.7,44.3c0,2.1-0.3,4.1-0.9,6.1c-0.6,1.7-1.4,3.4-2.6,4.8c-1.1,1.3-2.5,2.4-4,3.2c-3.2,1.5-6.8,1.5-10,0
	c-1.5-0.8-2.9-1.8-3.9-3.2c-1.1-1.4-2-3.1-2.6-4.8c-1.2-4-1.2-8.2,0-12.1c0.6-1.7,1.4-3.4,2.6-4.8c1.1-1.3,2.4-2.4,3.9-3.2
	c3.2-1.5,6.8-1.5,10,0c1.5,0.8,2.9,1.8,4,3.2c1.2,1.4,2,3.1,2.6,4.8C94.4,40.1,94.7,42.2,94.7,44.3z M92.1,44.3
	c0-1.8-0.2-3.6-0.7-5.3c-0.4-1.4-1.1-2.8-2-4c-0.8-1.1-1.9-2-3.1-2.6c-2.5-1.3-5.5-1.3-8,0C77,33,75.9,33.9,75.1,35
	c-0.9,1.2-1.6,2.6-2,4c-0.5,1.7-0.7,3.5-0.7,5.2c0,1.8,0.2,3.5,0.7,5.2c0.4,1.5,1.1,2.8,2,4c0.8,1.1,1.9,2,3.1,2.6
	c2.5,1.2,5.5,1.2,8,0c1.2-0.6,2.3-1.5,3.1-2.6c0.9-1.2,1.6-2.6,2-4C91.8,47.8,92.1,46,92.1,44.3z"/>
<path class="st0" d="M125.2,44.3c0,2.1-0.3,4.1-0.9,6.1c-0.6,1.7-1.4,3.4-2.6,4.8c-1.1,1.3-2.5,2.4-4,3.2c-3.1,1.5-6.8,1.5-9.9,0
	c-1.5-0.8-2.9-1.8-3.9-3.2c-1.1-1.4-2-3.1-2.6-4.8c-0.6-2-0.9-4-0.9-6.1c0-2.1,0.3-4.1,0.9-6.1c0.6-1.7,1.4-3.4,2.6-4.8
	c1.1-1.3,2.4-2.4,3.9-3.2c3.1-1.5,6.8-1.5,9.9,0c1.5,0.8,2.9,1.8,4,3.2c1.2,1.4,2,3.1,2.6,4.8C124.9,40.1,125.2,42.2,125.2,44.3z
	 M122.7,44.3c0-1.8-0.2-3.5-0.7-5.2c-0.4-1.4-1.1-2.8-2-4c-0.8-1.1-1.9-2-3.1-2.6c-2.5-1.3-5.5-1.3-8.1,0c-1.2,0.6-2.3,1.5-3.1,2.6
	c-0.9,1.2-1.6,2.6-2,4c-0.5,1.7-0.7,3.5-0.7,5.2c0,1.8,0.2,3.5,0.7,5.2c0.4,1.5,1.1,2.8,2,4c0.8,1.1,1.9,2,3.1,2.6
	c2.5,1.2,5.5,1.2,8.1,0c1.2-0.6,2.3-1.5,3.1-2.6c0.9-1.2,1.6-2.6,2-4C122.4,47.7,122.7,46,122.7,44.3z"/>
<path class="st0" d="M90.5,139c2.1,0.3,4.1,1.3,5.5,3c1.4,1.7,2.1,3.9,2,6.1c0,1.4-0.3,2.8-0.8,4.1c-0.5,1.2-1.3,2.3-2.3,3.1
	c-1,0.9-2.2,1.6-3.5,2c-3.7,1.2-7.7,0.9-11.2-0.9c-1.8-1-3.3-2.5-4.2-4.4l1.8-1.5c0.7,1.6,1.8,2.9,3.3,3.8c1.7,1,3.7,1.5,5.7,1.4
	c2.3,0.1,4.5-0.6,6.3-2c1.6-1.5,2.4-3.6,2.3-5.7c0.1-2.2-0.8-4.3-2.4-5.8c-1.9-1.5-4.3-2.3-6.7-2.1H85v-2.2h1.3
	c2.2,0.2,4.4-0.5,6.2-1.8c1.4-1.2,2.2-3,2.2-4.9c0-1-0.2-2-0.6-2.9c-0.4-0.8-1-1.6-1.7-2.2c-0.7-0.6-1.6-1.1-2.5-1.4
	c-1-0.3-2.1-0.5-3.2-0.5c-1.8,0-3.7,0.4-5.3,1.4c-1.5,0.9-2.6,2.2-3.3,3.7l-1.7-1.4c0.4-0.9,1-1.7,1.6-2.4c0.7-0.7,1.5-1.4,2.4-1.9
	c0.9-0.5,1.9-1,3-1.2c1.1-0.3,2.3-0.4,3.4-0.4c1.4,0,2.8,0.2,4.1,0.7c1.2,0.4,2.3,1,3.3,1.8c0.9,0.8,1.6,1.8,2.2,2.8
	c0.5,1.1,0.8,2.4,0.8,3.7c0,1-0.2,2-0.5,2.9c-0.3,0.9-0.8,1.7-1.4,2.4c-0.6,0.7-1.3,1.3-2.1,1.7C92.5,138.5,91.5,138.8,90.5,139z"/>
<path class="st1" d="M105.7,84.5H93.5V72.3c0-3.6-2.9-6.5-6.5-6.5s-6.5,2.9-6.5,6.5v12.2H68.3c-3.6,0-6.5,2.9-6.5,6.5
	s2.9,6.5,6.5,6.5h12.2v12.2c0,3.6,2.9,6.5,6.5,6.5s6.5-2.9,6.5-6.5V97.5h12.2c3.6,0,6.5-2.9,6.5-6.5S109.3,84.5,105.7,84.5z"/>
<path class="st0" d="M102,91c0-1.9,1.5-3.4,3.4-3.4c1.9,0,3.4,1.5,3.4,3.4c0,1.9-1.5,3.4-3.4,3.4c-0.6,0-1.1-0.2-1.6-0.4
	c-0.8-0.4-1.4-1.1-1.6-2l0,0C102,91.7,102,91.3,102,91z M107.8,91c0-0.2,0-0.4-0.1-0.7c-0.4-1.3-1.7-2-3-1.7c-1.3,0.4-2,1.7-1.7,3
	l0,0c0.2,0.6,0.6,1.1,1.2,1.5c0.6,0.3,1.2,0.4,1.8,0.2C107.1,93,107.9,92.1,107.8,91L107.8,91z"/>
<path class="st0" d="M65.2,91c0-1.9,1.5-3.4,3.4-3.4c1.9,0,3.4,1.5,3.4,3.4c0,1.9-1.5,3.4-3.4,3.4c-0.5,0-1.1-0.2-1.6-0.4
	c-0.8-0.4-1.4-1.1-1.6-2l0,0C65.3,91.7,65.2,91.3,65.2,91z M71,91c0-0.2,0-0.4-0.1-0.7c-0.4-1.3-1.7-2-3-1.7c-1.3,0.4-2,1.7-1.7,3
	l0,0c0.2,0.6,0.6,1.1,1.2,1.5c0.6,0.3,1.2,0.4,1.8,0.2C70.3,93.1,71.1,92.1,71,91L71,91z"/>
<path class="st0" d="M102.4,91.5H71.8c-0.3,0-0.5-0.2-0.5-0.5s0.2-0.5,0.5-0.5h30.6c0.3,0,0.5,0.2,0.5,0.5S102.6,91.5,102.4,91.5z"
	/>
<path class="st0" d="M87,76c-1.9,0-3.4-1.6-3.3-3.4c0-1.9,1.6-3.4,3.4-3.3c1.9,0,3.4,1.6,3.3,3.4c0,0.6-0.2,1.1-0.4,1.6
	c-0.4,0.8-1.1,1.4-2,1.6l0,0C87.7,76,87.3,76,87,76z M87,70.2c-0.2,0-0.4,0-0.7,0.1c-1.3,0.4-2,1.7-1.7,3c0.4,1.3,1.7,2,3,1.7l0,0
	c0.6-0.2,1.2-0.6,1.5-1.2c0.7-1.2,0.2-2.7-1-3.4C87.8,70.2,87.4,70.1,87,70.2L87,70.2z"/>
<path class="st0" d="M87,112.8c-1.9,0-3.4-1.6-3.3-3.4c0-1.9,1.6-3.4,3.4-3.3c1.9,0,3.4,1.6,3.3,3.4c0,0.6-0.2,1.1-0.4,1.6
	c-0.4,0.8-1.1,1.4-2,1.6l0,0C87.7,112.8,87.3,112.8,87,112.8z M87,107c-0.2,0-0.4,0-0.7,0.1c-1.3,0.4-2,1.7-1.7,3
	c0.4,1.3,1.7,2,3,1.7l0,0l0,0c0.6-0.2,1.2-0.6,1.5-1.2c0.6-1.2,0.2-2.7-1.1-3.3C87.7,107.1,87.4,107,87,107z"/>
<path class="st0" d="M87,106.7c-0.3,0-0.5-0.2-0.5-0.5V75.7c0-0.3,0.2-0.5,0.5-0.5s0.5,0.2,0.5,0.5v30.5
	C87.5,106.5,87.3,106.7,87,106.7z"/>
</svg>
