<?xml version="1.0" encoding="utf-8"?>
<!-- Generator: Adobe Illustrator 23.0.1, SVG Export Plug-In . SVG Version: 6.00 Build 0)  -->
<svg version="1.1" id="Layer_1" xmlns="http://www.w3.org/2000/svg" xmlns:xlink="http://www.w3.org/1999/xlink" x="0px" y="0px"
	 viewBox="0 0 175.6 175.6" style="enable-background:new 0 0 175.6 175.6;" xml:space="preserve">
<style type="text/css">
	.st0{opacity:0.65;fill:#DE1A25;}
	.st1{fill:#DE1A25;}
	.st2{fill:#FFFFFF;}
	.st3{fill:none;stroke:#DE1A25;stroke-miterlimit:10;}
</style>
<polygon class="st0" points="134.6,147.1 32,147.1 42,131.6 32,115.1 134.6,115.1 146.6,130.9 "/>
<title>onehundred</title>
<path class="st1" d="M161.1,135.9c-0.1,0-0.2,0-0.3-0.1c-0.2-0.1-0.3-0.4-0.1-0.7c26.1-40.2,14.7-94-25.6-120.1
	C103.6-5.5,62.6-3.4,33.3,20.2c-0.2,0.1-0.5,0.1-0.7-0.1l0,0c-0.1-0.2-0.1-0.4,0.1-0.6C70.5-11,125.8-5,156.2,32.7
	c23.8,29.6,25.9,71.1,5.3,102.9C161.4,135.8,161.2,135.9,161.1,135.9z"/>
<path class="st1" d="M87.8,175.6C39.3,175.6,0,136.3,0,87.8c0-20.1,6.9-39.6,19.6-55.2c0.2-0.2,0.5-0.2,0.7-0.1l0,0
	c0.2,0.2,0.2,0.5,0.1,0.7l0,0l0,0C-9.8,70.5-4,125.2,33.3,155.4c15.5,12.5,34.8,19.4,54.7,19.3c19.7,0.1,38.9-6.6,54.2-19
	c0.2-0.2,0.5-0.1,0.7,0.1c0.2,0.2,0.1,0.5-0.1,0.7l0,0C127.1,168.9,107.8,175.7,87.8,175.6z"/>
<path class="st1" d="M30.7,25.1c-1.9,0-3.4-1.6-3.4-3.4c0-1.5,1-2.8,2.4-3.2c1.8-0.5,3.6,0.5,4.2,2.3c0.5,1.8-0.5,3.7-2.3,4.2
	C31.4,25.1,31.1,25.1,30.7,25.1z M30.7,19.3c-0.2,0-0.5,0-0.7,0.1c-1.3,0.4-2,1.7-1.7,3l0,0l0,0c0.2,0.6,0.6,1.1,1.1,1.5
	c0.6,0.3,1.2,0.4,1.9,0.2c1.3-0.4,2-1.7,1.6-3C32.7,20,31.8,19.3,30.7,19.3z"/>
<path class="st1" d="M145.9,133.7c-1.5,0-2.7-1.3-2.7-2.7c0-1.2,0.8-2.2,1.9-2.6c1.4-0.4,2.9,0.4,3.3,1.8c0.4,1.4-0.4,3-1.8,3.3
	C146.4,133.7,146.2,133.7,145.9,133.7z M145.9,129.1c-0.2,0-0.4,0-0.6,0.1c-1,0.3-1.6,1.4-1.4,2.4l0,0l0,0c0.2,0.5,0.5,0.9,0.9,1.2
	c0.5,0.2,1,0.3,1.5,0.2c1-0.3,1.6-1.4,1.3-2.4C147.5,129.7,146.7,129.1,145.9,129.1z"/>
<path class="st1" d="M134.2,117.9c-1.5,0-2.7-1.3-2.7-2.7c0-1.2,0.8-2.2,1.9-2.6c1.4-0.4,2.9,0.4,3.3,1.8c0.4,1.4-0.4,3-1.8,3.3
	C134.8,117.9,134.6,117.9,134.2,117.9z M134.2,113.3c-0.2,0-0.4,0-0.6,0.1c-1,0.3-1.6,1.4-1.4,2.4l0,0l0,0c0.2,0.5,0.5,0.9,0.9,1.2
	c0.5,0.2,1,0.3,1.5,0.2c1-0.3,1.6-1.4,1.3-2.4C135.8,113.8,135.1,113.3,134.2,113.3z"/>
<path class="st1" d="M134.2,149.1c-1.5,0-2.7-1.3-2.7-2.7c0-1.2,0.8-2.2,1.9-2.6c1.4-0.4,2.9,0.4,3.3,1.8c0.4,1.4-0.4,3-1.8,3.3
	C134.8,149.1,134.6,149.1,134.2,149.1z M134.2,144.5c-0.2,0-0.4,0-0.6,0.1c-1,0.3-1.6,1.4-1.4,2.4l0,0l0,0c0.2,0.5,0.5,0.9,0.9,1.2
	c0.5,0.2,1,0.3,1.5,0.2c1-0.3,1.6-1.4,1.3-2.4C135.8,145.1,135.1,144.5,134.2,144.5z"/>
<path class="st1" d="M32.4,149.1c-1.5,0-2.7-1.3-2.7-2.7c0-1.2,0.8-2.2,1.9-2.6c1.4-0.4,2.9,0.4,3.3,1.8c0.4,1.4-0.4,3-1.8,3.3
	C32.9,149.1,32.7,149.1,32.4,149.1z M32.4,144.5c-0.2,0-0.4,0-0.6,0.1c-1,0.3-1.6,1.4-1.4,2.4l0,0l0,0c0.2,0.5,0.5,0.9,0.9,1.2
	c0.5,0.2,1,0.3,1.5,0.2c1-0.3,1.6-1.4,1.3-2.4C34,145.1,33.3,144.5,32.4,144.5z"/>
<path class="st1" d="M32.4,117.9c-1.5,0-2.7-1.3-2.7-2.7c0-1.2,0.8-2.2,1.9-2.6c1.4-0.4,2.9,0.4,3.3,1.8c0.4,1.4-0.4,3-1.8,3.3
	C32.9,117.9,32.7,117.9,32.4,117.9z M32.4,113.3c-0.2,0-0.4,0-0.6,0.1c-1,0.3-1.6,1.4-1.4,2.4l0,0l0,0c0.2,0.5,0.5,0.9,0.9,1.2
	c0.5,0.2,1,0.3,1.5,0.2c1-0.3,1.6-1.4,1.3-2.4C34,113.8,33.3,113.3,32.4,113.3z"/>
<path class="st1" d="M41.7,134.2c-1.5,0-2.7-1.3-2.7-2.7c0-1.2,0.8-2.2,1.9-2.6c1.4-0.4,2.9,0.4,3.3,1.8c0.4,1.4-0.4,3-1.8,3.3
	C42.3,134.2,42,134.2,41.7,134.2z M41.7,129.6c-0.2,0-0.4,0-0.6,0.1c-1,0.3-1.6,1.4-1.4,2.4l0,0l0,0c0.2,0.5,0.5,0.9,0.9,1.2
	c0.5,0.2,1,0.3,1.5,0.2c1-0.3,1.6-1.4,1.3-2.4C43.3,130.1,42.6,129.6,41.7,129.6z"/>
<path class="st1" d="M159.7,141.4c-1.9,0-3.4-1.5-3.4-3.4s1.5-3.4,3.4-3.4s3.4,1.5,3.4,3.4c0,1.5-1,2.8-2.4,3.2l0,0
	C160.3,141.3,160,141.4,159.7,141.4z M159.7,135.6c-0.2,0-0.5,0-0.7,0.1c-0.6,0.2-1.1,0.6-1.4,1.1c-0.3,0.6-0.4,1.2-0.2,1.9
	c0.4,1.3,1.7,2,3,1.7c1.3-0.4,2-1.7,1.7-3C161.7,136.3,160.8,135.6,159.7,135.6z"/>
<g>
	<path class="st1" d="M66.8,61.3v2.3H50.9v-2.3H58V38.2c-0.4,0.5-0.9,0.9-1.4,1.3c-0.7,0.5-1.4,0.9-2.2,1.3c-0.8,0.4-1.6,0.7-2.5,1
		c-0.7,0.3-1.5,0.4-2.3,0.4v-2.5c0.9,0,1.8-0.3,2.7-0.7s1.8-0.9,2.6-1.5c0.7-0.5,1.4-1,2-1.6c0.3-0.3,0.6-0.6,0.9-0.9h2.5v26.3H66.8
		z"/>
	<path class="st1" d="M95.6,49c0,2.1-0.3,4.1-0.9,6.1c-0.6,1.7-1.4,3.4-2.6,4.8c-1.1,1.3-2.5,2.4-4,3.2c-3.2,1.5-6.8,1.5-10,0
		c-1.5-0.8-2.9-1.8-3.9-3.2c-1.1-1.4-2-3.1-2.6-4.8c-1.2-4-1.2-8.2,0-12.1c0.6-1.7,1.4-3.4,2.6-4.8c1.1-1.3,2.4-2.4,3.9-3.2
		c3.2-1.5,6.8-1.5,10,0c1.5,0.8,2.9,1.8,4,3.2c1.2,1.4,2,3.1,2.6,4.8C95.3,44.8,95.6,46.9,95.6,49z M93,49c0-1.8-0.2-3.6-0.7-5.3
		c-0.4-1.4-1.1-2.8-2-4c-0.8-1.1-1.9-2-3.1-2.6c-2.5-1.3-5.5-1.3-8,0c-1.3,0.6-2.4,1.5-3.2,2.6c-0.9,1.2-1.6,2.6-2,4
		c-0.5,1.7-0.7,3.5-0.7,5.2c0,1.8,0.2,3.5,0.7,5.2c0.4,1.5,1.1,2.8,2,4c0.8,1.1,1.9,2,3.1,2.6c2.5,1.2,5.5,1.2,8,0
		c1.2-0.6,2.3-1.5,3.1-2.6c0.9-1.2,1.6-2.6,2-4C92.7,52.5,93,50.7,93,49z"/>
	<path class="st1" d="M126.1,49c0,2.1-0.3,4.1-0.9,6.1c-0.6,1.7-1.4,3.4-2.6,4.8c-1.1,1.3-2.5,2.4-4,3.2c-3.1,1.5-6.8,1.5-9.9,0
		c-1.5-0.8-2.9-1.8-3.9-3.2c-1.1-1.4-2-3.1-2.6-4.8c-0.6-2-0.9-4-0.9-6.1s0.3-4.1,0.9-6.1c0.6-1.7,1.4-3.4,2.6-4.8
		c1.1-1.3,2.4-2.4,3.9-3.2c3.1-1.5,6.8-1.5,9.9,0c1.5,0.8,2.9,1.8,4,3.2c1.2,1.4,2,3.1,2.6,4.8C125.8,44.8,126.1,46.9,126.1,49z
		 M123.6,49c0-1.8-0.2-3.5-0.7-5.2c-0.4-1.4-1.1-2.8-2-4c-0.8-1.1-1.9-2-3.1-2.6c-2.5-1.3-5.5-1.3-8.1,0c-1.2,0.6-2.3,1.5-3.1,2.6
		c-0.9,1.2-1.6,2.6-2,4c-0.5,1.7-0.7,3.5-0.7,5.2c0,1.8,0.2,3.5,0.7,5.2c0.4,1.5,1.1,2.8,2,4c0.8,1.1,1.9,2,3.1,2.6
		c2.5,1.2,5.5,1.2,8.1,0c1.2-0.6,2.3-1.5,3.1-2.6c0.9-1.2,1.6-2.6,2-4C123.3,52.4,123.6,50.7,123.6,49z"/>
</g>
<g>
	<path class="st1" d="M41.1,103.5V75h18.5v1.8H43.2v11.3h14v1.8h-14v13.6C43.2,103.5,41.1,103.5,41.1,103.5z"/>
	<path class="st1" d="M65,103.5V75h11.8c1.2,0,2.3,0.2,3.3,0.8c1,0.5,1.9,1.2,2.6,2s1.3,1.8,1.7,2.8c0.4,1,0.6,2.1,0.6,3.2
		c0,1-0.2,2-0.5,3c-0.3,0.9-0.8,1.8-1.4,2.6c-0.6,0.8-1.3,1.4-2.1,1.9c-0.8,0.5-1.8,0.8-2.7,1l7.1,11.1h-2.2l-6.9-10.7h-9.2v10.8
		C67.1,103.5,65,103.5,65,103.5z M67,90.8h10c0.9,0,1.7-0.2,2.5-0.6s1.4-0.9,2-1.5c0.5-0.7,1-1.4,1.2-2.3c0.3-0.8,0.4-1.7,0.4-2.6
		s-0.2-1.8-0.5-2.6c-0.3-0.8-0.8-1.6-1.4-2.3c-0.6-0.6-1.2-1.2-2-1.5c-0.8-0.4-1.6-0.6-2.5-0.6H67V90.8z"/>
	<path class="st1" d="M110,101.6v1.8H91V75h18.6v1.8H93.1V88h14.5v1.8H93.1v11.8C93.1,101.6,110,101.6,110,101.6z"/>
	<path class="st1" d="M134.5,101.6v1.8h-19V75h18.7v1.8h-16.6V88h14.5v1.8h-14.5v11.8C117.6,101.6,134.5,101.6,134.5,101.6z"/>
</g>
<g>
	<path class="st2" d="M46,124.4c0.8-0.2,1.9-0.3,3-0.3c1.7,0,2.8,0.3,3.5,1c0.6,0.5,1,1.4,1,2.3c0,1.6-1,2.7-2.3,3.1v0.1
		c0.9,0.3,1.5,1.2,1.8,2.4c0.4,1.7,0.7,2.9,0.9,3.3h-1.6c-0.2-0.3-0.5-1.4-0.8-2.9c-0.4-1.7-1-2.3-2.4-2.4h-1.5v5.3H46V124.4z
		 M47.6,129.9h1.6c1.7,0,2.7-0.9,2.7-2.3c0-1.6-1.1-2.3-2.8-2.3c-0.8,0-1.3,0.1-1.5,0.1V129.9z"/>
	<path class="st2" d="M62,130.7h-4.7v4.4h5.3v1.3h-6.8v-12.1h6.6v1.3h-5v3.8H62V130.7z"/>
	<path class="st2" d="M67.2,125.6h-3.7v-1.3h9v1.3h-3.7v10.8h-1.6V125.6z"/>
	<path class="st2" d="M73.8,124.4c0.8-0.2,1.9-0.3,3-0.3c1.7,0,2.8,0.3,3.5,1c0.6,0.5,1,1.4,1,2.3c0,1.6-1,2.7-2.3,3.1v0.1
		c0.9,0.3,1.5,1.2,1.8,2.4c0.4,1.7,0.7,2.9,0.9,3.3h-1.6c-0.2-0.3-0.5-1.4-0.8-2.9c-0.4-1.7-1-2.3-2.4-2.4h-1.5v5.3h-1.6V124.4z
		 M75.4,129.9H77c1.7,0,2.7-0.9,2.7-2.3c0-1.6-1.1-2.3-2.8-2.3c-0.8,0-1.3,0.1-1.5,0.1V129.9z"/>
	<path class="st2" d="M85.1,124.2v12.1h-1.6v-12.1H85.1z"/>
	<path class="st2" d="M94.1,130.7h-4.7v4.4h5.3v1.3h-6.8v-12.1h6.6v1.3h-5v3.8h4.7V130.7z"/>
	<path class="st2" d="M99.5,136.4l-4-12.1h1.7l1.9,6c0.5,1.6,1,3.1,1.3,4.5h0c0.3-1.4,0.8-2.9,1.4-4.5l2.1-6h1.7l-4.3,12.1H99.5z"/>
	<path class="st2" d="M107.8,132.5l-1.3,3.8h-1.6l4.1-12.1h1.9l4.1,12.1h-1.7l-1.3-3.8H107.8z M111.8,131.3l-1.2-3.5
		c-0.3-0.8-0.5-1.5-0.6-2.2h0c-0.2,0.7-0.4,1.5-0.6,2.2l-1.2,3.5H111.8z"/>
	<path class="st2" d="M116.8,124.2h1.6v10.8h5.2v1.3h-6.8V124.2z"/>
	<path class="st2" d="M125.1,134.5c0.7,0.4,1.7,0.8,2.8,0.8c1.6,0,2.5-0.8,2.5-2.1c0-1.1-0.6-1.8-2.3-2.4c-2-0.7-3.2-1.7-3.2-3.4
		c0-1.9,1.6-3.3,3.9-3.3c1.2,0,2.1,0.3,2.7,0.6l-0.4,1.3c-0.4-0.2-1.2-0.6-2.3-0.6c-1.7,0-2.3,1-2.3,1.8c0,1.1,0.7,1.7,2.4,2.3
		c2.1,0.8,3.1,1.8,3.1,3.6c0,1.9-1.4,3.5-4.2,3.5c-1.2,0-2.4-0.3-3.1-0.8L125.1,134.5z"/>
</g>
<line class="st3" x1="34.6" y1="146.9" x2="131.6" y2="146.9"/>
<line class="st3" x1="34.6" y1="115" x2="131.6" y2="115"/>
<line class="st3" x1="135.9" y1="116.7" x2="144.8" y2="128.7"/>
<line class="st3" x1="144.6" y1="133.2" x2="136.1" y2="145"/>
<line class="st3" x1="33.5" y1="117.5" x2="40.7" y2="129.3"/>
<line class="st3" x1="40.5" y1="133.8" x2="33.6" y2="144.5"/>
</svg>
