<?xml version="1.0" encoding="utf-8"?>
<!-- Generator: Adobe Illustrator 23.0.1, SVG Export Plug-In . SVG Version: 6.00 Build 0)  -->
<svg version="1.1" id="Layer_1" xmlns="http://www.w3.org/2000/svg" xmlns:xlink="http://www.w3.org/1999/xlink" x="0px" y="0px"
	 viewBox="0 0 175.6 175.6" style="enable-background:new 0 0 175.6 175.6;" xml:space="preserve">
<style type="text/css">
	.st0{fill:url(#SVGID_1_);}
	.st1{fill:url(#SVGID_2_);}
	.st2{fill:url(#SVGID_3_);}
	.st3{fill:url(#SVGID_4_);}
	.st4{fill:url(#SVGID_5_);}
	.st5{fill:url(#SVGID_6_);}
	.st6{fill:url(#SVGID_7_);}
	.st7{fill:url(#SVGID_8_);}
	.st8{fill:#FFFFFF;}
	.st9{fill:url(#SVGID_9_);}
</style>
<title>onehundred</title>
<linearGradient id="SVGID_1_" gradientUnits="userSpaceOnUse" x1="33.2606" y1="139.6288" x2="121.8532" y2="113.5547">
	<stop  offset="0" style="stop-color:#FB14D5"/>
	<stop  offset="1" style="stop-color:#E2414F"/>
</linearGradient>
<polygon class="st0" points="133.2,141.3 30.6,141.3 40.6,125.8 30.6,109.3 133.2,109.3 145.2,125.1 "/>
<g>
	<linearGradient id="SVGID_2_" gradientUnits="userSpaceOnUse" x1="57.4974" y1="92.1522" x2="56.6085" y2="30.8189">
		<stop  offset="0" style="stop-color:#FB14D5"/>
		<stop  offset="1" style="stop-color:#E2414F"/>
	</linearGradient>
	<path class="st1" d="M65.4,55.5v2.3H49.5v-2.3h7.1V32.4c-0.4,0.5-0.9,0.9-1.4,1.3c-0.7,0.5-1.4,0.9-2.2,1.3c-0.8,0.4-1.6,0.7-2.5,1
		c-0.7,0.3-1.5,0.4-2.3,0.4v-2.5c0.9,0,1.8-0.3,2.7-0.7s1.8-0.9,2.6-1.5c0.7-0.5,1.4-1,2-1.6c0.3-0.3,0.6-0.6,0.9-0.9h2.5v26.3H65.4
		z"/>
	<linearGradient id="SVGID_3_" gradientUnits="userSpaceOnUse" x1="82.482" y1="91.7901" x2="81.5931" y2="30.4568">
		<stop  offset="0" style="stop-color:#FB14D5"/>
		<stop  offset="1" style="stop-color:#E2414F"/>
	</linearGradient>
	<path class="st2" d="M94.2,43.2c0,2.1-0.3,4.1-0.9,6.1c-0.6,1.7-1.4,3.4-2.6,4.8c-1.1,1.3-2.5,2.4-4,3.2c-3.2,1.5-6.8,1.5-10,0
		c-1.5-0.8-2.9-1.8-3.9-3.2c-1.1-1.4-2-3.1-2.6-4.8c-1.2-4-1.2-8.2,0-12.1c0.6-1.7,1.4-3.4,2.6-4.8c1.1-1.3,2.4-2.4,3.9-3.2
		c3.2-1.5,6.8-1.5,10,0c1.5,0.8,2.9,1.8,4,3.2c1.2,1.4,2,3.1,2.6,4.8C93.9,39,94.2,41.1,94.2,43.2z M91.6,43.2
		c0-1.8-0.2-3.6-0.7-5.3c-0.4-1.4-1.1-2.8-2-4c-0.8-1.1-1.9-2-3.1-2.6c-2.5-1.3-5.5-1.3-8,0c-1.3,0.6-2.4,1.5-3.2,2.6
		c-0.9,1.2-1.6,2.6-2,4c-0.5,1.7-0.7,3.5-0.7,5.2c0,1.8,0.2,3.5,0.7,5.2c0.4,1.5,1.1,2.8,2,4c0.8,1.1,1.9,2,3.1,2.6
		c2.5,1.2,5.5,1.2,8,0c1.2-0.6,2.3-1.5,3.1-2.6c0.9-1.2,1.6-2.6,2-4C91.3,46.7,91.6,44.9,91.6,43.2z"/>
	<linearGradient id="SVGID_4_" gradientUnits="userSpaceOnUse" x1="113.0256" y1="91.3475" x2="112.1367" y2="30.0141">
		<stop  offset="0" style="stop-color:#FB14D5"/>
		<stop  offset="1" style="stop-color:#E2414F"/>
	</linearGradient>
	<path class="st3" d="M124.7,43.2c0,2.1-0.3,4.1-0.9,6.1c-0.6,1.7-1.4,3.4-2.6,4.8c-1.1,1.3-2.5,2.4-4,3.2c-3.1,1.5-6.8,1.5-9.9,0
		c-1.5-0.8-2.9-1.8-3.9-3.2c-1.1-1.4-2-3.1-2.6-4.8c-0.6-2-0.9-4-0.9-6.1s0.3-4.1,0.9-6.1c0.6-1.7,1.4-3.4,2.6-4.8
		c1.1-1.3,2.4-2.4,3.9-3.2c3.1-1.5,6.8-1.5,9.9,0c1.5,0.8,2.9,1.8,4,3.2c1.2,1.4,2,3.1,2.6,4.8C124.4,39,124.7,41.1,124.7,43.2z
		 M122.2,43.2c0-1.8-0.2-3.5-0.7-5.2c-0.4-1.4-1.1-2.8-2-4c-0.8-1.1-1.9-2-3.1-2.6c-2.5-1.3-5.5-1.3-8.1,0c-1.2,0.6-2.3,1.5-3.1,2.6
		c-0.9,1.2-1.6,2.6-2,4c-0.5,1.7-0.7,3.5-0.7,5.2c0,1.8,0.2,3.5,0.7,5.2c0.4,1.5,1.1,2.8,2,4c0.8,1.1,1.9,2,3.1,2.6
		c2.5,1.2,5.5,1.2,8.1,0c1.2-0.6,2.3-1.5,3.1-2.6c0.9-1.2,1.6-2.6,2-4C121.9,46.6,122.2,44.9,122.2,43.2z"/>
</g>
<g>
	<linearGradient id="SVGID_5_" gradientUnits="userSpaceOnUse" x1="49.1057" y1="92.2738" x2="48.2168" y2="30.9405">
		<stop  offset="0" style="stop-color:#FB14D5"/>
		<stop  offset="1" style="stop-color:#E2414F"/>
	</linearGradient>
	<path class="st4" d="M39.7,97.7V69.2h18.5V71H41.8v11.3h14v1.8h-14v13.6C41.8,97.7,39.7,97.7,39.7,97.7z"/>
	<linearGradient id="SVGID_6_" gradientUnits="userSpaceOnUse" x1="73.7447" y1="91.9167" x2="72.8558" y2="30.5834">
		<stop  offset="0" style="stop-color:#FB14D5"/>
		<stop  offset="1" style="stop-color:#E2414F"/>
	</linearGradient>
	<path class="st5" d="M63.6,97.7V69.2h11.8c1.2,0,2.3,0.2,3.3,0.8c1,0.5,1.9,1.2,2.6,2s1.3,1.8,1.7,2.8c0.4,1,0.6,2.1,0.6,3.2
		c0,1-0.2,2-0.5,3c-0.3,0.9-0.8,1.8-1.4,2.6c-0.6,0.8-1.3,1.4-2.1,1.9c-0.8,0.5-1.8,0.8-2.7,1L84,97.6h-2.2l-6.9-10.7h-9.2v10.8
		C65.7,97.7,63.6,97.7,63.6,97.7z M65.6,85h10c0.9,0,1.7-0.2,2.5-0.6s1.4-0.9,2-1.5c0.5-0.7,1-1.4,1.2-2.3c0.3-0.8,0.4-1.7,0.4-2.6
		s-0.2-1.8-0.5-2.6c-0.3-0.8-0.8-1.6-1.4-2.3c-0.6-0.6-1.2-1.2-2-1.5C77,71.2,76.2,71,75.3,71h-9.7V85z"/>
	<linearGradient id="SVGID_7_" gradientUnits="userSpaceOnUse" x1="99.0531" y1="91.55" x2="98.1643" y2="30.2166">
		<stop  offset="0" style="stop-color:#FB14D5"/>
		<stop  offset="1" style="stop-color:#E2414F"/>
	</linearGradient>
	<path class="st6" d="M108.6,95.8v1.8h-19V69.2h18.6V71H91.7v11.2h14.5V84H91.7v11.8C91.7,95.8,108.6,95.8,108.6,95.8z"/>
	<linearGradient id="SVGID_8_" gradientUnits="userSpaceOnUse" x1="123.5908" y1="91.1943" x2="122.7019" y2="29.861">
		<stop  offset="0" style="stop-color:#FB14D5"/>
		<stop  offset="1" style="stop-color:#E2414F"/>
	</linearGradient>
	<path class="st7" d="M133.1,95.8v1.8h-19V69.2h18.7V71h-16.6v11.2h14.5V84h-14.5v11.8C116.2,95.8,133.1,95.8,133.1,95.8z"/>
</g>
<g>
	<path class="st8" d="M44.6,118.6c0.8-0.2,1.9-0.3,3-0.3c1.7,0,2.8,0.3,3.5,1c0.6,0.5,1,1.4,1,2.3c0,1.6-1,2.7-2.3,3.1v0.1
		c0.9,0.3,1.5,1.2,1.8,2.4c0.4,1.7,0.7,2.9,0.9,3.3h-1.6c-0.2-0.3-0.5-1.4-0.8-2.9c-0.4-1.7-1-2.3-2.4-2.4h-1.5v5.3h-1.6V118.6z
		 M46.2,124.1h1.6c1.7,0,2.7-0.9,2.7-2.3c0-1.6-1.1-2.3-2.8-2.3c-0.8,0-1.3,0.1-1.5,0.1V124.1z"/>
	<path class="st8" d="M60.6,124.9h-4.7v4.4h5.3v1.3h-6.8v-12.1H61v1.3h-5v3.8h4.6V124.9z"/>
	<path class="st8" d="M65.8,119.8h-3.7v-1.3h9v1.3h-3.7v10.8h-1.6C65.8,130.6,65.8,119.8,65.8,119.8z"/>
	<path class="st8" d="M72.4,118.6c0.8-0.2,1.9-0.3,3-0.3c1.7,0,2.8,0.3,3.5,1c0.6,0.5,1,1.4,1,2.3c0,1.6-1,2.7-2.3,3.1v0.1
		c0.9,0.3,1.5,1.2,1.8,2.4c0.4,1.7,0.7,2.9,0.9,3.3h-1.6c-0.2-0.3-0.5-1.4-0.8-2.9c-0.4-1.7-1-2.3-2.4-2.4H74v5.3h-1.6V118.6z
		 M74,124.1h1.6c1.7,0,2.7-0.9,2.7-2.3c0-1.6-1.1-2.3-2.8-2.3c-0.8,0-1.3,0.1-1.5,0.1C74,119.6,74,124.1,74,124.1z"/>
	<path class="st8" d="M83.7,118.4v12.1h-1.6v-12.1C82.1,118.4,83.7,118.4,83.7,118.4z"/>
	<path class="st8" d="M92.7,124.9H88v4.4h5.3v1.3h-6.8v-12.1h6.6v1.3h-5v3.8h4.7L92.7,124.9L92.7,124.9z"/>
	<path class="st8" d="M98.1,130.6l-4-12.1h1.7l1.9,6c0.5,1.6,1,3.1,1.3,4.5l0,0c0.3-1.4,0.8-2.9,1.4-4.5l2.1-6h1.7l-4.3,12.1H98.1z"
		/>
	<path class="st8" d="M106.4,126.7l-1.3,3.8h-1.6l4.1-12.1h1.9l4.1,12.1h-1.7l-1.3-3.8H106.4z M110.4,125.5l-1.2-3.5
		c-0.3-0.8-0.5-1.5-0.6-2.2l0,0c-0.2,0.7-0.4,1.5-0.6,2.2l-1.2,3.5H110.4z"/>
	<path class="st8" d="M115.4,118.4h1.6v10.8h5.2v1.3h-6.8C115.4,130.5,115.4,118.4,115.4,118.4z"/>
	<path class="st8" d="M123.7,128.7c0.7,0.4,1.7,0.8,2.8,0.8c1.6,0,2.5-0.8,2.5-2.1c0-1.1-0.6-1.8-2.3-2.4c-2-0.7-3.2-1.7-3.2-3.4
		c0-1.9,1.6-3.3,3.9-3.3c1.2,0,2.1,0.3,2.7,0.6l-0.4,1.3c-0.4-0.2-1.2-0.6-2.3-0.6c-1.7,0-2.3,1-2.3,1.8c0,1.1,0.7,1.7,2.4,2.3
		c2.1,0.8,3.1,1.8,3.1,3.6c0,1.9-1.4,3.5-4.2,3.5c-1.2,0-2.4-0.3-3.1-0.8L123.7,128.7z"/>
</g>
<linearGradient id="SVGID_9_" gradientUnits="userSpaceOnUse" x1="33.9775" y1="153.5689" x2="141.7553" y2="23.5689">
	<stop  offset="0" style="stop-color:#FB14D5"/>
	<stop  offset="1" style="stop-color:#E2414F"/>
</linearGradient>
<path class="st9" d="M87.9,174.4C40.6,174.4,2,135.9,2,88.5S40.6,2.6,87.9,2.6s85.9,38.5,85.9,85.9S135.3,174.4,87.9,174.4z
	 M87.9,10.6C45,10.6,10,45.5,10,88.5s34.9,77.9,77.9,77.9c42.9,0,77.9-34.9,77.9-77.9S130.9,10.6,87.9,10.6z"/>
</svg>
