<?xml version="1.0" encoding="utf-8"?>
<!-- Generator: Adobe Illustrator 23.0.1, SVG Export Plug-In . SVG Version: 6.00 Build 0)  -->
<svg version="1.1" id="Layer_1" xmlns="http://www.w3.org/2000/svg" xmlns:xlink="http://www.w3.org/1999/xlink" x="0px" y="0px"
	 viewBox="0 0 928 928" style="enable-background:new 0 0 928 928;" xml:space="preserve">
<style type="text/css">
	.st0{fill-rule:evenodd;clip-rule:evenodd;}
</style>
<g>
	<path class="st0" d="M99.8,256.9h730.1c48.4,0,87.8,39.4,87.8,87.8V600c0,48.4-39.4,87.8-87.8,87.8h-630V573
		c18.6,21.9,44.4,41.1,86.1,41.1c65.8,0,126.6-50.6,126.6-143.4l0,0v-0.6c0-92.8-61.9-143.4-126.6-143.4c-41.1,0-66.9,19.1-86.1,45
		v-39.9h-78.8v356.1H99.8C51.4,687.8,12,648.4,12,600V345.2C12,296.3,51.4,256.9,99.8,256.9z M823.7,331.7h-78.2L700,500.5
		l-52.9-169.9h-67.5l-52.3,169.3l-44.4-168.8H403l84.9,280.1h70.3l54-170.4l53.4,170.4h70.9L823.7,331.7z M333.2,470.7
		c0,46.7-30.9,76.5-67.5,76.5c-37.1,0-67.5-30.4-67.5-76.5v-0.6c0-46.1,30.4-76.5,67.5-76.5c36.6,0,67.5,30.4,67.5,76.5V470.7z"/>
</g>
</svg>
