<?xml version="1.0" encoding="utf-8"?>
<!-- Generator: Adobe Illustrator 23.0.1, SVG Export Plug-In . SVG Version: 6.00 Build 0)  -->
<svg version="1.1" id="Layer_1" xmlns="http://www.w3.org/2000/svg" xmlns:xlink="http://www.w3.org/1999/xlink" x="0px" y="0px"
	 viewBox="0 0 928 928" style="enable-background:new 0 0 928 928;" xml:space="preserve">
<g>
	<circle cx="614.1" cy="163.6" r="52.4"/>
	<circle cx="753.9" cy="609" r="52.4"/>
	<circle cx="315" cy="750.9" r="52.4"/>
	<circle cx="166.5" cy="309.8" r="52.4"/>
	<circle cx="531.2" cy="76.2" r="43.7"/>
	<circle cx="640.3" cy="283.6" r="43.7"/>
	<circle cx="640.3" cy="637.4" r="43.7"/>
	<circle cx="843.4" cy="521.6" r="43.7"/>
	<circle cx="402.3" cy="838.2" r="43.7"/>
	<circle cx="286.6" cy="637.4" r="43.7"/>
	<circle cx="286.6" cy="277.1" r="43.7"/>
	<circle cx="66.1" cy="497.6" r="37.1"/>
	<circle cx="391.4" cy="290.2" r="37.1"/>
	<circle cx="426.4" cy="63.1" r="37.1"/>
	<circle cx="636" cy="386.3" r="37.1"/>
	<circle cx="860.9" cy="416.8" r="37.1"/>
	<circle cx="537.7" cy="630.8" r="37.1"/>
	<circle cx="293.2" cy="534.7" r="37.1"/>
	<circle cx="507.1" cy="857.9" r="37.1"/>
	<circle cx="590.1" cy="820.8" r="32.8"/>
	<circle cx="349.9" cy="453.9" r="32.8"/>
	<circle cx="467.8" cy="344.8" r="32.8"/>
	<circle cx="98.8" cy="582.8" r="32.8"/>
	<circle cx="825.9" cy="336" r="32.8"/>
	<circle cx="341.2" cy="95.9" r="32.8"/>
	<circle cx="277.9" cy="174.5" r="28.4"/>
	<circle cx="749.5" cy="277.1" r="28.4"/>
	<circle cx="459.1" cy="571.9" r="28.4"/>
	<circle cx="649.1" cy="746.5" r="28.4"/>
	<circle cx="177.4" cy="641.7" r="28.4"/>
	<circle cx="524.6" cy="401.5" r="26.2"/>
	<circle cx="175.3" cy="543.5" r="26.2"/>
	<circle cx="550.8" cy="746.5" r="26.2"/>
	<circle cx="753.9" cy="371" r="26.2"/>
	<circle cx="378.3" cy="172.3" r="26.2"/>
	<ellipse transform="matrix(0.1602 -0.9871 0.9871 0.1602 211.7389 619.6481)" cx="470" cy="185.4" rx="32.8" ry="32.8"/>
	<circle cx="186.2" cy="453.9" r="32.8"/>
	<circle cx="740.8" cy="464.9" r="32.8"/>
	<circle cx="574.8" cy="460.5" r="32.8"/>
	<circle cx="459.1" cy="731.2" r="32.8"/>
	<circle cx="406.7" cy="510.7" r="26.2"/>
	<circle cx="524.6" cy="515.1" r="26.2"/>
	<circle cx="411.1" cy="399.4" r="26.2"/>
	<circle cx="402.3" cy="667.9" r="21.8"/>
	<circle cx="253.9" cy="397.2" r="21.8"/>
	<circle cx="677.4" cy="523.8" r="21.8"/>
	<circle cx="529" cy="246.5" r="21.8"/>
	<circle cx="539.9" cy="320.8" r="17.5"/>
	<circle cx="325.9" cy="379.7" r="17.5"/>
	<circle cx="387.1" cy="595.9" r="17.5"/>
	<circle cx="598.8" cy="536.9" r="17.5"/>
	<circle cx="85.7" cy="392.8" r="43.7"/>
</g>
</svg>
