<?xml version="1.0" encoding="utf-8"?>
<!-- Generator: Adobe Illustrator 23.0.1, SVG Export Plug-In . SVG Version: 6.00 Build 0)  -->
<svg version="1.1" id="Layer_1" xmlns="http://www.w3.org/2000/svg" xmlns:xlink="http://www.w3.org/1999/xlink" x="0px" y="0px"
	 viewBox="0 0 247.9 247.6" style="enable-background:new 0 0 247.9 247.6;" xml:space="preserve">
<style type="text/css">
	.st0{fill:url(#SVGID_1_);}
	.st1{fill:url(#SVGID_2_);}
	.st2{fill:url(#SVGID_3_);}
	.st3{fill:url(#SVGID_4_);}
	.st4{fill:url(#SVGID_5_);}
	.st5{fill:url(#SVGID_6_);}
	.st6{fill:url(#SVGID_7_);}
	.st7{fill:url(#SVGID_8_);}
	.st8{fill:url(#SVGID_9_);}
	.st9{fill:url(#SVGID_10_);}
	.st10{fill:url(#SVGID_11_);}
	.st11{fill:url(#SVGID_12_);}
	.st12{fill:url(#SVGID_13_);}
	.st13{fill:url(#SVGID_14_);}
	.st14{fill:url(#SVGID_15_);}
	.st15{fill:url(#SVGID_16_);}
	.st16{fill:url(#SVGID_17_);}
	.st17{opacity:0.44;fill:url(#SVGID_18_);}
	.st18{fill:url(#SVGID_19_);}
</style>
<title>security</title>
<linearGradient id="SVGID_1_" gradientUnits="userSpaceOnUse" x1="171.4969" y1="86.3282" x2="73.1265" y2="198.3282">
	<stop  offset="0" style="stop-color:#FB14D5"/>
	<stop  offset="1" style="stop-color:#E2414F"/>
</linearGradient>
<path class="st0" d="M181.7,149.5h-6V111c0-6.1-4.9-11-11-11H80.8c-6.1,0-11,4.9-11,11v38.5h-6.5c-0.3,0-0.5,0.2-0.5,0.5v17.8
	c0,0.3,0.2,0.5,0.5,0.5h6.5v4.7c0,6.1,4.9,11,11,11h83.6c6.1,0,11-4.9,11-11v-4.7h6.3c0.2,0,0.5-0.2,0.5-0.5V150
	C182.2,149.7,182,149.5,181.7,149.5z M122.4,122.4c2.9-0.1,5.7,0.9,7.9,2.7c0,0,3.8,2.3,3.8,8.1S128,143,128,143l1.1,6.5h-12.4
	l1.1-6.5c-4.3-2.4-6.2-9.1-6.2-9.1C111.6,122.2,122.4,122.4,122.4,122.4z M181.2,167.3H63.8v-16.8h117.4V167.3z"/>
<g>
	<g>
		<linearGradient id="SVGID_2_" gradientUnits="userSpaceOnUse" x1="78.7" y1="159.3" x2="83.4" y2="159.3">
			<stop  offset="0" style="stop-color:#FB14D5"/>
			<stop  offset="1" style="stop-color:#E2414F"/>
		</linearGradient>
		<path class="st1" d="M78.7,162.5c0-0.3,0-0.5,0.1-0.8c0-0.3,0.1-0.5,0.3-0.8c0.1-0.3,0.3-0.5,0.5-0.7c0.3-0.3,0.6-0.5,0.9-0.6
			l0.7-0.3c0.2-0.1,0.4-0.2,0.6-0.4c0.2-0.1,0.3-0.3,0.5-0.4c0.1-0.2,0.2-0.4,0.2-0.6c0-0.1,0-0.3-0.1-0.4c-0.1-0.1-0.2-0.3-0.3-0.4
			c-0.1-0.1-0.3-0.2-0.4-0.3c-0.4-0.1-0.9-0.1-1.3,0c-0.2,0.1-0.3,0.1-0.5,0.2c-0.1,0.1-0.3,0.2-0.4,0.3l-0.2,0.3l-0.5-0.5l0.3-0.2
			c0.1-0.1,0.3-0.3,0.5-0.4c0.2-0.1,0.5-0.2,0.7-0.3c0.3-0.1,0.6-0.1,0.9-0.1s0.6,0,0.9,0.1c0.2,0.1,0.5,0.2,0.7,0.4
			s0.3,0.3,0.4,0.6c0.2,0.5,0.2,1-0.1,1.4c-0.1,0.2-0.3,0.4-0.5,0.6c-0.2,0.2-0.4,0.3-0.6,0.4c-0.2,0.1-0.4,0.2-0.6,0.3
			s-0.5,0.2-0.7,0.4c-0.2,0.1-0.4,0.3-0.6,0.4c-0.2,0.1-0.3,0.3-0.4,0.5s-0.2,0.4-0.2,0.6h3.9v0.7H78.7z"/>
		<linearGradient id="SVGID_3_" gradientUnits="userSpaceOnUse" x1="84.2" y1="160.1" x2="89.525" y2="160.1">
			<stop  offset="0" style="stop-color:#FB14D5"/>
			<stop  offset="1" style="stop-color:#E2414F"/>
		</linearGradient>
		<path class="st2" d="M87,159c0.3,0,0.7,0.1,1,0.2c0.3,0.1,0.6,0.3,0.8,0.5c0.2,0.2,0.4,0.5,0.5,0.8c0.3,0.7,0.3,1.4,0,2.1
			c-0.1,0.3-0.3,0.6-0.6,0.8c-0.3,0.2-0.5,0.4-0.9,0.5c-0.3,0.1-0.7,0.2-1.1,0.2c-0.3,0-0.5,0-0.8-0.1c-0.2-0.1-0.5-0.2-0.7-0.3
			s-0.4-0.3-0.6-0.5s-0.3-0.4-0.4-0.6l0.5-0.4c0.2,0.4,0.5,0.6,0.8,0.9c0.3,0.2,0.7,0.3,1.2,0.3c0.3,0,0.5,0,0.8-0.1
			c0.2-0.1,0.4-0.2,0.6-0.4s0.3-0.4,0.4-0.6c0.1-0.2,0.1-0.5,0.1-0.8s0-0.5-0.1-0.7s-0.2-0.4-0.4-0.6c-0.2-0.2-0.4-0.3-0.6-0.4
			c-0.2-0.1-0.5-0.1-0.7-0.1c-0.3,0-0.7,0.1-1,0.2c-0.3,0.1-0.6,0.4-0.7,0.6h-0.7l0.1-0.3c0-0.1,0.1-0.3,0.1-0.6s0.1-0.4,0.1-0.7
			l0.1-0.8c0.1-0.6,0.3-1.3,0.4-2h3.7v0.7h-3.2l-0.5,2.8c0.2-0.2,0.4-0.4,0.7-0.5C86.3,159.1,86.6,159,87,159z"/>
		<linearGradient id="SVGID_4_" gradientUnits="userSpaceOnUse" x1="90.4" y1="158.5" x2="96" y2="158.5">
			<stop  offset="0" style="stop-color:#FB14D5"/>
			<stop  offset="1" style="stop-color:#E2414F"/>
		</linearGradient>
		<path class="st3" d="M96,159.9c0,0.3-0.1,0.7-0.2,1s-0.3,0.6-0.6,0.8c-0.3,0.2-0.5,0.4-0.9,0.6c-0.3,0.1-0.7,0.2-1.1,0.2
			s-0.8-0.1-1.1-0.2c-0.3-0.1-0.6-0.4-0.9-0.6c-0.3-0.3-0.5-0.6-0.6-1s-0.2-0.9-0.2-1.4c0-0.7,0.1-1.4,0.2-2.1
			c0.1-0.5,0.3-1,0.6-1.5c0.2-0.4,0.5-0.7,0.9-0.9s0.8-0.3,1.2-0.3c0.5,0,1,0.1,1.4,0.4c0.4,0.3,0.7,0.6,0.9,1.1l-0.5,0.4
			c-0.1-0.4-0.4-0.7-0.7-0.9c-0.3-0.2-0.7-0.3-1.1-0.3c-0.3,0-0.6,0.1-0.9,0.2c-0.3,0.2-0.5,0.4-0.7,0.7s-0.3,0.7-0.4,1.1
			c-0.1,0.5-0.2,0.9-0.2,1.4c0.2-0.4,0.4-0.8,0.8-1c0.4-0.3,0.9-0.4,1.3-0.4c0.3,0,0.7,0.1,1,0.2c0.3,0.1,0.6,0.3,0.8,0.6
			c0.2,0.2,0.4,0.5,0.6,0.8C95.9,159.2,96,159.6,96,159.9z M93.3,161.9c0.5,0,1-0.2,1.4-0.6c0.2-0.2,0.3-0.4,0.4-0.6
			c0.1-0.2,0.2-0.5,0.2-0.8s-0.1-0.5-0.2-0.8c-0.1-0.2-0.3-0.5-0.4-0.6c-0.2-0.2-0.4-0.3-0.6-0.4c-0.5-0.2-1.1-0.2-1.6,0
			c-0.2,0.1-0.5,0.2-0.6,0.4c-0.2,0.2-0.3,0.4-0.4,0.6c-0.1,0.2-0.2,0.5-0.2,0.8s0.1,0.5,0.2,0.8c0.1,0.2,0.3,0.5,0.4,0.6
			c0.2,0.2,0.4,0.3,0.6,0.4C92.7,161.9,93,161.9,93.3,161.9L93.3,161.9z"/>
		<linearGradient id="SVGID_5_" gradientUnits="userSpaceOnUse" x1="100" y1="158.55" x2="105.6" y2="158.55">
			<stop  offset="0" style="stop-color:#FB14D5"/>
			<stop  offset="1" style="stop-color:#E2414F"/>
		</linearGradient>
		<path class="st4" d="M102.8,162.6c-0.4,0-0.9-0.1-1.2-0.3c-0.4-0.2-0.7-0.5-0.9-0.9v1.1H100v-8h0.8v3.5c0.2-0.4,0.5-0.7,0.9-0.9
			s0.8-0.4,1.3-0.4c0.4,0,0.7,0.1,1.1,0.3c0.3,0.2,0.6,0.4,0.8,0.7c0.2,0.3,0.4,0.6,0.5,0.9c0.1,0.3,0.2,0.7,0.2,1.1
			c0,0.4-0.1,0.8-0.2,1.1s-0.3,0.7-0.6,0.9c-0.2,0.3-0.5,0.5-0.9,0.6C103.6,162.5,103.2,162.6,102.8,162.6z M102.7,161.9
			c0.3,0,0.6-0.1,0.9-0.2c0.3-0.1,0.5-0.3,0.7-0.5s0.3-0.5,0.4-0.7c0.1-0.3,0.2-0.6,0.2-0.9c0-0.3-0.1-0.6-0.1-0.9
			c-0.1-0.3-0.2-0.5-0.4-0.7c-0.2-0.2-0.4-0.4-0.6-0.5c-0.3-0.1-0.5-0.2-0.8-0.2c-0.2,0-0.4,0-0.6,0.1s-0.4,0.2-0.6,0.3
			s-0.3,0.3-0.4,0.4c-0.1,0.2-0.2,0.3-0.3,0.5v1.8c0,0.2,0.1,0.4,0.2,0.6c0.1,0.2,0.3,0.3,0.5,0.4c0.2,0.1,0.4,0.2,0.6,0.3
			C102.3,161.9,102.5,161.9,102.7,161.9L102.7,161.9z"/>
		<linearGradient id="SVGID_6_" gradientUnits="userSpaceOnUse" x1="106.8" y1="158.5" x2="107.5" y2="158.5">
			<stop  offset="0" style="stop-color:#FB14D5"/>
			<stop  offset="1" style="stop-color:#E2414F"/>
		</linearGradient>
		<path class="st5" d="M106.8,155.6v-1.1h0.7v1.1H106.8z M106.8,162.5v-5.7h0.7v5.7H106.8z"/>
		<linearGradient id="SVGID_7_" gradientUnits="userSpaceOnUse" x1="108.5" y1="158.6" x2="111.8" y2="158.6">
			<stop  offset="0" style="stop-color:#FB14D5"/>
			<stop  offset="1" style="stop-color:#E2414F"/>
		</linearGradient>
		<path class="st6" d="M111.8,162.2l-0.2,0.1c-0.1,0-0.2,0.1-0.3,0.1c-0.1,0-0.2,0.1-0.4,0.1c-0.1,0-0.3,0-0.4,0
			c-0.2,0-0.3,0-0.4-0.1c-0.1,0-0.3-0.1-0.4-0.2c-0.1-0.1-0.2-0.2-0.3-0.4c-0.1-0.2-0.1-0.3-0.1-0.5v-4.1h-0.8v-0.6h0.8v-1.9h0.8
			v1.9h1.3v0.6h-1.3v3.9c0,0.2,0.1,0.4,0.2,0.5s0.3,0.2,0.5,0.1c0.2,0,0.4,0,0.6-0.1l0.3-0.1L111.8,162.2z"/>
		<linearGradient id="SVGID_8_" gradientUnits="userSpaceOnUse" x1="115.2" y1="159.7875" x2="120.9" y2="159.7875">
			<stop  offset="0" style="stop-color:#FB14D5"/>
			<stop  offset="1" style="stop-color:#E2414F"/>
		</linearGradient>
		<path class="st7" d="M118,162.6c-0.4,0-0.8-0.1-1.1-0.2c-0.3-0.2-0.6-0.4-0.9-0.6c-0.3-0.3-0.5-0.6-0.6-0.9
			c-0.1-0.4-0.2-0.8-0.2-1.1c0-0.8,0.3-1.5,0.8-2.1c0.3-0.3,0.6-0.5,0.9-0.6c0.7-0.3,1.5-0.3,2.3,0c0.3,0.2,0.6,0.4,0.9,0.6
			c0.5,0.5,0.8,1.3,0.8,2v0.2c0,0.1,0,0.1,0,0.1H116c0,0.3,0.1,0.6,0.2,0.9c0.1,0.2,0.3,0.5,0.5,0.7s0.4,0.3,0.6,0.4
			c0.2,0.1,0.5,0.2,0.8,0.2c0.2,0,0.4,0,0.5-0.1c0.2,0,0.3-0.1,0.5-0.2c0.2-0.1,0.3-0.2,0.4-0.3s0.2-0.3,0.3-0.4l0.6,0.2
			c-0.1,0.2-0.2,0.4-0.4,0.6c-0.3,0.4-0.8,0.6-1.3,0.7C118.6,162.5,118.3,162.6,118,162.6z M120.2,159.3c0-0.3-0.1-0.6-0.2-0.8
			s-0.3-0.5-0.4-0.6c-0.4-0.4-0.9-0.6-1.4-0.6c-0.3,0-0.5,0-0.8,0.1c-0.2,0.1-0.5,0.2-0.6,0.4c-0.2,0.2-0.3,0.4-0.4,0.7
			s-0.2,0.5-0.2,0.8L120.2,159.3L120.2,159.3z"/>
		<linearGradient id="SVGID_9_" gradientUnits="userSpaceOnUse" x1="122" y1="159.5" x2="126.8" y2="159.5">
			<stop  offset="0" style="stop-color:#FB14D5"/>
			<stop  offset="1" style="stop-color:#E2414F"/>
		</linearGradient>
		<path class="st8" d="M126.8,162.5H126v-3.2c0-0.5-0.1-1-0.3-1.5c-0.2-0.3-0.6-0.5-0.9-0.5c-0.2,0-0.4,0-0.7,0.1
			c-0.2,0.1-0.4,0.2-0.6,0.3c-0.2,0.2-0.3,0.3-0.5,0.5c-0.1,0.2-0.3,0.4-0.3,0.6v3.5H122v-5.7h0.7v1.3c0.2-0.4,0.6-0.8,1-1
			c0.4-0.3,0.9-0.4,1.4-0.4c0.3,0,0.5,0.1,0.8,0.2c0.2,0.1,0.4,0.3,0.5,0.5s0.2,0.5,0.3,0.8c0.1,0.3,0.1,0.7,0.1,1V162.5z"/>
		<linearGradient id="SVGID_10_" gradientUnits="userSpaceOnUse" x1="128" y1="159.6" x2="133.1" y2="159.6">
			<stop  offset="0" style="stop-color:#FB14D5"/>
			<stop  offset="1" style="stop-color:#E2414F"/>
		</linearGradient>
		<path class="st9" d="M128,159.6c0-0.4,0.1-0.8,0.2-1.1c0.3-0.7,0.8-1.3,1.5-1.6c0.4-0.2,0.8-0.2,1.1-0.2c0.5,0,1,0.1,1.4,0.4
			c0.4,0.2,0.7,0.6,0.9,1l-0.7,0.2c-0.2-0.3-0.4-0.5-0.7-0.7c-0.5-0.3-1.2-0.3-1.8-0.1c-0.2,0.1-0.5,0.3-0.7,0.5s-0.3,0.5-0.4,0.7
			c-0.1,0.3-0.2,0.6-0.2,0.9c0,0.3,0.1,0.6,0.2,0.9c0.1,0.3,0.3,0.5,0.4,0.7c0.2,0.2,0.4,0.4,0.7,0.5c0.2,0.1,0.5,0.2,0.8,0.2
			c0.2,0,0.4,0,0.5-0.1c0.2-0.1,0.3-0.1,0.5-0.2c0.1-0.1,0.3-0.2,0.4-0.3c0.1-0.1,0.2-0.2,0.2-0.4l0.7,0.2c-0.1,0.2-0.2,0.4-0.4,0.6
			c-0.2,0.2-0.3,0.3-0.5,0.4c-0.2,0.1-0.4,0.2-0.7,0.3s-0.5,0.1-0.8,0.1c-0.4,0-0.8-0.1-1.1-0.2c-0.3-0.1-0.6-0.4-0.9-0.6
			c-0.3-0.3-0.5-0.6-0.6-0.9C128,160.4,128,160,128,159.6z"/>
		<linearGradient id="SVGID_11_" gradientUnits="userSpaceOnUse" x1="134.4" y1="159.55" x2="137.2" y2="159.55">
			<stop  offset="0" style="stop-color:#FB14D5"/>
			<stop  offset="1" style="stop-color:#E2414F"/>
		</linearGradient>
		<path class="st10" d="M137.2,157.4c-0.5,0-0.9,0.1-1.3,0.4c-0.4,0.3-0.7,0.6-0.8,1.1v3.5h-0.7v-5.7h0.7v1.4c0.2-0.4,0.5-0.7,0.9-1
			c0.3-0.2,0.7-0.4,1.1-0.4h0.1V157.4z"/>
		<linearGradient id="SVGID_12_" gradientUnits="userSpaceOnUse" x1="137.5" y1="160.85" x2="143.1" y2="160.85">
			<stop  offset="0" style="stop-color:#FB14D5"/>
			<stop  offset="1" style="stop-color:#E2414F"/>
		</linearGradient>
		<path class="st11" d="M138.5,164.2h0.2h0.2c0.1,0,0.2,0,0.3-0.1s0.2-0.1,0.2-0.2c0.1-0.2,0.2-0.3,0.2-0.5c0.1-0.2,0.2-0.6,0.4-0.9
			l-2.5-5.7h0.8l2.1,5l2-5h0.7l-2.9,7.3c-0.1,0.2-0.2,0.4-0.4,0.6c-0.2,0.2-0.5,0.2-0.8,0.2h-0.2h-0.2L138.5,164.2z"/>
		<linearGradient id="SVGID_13_" gradientUnits="userSpaceOnUse" x1="144.1" y1="160.75" x2="149.7" y2="160.75">
			<stop  offset="0" style="stop-color:#FB14D5"/>
			<stop  offset="1" style="stop-color:#E2414F"/>
		</linearGradient>
		<path class="st12" d="M147,162.6c-0.5,0-0.9-0.1-1.3-0.4c-0.4-0.2-0.7-0.5-0.9-0.9v3.5h-0.7v-8h0.7v1.1c0.2-0.4,0.5-0.7,0.9-0.9
			s0.8-0.3,1.2-0.3s0.7,0.1,1.1,0.2c0.3,0.2,0.6,0.4,0.9,0.7c0.2,0.3,0.4,0.6,0.6,0.9c0.1,0.4,0.2,0.7,0.2,1.1
			c0,0.4-0.1,0.8-0.2,1.1c-0.1,0.3-0.3,0.7-0.5,0.9c-0.2,0.3-0.5,0.5-0.8,0.6C147.7,162.5,147.4,162.6,147,162.6z M146.8,161.9
			c0.3,0,0.6-0.1,0.8-0.2c0.2-0.1,0.5-0.3,0.6-0.5c0.2-0.2,0.3-0.5,0.4-0.7c0.1-0.3,0.1-0.6,0.1-0.9c0-0.6-0.2-1.2-0.6-1.6
			c-0.2-0.2-0.4-0.4-0.7-0.5s-0.5-0.2-0.8-0.2c-0.2,0-0.4,0-0.6,0.1c-0.2,0.1-0.4,0.2-0.6,0.3c-0.2,0.1-0.3,0.3-0.5,0.4
			c-0.1,0.2-0.2,0.3-0.2,0.5v1.7c0.1,0.2,0.2,0.4,0.3,0.6c0.1,0.2,0.3,0.3,0.5,0.4c0.2,0.1,0.4,0.2,0.6,0.3
			C146.4,161.9,146.6,161.9,146.8,161.9z"/>
		<linearGradient id="SVGID_14_" gradientUnits="userSpaceOnUse" x1="150.1" y1="158.6" x2="153.5" y2="158.6">
			<stop  offset="0" style="stop-color:#FB14D5"/>
			<stop  offset="1" style="stop-color:#E2414F"/>
		</linearGradient>
		<path class="st13" d="M153.5,162.2l-0.2,0.1c-0.1,0-0.2,0.1-0.3,0.1s-0.2,0.1-0.4,0.1c-0.1,0-0.3,0-0.4,0c-0.2,0-0.3,0-0.5-0.1
			c-0.1,0-0.3-0.1-0.4-0.2c-0.1-0.1-0.2-0.2-0.3-0.4c-0.1-0.1-0.1-0.3-0.1-0.5v-4.1h-0.8v-0.6h0.8v-1.9h0.7v1.9h1.3v0.6h-1.3v3.9
			c0,0.2,0.1,0.3,0.2,0.5c0.1,0.1,0.3,0.2,0.5,0.1c0.2,0,0.4,0,0.6-0.1l0.3-0.1L153.5,162.2z"/>
		<linearGradient id="SVGID_15_" gradientUnits="userSpaceOnUse" x1="154.4" y1="158.5" x2="155.1" y2="158.5">
			<stop  offset="0" style="stop-color:#FB14D5"/>
			<stop  offset="1" style="stop-color:#E2414F"/>
		</linearGradient>
		<path class="st14" d="M154.4,155.6v-1.1h0.7v1.1H154.4z M154.4,162.5v-5.7h0.7v5.7H154.4z"/>
		<linearGradient id="SVGID_16_" gradientUnits="userSpaceOnUse" x1="156.375" y1="159.7375" x2="162.125" y2="159.7375">
			<stop  offset="0" style="stop-color:#FB14D5"/>
			<stop  offset="1" style="stop-color:#E2414F"/>
		</linearGradient>
		<path class="st15" d="M159.2,162.6c-0.4,0-0.8-0.1-1.1-0.2c-0.3-0.2-0.6-0.4-0.9-0.6c-0.3-0.3-0.4-0.6-0.6-0.9
			c-0.3-0.7-0.3-1.5,0-2.3c0.1-0.3,0.3-0.7,0.6-0.9c0.3-0.3,0.6-0.5,0.9-0.6c0.7-0.3,1.5-0.3,2.3,0c0.3,0.2,0.6,0.4,0.9,0.6
			c0.3,0.3,0.5,0.6,0.6,0.9c0.3,0.7,0.3,1.5,0,2.3c-0.1,0.3-0.3,0.7-0.6,0.9C160.7,162.2,160,162.6,159.2,162.6L159.2,162.6z
			 M157.1,159.6c0,0.3,0.1,0.6,0.2,0.9c0.1,0.3,0.2,0.5,0.4,0.7s0.4,0.4,0.6,0.5c0.3,0.1,0.5,0.2,0.8,0.2s0.6-0.1,0.8-0.2
			c0.3-0.1,0.5-0.3,0.7-0.5s0.3-0.5,0.4-0.7c0.2-0.6,0.2-1.2,0-1.8c-0.1-0.3-0.3-0.5-0.4-0.7c-0.2-0.2-0.4-0.4-0.7-0.5
			s-0.5-0.2-0.8-0.2s-0.5,0.1-0.8,0.2c-0.3,0.1-0.5,0.3-0.7,0.5s-0.3,0.5-0.4,0.7C157.2,159,157.1,159.3,157.1,159.6z"/>
		<linearGradient id="SVGID_17_" gradientUnits="userSpaceOnUse" x1="163.3" y1="159.5" x2="168.1" y2="159.5">
			<stop  offset="0" style="stop-color:#FB14D5"/>
			<stop  offset="1" style="stop-color:#E2414F"/>
		</linearGradient>
		<path class="st16" d="M168,162.5h-0.7v-3.2c0-0.5-0.1-1-0.3-1.5c-0.2-0.3-0.6-0.5-0.9-0.5c-0.2,0-0.4,0-0.7,0.1
			c-0.2,0.1-0.4,0.2-0.6,0.3c-0.2,0.2-0.4,0.3-0.5,0.5s-0.2,0.4-0.3,0.6v3.5h-0.7v-5.7h0.7v1.3c0.2-0.4,0.6-0.8,1-1
			c0.4-0.3,0.9-0.4,1.4-0.4c0.3,0,0.6,0.1,0.8,0.2c0.2,0.1,0.4,0.3,0.5,0.5s0.2,0.5,0.3,0.8s0.1,0.7,0.1,1L168,162.5z"/>
	</g>
</g>
<linearGradient id="SVGID_18_" gradientUnits="userSpaceOnUse" x1="1.788139e-07" y1="123.8" x2="247.9" y2="123.8">
	<stop  offset="0" style="stop-color:#FB14D5"/>
	<stop  offset="1" style="stop-color:#E2414F"/>
</linearGradient>
<path class="st17" d="M235.4,133.4l12.2-0.9l0.3-8.1l-12-1.7l-2.4-1.4c-0.1-3.8-0.4-7.6-0.9-11.4l2.1-1.4l11.7-3.6l-1.5-7.9l-12.1,1
	l-2.6-0.8c-0.8-3.2-1.8-6.4-2.9-9.5l1.8-1.8l10.8-5.9l-3.1-7.5L225.1,76l-2.8-0.3c-0.2-0.4-0.4-0.8-0.6-1.2c-1.4-2.7-2.9-5.4-4.5-8
	l1.4-2.1l9.2-8.1l-4.5-6.6l-10.6,5.9l-2.7,0.3c-2-2.5-4.1-5-6.4-7.3l0.9-2.3l7.3-9.8l-5.8-5.6l-9.2,8l-2.6,0.9
	c-2.6-2.1-5.2-4.1-7.9-6l0.4-2.5l5.1-11.1l-6.9-4.2l-7.3,9.7l-2.4,1.4c-3.1-1.6-6.3-3.1-9.6-4.5l-0.2-2.5L168,8l-7.6-2.7l-5.1,11
	l-2,1.9c-2.6-0.7-5.3-1.3-8-1.9l-0.7-2.5L145,1.6l-8-1.1l-3,11.8l-1.6,2.2c-3.3-0.2-6.6-0.4-9.9-0.3l-1.1-2.2l-2.2-12l-8,0.5
	l-0.4,12.2l-1.1,2.5c-3.5,0.5-6.9,1.1-10.4,1.9l-1.6-2L92.8,3.9L85,6.1l2.2,12l-0.6,2.7c-2.8,1-5.6,2.2-8.4,3.5l-2-1.6l-6.9-10.1
	l-7.1,3.8l4.5,11.3v2.8c-2.8,1.7-5.6,3.6-8.2,5.5l-2.2-1.2l-8.8-8.4l-6.2,5.2l6.8,10.1l0.5,2.7c-2.6,2.4-5,5-7.4,7.6l-2.4-0.7
	l-10.4-6.4l-5,6.4l8.8,8.4l1.1,2.5c-1.6,2.3-3.1,4.7-4.5,7.2l-2.5-0.2L14.9,65l-3.6,7.2l10.3,6.5l1.5,2.3c-1.3,3-2.4,6.1-3.4,9.3
	l-2.5,0.3L5,89l-2,7.8l11.4,4.3l2,1.9c-0.7,3.5-1.2,6.9-1.5,10.4l-2.4,0.9l-12.2,0.9l-0.3,8l12,1.7l2.4,1.4
	c0.1,3.8,0.4,7.6,0.9,11.4l-2.1,1.4l-11.7,3.6l1.4,7.9l12.1-1l2.7,0.9c0.8,3.2,1.7,6.3,2.8,9.5l-1.8,1.8L8,167.7l3.1,7.5l11.7-3.6
	l2.8,0.3c0.2,0.4,0.4,0.8,0.6,1.2c1.4,2.8,2.9,5.4,4.6,8l-1.4,2.1l-9.2,8.1l4.6,6.6l10.6-5.9l2.7-0.3c2,2.5,4.1,5,6.4,7.3l-0.9,2.3
	l-7.3,9.8l5.9,5.6l9.2-7.9l2.6-0.9c2.6,2.1,5.2,4.1,7.9,6l-0.4,2.5l-5.1,11.1l6.9,4.3l7.4-9.7l2.4-1.4c3.1,1.6,6.3,3.1,9.6,4.5
	l0.1,2.5l-2.6,12l7.6,2.6l5.1-11l2-1.9c2.6,0.7,5.3,1.3,8,1.9l0.6,2.5l-0.3,12.2l8,1.1l2.9-11.8l1.6-2.2c3.3,0.3,6.6,0.4,9.9,0.3
	l1.1,2.2l2.2,12l8.1-0.6l0.4-12.1l1.1-2.5c3.5-0.5,7-1.1,10.5-1.9l1.6,2l4.8,11.3l7.8-2.3l-2.2-12l0.6-2.7c2.8-1,5.6-2.2,8.4-3.4
	l2,1.6l6.9,10l7.1-3.8l-4.6-11.1v-2.8c2.8-1.7,5.6-3.6,8.2-5.5l2.2,1.2l8.9,8.4l6.2-5.1l-6.8-10.2l-0.5-2.7c2.6-2.4,5-5,7.3-7.6
	l2.4,0.6l10.5,6.4l5-6.4L216,188l-1.1-2.6c1.6-2.4,3.1-4.8,4.5-7.2l2.5,0.2l11.5,4.2l3.6-7.2l-10.3-6.5l-1.6-2.3
	c1.3-3,2.4-6.1,3.5-9.3l2.5-0.4l12,1.8l2-7.8l-11.4-4.2l-2-1.9c0.7-3.4,1.2-6.9,1.5-10.4L235.4,133.4z M123.7,225
	c-56,0-101.4-45.4-101.4-101.3S67.7,22.3,123.6,22.3S225,67.6,225,123.6l0,0C225,179.6,179.6,224.9,123.7,225z"/>
<linearGradient id="SVGID_19_" gradientUnits="userSpaceOnUse" x1="142.3296" y1="60.7104" x2="43.9592" y2="172.7104">
	<stop  offset="0" style="stop-color:#FB14D5"/>
	<stop  offset="1" style="stop-color:#E2414F"/>
</linearGradient>
<path class="st18" d="M163.5,93.6l-18-0.8c0.2-4.3-0.9-17.1-7.6-24.1c-3.5-3.6-8.1-5.3-14.3-5.3c-6.2,0-11,1.8-14.6,5.5
	c-8.3,8.4-8.1,24-8.1,24.1l-18,0.4c0-0.9-0.4-23.2,13.2-37.1c7.1-7.2,16.3-10.9,27.5-10.9c11.2,0,20.4,3.7,27.3,10.9
	C164.2,70.1,163.6,91.2,163.5,93.6z"/>
</svg>
