<?xml version="1.0" encoding="utf-8"?>
<!-- Generator: Adobe Illustrator 23.0.1, SVG Export Plug-In . SVG Version: 6.00 Build 0)  -->
<svg version="1.1" id="Layer_1" xmlns="http://www.w3.org/2000/svg" xmlns:xlink="http://www.w3.org/1999/xlink" x="0px" y="0px"
	 viewBox="0 0 247.9 247.6" style="enable-background:new 0 0 247.9 247.6;" xml:space="preserve">
<style type="text/css">
	.st0{opacity:0.17;fill:#DE1A25;enable-background:new    ;}
	.st1{fill:#DE1A25;}
	.st2{opacity:0.44;fill:#DE1A25;enable-background:new    ;}
</style>
<title>security</title>
<path class="st0" d="M116.6,150.1l1.2-7.1c-4.3-2.4-6.2-9.1-6.2-9.1c0-11.7,10.8-11.5,10.8-11.5c2.9-0.1,5.7,0.9,7.9,2.7
	c0,0,3.8,2.3,3.8,8.1c0,5.8-6.1,9.8-6.1,9.8l1.2,7.1h46.5V111c0-6.1-4.9-11-11-11H80.8c-6.1,0-11,4.9-11,11v39.1H116.6z"/>
<path class="st0" d="M69.8,167.9v5.1c0,6.1,4.9,11,11,11h83.6c6.1,0,11-4.9,11-11l0,0v-5.1L69.8,167.9z"/>
<path class="st1" d="M124.2,219.7c-17.5,0-34.5-4.7-49.7-13.8c-0.2-0.1-0.3-0.4-0.2-0.7c0.1-0.2,0.4-0.3,0.7-0.2
	c36.4,21.8,82,17.4,113.6-10.9c39.4-35.4,42.7-96.3,7.3-135.7C160.4,19,99.5,15.7,60.1,51.1C41,68.3,29.7,91.8,28.4,117.5
	c-1.4,25.6,7.3,50.3,24.5,69.3c0.2,0.2,0.2,0.5,0,0.7s-0.5,0.2-0.7,0c-17.3-19.3-26.1-44.2-24.7-70.1c1.4-25.9,12.8-49.7,32.1-67
	c39.8-35.8,101.3-32.5,137.1,7.4c35.8,39.8,32.5,101.3-7.4,137.1c-15.5,14-34.8,22.4-55.6,24.4C130.5,219.5,127.3,219.7,124.2,219.7
	z"/>
<path class="st0" d="M83,93.1c0,0-6.4-45.7,41.4-48.2c0,0,23-1.7,35.5,25.3c2.5,7.4,3.3,15.2,2.6,23h-19.9V81.6
	c0,0-3.2-15.9-20.5-15.9s-19.1,16.7-19.1,16.7L103,92.9C103,92.9,83,93,83,93.1z"/>
<path class="st1" d="M162.5,93.9h-19.9c-0.3,0-0.6-0.3-0.6-0.6v-8.8c0-7-3.8-13.4-9.8-16.8c-0.3-0.1-0.4-0.5-0.2-0.7l0,0
	c0.2-0.3,0.5-0.4,0.8-0.2c6.4,3.6,10.4,10.4,10.4,17.8v8.3h18.8v-8.3c0-21.6-17.5-39.2-39.2-39.2S83.6,62.9,83.6,84.5v8.3h18.8v-8.3
	c0-7.8,4.5-14.9,11.5-18.4c0.3-0.1,0.6,0,0.7,0.3c0.1,0.3,0,0.6-0.3,0.7l0,0c-6.6,3.3-10.8,10-10.8,17.4v8.9c0,0.3-0.3,0.6-0.6,0.6
	H83c-0.3,0-0.6-0.2-0.6-0.6v-8.9c0-22.2,18-40.3,40.3-40.3s40.3,18,40.3,40.3v8.9C163,93.7,162.8,93.9,162.5,93.9z"/>
<path class="st1" d="M175.7,120.8c-0.3,0-0.6-0.2-0.6-0.6v-9.4c0-5.8-4.7-10.5-10.5-10.5H80.8c-5.8,0-10.5,4.7-10.5,10.5l0,0
	c0,0.3-0.2,0.5-0.5,0.5c0,0,0,0,0,0l0,0c-0.3,0-0.5-0.2-0.5-0.5c0,0,0,0,0,0l0,0c0-6.4,5.2-11.6,11.6-11.6h83.9
	c6.4,0,11.6,5.2,11.6,11.6v9.4C176.3,120.6,176,120.9,175.7,120.8C175.7,120.9,175.7,120.9,175.7,120.8z"/>
<path class="st1" d="M129.3,69.7c-2.1,0-3.9-1.8-3.9-3.9c0-2.1,1.8-3.9,3.9-3.9c2.1,0,3.9,1.8,3.9,3.9c0,0.7-0.2,1.3-0.5,1.9
	c-0.5,0.9-1.3,1.5-2.3,1.8l0,0C130.1,69.7,129.7,69.7,129.3,69.7z M129.3,63.1c-1,0-2,0.5-2.4,1.4c-0.4,0.6-0.4,1.4-0.2,2.1
	c0.4,1.5,2,2.3,3.4,1.9c1.5-0.4,2.3-2,1.9-3.4C131.5,63.9,130.5,63.1,129.3,63.1L129.3,63.1z"/>
<path class="st1" d="M95.1,70.2c-0.6,0-1.3-0.2-1.8-0.5c-1.9-1-2.5-3.4-1.5-5.3c1-1.9,3.4-2.5,5.3-1.5c1.9,1,2.5,3.4,1.5,5.3
	c-0.5,0.9-1.3,1.5-2.3,1.8C95.9,70.2,95.5,70.2,95.1,70.2z M95.1,63.6c-0.3,0-0.5,0-0.8,0.1c-1.5,0.4-2.3,2-1.9,3.4
	c0.4,1.5,2,2.3,3.4,1.9s2.3-2,1.9-3.4C97.4,64.4,96.3,63.6,95.1,63.6z"/>
<path class="st1" d="M146,77c-2.1,0-3.9-1.7-3.9-3.9c0-2.1,1.7-3.9,3.9-3.9c2.1,0,3.9,1.7,3.9,3.9c0,1.7-1.1,3.2-2.8,3.7
	C146.7,76.9,146.4,77,146,77z M146,70.3c-0.3,0-0.5,0-0.8,0.1c-1.5,0.4-2.3,1.9-1.9,3.4c0.4,1.5,1.9,2.3,3.4,1.9s2.3-1.9,1.9-3.4
	c-0.2-0.7-0.7-1.3-1.3-1.7C146.9,70.4,146.5,70.3,146,70.3L146,70.3z"/>
<path class="st1" d="M103.7,60.6c-2.1,0-3.9-1.7-3.9-3.9c0-0.6,0.2-1.2,0.4-1.8c0.5-0.9,1.3-1.6,2.3-1.8c2-0.6,4.2,0.6,4.8,2.6
	c0.6,2-0.6,4.2-2.6,4.8l0,0C104.4,60.6,104,60.7,103.7,60.6z M103.7,54c-1.5,0-2.7,1.3-2.7,2.8s1.3,2.7,2.8,2.7c0.2,0,0.4,0,0.6-0.1
	l0,0c1.5-0.4,2.3-2,1.9-3.4C106,54.8,104.9,54,103.7,54z"/>
<path class="st1" d="M128,127.1c-2.2,0-3.9-1.7-3.9-3.9c0-2.2,1.7-3.9,3.9-3.9c2.2,0,3.9,1.7,3.9,3.9c0,1.7-1.1,3.3-2.8,3.8l0,0
	C128.7,127,128.4,127.1,128,127.1z M128,120.5c-0.3,0-0.5,0-0.8,0.1c-1.5,0.4-2.3,1.9-1.9,3.4c0.4,1.5,1.9,2.3,3.4,1.9
	c1.5-0.4,2.3-1.9,1.9-3.4C130.3,121.3,129.2,120.5,128,120.5z"/>
<path class="st1" d="M69.8,126.3c-2.1,0-3.9-1.8-3.9-3.9c0-2.1,1.8-3.9,3.9-3.9c2.1,0,3.9,1.8,3.9,3.9c0,0.7-0.2,1.3-0.5,1.9
	c-0.5,0.9-1.3,1.5-2.3,1.8l0,0C70.6,126.3,70.2,126.3,69.8,126.3z M69.8,119.7c-0.3,0-0.5,0-0.8,0.1c-1.4,0.5-2.2,2.1-1.7,3.5
	c0.5,1.3,1.8,2.1,3.2,1.8l0,0c0.7-0.2,1.3-0.7,1.7-1.3c0.3-0.6,0.4-1.4,0.2-2.1C72.2,120.5,71.1,119.7,69.8,119.7L69.8,119.7z"/>
<path class="st1" d="M109.7,149.9c-2.1,0-3.9-1.7-3.9-3.8c0-0.7,0.2-1.3,0.5-1.9c0.5-0.9,1.3-1.6,2.3-1.9c2-0.6,4.2,0.5,4.9,2.5
	c0.6,2-0.4,4.1-2.4,4.8l-0.4,0.1l0,0C110.4,149.9,110.1,150,109.7,149.9z M109.7,143.3c-0.3,0-0.5,0-0.8,0.1
	c-1.5,0.4-2.3,1.9-1.9,3.4c0,0,0,0,0,0c0.4,1.5,1.9,2.3,3.4,1.9l0,0c1.5-0.4,2.3-2,1.8-3.5C112,144.1,110.9,143.3,109.7,143.3
	L109.7,143.3z"/>
<path class="st1" d="M119.4,116.5H119c-2.1-0.2-3.7-2.1-3.5-4.2l0,0c0.1-1,0.6-2,1.4-2.6c0.8-0.6,1.8-1,2.8-0.9
	c2.1,0.2,3.7,2.1,3.5,4.2l0,0C123.1,115,121.4,116.5,119.4,116.5z M119.4,109.9c-1.5,0-2.7,1.3-2.7,2.8c0,1.4,1.1,2.5,2.4,2.7
	c0.7,0.1,1.4-0.2,2-0.6c0.6-0.5,0.9-1.1,1-1.9l0,0c0.1-1.5-1-2.8-2.5-3l0,0L119.4,109.9z"/>
<path class="st1" d="M142,112.6h-0.4c-2.1-0.1-3.7-1.9-3.6-4c0.1-2.1,1.9-3.7,4-3.6s3.7,1.9,3.6,4C145.5,110.9,144,112.5,142,112.6z
	 M142,106c-1.6,0.1-2.8,1.4-2.7,3c0.1,1.6,1.4,2.8,3,2.7c1.6-0.1,2.8-1.4,2.7-3c-0.1-1.5-1.2-2.7-2.7-2.7H142z"/>
<path class="st1" d="M78.7,113.7h-0.4c-2.1-0.1-3.7-1.9-3.6-4c0.1-2.1,1.9-3.7,4-3.6s3.7,1.9,3.6,4C82.3,112,80.7,113.6,78.7,113.7z
	 M78.7,107.1c-1.6,0.1-2.8,1.4-2.7,3c0.1,1.6,1.4,2.8,3,2.7c1.6-0.1,2.8-1.4,2.7-3c-0.1-1.4-1.2-2.6-2.7-2.7l0,0H78.7z"/>
<path class="st1" d="M160.1,137.7c-2.1,0-3.9-1.7-3.9-3.9c0-2.1,1.7-3.9,3.9-3.9c2.1,0,3.9,1.7,3.9,3.9c0,1.7-1.1,3.2-2.8,3.7l0,0
	C160.8,137.7,160.5,137.7,160.1,137.7z M160.1,131.1c-0.3,0-0.5,0-0.8,0.1c-1.5,0.4-2.4,1.9-2,3.3c0.4,1.5,1.9,2.4,3.3,2
	c0.1,0,0.1,0,0.2-0.1l0,0c1.5-0.4,2.3-1.9,1.9-3.4l0,0c-0.2-0.7-0.7-1.3-1.3-1.6C161.1,131.2,160.6,131.1,160.1,131.1L160.1,131.1z"
	/>
<path class="st1" d="M138.2,178.4c-2.1,0.1-4-1.5-4.1-3.7c-0.1-2.1,1.5-4,3.7-4.1c0.1,0,0.3,0,0.4,0c0.7,0,1.3,0.2,1.9,0.5
	c1.9,1,2.5,3.4,1.5,5.2c-0.5,0.9-1.3,1.6-2.3,1.8l0,0C139,178.3,138.6,178.4,138.2,178.4z M138.2,171.7c-0.3,0-0.5,0-0.8,0.1
	c-1.4,0.5-2.2,2-1.8,3.5c0.5,1.4,1.9,2.2,3.3,1.8l0,0c1.5-0.4,2.3-2,1.9-3.4l0,0C140.5,172.5,139.4,171.7,138.2,171.7L138.2,171.7z"
	/>
<path class="st1" d="M71.8,207.5c-2.1-0.1-3.8-1.9-3.7-4.1c0.1-2,1.7-3.6,3.7-3.7c0.7,0,1.3,0.2,1.9,0.5c1.9,1,2.5,3.4,1.5,5.3
	c-0.5,0.9-1.3,1.6-2.3,1.8l0,0C72.5,207.4,72.1,207.5,71.8,207.5z M71.8,200.8c-0.3,0-0.5,0.1-0.8,0.1c-1.4,0.5-2.2,2.1-1.7,3.5
	c0.5,1.3,1.9,2.1,3.2,1.8l0,0c1.5-0.4,2.3-1.9,1.9-3.4l0,0C74.1,201.6,73,200.8,71.8,200.8L71.8,200.8z"/>
<path class="st1" d="M175.5,127.5c-2.1-0.1-3.8-1.9-3.7-4.1c0.1-2,1.7-3.6,3.7-3.7c0.6,0,1.3,0.2,1.8,0.5c1.9,1,2.6,3.4,1.5,5.2
	C178.1,126.7,176.8,127.5,175.5,127.5L175.5,127.5z M175.5,120.8c-0.3,0-0.5,0-0.8,0.1c-1.5,0.4-2.3,1.9-1.9,3.4
	c0.4,1.5,1.9,2.3,3.4,1.9s2.3-1.9,1.9-3.4C177.8,121.7,176.7,120.8,175.5,120.8z"/>
<path class="st1" d="M85.7,142.8H74.8c-0.3,0-0.6-0.2-0.6-0.6l0,0l0,0v-10.4c0-0.3,0.2-0.5,0.5-0.6h28.3c0.2,0,0.3,0.1,0.4,0.2
	c0.1,0.1,0.2,0.3,0.1,0.4c0,0.1-0.4,7.8,3.5,11.7c0.2,0.2,0.2,0.6,0,0.8l0,0c-0.2,0.2-0.6,0.2-0.8,0c-3.6-3.6-3.9-10-3.9-12H75.4
	v9.3h10.3c0.3,0,0.5,0.2,0.6,0.5l0,0C86.3,142.5,86.1,142.7,85.7,142.8C85.7,142.8,85.7,142.8,85.7,142.8z"/>
<path class="st1" d="M156.6,134.4h-15.2c-0.3,0-0.5-0.2-0.6-0.5l0,0c0-10.6-4.9-14.2-4.9-14.3c-0.2-0.2-0.3-0.5-0.1-0.8
	c0.2-0.2,0.5-0.3,0.8-0.1c0,0,0,0,0,0l0,0c0.2,0.1,5.2,3.8,5.4,14.6h14.6c0.3,0,0.6,0.3,0.6,0.6
	C157.1,134.2,156.9,134.5,156.6,134.4L156.6,134.4z"/>
<path class="st1" d="M166.9,175.6h-25.3c-0.3,0-0.5-0.2-0.5-0.5c0,0,0,0,0,0l0,0c0-0.3,0.2-0.5,0.5-0.6h25.3c0.3,0,0.6,0.3,0.5,0.6
	C167.4,175.4,167.2,175.6,166.9,175.6z"/>
<path class="st1" d="M104.5,123H76.1c-0.3,0-0.5-0.2-0.5-0.5c0,0,0,0,0,0l0,0c0-0.3,0.2-0.5,0.5-0.6h28.1c0.8-1.8,4.7-9.7,11.9-9.7
	c0.3,0,0.5,0.2,0.6,0.5l0,0c0,0.3-0.3,0.6-0.6,0.6c-7.1,0-11,9.3-11,9.4C104.9,122.9,104.7,123.1,104.5,123z"/>
<path class="st1" d="M106.7,110.7H82c-0.3,0-0.6-0.3-0.6-0.6c0-0.3,0.3-0.6,0.6-0.6c0,0,0,0,0,0h24.7c0.3,0,0.6,0.3,0.6,0.6
	C107.3,110.4,107,110.7,106.7,110.7C106.7,110.7,106.7,110.7,106.7,110.7z"/>
<path class="st1" d="M169.7,126.7h-20.9c-0.3,0-0.5-0.3-0.6-0.6c0-0.3,0.2-0.6,0.6-0.6l0,0h20.4v-12.2c0.1-2.4-1.8-4.4-4.2-4.4
	c0,0,0,0,0,0h-19.4c-0.3,0-0.6-0.3-0.6-0.6c0-0.3,0.3-0.6,0.6-0.6h19.3c0.1,0,5.5,0.2,5.5,5.5v12.8c0,0.3-0.2,0.6-0.5,0.6
	c0,0,0,0,0,0L169.7,126.7z"/>
<path class="st1" d="M95.8,88.1h-6.6c-0.3,0-0.6-0.2-0.6-0.5c0,0,0,0,0,0l0,0c0-13.2,4-18.6,4.2-18.8c0.2-0.2,0.5-0.3,0.8-0.1
	c0.2,0.2,0.3,0.5,0.1,0.8l0,0c0,0.1-3.8,5.3-3.9,17.6h5.5c-0.1-1.7-0.3-6.8,0.9-10.2c0.1-0.3,0.4-0.4,0.6-0.3c0,0,0,0,0,0l0,0
	c0.3,0.1,0.4,0.4,0.3,0.7c-1.4,3.9-0.8,10.2-0.8,10.3c0,0.2,0,0.3-0.1,0.4C96.1,88,95.9,88.1,95.8,88.1z"/>
<path class="st1" d="M144.3,70.5c-0.2,0-0.4-0.1-0.5-0.3c-0.1-0.1-7.3-12.2-22.1-12.2s-19.2,9.9-19.2,10c-0.1,0.3-0.4,0.4-0.7,0.3
	c-0.3-0.1-0.4-0.4-0.3-0.7c0,0,0,0,0,0c0-0.1,4.7-10.6,20.3-10.6s23,12.6,23,12.8c0.1,0.3,0.1,0.6-0.2,0.8
	C144.5,70.4,144.4,70.4,144.3,70.5z"/>
<path class="st1" d="M157,88.2h-9c-0.3,0-0.5-0.2-0.5-0.5c0,0,0,0,0,0l0,0c0-0.3,0.2-0.5,0.5-0.5c0,0,0,0,0,0h8.5
	c0.1-3.4,0.2-23-15.8-31.8c-17.5-9.7-33.6-0.5-33.8-0.4c-0.3,0.2-0.6,0.1-0.7-0.2c0,0,0,0,0,0l0,0c-0.2-0.3-0.1-0.6,0.2-0.8
	c0,0,0,0,0,0c0.2-0.1,16.8-9.6,34.9,0.4s16.4,33.2,16.4,33.4C157.4,88,157.2,88.2,157,88.2z"/>
<path class="st1" d="M176.3,150.2v-17.7c0-0.3-0.2-0.5-0.5-0.5l0,0c-0.3,0-0.6,0.3-0.6,0.6v17.7H176.3z"/>
<path class="st1" d="M70.3,150.2v-24.4c0-0.3-0.3-0.6-0.6-0.6c-0.3,0-0.5,0.3-0.5,0.6v24.4H70.3z"/>
<path class="st1" d="M175.2,168v4.8c0,5.8-4.7,10.5-10.5,10.5H80.8c-5.8,0-10.5-4.7-10.5-10.5V168h-1.1v4.7
	c0,6.4,5.2,11.5,11.6,11.6h83.9c6.4,0,11.5-5.2,11.6-11.6V168H175.2z"/>
<path class="st1" d="M117.2,143.1l-1.2,7.1h1.1l1.2-7.3c0-0.2-0.1-0.5-0.3-0.6c-5.2-2.6-7.3-8.8-4.7-14c0.9-1.8,2.2-3.3,3.9-4.3l0,0
	c0.3-0.1,0.4-0.5,0.2-0.7s-0.5-0.4-0.7-0.2c0,0-0.1,0-0.1,0c-5.4,3.3-7.2,10.4-3.9,15.9C113.9,140.7,115.4,142.2,117.2,143.1
	L117.2,143.1z"/>
<path class="st1" d="M129.5,150.2l-1.2-7.1c1-0.5,1.9-1.2,2.6-2c4.5-4.5,4.5-11.8,0-16.3c-0.2-0.2-0.6-0.2-0.8,0.1
	c-0.2,0.2-0.2,0.5,0,0.7c4.1,4.1,4,10.7-0.1,14.8c-0.8,0.8-1.7,1.4-2.7,1.9c-0.2,0.1-0.3,0.3-0.3,0.6l1.2,7.3L129.5,150.2z"/>
<path class="st1" d="M181.7,168.3H63.3c-0.3,0-0.5-0.2-0.5-0.5V150c0-0.3,0.2-0.5,0.5-0.5h118.4c0.3,0,0.5,0.2,0.5,0.5v17.8
	C182.2,168.1,181.9,168.3,181.7,168.3z M63.8,167.3h117.4v-16.8H63.8V167.3z"/>
<path class="st1" d="M78.7,162.5c0-0.3,0-0.5,0.1-0.8c0-0.3,0.1-0.5,0.3-0.8c0.1-0.3,0.3-0.5,0.5-0.7c0.3-0.3,0.6-0.5,0.9-0.6
	l0.7-0.3c0.2-0.1,0.4-0.2,0.6-0.4c0.2-0.1,0.3-0.3,0.5-0.4c0.1-0.2,0.2-0.4,0.2-0.6c0-0.1,0-0.3-0.1-0.4c-0.1-0.1-0.2-0.3-0.3-0.4
	c-0.1-0.1-0.3-0.2-0.4-0.3c-0.4-0.1-0.9-0.1-1.3,0c-0.2,0.1-0.3,0.1-0.5,0.2c-0.1,0.1-0.3,0.2-0.4,0.3l-0.2,0.3l-0.5-0.5l0.3-0.2
	c0.1-0.1,0.3-0.3,0.5-0.4c0.2-0.1,0.5-0.2,0.7-0.3c0.3-0.1,0.6-0.1,0.9-0.1c0.3,0,0.6,0,0.9,0.1c0.2,0.1,0.5,0.2,0.7,0.4
	c0.2,0.2,0.3,0.3,0.4,0.6c0.2,0.5,0.2,1-0.1,1.4c-0.1,0.2-0.3,0.4-0.5,0.6c-0.2,0.2-0.4,0.3-0.6,0.4c-0.2,0.1-0.4,0.2-0.6,0.3
	s-0.5,0.2-0.7,0.4c-0.2,0.1-0.4,0.3-0.6,0.4c-0.2,0.1-0.3,0.3-0.4,0.5c-0.1,0.2-0.2,0.4-0.2,0.6h3.9v0.7L78.7,162.5z"/>
<path class="st1" d="M87,159c0.3,0,0.7,0.1,1,0.2c0.3,0.1,0.6,0.3,0.8,0.5c0.2,0.2,0.4,0.5,0.5,0.8c0.3,0.7,0.3,1.4,0,2.1
	c-0.1,0.3-0.3,0.6-0.6,0.8c-0.3,0.2-0.5,0.4-0.9,0.5c-0.3,0.1-0.7,0.2-1.1,0.2c-0.3,0-0.5,0-0.8-0.1c-0.2-0.1-0.5-0.2-0.7-0.3
	c-0.2-0.1-0.4-0.3-0.6-0.5c-0.2-0.2-0.3-0.4-0.4-0.6l0.5-0.4c0.2,0.4,0.5,0.6,0.8,0.9c0.3,0.2,0.7,0.3,1.2,0.3c0.3,0,0.5,0,0.8-0.1
	c0.2-0.1,0.4-0.2,0.6-0.4c0.2-0.2,0.3-0.4,0.4-0.6c0.1-0.2,0.1-0.5,0.1-0.8c0-0.3,0-0.5-0.1-0.7c-0.1-0.2-0.2-0.4-0.4-0.6
	c-0.2-0.2-0.4-0.3-0.6-0.4c-0.2-0.1-0.5-0.1-0.7-0.1c-0.3,0-0.7,0.1-1,0.2c-0.3,0.1-0.6,0.4-0.7,0.6h-0.7l0.1-0.3
	c0-0.1,0.1-0.3,0.1-0.6s0.1-0.4,0.1-0.7l0.1-0.8c0.1-0.6,0.3-1.3,0.4-2h3.7v0.7h-3.2l-0.5,2.8c0.2-0.2,0.4-0.4,0.7-0.5
	C86.3,159.1,86.6,159,87,159z"/>
<path class="st1" d="M96,159.9c0,0.3-0.1,0.7-0.2,1c-0.1,0.3-0.3,0.6-0.6,0.8c-0.3,0.2-0.5,0.4-0.9,0.6c-0.3,0.1-0.7,0.2-1.1,0.2
	c-0.4,0-0.8-0.1-1.1-0.2c-0.3-0.1-0.6-0.4-0.9-0.6c-0.3-0.3-0.5-0.6-0.6-1c-0.1-0.4-0.2-0.9-0.2-1.4c0-0.7,0.1-1.4,0.2-2.1
	c0.1-0.5,0.3-1,0.6-1.5c0.2-0.4,0.5-0.7,0.9-0.9c0.4-0.2,0.8-0.3,1.2-0.3c0.5,0,1,0.1,1.4,0.4c0.4,0.3,0.7,0.6,0.9,1.1l-0.5,0.4
	c-0.1-0.4-0.4-0.7-0.7-0.9c-0.3-0.2-0.7-0.3-1.1-0.3c-0.3,0-0.6,0.1-0.9,0.2c-0.3,0.2-0.5,0.4-0.7,0.7c-0.2,0.3-0.3,0.7-0.4,1.1
	c-0.1,0.5-0.2,0.9-0.2,1.4c0.2-0.4,0.4-0.8,0.8-1c0.4-0.3,0.9-0.4,1.3-0.4c0.3,0,0.7,0.1,1,0.2c0.3,0.1,0.6,0.3,0.8,0.6
	c0.2,0.2,0.4,0.5,0.6,0.8C95.9,159.2,96,159.6,96,159.9z M93.3,161.9c0.5,0,1-0.2,1.4-0.6c0.2-0.2,0.3-0.4,0.4-0.6
	c0.1-0.2,0.2-0.5,0.2-0.8c0-0.3-0.1-0.5-0.2-0.8c-0.1-0.2-0.3-0.5-0.4-0.6c-0.2-0.2-0.4-0.3-0.6-0.4c-0.5-0.2-1.1-0.2-1.6,0
	c-0.2,0.1-0.5,0.2-0.6,0.4c-0.2,0.2-0.3,0.4-0.4,0.6c-0.1,0.2-0.2,0.5-0.2,0.8c0,0.3,0.1,0.5,0.2,0.8c0.1,0.2,0.3,0.5,0.4,0.6
	c0.2,0.2,0.4,0.3,0.6,0.4C92.7,161.9,93,161.9,93.3,161.9L93.3,161.9z"/>
<path class="st1" d="M102.8,162.6c-0.4,0-0.9-0.1-1.2-0.3c-0.4-0.2-0.7-0.5-0.9-0.9v1.1h-0.7v-8h0.8v3.5c0.2-0.4,0.5-0.7,0.9-0.9
	c0.4-0.2,0.8-0.4,1.3-0.4c0.4,0,0.7,0.1,1.1,0.3c0.3,0.2,0.6,0.4,0.8,0.7c0.2,0.3,0.4,0.6,0.5,0.9c0.1,0.3,0.2,0.7,0.2,1.1
	c0,0.4-0.1,0.8-0.2,1.1c-0.1,0.3-0.3,0.7-0.6,0.9c-0.2,0.3-0.5,0.5-0.9,0.6C103.6,162.5,103.2,162.6,102.8,162.6z M102.7,161.9
	c0.3,0,0.6-0.1,0.9-0.2c0.3-0.1,0.5-0.3,0.7-0.5c0.2-0.2,0.3-0.5,0.4-0.7c0.1-0.3,0.2-0.6,0.2-0.9c0-0.3-0.1-0.6-0.1-0.9
	c-0.1-0.3-0.2-0.5-0.4-0.7c-0.2-0.2-0.4-0.4-0.6-0.5c-0.3-0.1-0.5-0.2-0.8-0.2c-0.2,0-0.4,0-0.6,0.1c-0.2,0.1-0.4,0.2-0.6,0.3
	c-0.2,0.1-0.3,0.3-0.4,0.4c-0.1,0.2-0.2,0.3-0.3,0.5v1.8c0,0.2,0.1,0.4,0.2,0.6c0.1,0.2,0.3,0.3,0.5,0.4c0.2,0.1,0.4,0.2,0.6,0.3
	C102.3,161.9,102.5,161.9,102.7,161.9L102.7,161.9z"/>
<path class="st1" d="M106.8,155.6v-1.1h0.7v1.1H106.8z M106.8,162.5v-5.7h0.7v5.7H106.8z"/>
<path class="st1" d="M111.8,162.2l-0.2,0.1c-0.1,0-0.2,0.1-0.3,0.1c-0.1,0-0.2,0.1-0.4,0.1c-0.1,0-0.3,0-0.4,0c-0.2,0-0.3,0-0.4-0.1
	c-0.1,0-0.3-0.1-0.4-0.2c-0.1-0.1-0.2-0.2-0.3-0.4c-0.1-0.2-0.1-0.3-0.1-0.5v-4.1h-0.8v-0.6h0.8v-1.9h0.8v1.9h1.3v0.6h-1.3v3.9
	c0,0.2,0.1,0.4,0.2,0.5c0.1,0.1,0.3,0.2,0.5,0.1c0.2,0,0.4,0,0.6-0.1l0.3-0.1L111.8,162.2z"/>
<path class="st1" d="M118,162.6c-0.4,0-0.8-0.1-1.1-0.2c-0.3-0.2-0.6-0.4-0.9-0.6c-0.3-0.3-0.5-0.6-0.6-0.9
	c-0.1-0.4-0.2-0.8-0.2-1.1c0-0.8,0.3-1.5,0.8-2.1c0.3-0.3,0.6-0.5,0.9-0.6c0.7-0.3,1.5-0.3,2.3,0c0.3,0.2,0.6,0.4,0.9,0.6
	c0.5,0.5,0.8,1.3,0.8,2v0.2c0,0.1,0,0.1,0,0.1H116c0,0.3,0.1,0.6,0.2,0.9c0.1,0.2,0.3,0.5,0.5,0.7c0.2,0.2,0.4,0.3,0.6,0.4
	c0.2,0.1,0.5,0.2,0.8,0.2c0.2,0,0.4,0,0.5-0.1c0.2,0,0.3-0.1,0.5-0.2c0.2-0.1,0.3-0.2,0.4-0.3c0.1-0.1,0.2-0.3,0.3-0.4l0.6,0.2
	c-0.1,0.2-0.2,0.4-0.4,0.6c-0.3,0.4-0.8,0.6-1.3,0.7C118.6,162.5,118.3,162.6,118,162.6z M120.2,159.3c0-0.3-0.1-0.6-0.2-0.8
	c-0.1-0.2-0.3-0.5-0.4-0.6c-0.4-0.4-0.9-0.6-1.4-0.6c-0.3,0-0.5,0-0.8,0.1c-0.2,0.1-0.5,0.2-0.6,0.4c-0.2,0.2-0.3,0.4-0.4,0.7
	c-0.1,0.3-0.2,0.5-0.2,0.8H120.2z"/>
<path class="st1" d="M126.8,162.5H126v-3.2c0-0.5-0.1-1-0.3-1.5c-0.2-0.3-0.6-0.5-0.9-0.5c-0.2,0-0.4,0-0.7,0.1
	c-0.2,0.1-0.4,0.2-0.6,0.3c-0.2,0.2-0.3,0.3-0.5,0.5c-0.1,0.2-0.3,0.4-0.3,0.6v3.5H122v-5.7h0.7v1.3c0.2-0.4,0.6-0.8,1-1
	c0.4-0.3,0.9-0.4,1.4-0.4c0.3,0,0.5,0.1,0.8,0.2c0.2,0.1,0.4,0.3,0.5,0.5c0.1,0.2,0.2,0.5,0.3,0.8c0.1,0.3,0.1,0.7,0.1,1
	L126.8,162.5z"/>
<path class="st1" d="M128,159.6c0-0.4,0.1-0.8,0.2-1.1c0.3-0.7,0.8-1.3,1.5-1.6c0.4-0.2,0.8-0.2,1.1-0.2c0.5,0,1,0.1,1.4,0.4
	c0.4,0.2,0.7,0.6,0.9,1l-0.7,0.2c-0.2-0.3-0.4-0.5-0.7-0.7c-0.5-0.3-1.2-0.3-1.8-0.1c-0.2,0.1-0.5,0.3-0.7,0.5
	c-0.2,0.2-0.3,0.5-0.4,0.7c-0.1,0.3-0.2,0.6-0.2,0.9c0,0.3,0.1,0.6,0.2,0.9c0.1,0.3,0.3,0.5,0.4,0.7c0.2,0.2,0.4,0.4,0.7,0.5
	c0.2,0.1,0.5,0.2,0.8,0.2c0.2,0,0.4,0,0.5-0.1c0.2-0.1,0.3-0.1,0.5-0.2c0.1-0.1,0.3-0.2,0.4-0.3c0.1-0.1,0.2-0.2,0.2-0.4l0.7,0.2
	c-0.1,0.2-0.2,0.4-0.4,0.6c-0.2,0.2-0.3,0.3-0.5,0.4c-0.2,0.1-0.4,0.2-0.7,0.3c-0.3,0.1-0.5,0.1-0.8,0.1c-0.4,0-0.8-0.1-1.1-0.2
	c-0.3-0.1-0.6-0.4-0.9-0.6c-0.3-0.3-0.5-0.6-0.6-0.9C128,160.4,128,160,128,159.6z"/>
<path class="st1" d="M137.2,157.4c-0.5,0-0.9,0.1-1.3,0.4c-0.4,0.3-0.7,0.6-0.8,1.1v3.5h-0.7v-5.7h0.7v1.4c0.2-0.4,0.5-0.7,0.9-1
	c0.3-0.2,0.7-0.4,1.1-0.4h0.1V157.4z"/>
<path class="st1" d="M138.5,164.2h0.2h0.2c0.1,0,0.2,0,0.3-0.1c0.1-0.1,0.2-0.1,0.2-0.2c0.1-0.2,0.2-0.3,0.2-0.5
	c0.1-0.2,0.2-0.6,0.4-0.9l-2.5-5.7h0.8l2.1,5l2-5h0.7l-2.9,7.3c-0.1,0.2-0.2,0.4-0.4,0.6c-0.2,0.2-0.5,0.2-0.8,0.2h-0.2h-0.2
	L138.5,164.2z"/>
<path class="st1" d="M147,162.6c-0.5,0-0.9-0.1-1.3-0.4c-0.4-0.2-0.7-0.5-0.9-0.9v3.5h-0.7v-8h0.7v1.1c0.2-0.4,0.5-0.7,0.9-0.9
	c0.4-0.2,0.8-0.3,1.2-0.3c0.4,0,0.7,0.1,1.1,0.2c0.3,0.2,0.6,0.4,0.9,0.7c0.2,0.3,0.4,0.6,0.6,0.9c0.1,0.4,0.2,0.7,0.2,1.1
	c0,0.4-0.1,0.8-0.2,1.1c-0.1,0.3-0.3,0.7-0.5,0.9c-0.2,0.3-0.5,0.5-0.8,0.6C147.7,162.5,147.4,162.6,147,162.6z M146.8,161.9
	c0.3,0,0.6-0.1,0.8-0.2c0.2-0.1,0.5-0.3,0.6-0.5c0.2-0.2,0.3-0.5,0.4-0.7c0.1-0.3,0.1-0.6,0.1-0.9c0-0.6-0.2-1.2-0.6-1.6
	c-0.2-0.2-0.4-0.4-0.7-0.5c-0.3-0.1-0.5-0.2-0.8-0.2c-0.2,0-0.4,0-0.6,0.1c-0.2,0.1-0.4,0.2-0.6,0.3c-0.2,0.1-0.3,0.3-0.5,0.4
	c-0.1,0.2-0.2,0.3-0.2,0.5v1.7c0.1,0.2,0.2,0.4,0.3,0.6c0.1,0.2,0.3,0.3,0.5,0.4c0.2,0.1,0.4,0.2,0.6,0.3
	C146.4,161.9,146.6,161.9,146.8,161.9z"/>
<path class="st1" d="M153.5,162.2l-0.2,0.1c-0.1,0-0.2,0.1-0.3,0.1c-0.1,0-0.2,0.1-0.4,0.1c-0.1,0-0.3,0-0.4,0c-0.2,0-0.3,0-0.5-0.1
	c-0.1,0-0.3-0.1-0.4-0.2c-0.1-0.1-0.2-0.2-0.3-0.4c-0.1-0.1-0.1-0.3-0.1-0.5v-4.1h-0.8v-0.6h0.8v-1.9h0.7v1.9h1.3v0.6h-1.3v3.9
	c0,0.2,0.1,0.3,0.2,0.5c0.1,0.1,0.3,0.2,0.5,0.1c0.2,0,0.4,0,0.6-0.1l0.3-0.1L153.5,162.2z"/>
<path class="st1" d="M154.4,155.6v-1.1h0.7v1.1H154.4z M154.4,162.5v-5.7h0.7v5.7H154.4z"/>
<path class="st1" d="M159.2,162.6c-0.4,0-0.8-0.1-1.1-0.2c-0.3-0.2-0.6-0.4-0.9-0.6c-0.3-0.3-0.4-0.6-0.6-0.9
	c-0.3-0.7-0.3-1.5,0-2.3c0.1-0.3,0.3-0.7,0.6-0.9c0.3-0.3,0.6-0.5,0.9-0.6c0.7-0.3,1.5-0.3,2.3,0c0.3,0.2,0.6,0.4,0.9,0.6
	c0.3,0.3,0.5,0.6,0.6,0.9c0.3,0.7,0.3,1.5,0,2.3c-0.1,0.3-0.3,0.7-0.6,0.9C160.7,162.2,160,162.6,159.2,162.6L159.2,162.6z
	 M157.1,159.6c0,0.3,0.1,0.6,0.2,0.9c0.1,0.3,0.2,0.5,0.4,0.7c0.2,0.2,0.4,0.4,0.6,0.5c0.3,0.1,0.5,0.2,0.8,0.2
	c0.3,0,0.6-0.1,0.8-0.2c0.3-0.1,0.5-0.3,0.7-0.5c0.2-0.2,0.3-0.5,0.4-0.7c0.2-0.6,0.2-1.2,0-1.8c-0.1-0.3-0.3-0.5-0.4-0.7
	c-0.2-0.2-0.4-0.4-0.7-0.5c-0.3-0.1-0.5-0.2-0.8-0.2c-0.3,0-0.5,0.1-0.8,0.2c-0.3,0.1-0.5,0.3-0.7,0.5c-0.2,0.2-0.3,0.5-0.4,0.7
	C157.2,159,157.1,159.3,157.1,159.6z"/>
<path class="st1" d="M168,162.5h-0.7v-3.2c0-0.5-0.1-1-0.3-1.5c-0.2-0.3-0.6-0.5-0.9-0.5c-0.2,0-0.4,0-0.7,0.1
	c-0.2,0.1-0.4,0.2-0.6,0.3c-0.2,0.2-0.4,0.3-0.5,0.5c-0.1,0.2-0.2,0.4-0.3,0.6v3.5h-0.7v-5.7h0.7v1.3c0.2-0.4,0.6-0.8,1-1
	c0.4-0.3,0.9-0.4,1.4-0.4c0.3,0,0.6,0.1,0.8,0.2c0.2,0.1,0.4,0.3,0.5,0.5c0.1,0.2,0.2,0.5,0.3,0.8c0.1,0.3,0.1,0.7,0.1,1L168,162.5z
	"/>
<path class="st2" d="M235.4,133.4l12.2-0.9l0.3-8.1l-12-1.7l-2.4-1.4c-0.1-3.8-0.4-7.6-0.9-11.4l2.1-1.4l11.7-3.6l-1.5-7.9l-12.1,1
	l-2.6-0.8c-0.8-3.2-1.8-6.4-2.9-9.5l1.8-1.8l10.8-5.9l-3.1-7.5L225.1,76l-2.8-0.3c-0.2-0.4-0.4-0.8-0.6-1.2c-1.4-2.7-2.9-5.4-4.5-8
	l1.4-2.1l9.2-8.1l-4.5-6.6l-10.6,5.9l-2.7,0.3c-2-2.5-4.1-5-6.4-7.3l0.9-2.3l7.3-9.8l-5.8-5.6l-9.2,8l-2.6,0.9
	c-2.6-2.1-5.2-4.1-7.9-6l0.4-2.5l5.1-11.1l-6.9-4.2l-7.3,9.7l-2.4,1.4c-3.1-1.6-6.3-3.1-9.6-4.5l-0.2-2.5L168,8l-7.6-2.7l-5.1,11
	l-2,1.9c-2.6-0.7-5.3-1.3-8-1.9l-0.7-2.5l0.4-12.2l-8-1.1L134,12.3l-1.6,2.2c-3.3-0.2-6.6-0.4-9.9-0.3l-1.1-2.2l-2.2-12l-8,0.5
	l-0.4,12.2l-1.1,2.5c-3.5,0.5-6.9,1.1-10.4,1.9l-1.6-2L92.8,3.9L85,6.1l2.2,12l-0.6,2.7c-2.8,1-5.6,2.2-8.4,3.5l-2-1.6l-6.9-10.1
	l-7.1,3.8l4.5,11.3v2.8c-2.8,1.7-5.6,3.6-8.2,5.5l-2.2-1.2l-8.8-8.4l-6.2,5.2l6.8,10.1l0.5,2.7c-2.6,2.4-5,5-7.4,7.6l-2.4-0.7
	l-10.4-6.4l-5,6.4l8.8,8.4l1.1,2.5c-1.6,2.3-3.1,4.7-4.5,7.2l-2.5-0.2L14.9,65l-3.6,7.2l10.3,6.5l1.5,2.3c-1.3,3-2.4,6.1-3.4,9.3
	l-2.5,0.3L5,89L3,96.8l11.4,4.3l2,1.9c-0.7,3.5-1.2,6.9-1.5,10.4l-2.4,0.9l-12.2,0.9l-0.3,8l12,1.7l2.4,1.4
	c0.1,3.8,0.4,7.6,0.9,11.4l-2.1,1.4l-11.7,3.6l1.4,7.9l12.1-1l2.7,0.9c0.8,3.2,1.7,6.3,2.8,9.5l-1.8,1.8l-10.7,5.9l3.1,7.5l11.7-3.6
	l2.8,0.3c0.2,0.4,0.4,0.8,0.6,1.2c1.4,2.8,2.9,5.4,4.6,8l-1.4,2.1l-9.2,8.1l4.6,6.6l10.6-5.9l2.7-0.3c2,2.5,4.1,5,6.4,7.3l-0.9,2.3
	l-7.3,9.8l5.9,5.6l9.2-7.9l2.6-0.9c2.6,2.1,5.2,4.1,7.9,6l-0.4,2.5l-5.1,11.1l6.9,4.3l7.4-9.7l2.4-1.4c3.1,1.6,6.3,3.1,9.6,4.5
	l0.1,2.5l-2.6,12l7.6,2.6l5.1-11l2-1.9c2.6,0.7,5.3,1.3,8,1.9l0.6,2.5l-0.3,12.2l8,1.1l2.9-11.8l1.6-2.2c3.3,0.3,6.6,0.4,9.9,0.3
	l1.1,2.2l2.2,12l8.1-0.6l0.4-12.1l1.1-2.5c3.5-0.5,7-1.1,10.5-1.9l1.6,2l4.8,11.3l7.8-2.3l-2.2-12l0.6-2.7c2.8-1,5.6-2.2,8.4-3.4
	l2,1.6l6.9,10l7.1-3.8l-4.6-11.1v-2.8c2.8-1.7,5.6-3.6,8.2-5.5l2.2,1.2l8.9,8.4l6.2-5.1l-6.8-10.2l-0.5-2.7c2.6-2.4,5-5,7.3-7.6
	l2.4,0.6l10.5,6.4l5-6.4l-8.8-8.4l-1.1-2.6c1.6-2.4,3.1-4.8,4.5-7.2l2.5,0.2l11.5,4.2l3.6-7.2l-10.3-6.5l-1.6-2.3
	c1.3-3,2.4-6.1,3.5-9.3l2.5-0.4l12,1.8l2-7.8l-11.4-4.2l-2-1.9c0.7-3.4,1.2-6.9,1.5-10.4L235.4,133.4z M123.7,225
	c-56,0-101.4-45.4-101.4-101.3S67.7,22.3,123.6,22.3S225,67.6,225,123.6c0,0,0,0,0,0C225,179.6,179.6,224.9,123.7,225z"/>
</svg>
