<?xml version="1.0" encoding="utf-8"?>
<!-- Generator: Adobe Illustrator 23.0.1, SVG Export Plug-In . SVG Version: 6.00 Build 0)  -->
<svg version="1.1" id="Layer_1" xmlns="http://www.w3.org/2000/svg" xmlns:xlink="http://www.w3.org/1999/xlink" x="0px" y="0px"
	 viewBox="0 0 60 60" style="enable-background:new 0 0 60 60;" xml:space="preserve">
<style type="text/css">
	.st0{fill:#660000;}
</style>
<g>
	<circle class="st0" cx="30.1" cy="29" r="3"/>
	<circle class="st0" cx="20.5" cy="29" r="3"/>
	<circle class="st0" cx="40.1" cy="29" r="3"/>
	<path class="st0" d="M29.8,5.2c-13.8,0-25,11.2-25,25s11.2,25,25,25s25-11.2,25-25S43.6,5.2,29.8,5.2z M43.3,42.1h-2.2v7.3
		l-6.6-7.3H17.3c-2.1,0-3.8-1.7-3.8-3.8V20c0-2.1,1.7-3.8,3.8-3.8h25.9c2.1,0,3.9,1.7,3.9,3.8v18.3C47.1,40.4,45.4,42.1,43.3,42.1z"
		/>
</g>
</svg>
