<?xml version="1.0" encoding="utf-8"?>
<!-- Generator: Adobe Illustrator 23.0.1, SVG Export Plug-In . SVG Version: 6.00 Build 0)  -->
<svg version="1.1" id="Layer_1" xmlns="http://www.w3.org/2000/svg" xmlns:xlink="http://www.w3.org/1999/xlink" x="0px" y="0px"
	 viewBox="0 0 175.6 175.6" style="enable-background:new 0 0 175.6 175.6;" xml:space="preserve">
<style type="text/css">
	.st0{fill:url(#SVGID_1_);}
	.st1{fill:url(#SVGID_2_);}
	.st2{fill:url(#SVGID_3_);}
	.st3{fill:url(#SVGID_4_);}
	.st4{fill:url(#SVGID_5_);}
	.st5{fill:url(#SVGID_6_);}
	.st6{fill:url(#SVGID_7_);}
	.st7{fill:url(#SVGID_8_);}
	.st8{fill:url(#SVGID_9_);}
	.st9{fill:url(#SVGID_10_);}
	.st10{fill:url(#SVGID_11_);}
</style>
<title>free_forever</title>
<g>
	<g>
		<linearGradient id="SVGID_1_" gradientUnits="userSpaceOnUse" x1="74.0286" y1="136.7818" x2="72.2508" y2="44.5596">
			<stop  offset="0" style="stop-color:#FB14D5"/>
			<stop  offset="1" style="stop-color:#E2414F"/>
		</linearGradient>
		<path class="st0" d="M80.7,99.9c0.6-0.8,1.2-1.6,1.4-2.7c0.3-0.9,0.5-2,0.5-3.1c0-1.1-0.2-2.1-0.6-3.1c-0.3-0.9-0.9-1.9-1.6-2.7
			c-0.7-0.7-1.4-1.4-2.3-1.8c-0.9-0.5-1.9-0.7-2.9-0.7H63.9v16.6h11.6c1,0,2-0.2,2.9-0.7C79.3,101.2,80,100.6,80.7,99.9z"/>
		<linearGradient id="SVGID_2_" gradientUnits="userSpaceOnUse" x1="88.8769" y1="136.4955" x2="87.0991" y2="44.2733">
			<stop  offset="0" style="stop-color:#FB14D5"/>
			<stop  offset="1" style="stop-color:#E2414F"/>
		</linearGradient>
		<path class="st1" d="M134.6,75H41.7c-9.9,0-18,8.1-18,18v15.3c0,9.9,8.1,18,18,18h92.9c9.9,0,18-8.1,18-18V93
			C152.6,83.1,144.5,75,134.6,75z M55.3,85.9H36.2v13.3h16.3v2.1H36.2v16h-2.4V83.8h21.5V85.9z M82.8,117.3l-8-12.6H64v12.7h-2.4
			v-0.1V83.8h13.7c1.4,0,2.7,0.2,3.8,0.9c1.2,0.6,2.2,1.4,3,2.4c0.8,0.9,1.5,2.1,2,3.3s0.7,2.5,0.7,3.8c0,1.2-0.2,2.4-0.6,3.5
			c-0.3,1.1-0.9,2.1-1.6,3.1c-0.7,0.9-1.5,1.6-2.4,2.2c-0.9,0.6-2.1,0.9-3.1,1.2l8.3,13.1H82.8z M114,117.2H91.9V83.8h21.7v2.1H94.3
			v13.2h16.9v2.1H94.3v13.9H114V117.2z M142.5,117.2h-22.1V83.8h21.8v2.1h-19.3v13.2h16.9v2.1h-16.9v13.9h19.6V117.2z"/>
	</g>
	<g>
		<linearGradient id="SVGID_3_" gradientUnits="userSpaceOnUse" x1="38.6442" y1="137.4639" x2="36.8664" y2="45.2417">
			<stop  offset="0" style="stop-color:#FB14D5"/>
			<stop  offset="1" style="stop-color:#E2414F"/>
		</linearGradient>
		<path class="st2" d="M41.4,52.4c-0.4-0.5-1-0.9-1.7-1.2s-1.5-0.4-2.4-0.4c-1.3,0-2.3,0.3-2.9,0.8c-0.6,0.5-0.9,1.2-0.9,2
			c0,0.5,0.1,0.8,0.2,1.1c0.2,0.3,0.4,0.5,0.8,0.8c0.3,0.2,0.8,0.4,1.3,0.6c0.5,0.2,1.2,0.3,1.9,0.5c0.8,0.2,1.5,0.4,2.2,0.6
			c0.6,0.2,1.2,0.5,1.6,0.8c0.5,0.3,0.8,0.7,1,1.2s0.4,1,0.4,1.7c0,0.7-0.1,1.3-0.4,1.8c-0.3,0.5-0.6,0.9-1.1,1.3
			c-0.5,0.3-1.1,0.6-1.7,0.8C39,65,38.3,65,37.5,65c-2.3,0-4.3-0.7-6-2.2l0.7-1.2c0.3,0.3,0.6,0.6,1,0.8c0.4,0.3,0.8,0.5,1.2,0.7
			c0.5,0.2,0.9,0.3,1.5,0.4s1.1,0.2,1.7,0.2c1.2,0,2.1-0.2,2.8-0.6s1-1.1,1-2c0-0.5-0.1-0.9-0.3-1.2s-0.5-0.6-0.9-0.8
			s-0.9-0.4-1.4-0.6c-0.6-0.2-1.2-0.3-2-0.5s-1.5-0.4-2.1-0.6c-0.6-0.2-1.1-0.4-1.5-0.7s-0.7-0.7-0.9-1.1c-0.2-0.4-0.3-0.9-0.3-1.5
			c0-0.7,0.1-1.3,0.4-1.9c0.3-0.5,0.6-1,1.1-1.4s1-0.6,1.7-0.8c0.6-0.2,1.4-0.3,2.2-0.3c1,0,1.9,0.2,2.7,0.5s1.5,0.7,2.1,1.3
			L41.4,52.4z"/>
		<linearGradient id="SVGID_4_" gradientUnits="userSpaceOnUse" x1="51.6126" y1="137.2139" x2="49.8349" y2="44.9917">
			<stop  offset="0" style="stop-color:#FB14D5"/>
			<stop  offset="1" style="stop-color:#E2414F"/>
		</linearGradient>
		<path class="st3" d="M56.1,50.9h-5.4v13.7h-1.5V50.9h-5.4v-1.3h12.3V50.9z"/>
		<linearGradient id="SVGID_5_" gradientUnits="userSpaceOnUse" x1="65.2237" y1="136.9515" x2="63.4459" y2="44.7293">
			<stop  offset="0" style="stop-color:#FB14D5"/>
			<stop  offset="1" style="stop-color:#E2414F"/>
		</linearGradient>
		<path class="st4" d="M63.7,64.7c-1,0-2-0.2-2.9-0.6c-0.9-0.4-1.6-1-2.2-1.7c-0.6-0.7-1.1-1.5-1.4-2.4c-0.3-0.9-0.5-1.9-0.5-2.8
			c0-1,0.2-2,0.5-2.9c0.4-0.9,0.9-1.7,1.5-2.4s1.4-1.3,2.2-1.7c0.9-0.4,1.8-0.6,2.8-0.6s2,0.2,2.9,0.7c0.9,0.4,1.6,1,2.2,1.7
			s1.1,1.5,1.4,2.4s0.5,1.8,0.5,2.8s-0.2,2-0.5,2.9c-0.4,0.9-0.9,1.7-1.5,2.4s-1.4,1.3-2.2,1.7C65.7,64.6,64.7,64.7,63.7,64.7z
			 M58.1,57.1c0,0.8,0.1,1.6,0.4,2.4c0.3,0.8,0.6,1.4,1.1,2c0.5,0.6,1.1,1.1,1.8,1.4s1.4,0.5,2.3,0.5c0.8,0,1.6-0.2,2.3-0.6
			c0.7-0.4,1.3-0.8,1.8-1.4s0.9-1.3,1.1-2s0.4-1.5,0.4-2.3s-0.1-1.6-0.4-2.4c-0.3-0.8-0.7-1.4-1.2-2s-1.1-1-1.8-1.4
			c-0.7-0.3-1.4-0.5-2.2-0.5c-0.8,0-1.6,0.2-2.3,0.5c-0.7,0.4-1.3,0.8-1.8,1.4c-0.5,0.6-0.9,1.3-1.1,2
			C58.2,55.6,58.1,56.3,58.1,57.1z"/>
		<linearGradient id="SVGID_6_" gradientUnits="userSpaceOnUse" x1="80.4734" y1="136.6575" x2="78.6956" y2="44.4353">
			<stop  offset="0" style="stop-color:#FB14D5"/>
			<stop  offset="1" style="stop-color:#E2414F"/>
		</linearGradient>
		<path class="st5" d="M73.5,64.6v-15h6.4c0.6,0,1.2,0.1,1.8,0.4c0.5,0.3,1,0.6,1.4,1.1c0.4,0.4,0.7,1,0.9,1.5
			c0.2,0.6,0.3,1.1,0.3,1.7c0,0.6-0.1,1.1-0.2,1.6c-0.2,0.5-0.4,1-0.7,1.4c-0.3,0.4-0.6,0.7-1,1s-0.9,0.5-1.4,0.6l3.7,5.8H83
			l-3.5-5.5h-4.4v5.5L73.5,64.6L73.5,64.6z M75,57.8h4.9c0.4,0,0.8-0.1,1.2-0.3c0.4-0.2,0.7-0.4,0.9-0.8c0.3-0.3,0.5-0.7,0.6-1.1
			c0.1-0.4,0.2-0.8,0.2-1.3s-0.1-0.9-0.2-1.3c-0.2-0.4-0.4-0.8-0.7-1.1c-0.3-0.3-0.6-0.6-1-0.7c-0.4-0.2-0.8-0.3-1.2-0.3h-4.8
			L75,57.8L75,57.8z"/>
		<linearGradient id="SVGID_7_" gradientUnits="userSpaceOnUse" x1="93.7649" y1="136.4013" x2="91.9871" y2="44.1791">
			<stop  offset="0" style="stop-color:#FB14D5"/>
			<stop  offset="1" style="stop-color:#E2414F"/>
		</linearGradient>
		<path class="st6" d="M97.4,63.3v1.3H87.3v-15h9.9v1.3h-8.4v5.4h7.3v1.2h-7.3v5.7L97.4,63.3L97.4,63.3z"/>
		<linearGradient id="SVGID_8_" gradientUnits="userSpaceOnUse" x1="112.0581" y1="136.0487" x2="110.2803" y2="43.8265">
			<stop  offset="0" style="stop-color:#FB14D5"/>
			<stop  offset="1" style="stop-color:#E2414F"/>
		</linearGradient>
		<path class="st7" d="M105.6,64.6v-15h9.9v1.3h-8.4v5.5h7.1v1.2h-7.1v7H105.6z"/>
		<linearGradient id="SVGID_9_" gradientUnits="userSpaceOnUse" x1="125.3014" y1="135.7934" x2="123.5236" y2="43.5712">
			<stop  offset="0" style="stop-color:#FB14D5"/>
			<stop  offset="1" style="stop-color:#E2414F"/>
		</linearGradient>
		<path class="st8" d="M123.8,64.7c-1,0-2-0.2-2.9-0.6c-0.9-0.4-1.6-1-2.2-1.7s-1.1-1.5-1.4-2.4s-0.5-1.9-0.5-2.8c0-1,0.2-2,0.5-2.9
			c0.4-0.9,0.9-1.7,1.5-2.4s1.4-1.3,2.2-1.7c0.9-0.4,1.8-0.6,2.8-0.6s2,0.2,2.9,0.7c0.9,0.4,1.6,1,2.2,1.7c0.6,0.7,1.1,1.5,1.4,2.4
			c0.3,0.9,0.5,1.8,0.5,2.8s-0.2,2-0.5,2.9c-0.4,0.9-0.9,1.7-1.5,2.4s-1.4,1.3-2.2,1.7C125.8,64.5,124.8,64.7,123.8,64.7z
			 M118.3,57.1c0,0.8,0.1,1.6,0.4,2.4c0.3,0.8,0.6,1.4,1.1,2c0.5,0.6,1.1,1.1,1.8,1.4s1.4,0.5,2.3,0.5c0.8,0,1.6-0.2,2.3-0.6
			c0.7-0.4,1.3-0.8,1.8-1.4c0.5-0.6,0.9-1.3,1.1-2c0.3-0.7,0.4-1.5,0.4-2.3s-0.1-1.6-0.4-2.4c-0.3-0.8-0.7-1.4-1.2-2
			c-0.5-0.6-1.1-1-1.8-1.4c-0.7-0.3-1.4-0.5-2.2-0.5c-0.8,0-1.6,0.2-2.3,0.5c-0.7,0.4-1.3,0.8-1.8,1.4c-0.5,0.6-0.9,1.3-1.1,2
			C118.4,55.6,118.3,56.3,118.3,57.1z"/>
		<linearGradient id="SVGID_10_" gradientUnits="userSpaceOnUse" x1="140.651" y1="135.4975" x2="138.8732" y2="43.2753">
			<stop  offset="0" style="stop-color:#FB14D5"/>
			<stop  offset="1" style="stop-color:#E2414F"/>
		</linearGradient>
		<path class="st9" d="M133.7,64.6v-15h6.4c0.6,0,1.2,0.1,1.8,0.4c0.5,0.3,1,0.6,1.4,1.1c0.4,0.4,0.7,1,0.9,1.5
			c0.2,0.6,0.3,1.1,0.3,1.7c0,0.6-0.1,1.1-0.2,1.6c-0.2,0.5-0.4,1-0.7,1.4s-0.6,0.7-1,1s-0.9,0.5-1.4,0.6l3.7,5.8h-1.7l-3.5-5.5
			h-4.4v5.5L133.7,64.6L133.7,64.6z M135.2,57.8h4.9c0.4,0,0.8-0.1,1.2-0.3s0.7-0.4,0.9-0.8s0.5-0.7,0.6-1.1s0.2-0.8,0.2-1.3
			s-0.1-0.9-0.2-1.3c-0.2-0.4-0.4-0.8-0.7-1.1s-0.6-0.6-1-0.7c-0.4-0.2-0.8-0.3-1.2-0.3h-4.8v6.9H135.2z"/>
	</g>
</g>
<linearGradient id="SVGID_11_" gradientUnits="userSpaceOnUse" x1="34.235" y1="152.9965" x2="142.0128" y2="22.9965">
	<stop  offset="0" style="stop-color:#FB14D5"/>
	<stop  offset="1" style="stop-color:#E2414F"/>
</linearGradient>
<path class="st10" d="M88.2,173.8c-47.4,0-85.9-38.5-85.9-85.9S40.8,2,88.2,2s85.9,38.5,85.9,85.9S135.5,173.8,88.2,173.8z M88.2,10
	C45.2,10,10.3,45,10.3,87.9s34.9,77.9,77.9,77.9c42.9,0,77.9-34.9,77.9-77.9S131.1,10,88.2,10z"/>
</svg>
