<?xml version="1.0" encoding="utf-8"?>
<!-- Generator: Adobe Illustrator 23.0.1, SVG Export Plug-In . SVG Version: 6.00 Build 0)  -->
<svg version="1.1" id="Layer_1" xmlns="http://www.w3.org/2000/svg" xmlns:xlink="http://www.w3.org/1999/xlink" x="0px" y="0px"
	 viewBox="0 0 175.6 175.6" style="enable-background:new 0 0 175.6 175.6;" xml:space="preserve">
<style type="text/css">
	.st0{fill:#DE1A25;}
	.st1{opacity:0.25;fill:#DE1A25;}
	.st2{fill:none;stroke:#DE1A25;stroke-linecap:round;stroke-linejoin:round;stroke-miterlimit:10;}
</style>
<title>free_forever</title>
<path class="st0" d="M161.1,135.9c-0.1,0-0.2,0-0.3-0.1c-0.2-0.1-0.3-0.4-0.1-0.7c26.1-40.2,14.7-94-25.6-120.1
	C103.6-5.5,62.6-3.4,33.3,20.2c-0.2,0.1-0.5,0.1-0.7-0.1l0,0c-0.1-0.2-0.1-0.4,0.1-0.6C70.5-11,125.8-5,156.2,32.7
	c23.8,29.6,25.9,71.1,5.3,102.9C161.4,135.8,161.2,135.9,161.1,135.9z"/>
<path class="st0" d="M87.8,175.6C39.3,175.6,0,136.3,0,87.8c0-20.1,6.9-39.6,19.6-55.2c0.2-0.2,0.5-0.2,0.7-0.1l0,0
	c0.2,0.2,0.2,0.5,0.1,0.7l0,0l0,0C-9.8,70.5-4,125.2,33.3,155.4c15.5,12.5,34.8,19.4,54.7,19.3c19.7,0.1,38.9-6.6,54.2-19
	c0.2-0.2,0.5-0.1,0.7,0.1c0.2,0.2,0.1,0.5-0.1,0.7l0,0C127.1,168.9,107.8,175.7,87.8,175.6z"/>
<path class="st0" d="M30.7,25.1c-1.9,0-3.4-1.6-3.4-3.4c0-1.5,1-2.8,2.4-3.2c1.8-0.5,3.6,0.5,4.2,2.3c0.5,1.8-0.5,3.7-2.3,4.2
	C31.4,25.1,31.1,25.1,30.7,25.1z M30.7,19.3c-0.2,0-0.5,0-0.7,0.1c-1.3,0.4-2,1.7-1.7,3l0,0l0,0c0.2,0.6,0.6,1.1,1.1,1.5
	c0.6,0.3,1.2,0.4,1.9,0.2c1.3-0.4,2-1.7,1.6-3C32.7,20,31.8,19.3,30.7,19.3z"/>
<path class="st0" d="M159.7,141.4c-1.9,0-3.4-1.5-3.4-3.4s1.5-3.4,3.4-3.4s3.4,1.5,3.4,3.4c0,1.5-1,2.8-2.4,3.2l0,0
	C160.3,141.3,160,141.4,159.7,141.4z M159.7,135.6c-0.2,0-0.5,0-0.7,0.1c-0.6,0.2-1.1,0.6-1.4,1.1c-0.3,0.6-0.4,1.2-0.2,1.9
	c0.4,1.3,1.7,2,3,1.7c1.3-0.4,2-1.7,1.7-3C161.7,136.3,160.8,135.6,159.7,135.6z"/>
<g>
	<path class="st1" d="M149.4,130.8H33c-3.9,0-7-3.2-7-7V84.2c0-3.8,3.1-7,7-7h116.4c3.9,0,7,3.2,7,7v39.6
		C156.4,127.6,153.3,130.8,149.4,130.8z"/>
	<path class="st0" d="M36.8,134.4c-1.9,0-3.4-1.5-3.4-3.4s1.5-3.4,3.4-3.4s3.4,1.5,3.4,3.4c0,1.5-1,2.8-2.4,3.2l0,0
		C37.4,134.3,37.1,134.4,36.8,134.4z M36.8,128.6c-0.2,0-0.5,0-0.7,0.1c-0.6,0.2-1.1,0.6-1.4,1.1c-0.3,0.6-0.4,1.2-0.2,1.9
		c0.4,1.3,1.7,2,3,1.7c1.3-0.4,2-1.7,1.7-3C38.8,129.3,37.9,128.6,36.8,128.6z"/>
	<path class="st0" d="M144.4,80.6c-1.9,0-3.4-1.5-3.4-3.4s1.5-3.4,3.4-3.4s3.4,1.5,3.4,3.4c0,1.5-1,2.8-2.4,3.2l0,0
		C145,80.5,144.7,80.6,144.4,80.6z M144.4,74.8c-0.2,0-0.5,0-0.7,0.1c-0.6,0.2-1.1,0.6-1.4,1.1c-0.3,0.6-0.4,1.2-0.2,1.9
		c0.4,1.3,1.7,2,3,1.7c1.3-0.4,2-1.7,1.7-3C146.4,75.5,145.5,74.8,144.4,74.8z"/>
	<path class="st0" d="M25.9,91.3c-1.9,0-3.4-1.5-3.4-3.4s1.5-3.4,3.4-3.4s3.4,1.5,3.4,3.4c0,1.5-1,2.8-2.4,3.2l0,0
		C26.5,91.2,26.2,91.3,25.9,91.3z M25.9,85.5c-0.2,0-0.5,0-0.7,0.1c-0.6,0.2-1.1,0.6-1.4,1.1c-0.3,0.6-0.4,1.2-0.2,1.9
		c0.4,1.3,1.7,2,3,1.7c1.3-0.4,2-1.7,1.7-3C27.9,86.2,27,85.5,25.9,85.5z"/>
	<g>
		<path class="st0" d="M37.6,119.9V86.4h21.5v2.1H40v13.3h16.3v2.1H40v16C40,119.9,37.6,119.9,37.6,119.9z"/>
		<path class="st0" d="M65.4,119.9V86.4h13.7c1.4,0,2.7,0.2,3.8,0.9c1.2,0.6,2.2,1.4,3,2.4c0.8,0.9,1.5,2.1,2,3.3
			c0.5,1.2,0.7,2.5,0.7,3.8c0,1.2-0.2,2.4-0.6,3.5c-0.3,1.1-0.9,2.1-1.6,3.1c-0.7,0.9-1.5,1.6-2.4,2.2c-0.9,0.6-2.1,0.9-3.1,1.2
			l8.3,13.1h-2.6l-8-12.6H67.8v12.7H65.4z M67.7,105h11.6c1,0,2-0.2,2.9-0.7c0.9-0.5,1.6-1.1,2.3-1.8c0.6-0.8,1.2-1.6,1.4-2.7
			c0.3-0.9,0.5-2,0.5-3.1c0-1.1-0.2-2.1-0.6-3.1c-0.3-0.9-0.9-1.9-1.6-2.7c-0.7-0.7-1.4-1.4-2.3-1.8c-0.9-0.5-1.9-0.7-2.9-0.7H67.7
			V105z"/>
		<path class="st0" d="M117.8,117.7v2.1H95.7V86.4h21.7v2.1H98.1v13.2H115v2.1H98.1v13.9H117.8z"/>
		<path class="st0" d="M146.3,117.7v2.1h-22.1V86.4H146v2.1h-19.3v13.2h16.9v2.1h-16.9v13.9H146.3z"/>
	</g>
	<g>
		<path class="st0" d="M43.3,55.5c-0.4-0.5-1-0.9-1.7-1.2c-0.7-0.3-1.5-0.4-2.4-0.4c-1.3,0-2.3,0.3-2.9,0.8c-0.6,0.5-0.9,1.2-0.9,2
			c0,0.5,0.1,0.8,0.2,1.1c0.2,0.3,0.4,0.5,0.8,0.8c0.3,0.2,0.8,0.4,1.3,0.6c0.5,0.2,1.2,0.3,1.9,0.5c0.8,0.2,1.5,0.4,2.2,0.6
			c0.6,0.2,1.2,0.5,1.6,0.8c0.5,0.3,0.8,0.7,1,1.2c0.2,0.5,0.4,1,0.4,1.7c0,0.7-0.1,1.3-0.4,1.8c-0.3,0.5-0.6,0.9-1.1,1.3
			c-0.5,0.3-1.1,0.6-1.7,0.8c-0.7,0.2-1.4,0.2-2.2,0.2c-2.3,0-4.3-0.7-6-2.2l0.7-1.2c0.3,0.3,0.6,0.6,1,0.8c0.4,0.3,0.8,0.5,1.2,0.7
			c0.5,0.2,0.9,0.3,1.5,0.4s1.1,0.2,1.7,0.2c1.2,0,2.1-0.2,2.8-0.6c0.7-0.4,1-1.1,1-2c0-0.5-0.1-0.9-0.3-1.2
			c-0.2-0.3-0.5-0.6-0.9-0.8c-0.4-0.2-0.9-0.4-1.4-0.6c-0.6-0.2-1.2-0.3-2-0.5c-0.8-0.2-1.5-0.4-2.1-0.6c-0.6-0.2-1.1-0.4-1.5-0.7
			c-0.4-0.3-0.7-0.7-0.9-1.1c-0.2-0.4-0.3-0.9-0.3-1.5c0-0.7,0.1-1.3,0.4-1.9c0.3-0.5,0.6-1,1.1-1.4c0.5-0.4,1-0.6,1.7-0.8
			c0.6-0.2,1.4-0.3,2.2-0.3c1,0,1.9,0.2,2.7,0.5c0.8,0.3,1.5,0.7,2.1,1.3L43.3,55.5z"/>
		<path class="st0" d="M58,54h-5.4v13.7h-1.5V54h-5.4v-1.3H58V54z"/>
		<path class="st0" d="M65.6,67.8c-1,0-2-0.2-2.9-0.6c-0.9-0.4-1.6-1-2.2-1.7c-0.6-0.7-1.1-1.5-1.4-2.4c-0.3-0.9-0.5-1.9-0.5-2.8
			c0-1,0.2-2,0.5-2.9c0.4-0.9,0.9-1.7,1.5-2.4c0.6-0.7,1.4-1.3,2.2-1.7c0.9-0.4,1.8-0.6,2.8-0.6c1,0,2,0.2,2.9,0.7
			c0.9,0.4,1.6,1,2.2,1.7c0.6,0.7,1.1,1.5,1.4,2.4c0.3,0.9,0.5,1.8,0.5,2.8c0,1-0.2,2-0.5,2.9c-0.4,0.9-0.9,1.7-1.5,2.4
			c-0.6,0.7-1.4,1.3-2.2,1.7S66.6,67.8,65.6,67.8z M60,60.2c0,0.8,0.1,1.6,0.4,2.4c0.3,0.8,0.6,1.4,1.1,2c0.5,0.6,1.1,1.1,1.8,1.4
			c0.7,0.3,1.4,0.5,2.3,0.5c0.8,0,1.6-0.2,2.3-0.6c0.7-0.4,1.3-0.8,1.8-1.4c0.5-0.6,0.9-1.3,1.1-2s0.4-1.5,0.4-2.3
			c0-0.8-0.1-1.6-0.4-2.4c-0.3-0.8-0.7-1.4-1.2-2c-0.5-0.6-1.1-1-1.8-1.4c-0.7-0.3-1.4-0.5-2.2-0.5c-0.8,0-1.6,0.2-2.3,0.5
			c-0.7,0.4-1.3,0.8-1.8,1.4c-0.5,0.6-0.9,1.3-1.1,2C60.1,58.7,60,59.4,60,60.2z"/>
		<path class="st0" d="M75.4,67.7v-15h6.4c0.6,0,1.2,0.1,1.8,0.4c0.5,0.3,1,0.6,1.4,1.1c0.4,0.4,0.7,1,0.9,1.5
			c0.2,0.6,0.3,1.1,0.3,1.7c0,0.6-0.1,1.1-0.2,1.6c-0.2,0.5-0.4,1-0.7,1.4c-0.3,0.4-0.6,0.7-1,1c-0.4,0.3-0.9,0.5-1.4,0.6l3.7,5.8
			h-1.7l-3.5-5.5h-4.4v5.5H75.4z M76.9,60.9h4.9c0.4,0,0.8-0.1,1.2-0.3c0.4-0.2,0.7-0.4,0.9-0.8c0.3-0.3,0.5-0.7,0.6-1.1
			c0.1-0.4,0.2-0.8,0.2-1.3c0-0.5-0.1-0.9-0.2-1.3c-0.2-0.4-0.4-0.8-0.7-1.1c-0.3-0.3-0.6-0.6-1-0.7c-0.4-0.2-0.8-0.3-1.2-0.3h-4.8
			V60.9z"/>
		<path class="st0" d="M99.3,66.4v1.3H89.2v-15h9.9V54h-8.4v5.4h7.3v1.2h-7.3v5.7H99.3z"/>
		<path class="st0" d="M107.5,67.7v-15h9.9V54H109v5.5h7.1v1.2H109v7H107.5z"/>
		<path class="st0" d="M125.7,67.8c-1,0-2-0.2-2.9-0.6c-0.9-0.4-1.6-1-2.2-1.7c-0.6-0.7-1.1-1.5-1.4-2.4c-0.3-0.9-0.5-1.9-0.5-2.8
			c0-1,0.2-2,0.5-2.9c0.4-0.9,0.9-1.7,1.5-2.4c0.6-0.7,1.4-1.3,2.2-1.7c0.9-0.4,1.8-0.6,2.8-0.6c1,0,2,0.2,2.9,0.7
			c0.9,0.4,1.6,1,2.2,1.7c0.6,0.7,1.1,1.5,1.4,2.4c0.3,0.9,0.5,1.8,0.5,2.8c0,1-0.2,2-0.5,2.9c-0.4,0.9-0.9,1.7-1.5,2.4
			c-0.6,0.7-1.4,1.3-2.2,1.7C127.7,67.6,126.7,67.8,125.7,67.8z M120.2,60.2c0,0.8,0.1,1.6,0.4,2.4c0.3,0.8,0.6,1.4,1.1,2
			c0.5,0.6,1.1,1.1,1.8,1.4s1.4,0.5,2.3,0.5c0.8,0,1.6-0.2,2.3-0.6c0.7-0.4,1.3-0.8,1.8-1.4c0.5-0.6,0.9-1.3,1.1-2
			c0.3-0.7,0.4-1.5,0.4-2.3c0-0.8-0.1-1.6-0.4-2.4c-0.3-0.8-0.7-1.4-1.2-2c-0.5-0.6-1.1-1-1.8-1.4c-0.7-0.3-1.4-0.5-2.2-0.5
			c-0.8,0-1.6,0.2-2.3,0.5c-0.7,0.4-1.3,0.8-1.8,1.4c-0.5,0.6-0.9,1.3-1.1,2C120.3,58.7,120.2,59.4,120.2,60.2z"/>
		<path class="st0" d="M135.6,67.7v-15h6.4c0.6,0,1.2,0.1,1.8,0.4c0.5,0.3,1,0.6,1.4,1.1c0.4,0.4,0.7,1,0.9,1.5
			c0.2,0.6,0.3,1.1,0.3,1.7c0,0.6-0.1,1.1-0.2,1.6c-0.2,0.5-0.4,1-0.7,1.4c-0.3,0.4-0.6,0.7-1,1c-0.4,0.3-0.9,0.5-1.4,0.6l3.7,5.8
			h-1.7l-3.5-5.5h-4.4v5.5H135.6z M137.1,60.9h4.9c0.4,0,0.8-0.1,1.2-0.3c0.4-0.2,0.7-0.4,0.9-0.8s0.5-0.7,0.6-1.1s0.2-0.8,0.2-1.3
			c0-0.5-0.1-0.9-0.2-1.3c-0.2-0.4-0.4-0.8-0.7-1.1c-0.3-0.3-0.6-0.6-1-0.7c-0.4-0.2-0.8-0.3-1.2-0.3h-4.8V60.9z"/>
	</g>
	<path class="st2" d="M26,84.9v-0.7c0-3.8,3.1-7,7-7h82.6h11.6"/>
	<path class="st2" d="M33.9,130.8H33c-3.9,0-7-3.2-7-7v-15.9"/>
	<path class="st2" d="M147.4,77.2h2.1c3.9,0,7,3.2,7,7v39.6c0,3.8-3.1,7-7,7H59.3"/>
</g>
</svg>
