<?xml version="1.0" encoding="utf-8"?>
<!-- Generator: Adobe Illustrator 21.0.0, SVG Export Plug-In . SVG Version: 6.00 Build 0)  -->
<svg version="1.1" id="Layer_1" xmlns="http://www.w3.org/2000/svg" xmlns:xlink="http://www.w3.org/1999/xlink" x="0px" y="0px"
	 viewBox="0 0 300 300" style="enable-background:new 0 0 300 300;" xml:space="preserve">
<style type="text/css">
	.st0{fill:#FFFFFF;}
</style>
<g>
	<path class="st0" d="M149.7,289.5c-77.4,0-140.3-62.9-140.3-140.3S72.3,8.9,149.7,8.9S290,71.9,290,149.2S227.1,289.5,149.7,289.5z
		 M149.7,31.9C85,31.9,32.4,84.5,32.4,149.2S85,266.5,149.7,266.5c64.7,0,117.3-52.6,117.3-117.3S214.4,31.9,149.7,31.9z"/>
	<path class="st0" d="M148.2,125.1c0,0-4.5-30.8,21.8-37.9s31.6,8.3,31.6,8.3s11.3,0.3,20.6-7c0,0-3,10.9-12,16.8
		c0,0,8.5,1.5,16.6-4c0,0-4,9.8-14.5,15.8c0,0,2,38.6-23.3,65c0,0-49.2,56.9-116.1,16.8c0,0,33.9,2.3,45.6-13.5
		c0,0-22.8-1-29.3-22.1h14.3c0,0-24.8-6.5-25.6-32.3c0,0,5.3,4.8,13.8,4c0,0-23.6-19.3-9.5-42.1C82,92.7,112.6,128.1,148.2,125.1z"
		/>
</g>
</svg>
