<?xml version="1.0" encoding="utf-8"?>
<!-- Generator: Adobe Illustrator 23.0.1, SVG Export Plug-In . SVG Version: 6.00 Build 0)  -->
<svg version="1.1" id="Layer_1" xmlns="http://www.w3.org/2000/svg" xmlns:xlink="http://www.w3.org/1999/xlink" x="0px" y="0px"
	 viewBox="0 0 435.4 272.3" style="enable-background:new 0 0 435.4 272.3;" xml:space="preserve">
<style type="text/css">
	.st0{opacity:8.000000e-02;fill:#FFFFFF;enable-background:new    ;}
	.st1{opacity:3.000000e-02;fill:#FFFFFF;enable-background:new    ;}
	.st2{opacity:7.000000e-02;fill:#FFFFFF;enable-background:new    ;}
	.st3{opacity:9.000000e-02;fill:#FFFFFF;enable-background:new    ;}
</style>
<title>gears2</title>
<g>
	<path class="st0" d="M376.3,148.5l7.7-0.6l0.2-5l-7.6-1.1l-1.5-0.9c-0.1-2.4-0.2-4.8-0.5-7.1l1.3-0.9l7.3-2.2l-1-4.9l-7.6,0.6
		l-1.7-0.5c-0.5-2-1.1-4-1.8-5.9l1.1-1.1l6.7-3.7l-1.9-4.7l-7.3,2.2l-1.8-0.2l-0.4-0.8c-0.9-1.7-1.8-3.4-2.8-5l0.9-1.3l5.8-5.1
		l-2.9-4.1l-6.7,3.7l-1.7,0.2c-1.3-1.6-2.6-3.1-4-4.6l0.6-1.5l4.6-6.1l-3.7-3.5l-5.8,4.9l-1.6,0.5c-1.6-1.3-3.2-2.6-4.9-3.8l0.2-1.5
		l3.2-6.9l-4.3-2.6l-4.6,6.1l-1.5,0.9c-2-1-4-2-6-2.8l-0.1-1.6l1.7-7.5l-4.7-1.7L326,75l-1.3,1.2c-1.7-0.5-3.3-0.8-5-1.2l-0.4-1.5
		l0.2-7.7l-5-0.7l-1.8,7.4l-1,1.4c-2.1-0.2-4.1-0.2-6.2-0.2l-0.7-1.4l-1.4-7.6l-5,0.3l-0.2,7.6l-0.7,1.6c-2.2,0.3-4.4,0.7-6.5,1.2
		l-1-1.2l-3-7.1l-4.9,1.4l1.4,7.6l-0.4,1.7c-1.8,0.7-3.5,1.4-5.3,2.2l-1.2-1l-4.3-6.3l-4.5,2.3l2.8,7.1v1.8
		c-1.8,1.1-3.5,2.2-5.1,3.5l-1.5-0.7l-5.6-5.3l-3.9,3.2l4.3,6.3l0.4,1.7c-1.6,1.5-3.1,3.1-4.6,4.8l-1.5-0.4l-6.6-4l-3.1,4l5.5,5.3
		l0.7,1.6c-1,1.5-2,3-2.8,4.5l-1.6-0.1l-7.2-2.6l-2.3,4.5l6.4,4.1l1,1.4c-0.8,1.9-1.5,3.8-2.2,5.8l-1.6,0.2l-7.5-1.1l-1.3,4.9
		l7.2,2.7l1.3,1.2c-0.4,2.2-0.8,4.4-1,6.6l-1.5,0.5l-7.6,0.6l-0.2,5.1l7.6,1.1l1.5,0.9c0.1,2.4,0.3,4.8,0.6,7.2l-1.3,0.9l-7.3,2.3
		l0.9,4.9l7.6-0.6l1.7,0.5c0.5,2,1.1,4,1.8,5.9l-1.1,1.1l-6.7,3.8l1.9,4.7l7.3-2.2l1.8,0.2c0.1,0.3,0.2,0.5,0.4,0.8
		c0.9,1.7,1.8,3.4,2.8,5l-0.9,1.3l-5.8,5.1l2.9,4.2l6.7-3.7l1.7-0.2c1.3,1.6,2.6,3.1,4,4.6l-0.6,1.5l-4.6,6.1l3.7,3.5l5.8-4.9
		l1.6-0.5c1.6,1.3,3.2,2.6,4.9,3.8l-0.2,1.5l-3.2,6.9l4.3,2.7l4.6-6.1l1.5-0.9c2,1,4,2,6,2.8l0.1,1.6l-1.7,7.5l4.8,1.7l3.2-6.9
		l1.3-1.2c1.7,0.5,3.3,0.8,5,1.2l0.4,1.6l-0.2,7.7l5,0.7l1.8-7.4l1-1.4c2.1,0.2,4.1,0.2,6.2,0.2l0.7,1.4l1.4,7.6l5-0.3l0.2-7.6
		l0.7-1.6c2.2-0.3,4.4-0.7,6.5-1.2l1,1.2l3,7.1l4.9-1.4l-1.4-7.5l0.4-1.7c1.8-0.6,3.5-1.4,5.3-2.2l1.2,1l4.4,6.3l4.4-2.4l-2.8-7.1
		V201c1.8-1.1,3.5-2.2,5.1-3.5l1.4,0.7l5.6,5.3l4-3.2l-4.3-6.3l-0.3-1.7c1.6-1.5,3.1-3.1,4.6-4.8l1.5,0.4l6.5,3.9l3.1-4l-5.5-5.2
		l-0.7-1.6c1-1.5,2-3,2.8-4.5l1.6,0.1l7.2,2.6l2.3-4.5l-6.3-4.1l-1.1-1.5c0.8-1.9,1.5-3.8,2.2-5.8l1.6-0.2l7.6,1.1l1.3-4.9l-7.2-2.7
		l-1.4-1.2c0.4-2.2,0.7-4.3,0.9-6.6L376.3,148.5z M306.5,193c-27.9,0-50.6-22.6-50.6-50.6c0-27.9,22.6-50.6,50.6-50.6
		c27.9,0,50.6,22.6,50.6,50.6l0,0l0,0C357,170.4,334.4,193,306.5,193L306.5,193L306.5,193z"/>
	<path class="st1" d="M175.4,150l7.7-0.4l0.3-5.1l-7.5-1.2l-1.5-0.9c0-2.4-0.2-4.8-0.4-7.2l1.3-0.8l7.4-2.1l-0.8-4.9l-7.6,0.5
		l-1.7-0.6c-0.5-2-1-4-1.7-5.9l1.1-1.1l6.7-3.6l-1.9-4.7l-7.3,2.1l-1.7-0.2l-0.3-0.8c-0.9-1.8-1.8-3.4-2.8-5.1l0.9-1.3l5.8-4.9
		l-2.8-4.2l-6.7,3.6l-1.7,0.2c-1.2-1.6-2.5-3.2-3.9-4.6l0.6-1.5l4.7-6.2l-3.6-3.5l-5.9,4.9l-1.7,0.5c-1.6-1.4-3.2-2.6-4.9-3.8
		l0.3-1.5l3.3-6.9l-4.3-2.7l-4.7,6l-1.5,0.9c-2-1.1-4-2-5.9-2.9l-0.1-1.6l1.8-7.5l-4.7-1.8l-3.4,6.9l-1.3,1.2
		c-1.6-0.5-3.3-0.9-4.9-1.3l-0.4-1.5l0.3-7.7l-4.9-0.8l-1.9,7.4l-1,1.4c-2.1-0.2-4.1-0.3-6.2-0.3l-0.7-1.4l-1.3-7.6l-5,0.3L98.4,73
		l-0.7,1.5c-2.2,0.3-4.4,0.6-6.6,1.1l-0.9-1.2l-2.8-7.1l-4.9,1.3l1.3,7.6l-0.4,1.7c-1.8,0.6-3.6,1.3-5.3,2.1l-1.2-1l-4.2-6.4
		l-4.6,2.3l2.8,7.1v1.8c-1.8,1-3.5,2.2-5.2,3.4l-1.4-0.8l-5.5-5.4l-4,3.2l4.2,6.4l0.3,1.7c-1.6,1.5-3.2,3.1-4.7,4.7l-1.5-0.4
		l-6.5-4.1l-3.2,4l5.4,5.4l0.7,1.6c-1,1.5-2,3-2.9,4.5l-1.6-0.1l-7.2-2.7l-2.4,4.4l6.4,4.2l1,1.4c-0.8,1.9-1.6,3.8-2.3,5.8l-1.6,0.2
		l-7.5-1.2l-1.4,4.9l7.1,2.8l1.3,1.2c-0.5,2.2-0.8,4.3-1.1,6.5l-1.5,0.5l-7.7,0.4l-0.3,5.1l7.6,1.2l1.5,0.9c0,2.4,0.2,4.8,0.4,7.2
		l-1.3,0.8l-7.4,2.1l0.8,4.9l7.6-0.5l1.7,0.6c0.5,2,1,4,1.7,5.9l-1.1,1.1l-6.8,3.6l1.9,4.8l7.3-2.1l1.8,0.2c0.1,0.3,0.2,0.5,0.3,0.8
		c0.9,1.8,1.8,3.4,2.8,5.1l-0.9,1.3l-5.8,4.9l2.8,4.2l6.7-3.6l1.7-0.2c1.2,1.6,2.5,3.2,3.9,4.6l-0.6,1.5l-4.7,6.1l3.6,3.6l5.9-4.9
		l1.7-0.5c1.6,1.4,3.2,2.6,4.9,3.8l-0.3,1.5l-3.3,6.9l4.3,2.7l4.7-6l1.5-0.9c2,1,4,2,5.9,2.9l0.1,1.6l-1.7,7.5l4.7,1.7l3.3-6.9
		l1.3-1.2c1.7,0.5,3.3,0.9,4.9,1.2l0.4,1.6l-0.3,7.7l5,0.8l2-7.4l1-1.4c2.1,0.2,4.1,0.3,6.2,0.3l0.7,1.4l1.3,7.6l5.1-0.3l0.3-7.7
		l0.7-1.6c2.2-0.3,4.4-0.6,6.5-1.1l1,1.2l2.9,7.1l4.9-1.3l-1.3-7.5l0.4-1.7c1.8-0.6,3.6-1.3,5.3-2.1l1.2,1l4.2,6.4l4.5-2.3l-2.8-7.1
		V202c1.8-1,3.5-2.2,5.2-3.4l1.4,0.8l5.5,5.4l4-3.2l-4.2-6.4l-0.3-1.7c1.6-1.5,3.2-3.1,4.7-4.7l1.5,0.4l6.5,4.1l3.2-4l-5.4-5.4
		l-0.7-1.6c1-1.5,2-3,2.9-4.5l1.6,0.1l7.2,2.7l2.4-4.5l-6.3-4.2l-1-1.5c0.8-1.9,1.6-3.8,2.3-5.8l1.6-0.2l7.6,1.2l1.4-4.9l-7.1-2.8
		l-1.2-1.2c0.4-2.2,0.8-4.3,1-6.5L175.4,150z M104.8,193.4C76.8,193,54.6,170,55,142c0.4-27.9,23.4-50.2,51.4-49.8
		c27.9,0.4,50.2,23.4,49.8,51.4l0,0C155.7,171.6,132.7,193.8,104.8,193.4L104.8,193.4z"/>
	<path class="st2" d="M251.5,73c0.1-1.7,0.1-3.4,0-5.1l1.7-1l7.4-2l-0.8-5l-7.6,0.4l-2-0.7c-0.5-1.9-1.1-3.8-1.8-5.6l1.3-1.5
		l6.3-4.4l-2.4-4.4l-7.1,2.8h-2.1c-0.7-1.1-1.5-2.2-2.3-3.2l0.8-1.8l4.8-5.9l-3.5-3.6l-5.9,4.7l-2,0.6c-1.3-1.1-2.6-2.1-4-3l0.2-1.9
		l2.8-7.3l-4.5-2.4l-4.2,6.4l-1.7,1.1c-2-0.8-4.1-1.5-6.2-2l-0.5-1.9l0.2-7.7l-5-0.7l-1.8,7.4l-1.2,1.7c-1.4-0.1-2.9,0-4.4,0l-1-1.6
		l-2.1-7.4l-5,0.8l0.5,7.6l-0.6,1.9c-1.8,0.5-3.5,1.1-5.3,1.8l-1.5-1.2l-4.4-6.3L182,25l2.8,7.1v2c-1.5,1-3,2.1-4.4,3.3l-1.8-0.7
		l-6.1-4.6l-3.5,3.7l4.9,5.8l0.6,2c-1,1.3-2,2.7-2.8,4.1l-1.9-0.1l-7.3-2.5l-2.2,4.6l6.5,4l1.2,1.7c-0.5,1.2-0.8,2.5-1.2,3.8
		l-1.9,0.5l-7.7-0.3l-0.8,4.9l7.4,2l1.6,1.2c-0.1,1.7-0.1,3.4,0,5.1l-1.7,1l-7.4,2l0.8,5l7.6-0.4l2,0.7c0.5,1.9,1.1,3.8,1.8,5.6
		l-1.2,1.5l-6.3,4.4l2.3,4.5l7.1-2.8h2c0.7,1.1,1.5,2.2,2.3,3.2l-0.8,1.8l-4.8,5.9l3.5,3.6l5.9-4.7l2-0.6c1.3,1.1,2.6,2.1,4,3
		l-0.2,1.9l-2.8,7.2l4.5,2.4l4.2-6.4l1.7-1.1c2,0.8,4.1,1.5,6.2,2l0.5,1.9l-0.2,7.7l5,0.7l1.8-7.4l1.2-1.7c1.4,0.1,2.9,0,4.4,0
		l1,1.6l2.1,7.4l5-0.8l-0.5-7.6l0.7-2c1.8-0.5,3.5-1.1,5.3-1.8l1.5,1.2l4.4,6.3l4.5-2.4l-2.9-6.9v-2c1.5-1,3-2.1,4.4-3.3l1.8,0.7
		l6.1,4.6l3.5-3.7l-5-5.9l-0.6-2c1-1.3,2-2.7,2.8-4.1l1.9,0.1l7.3,2.5l2.2-4.6l-6.5-4l-1.2-1.7c0.5-1.2,0.8-2.5,1.2-3.8l1.9-0.5
		l7.7,0.3l0.8-4.9l-7.4-2L251.5,73z M208.5,89.6c-10.7,0-19.5-8.7-19.4-19.5c0-10.7,8.7-19.5,19.5-19.4c10.7,0,19.4,8.7,19.4,19.4
		C228,80.9,219.3,89.6,208.5,89.6C208.5,89.6,208.5,89.6,208.5,89.6L208.5,89.6z"/>
	<circle class="st0" cx="306.4" cy="142.4" r="21"/>
	<path class="st1" d="M105.6,169.8c-14.9,0-26.9-12.1-26.9-26.9c0-7.2,2.8-14,7.9-19c5.1-5.1,11.9-7.9,19-7.9c0,0,0,0,0,0
		c8,0,15.5,3.5,20.6,9.6l-0.8,0.6c-4.9-5.9-12.2-9.2-19.8-9.2c0,0,0,0,0,0c-6.9,0-13.4,2.7-18.3,7.6c-4.9,4.9-7.6,11.4-7.6,18.3
		c0,14.3,11.6,25.9,25.9,25.9c0,0,0,0,0,0c14.3,0,25.9-11.6,25.9-26c0-0.3,0-0.5,0-0.8c0-0.3,0-0.6,0-0.9h1c0,0.3,0,0.5,0,0.8
		c0,0.3,0,0.6,0,0.9C132.5,157.7,120.4,169.8,105.6,169.8z"/>
	<path class="st1" d="M105.3,243.9c-18.2,0-35.9-4.9-51.7-14.4l0.5-0.8c37.8,22.7,85.3,18.1,118.1-11.4
		c41-36.8,44.4-100.1,7.6-141.1c-17.8-19.8-42.3-31.6-69-33c-26.7-1.4-52.2,7.6-72.1,25.4c-41,36.8-44.4,100.1-7.6,141.1l-0.7,0.7
		C-6.7,169.1-3.3,105.2,38.1,68c20-18,45.9-27.1,72.8-25.7c26.9,1.4,51.6,13.3,69.6,33.3c37.2,41.4,33.7,105.3-7.6,142.5
		c-16.2,14.5-36.1,23.3-57.7,25.4C111.9,243.8,108.6,243.9,105.3,243.9z"/>
	<circle class="st1" cx="105.6" cy="142.8" r="8"/>
	<path class="st3" d="M422.4,153.9l12.7-1l0.4-8.4l-12.5-1.8l-2.5-1.5c-0.1-4-0.4-7.9-1-11.9l2.2-1.4l12.1-3.8l-1.5-8.2l-12.6,1
		l-2.7-0.9c-0.8-3.3-1.8-6.6-3-9.8l1.9-1.9l11.1-6.1l-3.2-7.7l-12.1,3.6l-2.9-0.3c-0.2-0.4-0.4-0.8-0.6-1.3c-1.5-2.8-3-5.7-4.7-8.4
		L405,82l9.5-8.4l-4.7-6.9l-11,6.3l-2.8,0.3c-2.1-2.6-4.3-5.2-6.6-7.6l0.9-2.4l7.6-10.1l-6.1-5.8l-9.6,8.3l-2.7,0.9
		c-2.6-2.2-5.4-4.3-8.2-6.2l0.4-2.6l5.3-11.5l-7.1-4.4l-7.6,10l-2.5,1.4c-3.2-1.7-6.6-3.2-10-4.6l-0.2-2.6l2.8-12.4l-7.9-2.8
		l-5.3,11.5l-2.1,2c-2.7-0.8-5.5-1.4-8.3-2l-0.7-2.6l0.3-12.7l-8.3-1.2l-3,12.3l-1.7,2.3c-3.4-0.3-6.8-0.4-10.3-0.3l-1.2-2.3
		l-2.3-12.5l-8.4,0.6l-0.4,12.7l-1.2,2.6c-3.6,0.5-7.2,1.1-10.8,2l-1.6-2l-4.9-11.7l-8.1,2.3l2.3,12.4l-0.6,2.8
		c-3,1.1-5.8,2.3-8.7,3.6l-2-1.7l-7.2-10.4l-7.4,4l4.7,11.7V47c-2.9,1.8-5.8,3.7-8.5,5.7l-2.3-1.2l-9.2-8.7l-6.5,5.4l7.1,10.5
		l0.6,2.8c-2.6,2.5-5.2,5.2-7.6,7.9l-2.5-0.7l-10.9-6.6l-5.2,6.6l9.2,8.6l1.2,2.6c-1.6,2.4-3.2,4.9-4.7,7.5l-2.6-0.2l-11.9-4.3
		l-3.8,7.5l10.7,6.8l1.7,2.4c-1.3,3.1-2.5,6.4-3.6,9.6l-2.6,0.4l-12.6-1.8l-2.1,8.1l11.9,4.4l2.1,2c-0.7,3.6-1.2,7.2-1.6,10.9
		l-2.5,1l-12.7,0.9l-0.4,8.4l12.5,1.8l2.5,1.5c0.1,4,0.4,7.9,0.9,11.9l-2.2,1.4l-12.1,3.7l1.5,8.3l12.6-1l2.8,0.9
		c0.8,3.3,1.8,6.6,3,9.8l-1.9,1.9l-11.1,6.2l3.2,7.7l12.1-3.9l2.9,0.3c0.2,0.4,0.4,0.8,0.6,1.3c1.4,2.9,3,5.7,4.7,8.3l-1.4,2.2
		l-9.5,8.4l4.7,6.9l11.1-6.1l2.8-0.3c2.1,2.6,4.3,5.2,6.6,7.6l-1,2.4l-7.6,10.2l6.1,5.8l9.5-8.3l2.7-0.9c2.6,2.2,5.4,4.3,8.2,6.2
		l-0.4,2.6l-5.3,11.5l7.1,4.4l7.6-10.1l2.5-1.5c3.2,1.7,6.5,3.3,9.9,4.6l0.2,2.6l-2.7,12.4l7.9,2.8l5.3-11.5l2.1-2
		c2.7,0.8,5.5,1.4,8.3,2l0.7,2.6l-0.3,12.7l8.3,1.2l3-12.3l1.7-2.3c3.4,0.3,6.8,0.4,10.3,0.3l1.2,2.3l2.3,12.5l8.4-0.6l0.4-12.6
		l1.2-2.6c3.6-0.5,7.2-1.1,10.8-2l1.6,2l4.9,11.7l8.1-2.3l-2.3-12.4l0.6-2.8c2.9-1.1,5.9-2.2,8.7-3.6l2,1.7l7.2,10.5l7.4-3.9
		l-4.7-11.7v-2.9c2.9-1.8,5.8-3.7,8.5-5.7l2.3,1.2l9.2,8.8l6.5-5.4l-7.1-10.5l-0.6-2.8c2.7-2.5,5.2-5.1,7.6-7.9l2.5,0.7l10.9,6.6
		l5.2-6.6l-9.1-8.7l-1.1-2.6c1.7-2.4,3.2-4.9,4.7-7.5l2.6,0.2l11.9,4.3l3.8-7.5l-10.8-6.8l-1.7-2.4c1.3-3.1,2.5-6.4,3.6-9.6l2.6-0.4
		l12.5,1.8l2.1-8.1l-11.9-4.4l-2.1-2c0.7-3.6,1.2-7.2,1.6-10.9L422.4,153.9z M306.4,249c-58.2,0-105.3-47.1-105.3-105.3
		S248.2,38.5,306.4,38.5s105.3,47.1,105.3,105.3c0,0,0,0,0,0C411.7,201.9,364.5,249,306.4,249z"/>
	<path class="st3" d="M306.4,47.9c-52.9,0-95.9,42.9-95.9,95.8s42.9,95.9,95.8,95.9c52.9,0,95.9-42.9,95.9-95.8c0,0,0,0,0,0
		C402.2,90.8,359.3,47.9,306.4,47.9z M306.7,227.6c-46.2,0-83.7-37.5-83.7-83.7c0-46.2,37.5-83.7,83.7-83.7
		c46.2,0,83.7,37.5,83.7,83.7C390.4,190.2,352.9,227.6,306.7,227.6C306.7,227.6,306.7,227.6,306.7,227.6z"/>
	<path class="st1" d="M51.5,231.4c-1,0-1.9-0.4-2.6-1c-0.7-0.7-1.2-1.6-1.2-2.6c-0.1-2.1,1.6-3.8,3.7-3.9c2.1-0.1,3.8,1.6,3.9,3.7
		c0,1.7-1,3.2-2.7,3.7c-0.3,0.1-0.7,0.2-1,0.2l0,0C51.5,231.4,51.5,231.4,51.5,231.4z M51.5,224.8C51.5,224.8,51.4,224.8,51.5,224.8
		c-1.6,0-2.8,1.3-2.8,2.9c0,0.7,0.3,1.4,0.9,2c0.2,0.2,0.3,0.3,0.5,0.4c-0.6-0.4-1-0.9-1.2-1.6c-0.2-0.7-0.1-1.5,0.3-2.1
		c0.4-0.6,1-1.1,1.7-1.3c0.2-0.1,0.5-0.1,0.8-0.1l0.5,0.1c0.5,0.1,1,0.4,1.4,0.7C53,225.1,52.3,224.8,51.5,224.8z M51.4,225.9
		c-0.1,0-0.2,0-0.3,0.1c-0.5,0.1-0.9,0.4-1.1,0.8c-0.2,0.4-0.3,0.9-0.2,1.4c0.1,0.5,0.4,0.9,0.8,1.1c0.4,0.2,0.9,0.3,1.4,0.2
		c0.9-0.3,1.5-1.3,1.2-2.2c-0.2-0.7-0.9-1.3-1.7-1.3H51.4z"/>
	<path class="st1" d="M131.6,141.5c-1.8,0.1-3.3-1.4-3.4-3.2c-0.1-1.8,1.4-3.3,3.2-3.4c1.8-0.1,3.3,1.4,3.4,3.2
		c0,1.5-0.9,2.8-2.3,3.2C132.2,141.4,131.9,141.5,131.6,141.5z M131.6,136c-0.2,0-0.4,0-0.6,0.1c-1.2,0.3-1.9,1.6-1.6,2.8
		c0,0,0,0,0,0l0,0l0,0c0.2,0.6,0.6,1.1,1.1,1.4c0.5,0.3,1.2,0.4,1.8,0.2c1.2-0.4,1.9-1.6,1.5-2.9C133.5,136.6,132.6,136,131.6,136
		L131.6,136z"/>
	<path class="st2" d="M207.7,3C192.6,3,178,8,166.1,17.4c-1.3-1.2-3.3-1.1-4.5,0.3c-1.2,1.3-1.1,3.3,0.3,4.5
		c0.6,0.5,1.3,0.8,2.1,0.8c0.3,0,0.6-0.1,0.9-0.2c1.7-0.5,2.7-2.2,2.2-3.9c-0.1-0.3-0.2-0.6-0.4-0.8c11.7-9.2,26.1-14.2,41-14.1
		c36.8,0,66.6,29.8,66.6,66.6c0,36.8-29.8,66.6-66.6,66.6c-36.8,0-66.6-29.8-66.6-66.6c0-15.6,5.5-30.7,15.4-42.6
		c0.2-0.2,0.1-0.5-0.1-0.7c-0.2-0.1-0.5-0.1-0.6,0.1c-23.9,28.6-20,71.2,8.6,95.1s71.2,20,95.1-8.6c23.9-28.6,20-71.2-8.6-95.1
		C238.8,8.6,223.5,3,207.7,3z M164.6,21.9c-1.2,0.3-2.5-0.4-2.8-1.6c0,0,0,0,0,0l0,0c-0.3-1.2,0.4-2.4,1.6-2.8
		c0.2-0.1,0.4-0.1,0.6-0.1c0.7,0,1.3,0.3,1.7,0.8l0,0l0,0c0.2,0.2,0.3,0.5,0.4,0.8C166.5,20.3,165.8,21.5,164.6,21.9z"/>
</g>
</svg>
