<?xml version="1.0" encoding="utf-8"?>
<!-- Generator: Adobe Illustrator 23.0.1, SVG Export Plug-In . SVG Version: 6.00 Build 0)  -->
<svg version="1.1" id="Layer_1" xmlns="http://www.w3.org/2000/svg" xmlns:xlink="http://www.w3.org/1999/xlink" x="0px" y="0px"
	 viewBox="0 0 247.9 247.6" style="enable-background:new 0 0 247.9 247.6;" xml:space="preserve">
<style type="text/css">
	.st0{opacity:5.000000e-02;fill:#FFFFFF;enable-background:new    ;}
	.st1{opacity:0.12;fill:#FFFFFF;enable-background:new    ;}
	.st2{opacity:0.12;}
	.st3{fill:#FFFFFF;}
	.st4{opacity:7.000000e-02;}
</style>
<title>SECURITY2</title>
<g>
	<path class="st0" d="M116.5,148.5l1.1-6.7c-4.1-2.3-5.9-8.6-5.9-8.6c0-11.1,10.2-11,10.2-11c2.7-0.1,5.4,0.9,7.5,2.6
		c0,0,3.6,2.2,3.6,7.7c0,5.5-5.8,9.3-5.8,9.3l1.1,6.7h44.2v-37.1c0-5.8-4.7-10.5-10.5-10.5H82.5c-5.8,0-10.5,4.7-10.5,10.5v37.2
		H116.5z"/>
	<path class="st0" d="M72.1,165.4v4.9c0,5.8,4.7,10.5,10.5,10.5H162c5.8,0,10.5-4.7,10.5-10.5l0,0v-4.9L72.1,165.4z"/>
	<path class="st0" d="M84.5,94.4c0,0-6.1-43.5,39.4-45.8c0,0,21.9-1.6,33.8,24c2.3,7,3.2,14.5,2.5,21.9h-18.9v-11
		c0,0-3-15.1-19.5-15.1s-18.2,15.8-18.2,15.8l-0.1,10C103.5,94.1,84.6,94.3,84.5,94.4z"/>
	<path class="st1" d="M160.1,95.1h-18.9c-0.3,0-0.5-0.2-0.5-0.5v-8.4c0-6.6-3.6-12.7-9.3-16c-0.3-0.1-0.3-0.5-0.2-0.7l0,0
		c0.1-0.3,0.5-0.3,0.7-0.2c6.1,3.4,9.8,9.9,9.9,16.9V94h17.8v-7.9c0-20.6-16.7-37.2-37.2-37.2S85.1,65.6,85.1,86.2V94H103v-7.9
		c0-7.4,4.3-14.2,10.9-17.5c0.3-0.1,0.6,0,0.7,0.3c0.1,0.3,0,0.6-0.2,0.7l0,0c-6.3,3.1-10.3,9.5-10.3,16.5v8.4
		c0,0.3-0.2,0.5-0.5,0.5H84.6c-0.3,0-0.5-0.2-0.5-0.5v-8.4c0-21.1,17.1-38.3,38.3-38.3s38.3,17.1,38.3,38.3v8.4
		C160.6,94.9,160.4,95.1,160.1,95.1z"/>
	<path class="st1" d="M172.7,120.7c-0.3,0-0.5-0.2-0.5-0.5v-8.9c0-5.5-4.5-10-10-10H82.5c-5.5,0-10,4.5-10,10l0,0
		c0,0.3-0.2,0.5-0.5,0.5c0,0,0,0,0,0l0,0c-0.3,0-0.5-0.2-0.5-0.5c0,0,0,0,0,0l0,0c0-6.1,4.9-11,11-11h79.7c6.1,0,11,4.9,11,11v8.9
		C173.2,120.5,173,120.7,172.7,120.7C172.7,120.7,172.7,120.7,172.7,120.7z"/>
	<path class="st1" d="M128.6,72.1c-2,0-3.7-1.7-3.7-3.7c0-2,1.7-3.7,3.7-3.7c2,0,3.7,1.7,3.7,3.7c0,0.6-0.2,1.2-0.5,1.8
		c-0.5,0.8-1.2,1.5-2.2,1.7l0,0C129.3,72.1,128.9,72.1,128.6,72.1z M128.6,65.8c-1,0-1.9,0.5-2.3,1.3c-0.3,0.6-0.4,1.3-0.2,2
		c0.4,1.4,1.9,2.2,3.2,1.8c1.4-0.4,2.2-1.9,1.8-3.2C130.7,66.6,129.7,65.8,128.6,65.8L128.6,65.8z"/>
	<path class="st1" d="M96.1,72.6c-0.6,0-1.2-0.2-1.7-0.5c-1.8-1-2.4-3.2-1.4-5c1-1.8,3.2-2.4,5-1.4c1.8,1,2.4,3.2,1.4,5
		c-0.5,0.8-1.2,1.4-2.1,1.7C96.8,72.5,96.4,72.6,96.1,72.6z M96.1,66.3c-0.2,0-0.5,0-0.7,0.1c-1.4,0.4-2.2,1.9-1.8,3.2
		c0.4,1.4,1.9,2.2,3.2,1.8c1.4-0.4,2.2-1.9,1.8-3.2C98.2,67,97.2,66.3,96.1,66.3z"/>
	<path class="st1" d="M144.4,79c-2,0-3.7-1.6-3.7-3.7c0-2,1.6-3.7,3.7-3.7c2,0,3.7,1.6,3.7,3.7c0,1.6-1.1,3.1-2.7,3.5
		C145.1,78.9,144.8,79,144.4,79z M144.4,72.7c-0.2,0-0.5,0-0.7,0.1c-1.4,0.4-2.2,1.9-1.8,3.2c0.4,1.4,1.9,2.2,3.2,1.8
		c1.4-0.4,2.2-1.9,1.8-3.2c-0.2-0.7-0.6-1.2-1.2-1.6C145.3,72.8,144.9,72.7,144.4,72.7L144.4,72.7z"/>
	<path class="st1" d="M104.2,63.5c-2,0-3.7-1.7-3.7-3.7c0-0.6,0.1-1.2,0.4-1.7c0.5-0.8,1.2-1.5,2.2-1.7c1.9-0.6,4,0.6,4.5,2.5
		c0.6,1.9-0.6,4-2.5,4.5l0,0C104.9,63.5,104.6,63.5,104.2,63.5z M104.2,57.2c-1.4,0-2.6,1.2-2.6,2.7s1.2,2.6,2.7,2.6
		c0.2,0,0.4,0,0.6-0.1l0,0c1.4-0.4,2.2-1.9,1.8-3.3C106.4,58,105.4,57.2,104.2,57.2z"/>
	<path class="st1" d="M127.3,126.7c-2,0-3.7-1.6-3.7-3.7c0-2,1.6-3.7,3.7-3.7c2,0,3.7,1.6,3.7,3.7c0,1.7-1.1,3.1-2.7,3.6l0,0
		C128,126.6,127.7,126.6,127.3,126.7z M127.3,120.3c-0.2,0-0.5,0-0.7,0.1c-1.4,0.4-2.2,1.8-1.8,3.2c0.4,1.4,1.8,2.2,3.2,1.8
		c1.4-0.4,2.2-1.8,1.8-3.2C129.5,121.1,128.5,120.3,127.3,120.3z"/>
	<path class="st1" d="M72.1,125.9c-2,0-3.7-1.7-3.7-3.7c0-2,1.7-3.7,3.7-3.7c2,0,3.7,1.7,3.7,3.7c0,0.6-0.2,1.2-0.5,1.8
		c-0.5,0.8-1.2,1.5-2.2,1.7l0,0C72.8,125.9,72.4,125.9,72.1,125.9z M72.1,119.6c-0.2,0-0.5,0-0.7,0.1c-1.4,0.5-2.1,2-1.6,3.3
		c0.4,1.3,1.7,2,3.1,1.7l0,0c0.7-0.2,1.2-0.6,1.6-1.2c0.3-0.6,0.4-1.3,0.2-2C74.3,120.4,73.2,119.6,72.1,119.6L72.1,119.6z"/>
	<path class="st1" d="M110,148.4c-2,0-3.7-1.6-3.7-3.6c0-0.6,0.1-1.2,0.4-1.8c0.5-0.9,1.2-1.5,2.2-1.8c1.9-0.6,4,0.5,4.6,2.4
		c0.6,1.9-0.4,3.9-2.3,4.6l-0.3,0.1l0,0C110.6,148.3,110.3,148.4,110,148.4z M110,142.1c-0.2,0-0.5,0-0.7,0.1
		c-1.4,0.4-2.2,1.8-1.8,3.2c0,0,0,0,0,0c0.4,1.4,1.9,2.2,3.2,1.8l0,0c1.4-0.4,2.2-1.9,1.8-3.3C112.1,142.8,111.1,142.1,110,142.1
		L110,142.1z"/>
	<path class="st1" d="M119.2,116.6h-0.4c-2-0.2-3.5-2-3.3-4l0,0c0.1-1,0.6-1.9,1.3-2.5c0.8-0.6,1.7-0.9,2.7-0.8c2,0.2,3.5,2,3.3,4
		l0,0C122.7,115.2,121.1,116.6,119.2,116.6z M119.2,110.3c-1.5,0-2.6,1.2-2.6,2.7c0,1.3,1,2.4,2.3,2.6c0.7,0,1.4-0.2,1.9-0.6
		c0.5-0.4,0.9-1.1,1-1.8l0,0c0.1-1.4-0.9-2.7-2.4-2.9l0,0L119.2,110.3z"/>
	<path class="st1" d="M140.7,112.9h-0.3c-2-0.1-3.5-1.8-3.4-3.8s1.8-3.5,3.8-3.4c2,0.1,3.5,1.8,3.4,3.8
		C144,111.3,142.5,112.8,140.7,112.9z M140.7,106.6c-1.5,0.1-2.7,1.3-2.6,2.8c0.1,1.5,1.3,2.7,2.8,2.6c1.5-0.1,2.7-1.3,2.6-2.8
		c-0.1-1.4-1.2-2.5-2.6-2.6H140.7z"/>
	<path class="st1" d="M80.5,113.9h-0.4c-2-0.1-3.5-1.8-3.4-3.8c0.1-2,1.8-3.5,3.8-3.4s3.5,1.8,3.4,3.8
		C83.9,112.3,82.4,113.8,80.5,113.9z M80.5,107.6c-1.5,0.1-2.6,1.3-2.5,2.8c0.1,1.5,1.3,2.6,2.8,2.5c1.5-0.1,2.6-1.3,2.5-2.8
		c-0.1-1.4-1.2-2.5-2.5-2.5l0,0H80.5z"/>
	<path class="st1" d="M157.9,136.7c-2,0-3.7-1.6-3.7-3.7s1.6-3.7,3.7-3.7c2,0,3.7,1.6,3.7,3.7c0,1.6-1.1,3.1-2.7,3.5l0,0
		C158.5,136.7,158.2,136.7,157.9,136.7z M157.9,130.4c-0.2,0-0.5,0-0.7,0.1c-1.4,0.4-2.3,1.8-1.9,3.2c0.4,1.4,1.8,2.3,3.2,1.9
		c0.1,0,0.1,0,0.2-0.1l0,0c1.4-0.4,2.2-1.8,1.8-3.2l0,0c-0.2-0.7-0.6-1.2-1.2-1.6C158.8,130.6,158.3,130.5,157.9,130.4L157.9,130.4z
		"/>
	<path class="st1" d="M137.1,175.4c-2,0.1-3.8-1.5-3.9-3.5c-0.1-2,1.5-3.8,3.5-3.9c0.1,0,0.2,0,0.4,0c0.6,0,1.2,0.2,1.8,0.5
		c1.8,1,2.4,3.2,1.4,5c-0.5,0.9-1.3,1.5-2.2,1.8l0,0C137.8,175.3,137.4,175.4,137.1,175.4z M137.1,169.1c-0.2,0-0.5,0-0.7,0.1
		c-1.4,0.5-2.1,1.9-1.7,3.3c0.4,1.3,1.8,2.1,3.1,1.7l0,0c1.4-0.4,2.2-1.9,1.8-3.2l0,0C139.3,169.8,138.2,169.1,137.1,169.1
		L137.1,169.1z"/>
	<g class="st2">
		<path class="st3" d="M123.7,214.6c-16.7,0-33-4.5-47.3-13.1c-0.2-0.1-0.3-0.4-0.2-0.7s0.4-0.3,0.7-0.2
			c43.2,25.9,99.3,11.9,125.3-31.3c25.9-43.2,11.9-99.3-31.3-125.3S71.5,32.2,45.6,75.4c-20.6,34.4-16.4,78.1,10.3,108
			c0.2,0.2,0.2,0.5,0,0.7c0,0,0,0,0,0c-0.2,0.2-0.5,0.2-0.7,0c-34-37.9-30.9-96.2,7-130.3s96.2-30.9,130.3,7s30.9,96.2-7,130.3
			c-14.7,13.2-33.2,21.3-52.8,23.2C129.7,214.5,126.7,214.6,123.7,214.6z"/>
		<path class="st3" d="M73.9,203c-2-0.1-3.6-1.8-3.5-3.9c0.1-1.9,1.6-3.4,3.5-3.5c0.6,0,1.2,0.2,1.8,0.5c1.8,1,2.4,3.2,1.4,5
			c-0.5,0.8-1.3,1.5-2.2,1.7l0,0C74.6,203,74.3,203,73.9,203z M73.9,196.7c-0.2,0-0.5,0-0.7,0.1c-1.4,0.5-2.1,2-1.6,3.3
			c0.4,1.3,1.8,2,3.1,1.7l0,0c1.4-0.4,2.2-1.9,1.8-3.2l0,0C76.1,197.5,75.1,196.7,73.9,196.7L73.9,196.7z"/>
	</g>
	<path class="st1" d="M172.4,127c-2-0.1-3.6-1.8-3.5-3.9c0.1-1.9,1.6-3.4,3.5-3.5c0.6,0,1.2,0.2,1.7,0.5c1.8,1,2.4,3.2,1.5,5
		C175,126.3,173.8,127,172.4,127L172.4,127z M172.4,120.7c-0.2,0-0.5,0-0.7,0.1c-1.4,0.4-2.2,1.8-1.8,3.2c0.4,1.4,1.8,2.2,3.2,1.8
		s2.2-1.8,1.8-3.2C174.7,121.5,173.6,120.7,172.4,120.7z"/>
	<path class="st1" d="M87.1,141.5H76.8c-0.3,0-0.5-0.2-0.5-0.5l0,0l0,0v-9.9c0-0.3,0.2-0.5,0.5-0.5h26.9c0.1,0,0.3,0.1,0.4,0.2
		c0.1,0.1,0.1,0.2,0.1,0.4c0,0.1-0.3,7.4,3.4,11.1c0.2,0.2,0.2,0.5,0,0.7l0,0c-0.2,0.2-0.5,0.2-0.8,0c-3.5-3.5-3.7-9.5-3.7-11.4
		H77.4v8.8h9.8c0.3,0,0.5,0.2,0.5,0.5l0,0C87.7,141.3,87.5,141.5,87.1,141.5C87.2,141.5,87.2,141.5,87.1,141.5z"/>
	<path class="st1" d="M154.5,133.6h-14.4c-0.3,0-0.5-0.2-0.5-0.5l0,0c0-10.1-4.6-13.5-4.7-13.6c-0.2-0.2-0.3-0.5-0.1-0.7
		c0.2-0.2,0.5-0.3,0.7-0.1c0,0,0,0,0,0l0,0c0.2,0.1,5,3.6,5.1,13.9h13.9c0.3,0,0.5,0.2,0.5,0.5C155,133.4,154.8,133.6,154.5,133.6
		L154.5,133.6z"/>
	<path class="st1" d="M164.3,172.7h-24.1c-0.3,0-0.5-0.2-0.5-0.5c0,0,0,0,0,0l0,0c0-0.3,0.2-0.5,0.5-0.5h24.1c0.3,0,0.5,0.2,0.5,0.5
		C164.8,172.5,164.6,172.7,164.3,172.7z"/>
	<path class="st1" d="M105,122.8H78c-0.3,0-0.5-0.2-0.5-0.5c0,0,0,0,0,0l0,0c0-0.3,0.2-0.5,0.5-0.5h26.7c0.8-1.7,4.5-9.2,11.3-9.2
		c0.3,0,0.5,0.2,0.5,0.5l0,0c0,0.3-0.2,0.5-0.5,0.5c-6.8,0-10.5,8.8-10.5,8.9C105.4,122.7,105.2,122.8,105,122.8z"/>
	<path class="st1" d="M107.1,111.1H83.7c-0.3,0-0.5-0.2-0.5-0.5c0-0.3,0.2-0.5,0.5-0.5c0,0,0,0,0,0h23.4c0.3,0,0.5,0.2,0.5,0.5
		C107.6,110.8,107.4,111.1,107.1,111.1C107.1,111.1,107.1,111.1,107.1,111.1z"/>
	<path class="st1" d="M167,126.3h-19.9c-0.3,0-0.5-0.2-0.5-0.5c0-0.3,0.2-0.5,0.5-0.5l0,0h19.4v-11.6c0.1-2.3-1.7-4.1-4-4.2
		c0,0,0,0,0,0h-18.4c-0.3,0-0.5-0.2-0.5-0.5c0-0.3,0.2-0.5,0.5-0.5h18.4c0.1,0,5.2,0.1,5.2,5.3v12.1
		C167.6,126,167.4,126.3,167,126.3C167.1,126.3,167.1,126.3,167,126.3L167,126.3z"/>
	<path class="st1" d="M96.7,89.6h-6.3c-0.3,0-0.5-0.2-0.5-0.5c0,0,0,0,0,0l0,0c0-12.5,3.8-17.7,4-17.9c0.2-0.2,0.5-0.3,0.7-0.1
		c0.2,0.2,0.3,0.5,0.1,0.7l0,0c0,0.1-3.6,5-3.7,16.8h5.2c-0.1-1.6-0.3-6.4,0.9-9.7c0.1-0.3,0.4-0.4,0.6-0.3c0,0,0,0,0,0l0,0
		c0.3,0.1,0.4,0.4,0.3,0.7c-1.3,3.7-0.8,9.7-0.8,9.8c0,0.1,0,0.3-0.1,0.4C97,89.5,96.9,89.6,96.7,89.6z"/>
	<path class="st1" d="M142.9,72.8c-0.2,0-0.4-0.1-0.5-0.3c-0.1-0.1-6.9-11.6-21-11.6s-18.2,9.4-18.3,9.5c-0.1,0.3-0.4,0.4-0.7,0.3
		c-0.3-0.1-0.4-0.4-0.3-0.7c0,0,0,0,0,0c0-0.1,4.5-10.1,19.2-10.1s21.9,12,21.9,12.2c0.1,0.3,0.1,0.6-0.2,0.7
		C143,72.8,142.9,72.8,142.9,72.8z"/>
	<path class="st1" d="M154.9,89.7h-8.6c-0.3,0-0.5-0.2-0.5-0.5c0,0,0,0,0,0l0,0c0-0.3,0.2-0.5,0.5-0.5c0,0,0,0,0,0h8
		c0.1-3.2,0.2-21.9-15-30.3c-16.7-9.2-31.9-0.4-32.1-0.4c-0.2,0.1-0.6,0.1-0.7-0.2c0,0,0,0,0,0l0,0c-0.2-0.2-0.1-0.6,0.2-0.7
		c0,0,0,0,0,0c0.2-0.1,16-9.1,33.2,0.3s15.5,31.5,15.5,31.7C155.3,89.5,155.1,89.7,154.9,89.7z"/>
	<g class="st2">
		<path class="st3" d="M173.2,148.6v-16.9c0-0.3-0.2-0.5-0.5-0.5l0,0c-0.3,0-0.5,0.2-0.5,0.5v16.8H173.2z"/>
		<path class="st3" d="M72.6,148.6v-23.2c0-0.3-0.2-0.5-0.5-0.5c-0.3,0-0.5,0.2-0.5,0.5v23.2H72.6z"/>
		<path class="st3" d="M172.2,165.6v4.5c0,5.5-4.5,10-10,10H82.5c-5.5,0-9.9-4.5-10-10v-4.5h-1v4.5c0,6.1,4.9,11,11,11h79.7
			c6.1,0,11-4.9,11-11v-4.5H172.2z"/>
	</g>
	<g class="st2">
		<path class="st3" d="M117,141.9l-1.1,6.7h1.1l1.2-6.9c0-0.2-0.1-0.4-0.3-0.6c-4.9-2.4-6.9-8.4-4.5-13.3c0.8-1.7,2.1-3.1,3.7-4.1
			l0,0c0.3-0.1,0.4-0.4,0.2-0.7c-0.1-0.3-0.4-0.4-0.7-0.2c0,0-0.1,0-0.1,0c-5.2,3.1-6.8,9.9-3.7,15.1
			C113.9,139.6,115.3,141,117,141.9L117,141.9z"/>
		<path class="st3" d="M128.8,148.6l-1.1-6.7c0.9-0.5,1.8-1.2,2.5-1.9c4.3-4.3,4.3-11.2,0-15.5c-0.2-0.2-0.5-0.2-0.7,0.1
			c-0.2,0.2-0.2,0.5,0,0.7c3.9,3.9,3.8,10.2-0.1,14c-0.7,0.7-1.6,1.4-2.5,1.8c-0.2,0.1-0.3,0.3-0.3,0.6l1.2,6.9L128.8,148.6z"/>
	</g>
	<path class="st1" d="M178.4,165.8H65.9c-0.3,0-0.5-0.2-0.5-0.5v-16.9c0-0.3,0.2-0.5,0.5-0.5h112.5c0.3,0,0.5,0.2,0.5,0.5v16.9
		C178.8,165.6,178.6,165.8,178.4,165.8z M66.3,164.9h111.5v-15.9H66.4L66.3,164.9z"/>
	<g class="st4">
		<path class="st3" d="M80.5,160.3c0-0.2,0-0.5,0.1-0.7c0-0.2,0.1-0.5,0.2-0.7c0.1-0.3,0.3-0.5,0.5-0.7c0.3-0.2,0.6-0.5,0.9-0.6
			l0.6-0.3c0.2-0.1,0.4-0.2,0.6-0.3c0.2-0.1,0.3-0.3,0.4-0.4c0.1-0.2,0.2-0.3,0.2-0.5c0-0.1,0-0.3-0.1-0.4c-0.1-0.1-0.1-0.2-0.3-0.3
			c-0.1-0.1-0.3-0.2-0.4-0.2c-0.4-0.1-0.8-0.1-1.2,0c-0.2,0.1-0.3,0.1-0.5,0.2c-0.1,0.1-0.2,0.2-0.4,0.3l-0.2,0.2l-0.5-0.5l0.2-0.2
			c0.1-0.1,0.3-0.2,0.5-0.3c0.2-0.1,0.4-0.2,0.7-0.3c0.3-0.1,0.6-0.1,0.9-0.1c0.3,0,0.6,0,0.8,0.1c0.2,0.1,0.4,0.2,0.6,0.4
			c0.2,0.1,0.3,0.3,0.4,0.5c0.2,0.4,0.2,0.9,0,1.4c-0.1,0.2-0.3,0.4-0.5,0.5c-0.2,0.2-0.4,0.3-0.6,0.4c-0.2,0.1-0.4,0.2-0.6,0.3
			c-0.2,0.1-0.4,0.2-0.7,0.3c-0.2,0.1-0.4,0.2-0.6,0.4c-0.2,0.1-0.3,0.3-0.4,0.5c-0.1,0.2-0.2,0.4-0.2,0.6H85v0.6L80.5,160.3z"/>
		<path class="st3" d="M88.3,157c0.3,0,0.6,0.1,1,0.2c0.3,0.1,0.5,0.3,0.8,0.5c0.2,0.2,0.4,0.5,0.5,0.7c0.3,0.6,0.3,1.3,0,1.9
			c-0.1,0.3-0.3,0.6-0.6,0.8c-0.2,0.2-0.5,0.4-0.8,0.5c-0.3,0.1-0.7,0.2-1,0.2c-0.3,0-0.5,0-0.8-0.1c-0.2-0.1-0.5-0.2-0.7-0.3
			c-0.2-0.1-0.4-0.3-0.5-0.4c-0.2-0.2-0.3-0.4-0.4-0.6l0.5-0.4c0.2,0.3,0.5,0.6,0.8,0.8c0.3,0.2,0.7,0.3,1.1,0.3
			c0.2,0,0.5,0,0.7-0.1c0.2-0.1,0.4-0.2,0.6-0.4c0.2-0.2,0.3-0.4,0.4-0.6c0.1-0.2,0.1-0.5,0.1-0.7c0-0.2,0-0.5-0.1-0.7
			c-0.1-0.2-0.2-0.4-0.4-0.5c-0.2-0.2-0.4-0.3-0.6-0.4c-0.2-0.1-0.5-0.1-0.7-0.1c-0.3,0-0.7,0.1-1,0.2c-0.3,0.1-0.5,0.4-0.7,0.6H86
			l0.1-0.3c0-0.1,0.1-0.3,0.1-0.5c0-0.2,0.1-0.4,0.1-0.7l0.1-0.7c0.1-0.6,0.2-1.2,0.4-1.9h3.6v0.7h-3l-0.5,2.6
			c0.2-0.2,0.4-0.3,0.7-0.5C87.7,157.1,88,157,88.3,157z"/>
		<path class="st3" d="M96.9,157.8c0,0.3-0.1,0.6-0.2,1c-0.1,0.3-0.3,0.6-0.6,0.8c-0.2,0.2-0.5,0.4-0.8,0.5c-0.3,0.1-0.7,0.2-1,0.2
			c-0.4,0-0.7-0.1-1.1-0.2c-0.3-0.1-0.6-0.3-0.8-0.6c-0.2-0.3-0.4-0.6-0.5-1c-0.1-0.4-0.2-0.9-0.2-1.3c0-0.7,0.1-1.3,0.2-2
			c0.1-0.5,0.3-1,0.6-1.4c0.2-0.3,0.5-0.6,0.9-0.8c0.3-0.2,0.7-0.3,1.1-0.3c0.5,0,0.9,0.1,1.3,0.4c0.4,0.2,0.7,0.6,0.9,1l-0.5,0.4
			c-0.1-0.3-0.4-0.6-0.7-0.8c-0.3-0.2-0.7-0.3-1.1-0.3c-0.3,0-0.6,0.1-0.8,0.2c-0.3,0.2-0.5,0.4-0.6,0.6c-0.2,0.3-0.3,0.7-0.4,1
			c-0.1,0.4-0.2,0.9-0.2,1.4c0.1-0.4,0.4-0.7,0.8-1c0.4-0.2,0.8-0.4,1.3-0.4c0.3,0,0.6,0.1,1,0.2c0.3,0.1,0.6,0.3,0.8,0.5
			c0.2,0.2,0.4,0.5,0.5,0.8C96.8,157.2,96.9,157.5,96.9,157.8z M94.3,159.7c0.5,0,1-0.2,1.3-0.6c0.2-0.2,0.3-0.4,0.4-0.6
			c0.1-0.2,0.2-0.5,0.2-0.7c0-0.3-0.1-0.5-0.2-0.7c-0.1-0.2-0.2-0.4-0.4-0.6c-0.2-0.2-0.4-0.3-0.6-0.4c-0.5-0.2-1-0.2-1.5,0
			c-0.2,0.1-0.4,0.2-0.6,0.4c-0.2,0.2-0.3,0.4-0.4,0.6c-0.1,0.2-0.2,0.5-0.2,0.7c0,0.3,0.1,0.5,0.2,0.7c0.1,0.2,0.2,0.4,0.4,0.6
			c0.2,0.2,0.4,0.3,0.6,0.4C93.8,159.7,94.1,159.7,94.3,159.7L94.3,159.7z"/>
		<path class="st3" d="M103.4,160.4c-0.4,0-0.8-0.1-1.2-0.3c-0.3-0.2-0.6-0.5-0.8-0.8v1h-0.6v-7.6h0.7v3.3c0.2-0.3,0.5-0.6,0.9-0.9
			c0.4-0.2,0.8-0.3,1.2-0.3c0.4,0,0.7,0.1,1,0.2c0.3,0.2,0.6,0.4,0.8,0.6c0.2,0.3,0.4,0.6,0.5,0.9c0.1,0.3,0.2,0.7,0.2,1
			c0,0.4-0.1,0.7-0.2,1.1c-0.1,0.3-0.3,0.6-0.5,0.9c-0.2,0.3-0.5,0.5-0.8,0.6C104.2,160.3,103.8,160.4,103.4,160.4z M103.3,159.7
			c0.3,0,0.6-0.1,0.8-0.2c0.2-0.1,0.5-0.3,0.6-0.5c0.2-0.2,0.3-0.4,0.4-0.7c0.1-0.3,0.2-0.5,0.2-0.8c0-0.3,0-0.6-0.1-0.8
			c-0.1-0.3-0.2-0.5-0.4-0.7c-0.2-0.2-0.4-0.4-0.6-0.5c-0.2-0.1-0.5-0.2-0.8-0.2c-0.2,0-0.4,0-0.6,0.1c-0.2,0.1-0.4,0.2-0.5,0.3
			c-0.2,0.1-0.3,0.3-0.4,0.4c-0.1,0.2-0.2,0.3-0.3,0.5v1.7c0,0.2,0.1,0.4,0.2,0.5c0.1,0.2,0.3,0.3,0.4,0.4c0.2,0.1,0.4,0.2,0.6,0.3
			C102.9,159.7,103.1,159.7,103.3,159.7L103.3,159.7z"/>
		<path class="st3" d="M107.2,153.7v-1h0.7v1H107.2z M107.2,160.3v-5.4h0.7v5.4H107.2z"/>
		<path class="st3" d="M112,160l-0.2,0.1c-0.1,0-0.2,0.1-0.3,0.1c-0.1,0-0.2,0.1-0.4,0.1c-0.1,0-0.3,0-0.4,0c-0.1,0-0.3,0-0.4-0.1
			c-0.1,0-0.3-0.1-0.4-0.2c-0.1-0.1-0.2-0.2-0.2-0.3c-0.1-0.1-0.1-0.3-0.1-0.5v-3.9h-0.7v-0.6h0.7V153h0.7v1.8h1.2v0.6h-1.2v3.7
			c0,0.2,0.1,0.3,0.2,0.4c0.1,0.1,0.3,0.1,0.4,0.1c0.2,0,0.4,0,0.5-0.1l0.3-0.1L112,160z"/>
		<path class="st3" d="M117.9,160.4c-0.4,0-0.7-0.1-1.1-0.2c-0.3-0.1-0.6-0.4-0.9-0.6c-0.2-0.3-0.4-0.6-0.6-0.9
			c-0.1-0.3-0.2-0.7-0.2-1.1c0-0.7,0.3-1.4,0.8-2c0.2-0.3,0.5-0.5,0.9-0.6c0.7-0.3,1.5-0.3,2.2,0c0.3,0.1,0.6,0.4,0.8,0.6
			c0.5,0.5,0.7,1.2,0.8,1.9v0.2c0,0.1,0,0.1,0,0.1h-4.6c0,0.3,0.1,0.6,0.2,0.8c0.1,0.2,0.3,0.5,0.4,0.6c0.2,0.2,0.4,0.3,0.6,0.4
			c0.2,0.1,0.5,0.2,0.7,0.2c0.2,0,0.3,0,0.5-0.1c0.2,0,0.3-0.1,0.5-0.2c0.1-0.1,0.3-0.2,0.4-0.3c0.1-0.1,0.2-0.2,0.3-0.4l0.6,0.2
			c-0.1,0.2-0.2,0.4-0.4,0.5c-0.3,0.3-0.7,0.6-1.2,0.7C118.4,160.3,118.1,160.3,117.9,160.4z M119.9,157.3c0-0.3-0.1-0.5-0.2-0.8
			c-0.1-0.2-0.3-0.4-0.4-0.6c-0.4-0.3-0.9-0.5-1.4-0.5c-0.3,0-0.5,0-0.7,0.1c-0.2,0.1-0.4,0.2-0.6,0.4c-0.2,0.2-0.3,0.4-0.4,0.6
			c-0.1,0.2-0.2,0.5-0.2,0.8H119.9z"/>
		<path class="st3" d="M126.2,160.3h-0.7v-3c0-0.5-0.1-1-0.3-1.4c-0.2-0.3-0.5-0.5-0.9-0.4c-0.2,0-0.4,0-0.6,0.1
			c-0.2,0.1-0.4,0.2-0.6,0.3c-0.2,0.1-0.3,0.3-0.5,0.5c-0.1,0.2-0.2,0.4-0.3,0.6v3.3h-0.7v-5.4h0.6v1.2c0.2-0.4,0.6-0.7,1-1
			c0.4-0.2,0.9-0.4,1.3-0.4c0.3,0,0.5,0,0.8,0.2c0.2,0.1,0.4,0.3,0.5,0.5c0.1,0.2,0.2,0.5,0.3,0.7c0.1,0.3,0.1,0.6,0.1,1
			L126.2,160.3z"/>
		<path class="st3" d="M127.3,157.5c0-0.4,0.1-0.7,0.2-1.1c0.2-0.7,0.8-1.2,1.4-1.5c0.3-0.2,0.7-0.2,1.1-0.2c0.5,0,0.9,0.1,1.3,0.3
			c0.4,0.2,0.7,0.6,0.9,1l-0.7,0.2c-0.1-0.3-0.4-0.5-0.6-0.6c-0.5-0.3-1.1-0.3-1.7-0.1c-0.2,0.1-0.5,0.3-0.6,0.4
			c-0.2,0.2-0.3,0.4-0.4,0.7c-0.1,0.3-0.2,0.6-0.2,0.9c0,0.3,0.1,0.6,0.2,0.9c0.1,0.3,0.2,0.5,0.4,0.7c0.2,0.2,0.4,0.4,0.6,0.5
			c0.2,0.1,0.5,0.2,0.8,0.2c0.2,0,0.3,0,0.5-0.1c0.2,0,0.3-0.1,0.5-0.2c0.1-0.1,0.3-0.2,0.4-0.3c0.1-0.1,0.2-0.2,0.2-0.4l0.7,0.2
			c-0.1,0.2-0.2,0.4-0.3,0.5c-0.1,0.2-0.3,0.3-0.5,0.4c-0.2,0.1-0.4,0.2-0.7,0.3c-0.2,0.1-0.5,0.1-0.7,0.1c-0.4,0-0.7-0.1-1.1-0.2
			c-0.3-0.1-0.6-0.3-0.9-0.6c-0.2-0.3-0.4-0.6-0.6-0.9C127.4,158.3,127.3,157.9,127.3,157.5z"/>
		<path class="st3" d="M136.1,155.5c-0.4,0-0.9,0.1-1.2,0.4c-0.4,0.3-0.6,0.6-0.8,1v3.4h-0.7v-5.4h0.7v1.3c0.2-0.4,0.5-0.7,0.8-1
			c0.3-0.2,0.7-0.3,1.1-0.4h0.1V155.5z"/>
		<path class="st3" d="M137.3,161.9h0.2h0.2c0.1,0,0.2,0,0.3-0.1c0.1-0.1,0.2-0.1,0.2-0.2c0.1-0.2,0.2-0.3,0.2-0.5
			c0.1-0.2,0.2-0.5,0.4-0.9l-2.4-5.4h0.7l2,4.8l1.9-4.8h0.7l-2.8,7c-0.1,0.2-0.2,0.4-0.4,0.5c-0.2,0.2-0.5,0.2-0.7,0.2h-0.2h-0.2
			L137.3,161.9z"/>
		<path class="st3" d="M145.4,160.4c-0.4,0-0.9-0.1-1.2-0.4c-0.3-0.2-0.6-0.5-0.8-0.9v3.3h-0.7v-7.6h0.6v1c0.2-0.3,0.5-0.6,0.9-0.8
			c0.3-0.2,0.7-0.3,1.2-0.3c0.4,0,0.7,0.1,1,0.2c0.3,0.2,0.6,0.4,0.8,0.6c0.2,0.3,0.4,0.6,0.5,0.9c0.1,0.3,0.2,0.7,0.2,1
			c0,0.4-0.1,0.7-0.2,1.1c-0.1,0.3-0.3,0.6-0.5,0.9c-0.2,0.3-0.5,0.5-0.8,0.6C146.1,160.3,145.7,160.4,145.4,160.4z M145.2,159.7
			c0.3,0,0.6-0.1,0.8-0.2c0.2-0.1,0.4-0.3,0.6-0.5c0.2-0.2,0.3-0.4,0.4-0.7c0.1-0.3,0.1-0.5,0.1-0.8c0-0.6-0.2-1.1-0.6-1.5
			c-0.2-0.2-0.4-0.4-0.6-0.5c-0.2-0.1-0.5-0.2-0.8-0.2c-0.2,0-0.4,0-0.6,0.1c-0.2,0.1-0.4,0.2-0.6,0.3c-0.2,0.1-0.3,0.3-0.4,0.4
			c-0.1,0.2-0.2,0.3-0.2,0.5v1.7c0.1,0.2,0.2,0.4,0.3,0.5c0.1,0.2,0.3,0.3,0.4,0.4c0.2,0.1,0.3,0.2,0.5,0.3
			C144.8,159.7,145,159.7,145.2,159.7z"/>
		<path class="st3" d="M151.5,160l-0.2,0.1c-0.1,0-0.2,0.1-0.3,0.1c-0.1,0-0.2,0.1-0.4,0.1c-0.1,0-0.3,0-0.4,0c-0.1,0-0.3,0-0.4-0.1
			c-0.1,0-0.3-0.1-0.4-0.2c-0.1-0.1-0.2-0.2-0.2-0.3c-0.1-0.1-0.1-0.3-0.1-0.5v-3.9h-0.7v-0.6h0.7V153h0.7v1.8h1.2v0.6h-1.2v3.7
			c0,0.2,0.1,0.3,0.2,0.4c0.1,0.1,0.3,0.1,0.4,0.1c0.2,0,0.4,0,0.5-0.1l0.3-0.1L151.5,160z"/>
		<path class="st3" d="M152.4,153.7v-1h0.7v1H152.4z M152.4,160.3v-5.4h0.7v5.4H152.4z"/>
		<path class="st3" d="M157,160.4c-0.4,0-0.7-0.1-1.1-0.2c-0.3-0.1-0.6-0.3-0.8-0.6c-0.2-0.3-0.4-0.6-0.6-0.9
			c-0.3-0.7-0.3-1.5,0-2.1c0.1-0.3,0.3-0.6,0.6-0.9c0.2-0.3,0.5-0.5,0.8-0.6c0.7-0.3,1.5-0.3,2.1,0c0.3,0.1,0.6,0.4,0.9,0.6
			c0.2,0.3,0.4,0.6,0.6,0.9c0.3,0.7,0.3,1.5,0,2.1c-0.1,0.3-0.3,0.6-0.6,0.9C158.4,160.1,157.7,160.4,157,160.4L157,160.4z
			 M155,157.6c0,0.3,0.1,0.6,0.2,0.8c0.1,0.3,0.2,0.5,0.4,0.7c0.2,0.2,0.4,0.4,0.6,0.5c0.2,0.1,0.5,0.2,0.8,0.2
			c0.3,0,0.5-0.1,0.8-0.2c0.2-0.1,0.5-0.3,0.6-0.5c0.2-0.2,0.3-0.4,0.4-0.7c0.2-0.5,0.2-1.2,0-1.7c-0.1-0.3-0.2-0.5-0.4-0.7
			c-0.2-0.2-0.4-0.3-0.6-0.5c-0.2-0.1-0.5-0.2-0.8-0.2c-0.3,0-0.5,0.1-0.8,0.2c-0.2,0.1-0.5,0.3-0.6,0.5c-0.2,0.2-0.3,0.4-0.4,0.7
			C155.1,157,155,157.3,155,157.6z"/>
		<path class="st3" d="M165.4,160.3h-0.7v-3c0-0.5-0.1-1-0.3-1.4c-0.2-0.3-0.5-0.5-0.9-0.4c-0.2,0-0.4,0-0.6,0.1
			c-0.2,0.1-0.4,0.2-0.6,0.3c-0.2,0.1-0.3,0.3-0.5,0.5c-0.1,0.2-0.2,0.4-0.3,0.6v3.3h-0.7v-5.4h0.6v1.2c0.2-0.4,0.6-0.7,1-1
			c0.4-0.2,0.9-0.4,1.3-0.4c0.3,0,0.5,0,0.8,0.2c0.2,0.1,0.4,0.3,0.5,0.5c0.1,0.2,0.2,0.5,0.3,0.7c0.1,0.3,0.1,0.6,0.1,1
			L165.4,160.3z"/>
	</g>
	<path class="st0" d="M229.4,132.6l11.6-0.9l0.3-7.7l-11.4-1.6l-2.3-1.3c-0.1-3.6-0.4-7.2-0.9-10.8l2-1.3l11.1-3.5l-1.5-7.5l-11.5,1
		l-2.5-0.8c-0.8-3-1.7-6.1-2.7-9l1.7-1.7l10.3-5.6l-2.9-7.1l-11.1,3.3l-2.6-0.3c-0.2-0.4-0.4-0.8-0.5-1.2c-1.3-2.6-2.8-5.2-4.3-7.6
		l1.3-2l8.7-7.7l-4.3-6.3l-10.1,5.6l-2.6,0.3c-1.9-2.4-3.9-4.7-6-6.9l0.9-2.2l6.9-9.3l-5.5-5.4l-8.7,7.6l-2.5,0.9
		c-2.4-2-4.9-3.9-7.5-5.7l0.4-2.3l4.9-10.5l-6.5-4l-6.9,9.2l-2.3,1.3c-3-1.6-6-3-9.1-4.2l-0.2-2.4l2.5-11.4l-7.2-2.6l-4.9,10.5
		l-1.9,1.8c-2.5-0.7-5-1.3-7.6-1.8l-0.6-2.3l0.3-11.6l-7.6-1.1L133,17.6l-1.5,2.1c-3.1-0.2-6.3-0.3-9.4-0.3l-1.1-2.1l-2.1-11.4
		l-7.6,0.5L110.9,18l-1.1,2.4c-3.3,0.4-6.6,1-9.9,1.8l-1.5-1.9L93.9,9.5l-7.4,2.1l2.1,11.4l-0.6,2.6c-2.7,1-5.4,2.1-8,3.3l-1.9-1.5
		l-6.6-9.6l-6.8,3.6l4.3,10.7v2.7c-2.7,1.6-5.3,3.4-7.8,5.2l-2.1-1.1l-8.4-8l-5.9,4.9l6.5,9.6l0.5,2.6c-2.4,2.3-4.8,4.8-7,7.3
		l-2.3-0.6l-9.9-6l-4.8,6l8.4,8l1.1,2.4c-1.5,2.2-2.9,4.5-4.3,6.8l-2.4-0.2l-10.8-4l-3.5,6.9l9.8,6.2l1.5,2.2
		c-1.2,2.9-2.3,5.8-3.3,8.8L22,92l-11.5-1.6l-2,7.4l10.8,4l1.9,1.8c-0.6,3.3-1.1,6.6-1.5,9.9l-2.3,0.9L6,115.3l-0.3,7.6l11.4,1.6
		l2.2,1.3c0.1,3.6,0.4,7.2,0.8,10.8l-2,1.3L7,141.5l1.4,7.5l11.5-1l2.5,0.8c0.8,3,1.7,6,2.7,9l-1.7,1.7l-10.2,5.6l2.9,7.1l11.1-3.4
		l2.6,0.3c0.2,0.4,0.4,0.8,0.6,1.2c1.3,2.6,2.8,5.2,4.3,7.6l-1.3,2l-8.7,7.7L29,194l10.1-5.6l2.6-0.3c1.9,2.4,3.9,4.7,6,6.9
		l-0.9,2.2l-6.9,9.3l5.6,5.3l8.7-7.5l2.5-0.9c2.4,2,4.9,3.9,7.5,5.7l-0.4,2.3L59.1,222l6.5,4l7-9.2l2.3-1.3c3,1.6,6,3,9.1,4.2
		l0.1,2.4l-2.5,11.4l7.2,2.5l4.9-10.5l1.9-1.8c2.5,0.7,5,1.3,7.6,1.8l0.6,2.3l-0.3,11.6l7.6,1.1l2.7-11.2l1.6-2.1
		c3.1,0.2,6.3,0.3,9.4,0.3l1.1,2.1l2.1,11.4l7.7-0.5l0.4-11.5l1.1-2.4c3.3-0.4,6.7-1,10-1.8l1.5,1.9l4.5,10.7l7.4-2.1l-2.1-11.4
		l0.6-2.6c2.7-1,5.4-2.1,8-3.3l1.9,1.5l6.6,9.5l6.8-3.6l-4.4-10.6v-2.6c2.7-1.7,5.3-3.4,7.8-5.2l2.1,1.1l8.4,8l5.9-4.9l-6.4-9.7
		l-0.5-2.6c2.4-2.3,4.8-4.7,7-7.3l2.3,0.6l9.9,6.1l4.8-6.1l-8.4-8l-1-2.4c1.5-2.2,2.9-4.5,4.3-6.8l2.4,0.2l10.9,4l3.5-6.8l-9.8-6.2
		l-1.5-2.2c1.2-2.9,2.3-5.8,3.3-8.8l2.4-0.3l11.4,1.7l1.9-7.4l-10.8-4l-1.9-1.8c0.6-3.3,1.1-6.6,1.4-9.9L229.4,132.6z M123.2,219.7
		c-53.2,0-96.3-43.1-96.3-96.3C26.9,70.1,70,27,123.2,27c53.2,0,96.3,43.1,96.3,96.3c0,0,0,0,0,0
		C219.5,176.5,176.4,219.6,123.2,219.7z"/>
</g>
</svg>
